<svg width="334" height="209" viewBox="0 0 334 209" fill="none" xmlns="http://www.w3.org/2000/svg">
<g filter="url(#filter0_d_104_1047)">
<rect x="20" width="314" height="189" rx="40" fill="#F9A320"/>
<path d="M86.4121 55.9C96.4121 55.9 103.945 57.5667 109.012 60.9C114.145 64.1667 116.712 69.3667 116.712 76.5C116.712 84.0333 114.045 89.8333 108.712 93.9C103.445 97.9 95.8454 99.9 85.9121 99.9H83.5121V113.6C83.5121 118.6 84.1454 122.567 85.4121 125.5C84.6788 126.233 83.6454 126.9 82.3121 127.5C81.0454 128.1 79.5788 128.4 77.9121 128.4C75.7121 128.4 73.9121 127.8 72.5121 126.6C71.1121 125.4 70.4121 123.767 70.4121 121.7V71.5C70.4121 66.4333 69.7788 62.2333 68.5121 58.9C72.6454 56.9 78.6121 55.9 86.4121 55.9ZM85.3121 95.4C91.3788 95.4 95.7121 93.8333 98.3121 90.7C100.979 87.5667 102.312 83.1667 102.312 77.5C102.312 66.1667 97.1121 60.5 86.7121 60.5C85.1788 60.5 84.1121 60.5333 83.5121 60.6V95.4H85.3121ZM141.715 120C146.049 119.933 150.549 119.367 155.215 118.3C159.949 117.233 163.682 115.967 166.415 114.5C167.215 115.033 167.815 115.933 168.215 117.2C168.682 118.467 168.915 119.8 168.915 121.2C168.915 122.8 168.615 124.167 168.015 125.3C167.482 126.433 166.682 127 165.615 127H136.115C133.915 127 132.115 126.4 130.715 125.2C129.315 124 128.615 122.367 128.615 120.3V71.5C128.615 66.4333 127.982 62.2333 126.715 58.9C127.449 58.1667 128.449 57.5 129.715 56.9C131.049 56.3 132.549 56 134.215 56C136.415 56 138.182 56.6 139.515 57.8C140.915 59 141.615 60.6333 141.615 62.7L141.715 120ZM229.206 119.2C230.006 121.933 231.073 124 232.406 125.4C230.673 127.4 228.106 128.4 224.706 128.4C222.639 128.4 220.873 127.967 219.406 127.1C218.006 126.233 217.139 124.967 216.806 123.3L212.306 106.5H189.706L186.406 119.4C185.939 121.133 185.706 122.6 185.706 123.8C185.706 125.2 186.073 126.267 186.806 127C185.539 127.467 184.373 127.8 183.306 128C182.306 128.267 181.073 128.4 179.606 128.4C177.073 128.4 175.206 127.967 174.006 127.1C172.873 126.233 172.306 124.833 172.306 122.9C172.306 121.3 172.739 119.033 173.606 116.1L193.306 57.6C196.973 56.4 200.639 55.8 204.306 55.8C208.306 55.8 210.673 57.2333 211.406 60.1L229.206 119.2ZM210.406 99.4L200.806 63.6L191.506 99.4H210.406ZM269.011 100.8V112.9C269.011 117.967 269.644 122.167 270.911 125.5C270.177 126.233 269.144 126.9 267.811 127.5C266.477 128.1 265.011 128.4 263.411 128.4C261.211 128.4 259.411 127.8 258.011 126.6C256.611 125.4 255.911 123.767 255.911 121.7V100.8C255.177 99.8667 254.444 98.6333 253.711 97.1L238.211 67C236.744 64.2667 235.111 62.0333 233.311 60.3C234.311 59.3 235.611 58.4 237.211 57.6C238.811 56.7333 240.611 56.3 242.611 56.3C245.011 56.3 246.844 56.9 248.111 58.1C249.377 59.3 250.577 61.1333 251.711 63.6L265.011 92.2L277.111 65.4C277.844 63.8667 278.211 62.4333 278.211 61.1C278.211 60.4333 278.077 59.8 277.811 59.2C277.611 58.5333 277.311 58 276.911 57.6C278.977 56.7333 281.444 56.3 284.311 56.3C286.311 56.3 287.811 56.8333 288.811 57.9C289.811 58.9 290.344 60.2333 290.411 61.9C290.411 62.9 290.111 64.1333 289.511 65.6C288.977 67 288.244 68.4333 287.311 69.9L269.011 100.8Z" fill="#5F1B98"/>
</g>
<defs>
<filter id="filter0_d_104_1047" x="0" y="0" width="334" height="209" filterUnits="userSpaceOnUse" color-interpolation-filters="sRGB">
<feFlood flood-opacity="0" result="BackgroundImageFix"/>
<feColorMatrix in="SourceAlpha" type="matrix" values="0 0 0 0 0 0 0 0 0 0 0 0 0 0 0 0 0 0 127 0" result="hardAlpha"/>
<feOffset dx="-20" dy="20"/>
<feComposite in2="hardAlpha" operator="out"/>
<feColorMatrix type="matrix" values="0 0 0 0 0.372549 0 0 0 0 0.105882 0 0 0 0 0.596078 0 0 0 1 0"/>
<feBlend mode="normal" in2="BackgroundImageFix" result="effect1_dropShadow_104_1047"/>
<feBlend mode="normal" in="SourceGraphic" in2="effect1_dropShadow_104_1047" result="shape"/>
</filter>
</defs>
</svg>
