<svg width="55" height="48" viewBox="0 0 55 48" fill="none" xmlns="http://www.w3.org/2000/svg">
<path d="M27.5 20L21 23.5L27 28.5L34 23.5L27.5 20Z" fill="#643513"/>
<path d="M27.5 20V5.5L46 16L35 24L27.5 20Z" fill="#733E15"/>
<path d="M27.5 20V5.5L9 16.5L20.5 24L27.5 20Z" fill="#8D5122"/>
<path d="M27.5 48V27L45.5 24V37.5L27.5 48Z" fill="#A67E4F"/>
<path d="M27.5 48V27L9 21V37.5L27.5 48Z" fill="#926E43"/>
<path d="M45.5 16L27.5 5.5L9.32974 16.3039L27.5 27L46 16L55 21.5L37 32.5L27.5 27L18.5 32.5L0 21.5L9 16.5L0 11L18.5 0L27.5 5.5L37 0L55 11L45.5 16Z" fill="#D9AC80"/>
</svg>
