<svg width="544" height="295" viewBox="0 0 544 295" fill="none" xmlns="http://www.w3.org/2000/svg">
<rect width="544" height="295" rx="30" fill="white"/>
<path d="M24.8 52.42C24.14 52.42 23.6 52.24 23.18 51.88C22.76 51.52 22.55 51.03 22.55 50.41V35.35C22.55 33.83 22.36 32.57 21.98 31.57C22.2 31.35 22.5 31.15 22.88 30.97C23.28 30.79 23.73 30.7 24.23 30.7C24.89 30.7 25.43 30.88 25.85 31.24C26.27 31.6 26.48 32.09 26.48 32.71V47.77C26.48 49.35 26.67 50.61 27.05 51.55C26.83 51.77 26.52 51.97 26.12 52.15C25.74 52.33 25.3 52.42 24.8 52.42ZM50.6495 47.77C50.6495 49.29 50.8395 50.55 51.2195 51.55C50.5595 52.13 49.8295 52.42 49.0295 52.42C48.3895 52.42 47.8595 52.24 47.4395 51.88C47.0195 51.52 46.8095 51.03 46.8095 50.41V42.76C46.8095 41.1 46.6395 39.88 46.2995 39.1C45.9795 38.32 45.3895 37.93 44.5295 37.93C43.5495 37.93 42.7595 38.53 42.1595 39.73C41.5595 40.93 41.2595 42.66 41.2595 44.92C41.2595 47.12 41.2895 48.6 41.3495 49.36C41.4095 50.1 41.5995 50.84 41.9195 51.58C41.7195 51.78 41.4195 51.97 41.0195 52.15C40.6395 52.33 40.2095 52.42 39.7295 52.42C39.0695 52.42 38.5295 52.22 38.1095 51.82C37.6895 51.42 37.4795 50.89 37.4795 50.23L37.4495 32.05C37.4495 31.39 37.6395 30.89 38.0195 30.55C38.3995 30.21 38.8995 30.04 39.5195 30.04C39.9995 30.04 40.4595 30.13 40.8995 30.31C41.3395 30.49 41.6795 30.68 41.9195 30.88C41.6595 31.72 41.4895 32.66 41.4095 33.7C41.3295 34.74 41.2795 36.12 41.2595 37.84V39.16C42.0995 37.12 43.6195 36.1 45.8195 36.1C47.4595 36.1 48.6695 36.61 49.4495 37.63C50.2495 38.63 50.6495 40.14 50.6495 42.16V47.77ZM68.9288 49C69.1888 49.38 69.3188 49.79 69.3188 50.23C69.3188 50.81 69.0688 51.3 68.5688 51.7C68.0688 52.1 67.3988 52.3 66.5588 52.3C65.5988 52.3 64.8488 51.99 64.3088 51.37C63.7688 50.73 63.4588 49.7 63.3788 48.28C62.8188 49.5 62.0388 50.48 61.0388 51.22C60.0388 51.94 58.8788 52.3 57.5588 52.3C56.3788 52.3 55.4288 51.99 54.7088 51.37C53.9888 50.75 53.6288 49.88 53.6288 48.76C53.6288 47.48 54.1188 46.43 55.0988 45.61C56.0788 44.79 57.3188 44.16 58.8188 43.72C60.1188 43.36 61.5488 43.16 63.1088 43.12V42.37C63.1088 40.67 62.9088 39.42 62.5088 38.62C62.1088 37.82 61.4188 37.42 60.4388 37.42C59.7988 37.42 59.2788 37.61 58.8788 37.99C58.4788 38.35 58.2788 38.91 58.2788 39.67C58.2788 40.73 58.6388 41.47 59.3588 41.89C59.1388 42.11 58.8388 42.28 58.4588 42.4C58.0988 42.52 57.7088 42.58 57.2888 42.58C56.3688 42.58 55.6388 42.32 55.0988 41.8C54.5788 41.28 54.3188 40.62 54.3188 39.82C54.3188 38.64 54.8888 37.73 56.0288 37.09C57.1688 36.43 58.7188 36.1 60.6788 36.1C62.8988 36.1 64.5188 36.61 65.5388 37.63C66.5788 38.65 67.0988 40.31 67.0988 42.61V47.83C67.0988 48.89 67.4288 49.42 68.0888 49.42C68.2288 49.42 68.3788 49.39 68.5388 49.33C68.6988 49.25 68.8288 49.14 68.9288 49ZM59.3588 49.78C59.9388 49.78 60.5288 49.54 61.1288 49.06C61.7288 48.58 62.2288 47.93 62.6288 47.11C63.0288 46.27 63.2288 45.36 63.2288 44.38C61.6488 44.38 60.4688 44.6 59.6888 45.04C59.1288 45.32 58.6788 45.7 58.3388 46.18C58.0188 46.66 57.8588 47.21 57.8588 47.83C57.8588 48.37 57.9788 48.83 58.2188 49.21C58.4788 49.59 58.8588 49.78 59.3588 49.78ZM86.2517 49.03C86.5117 49.43 86.6417 49.84 86.6417 50.26C86.6417 50.84 86.3917 51.32 85.8917 51.7C85.4117 52.08 84.8117 52.27 84.0917 52.27C83.1517 52.27 82.4217 51.93 81.9017 51.25C81.3817 50.57 81.0617 49.6 80.9417 48.34C80.0417 51.06 78.3617 52.42 75.9017 52.42C74.0617 52.42 72.7117 51.73 71.8517 50.35C70.9917 48.97 70.5617 47.13 70.5617 44.83C70.5617 42.05 71.1117 39.9 72.2117 38.38C73.3317 36.86 74.9217 36.1 76.9817 36.1C77.9017 36.1 78.6717 36.26 79.2917 36.58C79.9317 36.9 80.3917 37.36 80.6717 37.96V36.34C80.6717 34.16 80.4617 32.34 80.0417 30.88C80.6817 30.3 81.4217 30.01 82.2617 30.01C82.9017 30.01 83.4317 30.2 83.8517 30.58C84.2717 30.94 84.4817 31.43 84.4817 32.05L84.4517 47.83C84.4517 48.87 84.7917 49.39 85.4717 49.39C85.8517 49.39 86.1117 49.27 86.2517 49.03ZM77.0417 50.29C78.2017 50.29 79.0817 49.52 79.6817 47.98C80.2817 46.42 80.5817 44.55 80.5817 42.37C80.5817 41.05 80.4017 40 80.0417 39.22C79.6817 38.44 78.9817 38.05 77.9417 38.05C76.8217 38.05 76.0017 38.62 75.4817 39.76C74.9817 40.88 74.7317 42.54 74.7317 44.74C74.7317 46.64 74.9017 48.04 75.2417 48.94C75.5817 49.84 76.1817 50.29 77.0417 50.29ZM109.944 49C110.204 49.38 110.334 49.79 110.334 50.23C110.334 50.81 110.084 51.3 109.584 51.7C109.084 52.1 108.414 52.3 107.574 52.3C106.614 52.3 105.864 51.99 105.324 51.37C104.784 50.73 104.474 49.7 104.394 48.28C103.834 49.5 103.054 50.48 102.054 51.22C101.054 51.94 99.8945 52.3 98.5745 52.3C97.3945 52.3 96.4445 51.99 95.7245 51.37C95.0045 50.75 94.6445 49.88 94.6445 48.76C94.6445 47.48 95.1345 46.43 96.1145 45.61C97.0945 44.79 98.3345 44.16 99.8345 43.72C101.134 43.36 102.564 43.16 104.124 43.12V42.37C104.124 40.67 103.924 39.42 103.524 38.62C103.124 37.82 102.434 37.42 101.454 37.42C100.814 37.42 100.294 37.61 99.8945 37.99C99.4945 38.35 99.2945 38.91 99.2945 39.67C99.2945 40.73 99.6545 41.47 100.374 41.89C100.154 42.11 99.8545 42.28 99.4745 42.4C99.1145 42.52 98.7245 42.58 98.3045 42.58C97.3845 42.58 96.6545 42.32 96.1145 41.8C95.5945 41.28 95.3345 40.62 95.3345 39.82C95.3345 38.64 95.9045 37.73 97.0445 37.09C98.1845 36.43 99.7345 36.1 101.694 36.1C103.914 36.1 105.534 36.61 106.554 37.63C107.594 38.65 108.114 40.31 108.114 42.61V47.83C108.114 48.89 108.444 49.42 109.104 49.42C109.244 49.42 109.394 49.39 109.554 49.33C109.714 49.25 109.844 49.14 109.944 49ZM100.374 49.78C100.954 49.78 101.544 49.54 102.144 49.06C102.744 48.58 103.244 47.93 103.644 47.11C104.044 46.27 104.244 45.36 104.244 44.38C102.664 44.38 101.484 44.6 100.704 45.04C100.144 45.32 99.6945 45.7 99.3545 46.18C99.0345 46.66 98.8745 47.21 98.8745 47.83C98.8745 48.37 98.9945 48.83 99.2345 49.21C99.4945 49.59 99.8745 49.78 100.374 49.78ZM122.523 52.3C121.363 52.3 120.473 51.94 119.853 51.22C119.233 50.48 118.923 49.46 118.923 48.16V32.05C118.923 31.41 119.133 30.91 119.553 30.55C119.973 30.19 120.513 30.01 121.173 30.01C121.653 30.01 122.083 30.1 122.463 30.28C122.843 30.46 123.143 30.66 123.363 30.88C123.143 31.74 122.993 32.59 122.913 33.43C122.833 34.27 122.793 35.37 122.793 36.73V47.83C122.793 48.89 123.153 49.42 123.873 49.42C124.033 49.42 124.203 49.39 124.383 49.33C124.563 49.25 124.693 49.14 124.773 49C125.033 49.38 125.163 49.79 125.163 50.23C125.163 50.83 124.903 51.33 124.383 51.73C123.883 52.11 123.263 52.3 122.523 52.3ZM134.045 52.42C131.745 52.42 129.945 51.71 128.645 50.29C127.345 48.85 126.695 46.85 126.695 44.29C126.695 41.71 127.335 39.7 128.615 38.26C129.915 36.82 131.725 36.1 134.045 36.1C136.345 36.1 138.135 36.82 139.415 38.26C140.715 39.7 141.365 41.71 141.365 44.29C141.365 46.85 140.715 48.85 139.415 50.29C138.135 51.71 136.345 52.42 134.045 52.42ZM134.045 51.07C136.145 51.07 137.195 48.81 137.195 44.29C137.195 39.73 136.145 37.45 134.045 37.45C132.965 37.45 132.165 38.02 131.645 39.16C131.125 40.3 130.865 42.01 130.865 44.29C130.865 46.55 131.125 48.25 131.645 49.39C132.165 50.51 132.965 51.07 134.045 51.07ZM148.852 36.55C149.272 36.55 149.932 36.54 150.832 36.52C151.752 36.48 152.272 36.45 152.392 36.43L152.362 37.36C152.342 37.66 152.242 37.9 152.062 38.08C151.882 38.24 151.652 38.32 151.372 38.32H148.702V39.22V47.83C148.702 48.89 149.162 49.42 150.082 49.42C150.322 49.42 150.562 49.39 150.802 49.33C151.062 49.25 151.222 49.14 151.282 49C151.542 49.34 151.672 49.75 151.672 50.23C151.672 50.85 151.382 51.35 150.802 51.73C150.222 52.11 149.452 52.3 148.492 52.3C147.332 52.3 146.432 51.93 145.792 51.19C145.152 50.45 144.832 49.44 144.832 48.16V38.32H144.412C143.592 38.32 142.992 38.35 142.612 38.41L142.642 37.48C142.662 37.18 142.762 36.95 142.942 36.79C143.142 36.63 143.382 36.55 143.662 36.55H144.832V34.54C144.832 33.92 145.042 33.43 145.462 33.07C145.882 32.71 146.422 32.53 147.082 32.53C147.562 32.53 147.992 32.62 148.372 32.8C148.752 32.98 149.052 33.18 149.272 33.4C149.012 34.42 148.842 35.47 148.762 36.55H148.852ZM167.824 52.42C165.524 52.42 163.724 51.71 162.424 50.29C161.124 48.85 160.474 46.85 160.474 44.29C160.474 41.71 161.114 39.7 162.394 38.26C163.694 36.82 165.504 36.1 167.824 36.1C170.124 36.1 171.914 36.82 173.194 38.26C174.494 39.7 175.144 41.71 175.144 44.29C175.144 46.85 174.494 48.85 173.194 50.29C171.914 51.71 170.124 52.42 167.824 52.42ZM167.824 51.07C169.924 51.07 170.974 48.81 170.974 44.29C170.974 39.73 169.924 37.45 167.824 37.45C166.744 37.45 165.944 38.02 165.424 39.16C164.904 40.3 164.644 42.01 164.644 44.29C164.644 46.55 164.904 48.25 165.424 49.39C165.944 50.51 166.744 51.07 167.824 51.07ZM184.431 29.71C185.871 29.71 186.991 29.94 187.791 30.4C188.591 30.86 188.991 31.51 188.991 32.35C188.991 32.93 188.771 33.41 188.331 33.79C187.911 34.15 187.391 34.33 186.771 34.33C185.971 34.33 185.391 34.13 185.031 33.73C185.411 33.21 185.601 32.7 185.601 32.2C185.601 31.76 185.501 31.44 185.301 31.24C185.101 31.04 184.791 30.94 184.371 30.94C183.791 30.94 183.371 31.19 183.111 31.69C182.851 32.17 182.691 32.77 182.631 33.49C182.571 34.21 182.541 35.23 182.541 36.55H183.111C183.511 36.55 184.131 36.54 184.971 36.52C185.811 36.48 186.291 36.45 186.411 36.43L186.381 37.36C186.361 37.66 186.261 37.9 186.081 38.08C185.901 38.24 185.671 38.32 185.391 38.32H182.541V47.77C182.541 49.29 182.731 50.55 183.111 51.55C182.451 52.13 181.711 52.42 180.891 52.42C180.251 52.42 179.721 52.24 179.301 51.88C178.881 51.52 178.671 51.03 178.671 50.41V38.32H178.401C177.601 38.32 177.001 38.35 176.601 38.41L176.631 37.48C176.651 37.18 176.751 36.95 176.931 36.79C177.131 36.63 177.371 36.55 177.651 36.55H178.671V35.95C178.671 31.79 180.591 29.71 184.431 29.71ZM203.307 52.42C200.907 52.42 199.047 51.71 197.727 50.29C196.427 48.87 195.777 46.85 195.777 44.23C195.777 41.69 196.437 39.7 197.757 38.26C199.097 36.82 200.987 36.1 203.427 36.1C205.207 36.1 206.567 36.47 207.507 37.21C208.447 37.93 208.917 38.84 208.917 39.94C208.917 40.74 208.667 41.38 208.167 41.86C207.667 42.34 207.017 42.58 206.217 42.58C205.817 42.58 205.427 42.52 205.047 42.4C204.687 42.28 204.397 42.1 204.177 41.86C204.757 41.4 205.047 40.65 205.047 39.61C205.047 38.17 204.397 37.45 203.097 37.45C202.117 37.45 201.347 37.99 200.787 39.07C200.227 40.15 199.947 41.67 199.947 43.63C199.947 47.87 201.457 49.99 204.477 49.99C205.517 49.99 206.397 49.74 207.117 49.24C207.857 48.72 208.337 48.05 208.557 47.23C208.897 47.37 209.067 47.7 209.067 48.22C209.067 48.48 209.027 48.76 208.947 49.06C208.647 50.12 207.997 50.95 206.997 51.55C205.997 52.13 204.767 52.42 203.307 52.42ZM215.658 52.3C214.498 52.3 213.608 51.94 212.988 51.22C212.368 50.48 212.058 49.46 212.058 48.16V32.05C212.058 31.41 212.268 30.91 212.688 30.55C213.108 30.19 213.648 30.01 214.308 30.01C214.788 30.01 215.218 30.1 215.598 30.28C215.978 30.46 216.278 30.66 216.498 30.88C216.278 31.74 216.128 32.59 216.048 33.43C215.968 34.27 215.928 35.37 215.928 36.73V47.83C215.928 48.89 216.288 49.42 217.008 49.42C217.168 49.42 217.338 49.39 217.518 49.33C217.698 49.25 217.828 49.14 217.908 49C218.168 49.38 218.298 49.79 218.298 50.23C218.298 50.83 218.038 51.33 217.518 51.73C217.018 52.11 216.398 52.3 215.658 52.3ZM227.179 52.42C224.879 52.42 223.079 51.71 221.779 50.29C220.479 48.85 219.829 46.85 219.829 44.29C219.829 41.71 220.469 39.7 221.749 38.26C223.049 36.82 224.859 36.1 227.179 36.1C229.479 36.1 231.269 36.82 232.549 38.26C233.849 39.7 234.499 41.71 234.499 44.29C234.499 46.85 233.849 48.85 232.549 50.29C231.269 51.71 229.479 52.42 227.179 52.42ZM227.179 51.07C229.279 51.07 230.329 48.81 230.329 44.29C230.329 39.73 229.279 37.45 227.179 37.45C226.099 37.45 225.299 38.02 224.779 39.16C224.259 40.3 223.999 42.01 223.999 44.29C223.999 46.55 224.259 48.25 224.779 49.39C225.299 50.51 226.099 51.07 227.179 51.07ZM241.986 36.55C242.406 36.55 243.066 36.54 243.966 36.52C244.886 36.48 245.406 36.45 245.526 36.43L245.496 37.36C245.476 37.66 245.376 37.9 245.196 38.08C245.016 38.24 244.786 38.32 244.506 38.32H241.836V39.22V47.83C241.836 48.89 242.296 49.42 243.216 49.42C243.456 49.42 243.696 49.39 243.936 49.33C244.196 49.25 244.356 49.14 244.416 49C244.676 49.34 244.806 49.75 244.806 50.23C244.806 50.85 244.516 51.35 243.936 51.73C243.356 52.11 242.586 52.3 241.626 52.3C240.466 52.3 239.566 51.93 238.926 51.19C238.286 50.45 237.966 49.44 237.966 48.16V38.32H237.546C236.726 38.32 236.126 38.35 235.746 38.41L235.776 37.48C235.796 37.18 235.896 36.95 236.076 36.79C236.276 36.63 236.516 36.55 236.796 36.55H237.966V34.54C237.966 33.92 238.176 33.43 238.596 33.07C239.016 32.71 239.556 32.53 240.216 32.53C240.696 32.53 241.126 32.62 241.506 32.8C241.886 32.98 242.186 33.18 242.406 33.4C242.146 34.42 241.976 35.47 241.896 36.55H241.986ZM261.353 47.77C261.353 49.29 261.543 50.55 261.923 51.55C261.263 52.13 260.533 52.42 259.733 52.42C259.093 52.42 258.563 52.24 258.143 51.88C257.723 51.52 257.513 51.03 257.513 50.41V42.76C257.513 41.1 257.343 39.88 257.003 39.1C256.683 38.32 256.093 37.93 255.233 37.93C254.253 37.93 253.463 38.53 252.863 39.73C252.263 40.93 251.963 42.66 251.963 44.92C251.963 47.12 251.993 48.6 252.053 49.36C252.113 50.1 252.303 50.84 252.623 51.58C252.423 51.78 252.123 51.97 251.723 52.15C251.343 52.33 250.913 52.42 250.433 52.42C249.773 52.42 249.233 52.22 248.813 51.82C248.393 51.42 248.183 50.89 248.183 50.23L248.153 32.05C248.153 31.39 248.343 30.89 248.723 30.55C249.103 30.21 249.603 30.04 250.223 30.04C250.703 30.04 251.163 30.13 251.603 30.31C252.043 30.49 252.383 30.68 252.623 30.88C252.363 31.72 252.193 32.66 252.113 33.7C252.033 34.74 251.983 36.12 251.963 37.84V39.16C252.803 37.12 254.323 36.1 256.523 36.1C258.163 36.1 259.373 36.61 260.153 37.63C260.953 38.63 261.353 40.14 261.353 42.16V47.77ZM277.292 47.68C277.612 47.82 277.772 48.09 277.772 48.49C277.772 48.75 277.702 49.05 277.562 49.39C277.182 50.35 276.492 51.1 275.492 51.64C274.492 52.16 273.282 52.42 271.862 52.42C269.542 52.42 267.702 51.71 266.342 50.29C264.982 48.85 264.302 46.83 264.302 44.23C264.302 41.69 264.962 39.7 266.282 38.26C267.602 36.82 269.482 36.1 271.922 36.1C273.702 36.1 275.162 36.5 276.302 37.3C277.442 38.08 278.012 39.19 278.012 40.63C278.012 42.09 277.422 43.22 276.242 44.02C275.062 44.82 273.482 45.22 271.502 45.22C270.222 45.22 269.232 45.18 268.532 45.1C268.672 46.84 269.112 48.09 269.852 48.85C270.612 49.61 271.652 49.99 272.972 49.99C274.032 49.99 274.932 49.78 275.672 49.36C276.412 48.94 276.952 48.38 277.292 47.68ZM271.772 37.45C270.732 37.45 269.922 38.01 269.342 39.13C268.762 40.23 268.472 41.76 268.472 43.72V43.75L269.492 43.78C270.732 43.78 271.762 43.52 272.582 43C273.422 42.48 273.842 41.48 273.842 40C273.842 38.3 273.152 37.45 271.772 37.45ZM285.644 52.42C283.764 52.42 282.334 52.1 281.354 51.46C280.394 50.82 279.914 49.97 279.914 48.91C279.914 48.35 280.084 47.86 280.424 47.44C280.784 47.02 281.344 46.81 282.104 46.81C282.244 46.81 282.474 46.83 282.794 46.87C282.754 47.03 282.734 47.26 282.734 47.56C282.734 47.9 282.774 48.2 282.854 48.46C282.954 49.16 283.284 49.76 283.844 50.26C284.404 50.74 285.184 50.98 286.184 50.98C287.004 50.98 287.664 50.83 288.164 50.53C288.664 50.21 288.914 49.74 288.914 49.12C288.914 48.62 288.754 48.2 288.434 47.86C288.134 47.5 287.774 47.21 287.354 46.99C286.954 46.75 286.284 46.41 285.344 45.97C284.264 45.45 283.404 44.99 282.764 44.59C282.124 44.19 281.574 43.65 281.114 42.97C280.654 42.29 280.424 41.45 280.424 40.45C280.424 38.99 280.984 37.9 282.104 37.18C283.224 36.44 284.644 36.07 286.364 36.07C288.024 36.07 289.344 36.33 290.324 36.85C291.324 37.35 291.824 38.07 291.824 39.01C291.824 39.51 291.674 39.93 291.374 40.27C291.094 40.61 290.634 40.79 289.994 40.81C289.894 40.83 289.744 40.84 289.544 40.84C289.424 40.84 289.224 40.82 288.944 40.78C288.964 40.68 288.974 40.51 288.974 40.27C288.974 39.77 288.894 39.36 288.734 39.04C288.574 38.54 288.274 38.15 287.834 37.87C287.394 37.59 286.854 37.45 286.214 37.45C285.554 37.45 285.004 37.59 284.564 37.87C284.124 38.15 283.904 38.57 283.904 39.13C283.904 39.65 284.064 40.11 284.384 40.51C284.704 40.89 285.094 41.22 285.554 41.5C286.034 41.76 286.704 42.1 287.564 42.52C288.644 43.04 289.504 43.5 290.144 43.9C290.804 44.28 291.364 44.78 291.824 45.4C292.304 46.02 292.544 46.76 292.544 47.62C292.544 48.46 292.304 49.25 291.824 49.99C291.364 50.71 290.614 51.3 289.574 51.76C288.554 52.2 287.244 52.42 285.644 52.42ZM308.097 52.42C305.797 52.42 303.997 51.71 302.697 50.29C301.397 48.85 300.747 46.85 300.747 44.29C300.747 41.71 301.387 39.7 302.667 38.26C303.967 36.82 305.777 36.1 308.097 36.1C310.397 36.1 312.187 36.82 313.467 38.26C314.767 39.7 315.417 41.71 315.417 44.29C315.417 46.85 314.767 48.85 313.467 50.29C312.187 51.71 310.397 52.42 308.097 52.42ZM308.097 51.07C310.197 51.07 311.247 48.81 311.247 44.29C311.247 39.73 310.197 37.45 308.097 37.45C307.017 37.45 306.217 38.02 305.697 39.16C305.177 40.3 304.917 42.01 304.917 44.29C304.917 46.55 305.177 48.25 305.697 49.39C306.217 50.51 307.017 51.07 308.097 51.07ZM332.174 47.77C332.234 49.43 332.434 50.69 332.774 51.55C332.114 52.13 331.364 52.42 330.524 52.42C329.884 52.42 329.354 52.24 328.934 51.88C328.514 51.52 328.304 51.03 328.304 50.41V42.76C328.284 41.14 328.114 39.95 327.794 39.19C327.474 38.43 326.884 38.05 326.024 38.05C325.064 38.05 324.284 38.64 323.684 39.82C323.084 40.98 322.784 42.68 322.784 44.92C322.784 47.12 322.814 48.6 322.874 49.36C322.934 50.1 323.114 50.84 323.414 51.58C323.214 51.78 322.914 51.97 322.514 52.15C322.134 52.33 321.704 52.42 321.224 52.42C320.544 52.42 319.994 52.22 319.574 51.82C319.154 51.42 318.944 50.89 318.944 50.23V40.6C318.924 40.04 318.854 39.64 318.734 39.4C318.614 39.14 318.414 39.01 318.134 39.01C317.754 39.01 317.494 39.13 317.354 39.37C317.114 38.97 316.994 38.56 316.994 38.14C316.994 37.54 317.194 37.06 317.594 36.7C318.014 36.32 318.594 36.13 319.334 36.13C320.254 36.13 320.974 36.43 321.494 37.03C322.034 37.61 322.314 38.49 322.334 39.67C323.194 37.29 324.864 36.1 327.344 36.1C328.984 36.1 330.194 36.61 330.974 37.63C331.774 38.63 332.174 40.14 332.174 42.16V47.77ZM364.719 47.77C364.719 49.29 364.909 50.55 365.289 51.55C364.629 52.13 363.889 52.42 363.069 52.42C362.409 52.42 361.869 52.24 361.449 51.88C361.029 51.52 360.819 51.03 360.819 50.41V42.76C360.819 41.18 360.699 39.98 360.459 39.16C360.219 38.34 359.699 37.93 358.899 37.93C358.339 37.93 357.819 38.19 357.339 38.71C356.879 39.21 356.499 39.98 356.199 41.02C355.899 42.06 355.739 43.32 355.719 44.8L355.749 47.77C355.749 49.35 355.929 50.61 356.289 51.55C355.669 52.13 354.949 52.42 354.129 52.42C353.509 52.42 352.999 52.24 352.599 51.88C352.199 51.52 351.999 51.03 351.999 50.41L351.969 42.76C351.969 41.08 351.819 39.86 351.519 39.1C351.239 38.32 350.689 37.93 349.869 37.93C348.989 37.93 348.269 38.53 347.709 39.73C347.169 40.93 346.899 42.69 346.899 45.01C346.899 47.17 346.929 48.63 346.989 49.39C347.049 50.13 347.229 50.86 347.529 51.58C346.969 52.14 346.229 52.42 345.309 52.42C344.669 52.42 344.139 52.22 343.719 51.82C343.299 51.42 343.089 50.89 343.089 50.23L343.059 40.6C343.059 39.54 342.769 39.01 342.189 39.01C342.029 39.01 341.869 39.05 341.709 39.13C341.549 39.19 341.429 39.3 341.349 39.46C341.109 39.08 340.989 38.67 340.989 38.23C340.989 37.61 341.199 37.11 341.619 36.73C342.059 36.33 342.649 36.13 343.389 36.13C344.289 36.13 344.999 36.44 345.519 37.06C346.039 37.66 346.339 38.56 346.419 39.76C346.799 38.6 347.379 37.7 348.159 37.06C348.939 36.42 349.939 36.1 351.159 36.1C352.359 36.1 353.299 36.4 353.979 37C354.679 37.58 355.169 38.46 355.449 39.64C355.829 38.54 356.419 37.68 357.219 37.06C358.019 36.42 358.999 36.1 360.159 36.1C363.199 36.1 364.719 38.12 364.719 42.16V47.77ZM381.671 50.44C381.671 53.36 380.981 55.47 379.601 56.77C378.221 58.09 376.331 58.75 373.931 58.75C370.151 58.75 368.261 57.7 368.261 55.6C368.261 54.96 368.501 54.43 368.981 54.01C369.481 53.61 370.131 53.41 370.931 53.41C371.771 53.41 372.361 53.63 372.701 54.07C372.421 54.27 372.211 54.5 372.071 54.76C371.931 55.04 371.861 55.31 371.861 55.57C371.861 56.17 372.051 56.65 372.431 57.01C372.811 57.37 373.341 57.55 374.021 57.55C375.321 57.55 376.311 56.96 376.991 55.78C377.691 54.62 378.041 53.02 378.041 50.98C378.041 50.58 378.121 49.76 378.281 48.52C377.461 50.98 375.801 52.21 373.301 52.21C371.701 52.21 370.521 51.74 369.761 50.8C369.001 49.86 368.621 48.31 368.621 46.15V40.78C368.621 39.26 368.431 37.99 368.051 36.97C368.751 36.39 369.491 36.1 370.271 36.1C370.931 36.1 371.461 36.28 371.861 36.64C372.281 37 372.491 37.5 372.491 38.14L372.521 45.55C372.521 47.23 372.661 48.46 372.941 49.24C373.241 50 373.791 50.38 374.591 50.38C375.571 50.38 376.351 49.8 376.931 48.64C377.531 47.46 377.831 45.76 377.831 43.54C377.831 41.36 377.801 39.9 377.741 39.16C377.681 38.42 377.491 37.68 377.171 36.94C377.391 36.74 377.691 36.55 378.071 36.37C378.471 36.19 378.911 36.1 379.391 36.1C380.031 36.1 380.561 36.3 380.981 36.7C381.421 37.1 381.641 37.64 381.641 38.32L381.671 50.44ZM27.02 101.42C25.92 101.42 25.24 101 24.98 100.16L21.29 87.92C21.15 87.48 21.01 87.12 20.87 86.84C20.75 86.54 20.59 86.28 20.39 86.06C20.87 85.46 21.6 85.16 22.58 85.16C23.2 85.16 23.71 85.29 24.11 85.55C24.51 85.81 24.76 86.19 24.86 86.69L27.68 98.81L30.05 87.86C30.15 87.4 30.2 86.96 30.2 86.54C30.2 86.1 30.11 85.78 29.93 85.58C30.49 85.34 31.33 85.2 32.45 85.16C33.11 85.16 33.68 85.27 34.16 85.49C34.64 85.69 34.94 86.05 35.06 86.57L37.82 98.81L40.25 87.86C40.37 87.26 40.43 86.82 40.43 86.54C40.43 86.16 40.34 85.84 40.16 85.58C40.52 85.44 40.84 85.34 41.12 85.28C41.4 85.2 41.75 85.16 42.17 85.16C42.91 85.16 43.45 85.29 43.79 85.55C44.13 85.81 44.3 86.23 44.3 86.81C44.3 87.47 44.16 88.15 43.88 88.85L39.8 100.85C38.92 101.23 38.04 101.42 37.16 101.42C36.66 101.42 36.22 101.32 35.84 101.12C35.48 100.92 35.24 100.6 35.12 100.16L32.45 89L29.81 100.85C28.91 101.23 27.98 101.42 27.02 101.42ZM61.2238 98C61.4838 98.38 61.6138 98.79 61.6138 99.23C61.6138 99.81 61.3638 100.3 60.8638 100.7C60.3638 101.1 59.6938 101.3 58.8538 101.3C57.8938 101.3 57.1438 100.99 56.6038 100.37C56.0638 99.73 55.7538 98.7 55.6738 97.28C55.1138 98.5 54.3338 99.48 53.3338 100.22C52.3338 100.94 51.1738 101.3 49.8538 101.3C48.6738 101.3 47.7238 100.99 47.0038 100.37C46.2838 99.75 45.9238 98.88 45.9238 97.76C45.9238 96.48 46.4138 95.43 47.3938 94.61C48.3738 93.79 49.6138 93.16 51.1138 92.72C52.4138 92.36 53.8438 92.16 55.4038 92.12V91.37C55.4038 89.67 55.2038 88.42 54.8038 87.62C54.4038 86.82 53.7138 86.42 52.7338 86.42C52.0938 86.42 51.5738 86.61 51.1738 86.99C50.7738 87.35 50.5738 87.91 50.5738 88.67C50.5738 89.73 50.9338 90.47 51.6538 90.89C51.4338 91.11 51.1338 91.28 50.7538 91.4C50.3938 91.52 50.0038 91.58 49.5838 91.58C48.6638 91.58 47.9338 91.32 47.3938 90.8C46.8738 90.28 46.6138 89.62 46.6138 88.82C46.6138 87.64 47.1838 86.73 48.3238 86.09C49.4638 85.43 51.0138 85.1 52.9738 85.1C55.1938 85.1 56.8138 85.61 57.8338 86.63C58.8738 87.65 59.3938 89.31 59.3938 91.61V96.83C59.3938 97.89 59.7238 98.42 60.3838 98.42C60.5238 98.42 60.6738 98.39 60.8338 98.33C60.9938 98.25 61.1238 98.14 61.2238 98ZM51.6538 98.78C52.2338 98.78 52.8238 98.54 53.4238 98.06C54.0238 97.58 54.5238 96.93 54.9238 96.11C55.3238 95.27 55.5238 94.36 55.5238 93.38C53.9438 93.38 52.7638 93.6 51.9838 94.04C51.4238 94.32 50.9738 94.7 50.6338 95.18C50.3138 95.66 50.1538 96.21 50.1538 96.83C50.1538 97.37 50.2738 97.83 50.5138 98.21C50.7738 98.59 51.1538 98.78 51.6538 98.78ZM71.5866 85.1C72.7266 85.1 73.6466 85.41 74.3466 86.03C75.0666 86.63 75.4266 87.46 75.4266 88.52C75.4266 89.28 75.1966 89.91 74.7366 90.41C74.2766 90.91 73.6966 91.17 72.9966 91.19C72.1966 91.19 71.6066 90.98 71.2266 90.56C71.4466 90.2 71.5966 89.87 71.6766 89.57C71.7566 89.27 71.7966 88.92 71.7966 88.52C71.7966 88 71.6866 87.61 71.4666 87.35C71.2466 87.07 70.9166 86.93 70.4766 86.93C69.7366 86.93 69.1566 87.52 68.7366 88.7C68.3166 89.86 68.1066 91.6 68.1066 93.92C68.1066 96.06 68.1366 97.51 68.1966 98.27C68.2566 99.01 68.4366 99.74 68.7366 100.46C68.5166 100.68 68.2166 100.87 67.8366 101.03C67.4566 101.21 67.0166 101.31 66.5166 101.33C65.8966 101.33 65.3666 101.13 64.9266 100.73C64.4866 100.33 64.2666 99.79 64.2666 99.11V89.6C64.2666 89.04 64.1966 88.64 64.0566 88.4C63.9366 88.14 63.7366 88.01 63.4566 88.01C63.0766 88.01 62.8166 88.13 62.6766 88.37C62.4366 87.97 62.3166 87.56 62.3166 87.14C62.3166 86.54 62.5166 86.06 62.9166 85.7C63.3366 85.32 63.9166 85.13 64.6566 85.13C65.5366 85.13 66.2366 85.4 66.7566 85.94C67.2766 86.48 67.5766 87.29 67.6566 88.37C68.3366 86.19 69.6466 85.1 71.5866 85.1ZM92.5798 98.03C92.8398 98.43 92.9698 98.84 92.9698 99.26C92.9698 99.84 92.7198 100.32 92.2198 100.7C91.7398 101.08 91.1398 101.27 90.4198 101.27C89.4798 101.27 88.7498 100.93 88.2298 100.25C87.7098 99.57 87.3898 98.6 87.2698 97.34C86.3698 100.06 84.6898 101.42 82.2298 101.42C80.3898 101.42 79.0398 100.73 78.1798 99.35C77.3198 97.97 76.8898 96.13 76.8898 93.83C76.8898 91.05 77.4398 88.9 78.5398 87.38C79.6598 85.86 81.2498 85.1 83.3098 85.1C84.2298 85.1 84.9998 85.26 85.6198 85.58C86.2598 85.9 86.7198 86.36 86.9998 86.96V85.34C86.9998 83.16 86.7898 81.34 86.3698 79.88C87.0098 79.3 87.7498 79.01 88.5898 79.01C89.2298 79.01 89.7598 79.2 90.1798 79.58C90.5998 79.94 90.8098 80.43 90.8098 81.05L90.7798 96.83C90.7798 97.87 91.1198 98.39 91.7998 98.39C92.1798 98.39 92.4398 98.27 92.5798 98.03ZM83.3698 99.29C84.5298 99.29 85.4098 98.52 86.0098 96.98C86.6098 95.42 86.9098 93.55 86.9098 91.37C86.9098 90.05 86.7298 89 86.3698 88.22C86.0098 87.44 85.3098 87.05 84.2698 87.05C83.1498 87.05 82.3298 87.62 81.8098 88.76C81.3098 89.88 81.0598 91.54 81.0598 93.74C81.0598 95.64 81.2298 97.04 81.5698 97.94C81.9098 98.84 82.5098 99.29 83.3698 99.29ZM103.257 85.1C104.397 85.1 105.317 85.41 106.017 86.03C106.737 86.63 107.097 87.46 107.097 88.52C107.097 89.28 106.867 89.91 106.407 90.41C105.947 90.91 105.367 91.17 104.667 91.19C103.867 91.19 103.277 90.98 102.897 90.56C103.117 90.2 103.267 89.87 103.347 89.57C103.427 89.27 103.467 88.92 103.467 88.52C103.467 88 103.357 87.61 103.137 87.35C102.917 87.07 102.587 86.93 102.147 86.93C101.407 86.93 100.827 87.52 100.407 88.7C99.9866 89.86 99.7766 91.6 99.7766 93.92C99.7766 96.06 99.8066 97.51 99.8666 98.27C99.9266 99.01 100.107 99.74 100.407 100.46C100.187 100.68 99.8866 100.87 99.5066 101.03C99.1266 101.21 98.6866 101.31 98.1866 101.33C97.5666 101.33 97.0366 101.13 96.5966 100.73C96.1566 100.33 95.9366 99.79 95.9366 99.11V89.6C95.9366 89.04 95.8666 88.64 95.7266 88.4C95.6066 88.14 95.4066 88.01 95.1266 88.01C94.7466 88.01 94.4866 88.13 94.3466 88.37C94.1066 87.97 93.9866 87.56 93.9866 87.14C93.9866 86.54 94.1866 86.06 94.5866 85.7C95.0066 85.32 95.5866 85.13 96.3266 85.13C97.2066 85.13 97.9066 85.4 98.4266 85.94C98.9466 86.48 99.2466 87.29 99.3266 88.37C100.007 86.19 101.317 85.1 103.257 85.1ZM115.91 101.42C113.61 101.42 111.81 100.71 110.51 99.29C109.21 97.85 108.56 95.85 108.56 93.29C108.56 90.71 109.2 88.7 110.48 87.26C111.78 85.82 113.59 85.1 115.91 85.1C118.21 85.1 120 85.82 121.28 87.26C122.58 88.7 123.23 90.71 123.23 93.29C123.23 95.85 122.58 97.85 121.28 99.29C120 100.71 118.21 101.42 115.91 101.42ZM115.91 100.07C118.01 100.07 119.06 97.81 119.06 93.29C119.06 88.73 118.01 86.45 115.91 86.45C114.83 86.45 114.03 87.02 113.51 88.16C112.99 89.3 112.73 91.01 112.73 93.29C112.73 95.55 112.99 97.25 113.51 98.39C114.03 99.51 114.83 100.07 115.91 100.07ZM132.577 101.42C131.277 101.42 130.047 101.25 128.887 100.91C127.727 100.55 126.797 100.06 126.097 99.44V81.05C126.097 80.43 126.287 79.94 126.667 79.58C127.067 79.2 127.567 79.01 128.167 79.01C128.687 79.01 129.147 79.1 129.547 79.28C129.967 79.46 130.307 79.66 130.567 79.88C130.147 81.56 129.937 83.63 129.937 86.09V88.22C130.297 87.26 130.867 86.5 131.647 85.94C132.447 85.38 133.407 85.1 134.527 85.1C136.207 85.1 137.507 85.72 138.427 86.96C139.367 88.18 139.837 90.09 139.837 92.69C139.837 95.47 139.247 97.62 138.067 99.14C136.907 100.66 135.077 101.42 132.577 101.42ZM132.307 99.86C133.627 99.84 134.517 99.2 134.977 97.94C135.457 96.68 135.697 94.93 135.697 92.69C135.697 90.75 135.537 89.34 135.217 88.46C134.897 87.58 134.367 87.14 133.627 87.14C132.447 87.14 131.537 87.77 130.897 89.03C130.277 90.27 129.967 91.8 129.967 93.62V99.14C130.247 99.36 130.597 99.54 131.017 99.68C131.457 99.8 131.887 99.86 132.307 99.86ZM154.948 96.68C155.268 96.82 155.428 97.09 155.428 97.49C155.428 97.75 155.358 98.05 155.218 98.39C154.838 99.35 154.148 100.1 153.148 100.64C152.148 101.16 150.938 101.42 149.518 101.42C147.198 101.42 145.358 100.71 143.998 99.29C142.638 97.85 141.958 95.83 141.958 93.23C141.958 90.69 142.618 88.7 143.938 87.26C145.258 85.82 147.138 85.1 149.578 85.1C151.358 85.1 152.818 85.5 153.958 86.3C155.098 87.08 155.668 88.19 155.668 89.63C155.668 91.09 155.078 92.22 153.898 93.02C152.718 93.82 151.138 94.22 149.158 94.22C147.878 94.22 146.888 94.18 146.188 94.1C146.328 95.84 146.768 97.09 147.508 97.85C148.268 98.61 149.308 98.99 150.628 98.99C151.688 98.99 152.588 98.78 153.328 98.36C154.068 97.94 154.608 97.38 154.948 96.68ZM149.428 86.45C148.388 86.45 147.578 87.01 146.998 88.13C146.418 89.23 146.128 90.76 146.128 92.72V92.75L147.148 92.78C148.388 92.78 149.418 92.52 150.238 92C151.078 91.48 151.498 90.48 151.498 89C151.498 87.3 150.808 86.45 149.428 86.45ZM169.506 85.55C169.926 85.55 170.586 85.54 171.486 85.52C172.406 85.48 172.926 85.45 173.046 85.43L173.016 86.36C172.996 86.66 172.896 86.9 172.716 87.08C172.536 87.24 172.306 87.32 172.026 87.32H169.356V88.22V96.83C169.356 97.89 169.816 98.42 170.736 98.42C170.976 98.42 171.216 98.39 171.456 98.33C171.716 98.25 171.876 98.14 171.936 98C172.196 98.34 172.326 98.75 172.326 99.23C172.326 99.85 172.036 100.35 171.456 100.73C170.876 101.11 170.106 101.3 169.146 101.3C167.986 101.3 167.086 100.93 166.446 100.19C165.806 99.45 165.486 98.44 165.486 97.16V87.32H165.066C164.246 87.32 163.646 87.35 163.266 87.41L163.296 86.48C163.316 86.18 163.416 85.95 163.596 85.79C163.796 85.63 164.036 85.55 164.316 85.55H165.486V83.54C165.486 82.92 165.696 82.43 166.116 82.07C166.536 81.71 167.076 81.53 167.736 81.53C168.216 81.53 168.646 81.62 169.026 81.8C169.406 81.98 169.706 82.18 169.926 82.4C169.666 83.42 169.496 84.47 169.416 85.55H169.506ZM188.872 96.77C188.872 98.29 189.062 99.55 189.442 100.55C188.782 101.13 188.052 101.42 187.252 101.42C186.612 101.42 186.082 101.24 185.662 100.88C185.242 100.52 185.032 100.03 185.032 99.41V91.76C185.032 90.1 184.862 88.88 184.522 88.1C184.202 87.32 183.612 86.93 182.752 86.93C181.772 86.93 180.982 87.53 180.382 88.73C179.782 89.93 179.482 91.66 179.482 93.92C179.482 96.12 179.512 97.6 179.572 98.36C179.632 99.1 179.822 99.84 180.142 100.58C179.942 100.78 179.642 100.97 179.242 101.15C178.862 101.33 178.432 101.42 177.952 101.42C177.292 101.42 176.752 101.22 176.332 100.82C175.912 100.42 175.702 99.89 175.702 99.23L175.672 81.05C175.672 80.39 175.862 79.89 176.242 79.55C176.622 79.21 177.122 79.04 177.742 79.04C178.222 79.04 178.682 79.13 179.122 79.31C179.562 79.49 179.902 79.68 180.142 79.88C179.882 80.72 179.712 81.66 179.632 82.7C179.552 83.74 179.502 85.12 179.482 86.84V88.16C180.322 86.12 181.842 85.1 184.042 85.1C185.682 85.1 186.892 85.61 187.672 86.63C188.472 87.63 188.872 89.14 188.872 91.16V96.77ZM207.151 98C207.411 98.38 207.541 98.79 207.541 99.23C207.541 99.81 207.291 100.3 206.791 100.7C206.291 101.1 205.621 101.3 204.781 101.3C203.821 101.3 203.071 100.99 202.531 100.37C201.991 99.73 201.681 98.7 201.601 97.28C201.041 98.5 200.261 99.48 199.261 100.22C198.261 100.94 197.101 101.3 195.781 101.3C194.601 101.3 193.651 100.99 192.931 100.37C192.211 99.75 191.851 98.88 191.851 97.76C191.851 96.48 192.341 95.43 193.321 94.61C194.301 93.79 195.541 93.16 197.041 92.72C198.341 92.36 199.771 92.16 201.331 92.12V91.37C201.331 89.67 201.131 88.42 200.731 87.62C200.331 86.82 199.641 86.42 198.661 86.42C198.021 86.42 197.501 86.61 197.101 86.99C196.701 87.35 196.501 87.91 196.501 88.67C196.501 89.73 196.861 90.47 197.581 90.89C197.361 91.11 197.061 91.28 196.681 91.4C196.321 91.52 195.931 91.58 195.511 91.58C194.591 91.58 193.861 91.32 193.321 90.8C192.801 90.28 192.541 89.62 192.541 88.82C192.541 87.64 193.111 86.73 194.251 86.09C195.391 85.43 196.941 85.1 198.901 85.1C201.121 85.1 202.741 85.61 203.761 86.63C204.801 87.65 205.321 89.31 205.321 91.61V96.83C205.321 97.89 205.651 98.42 206.311 98.42C206.451 98.42 206.601 98.39 206.761 98.33C206.921 98.25 207.051 98.14 207.151 98ZM197.581 98.78C198.161 98.78 198.751 98.54 199.351 98.06C199.951 97.58 200.451 96.93 200.851 96.11C201.251 95.27 201.451 94.36 201.451 93.38C199.871 93.38 198.691 93.6 197.911 94.04C197.351 94.32 196.901 94.7 196.561 95.18C196.241 95.66 196.081 96.21 196.081 96.83C196.081 97.37 196.201 97.83 196.441 98.21C196.701 98.59 197.081 98.78 197.581 98.78ZM214.154 85.55C214.574 85.55 215.234 85.54 216.134 85.52C217.054 85.48 217.574 85.45 217.694 85.43L217.664 86.36C217.644 86.66 217.544 86.9 217.364 87.08C217.184 87.24 216.954 87.32 216.674 87.32H214.004V88.22V96.83C214.004 97.89 214.464 98.42 215.384 98.42C215.624 98.42 215.864 98.39 216.104 98.33C216.364 98.25 216.524 98.14 216.584 98C216.844 98.34 216.974 98.75 216.974 99.23C216.974 99.85 216.684 100.35 216.104 100.73C215.524 101.11 214.754 101.3 213.794 101.3C212.634 101.3 211.734 100.93 211.094 100.19C210.454 99.45 210.134 98.44 210.134 97.16V87.32H209.714C208.894 87.32 208.294 87.35 207.914 87.41L207.944 86.48C207.964 86.18 208.064 85.95 208.244 85.79C208.444 85.63 208.684 85.55 208.964 85.55H210.134V83.54C210.134 82.92 210.344 82.43 210.764 82.07C211.184 81.71 211.724 81.53 212.384 81.53C212.864 81.53 213.294 81.62 213.674 81.8C214.054 81.98 214.354 82.18 214.574 82.4C214.314 83.42 214.144 84.47 214.064 85.55H214.154ZM229.527 101.42C228.867 101.42 228.327 101.24 227.907 100.88C227.487 100.52 227.277 100.03 227.277 99.41V84.35C227.277 82.83 227.087 81.57 226.707 80.57C226.927 80.35 227.227 80.15 227.607 79.97C228.007 79.79 228.457 79.7 228.957 79.7C229.617 79.7 230.157 79.88 230.577 80.24C230.997 80.6 231.207 81.09 231.207 81.71V96.77C231.207 98.35 231.397 99.61 231.777 100.55C231.557 100.77 231.247 100.97 230.847 101.15C230.467 101.33 230.027 101.42 229.527 101.42ZM256.906 98.03C257.166 98.43 257.296 98.84 257.296 99.26C257.296 99.84 257.046 100.32 256.546 100.7C256.066 101.08 255.466 101.27 254.746 101.27C253.806 101.27 253.076 100.93 252.556 100.25C252.036 99.57 251.716 98.6 251.596 97.34C250.696 100.06 249.016 101.42 246.556 101.42C244.716 101.42 243.366 100.73 242.506 99.35C241.646 97.97 241.216 96.13 241.216 93.83C241.216 91.05 241.766 88.9 242.866 87.38C243.986 85.86 245.576 85.1 247.636 85.1C248.556 85.1 249.326 85.26 249.946 85.58C250.586 85.9 251.046 86.36 251.326 86.96V85.34C251.326 83.16 251.116 81.34 250.696 79.88C251.336 79.3 252.076 79.01 252.916 79.01C253.556 79.01 254.086 79.2 254.506 79.58C254.926 79.94 255.136 80.43 255.136 81.05L255.106 96.83C255.106 97.87 255.446 98.39 256.126 98.39C256.506 98.39 256.766 98.27 256.906 98.03ZM247.696 99.29C248.856 99.29 249.736 98.52 250.336 96.98C250.936 95.42 251.236 93.55 251.236 91.37C251.236 90.05 251.056 89 250.696 88.22C250.336 87.44 249.636 87.05 248.596 87.05C247.476 87.05 246.656 87.62 246.136 88.76C245.636 89.88 245.386 91.54 245.386 93.74C245.386 95.64 245.556 97.04 245.896 97.94C246.236 98.84 246.836 99.29 247.696 99.29ZM266.203 101.42C263.903 101.42 262.103 100.71 260.803 99.29C259.503 97.85 258.853 95.85 258.853 93.29C258.853 90.71 259.493 88.7 260.773 87.26C262.073 85.82 263.883 85.1 266.203 85.1C268.503 85.1 270.293 85.82 271.573 87.26C272.873 88.7 273.523 90.71 273.523 93.29C273.523 95.85 272.873 97.85 271.573 99.29C270.293 100.71 268.503 101.42 266.203 101.42ZM266.203 100.07C268.303 100.07 269.353 97.81 269.353 93.29C269.353 88.73 268.303 86.45 266.203 86.45C265.123 86.45 264.323 87.02 263.803 88.16C263.283 89.3 263.023 91.01 263.023 93.29C263.023 95.55 263.283 97.25 263.803 98.39C264.323 99.51 265.123 100.07 266.203 100.07ZM290.28 96.77C290.34 98.43 290.54 99.69 290.88 100.55C290.22 101.13 289.47 101.42 288.63 101.42C287.99 101.42 287.46 101.24 287.04 100.88C286.62 100.52 286.41 100.03 286.41 99.41V91.76C286.39 90.14 286.22 88.95 285.9 88.19C285.58 87.43 284.99 87.05 284.13 87.05C283.17 87.05 282.39 87.64 281.79 88.82C281.19 89.98 280.89 91.68 280.89 93.92C280.89 96.12 280.92 97.6 280.98 98.36C281.04 99.1 281.22 99.84 281.52 100.58C281.32 100.78 281.02 100.97 280.62 101.15C280.24 101.33 279.81 101.42 279.33 101.42C278.65 101.42 278.1 101.22 277.68 100.82C277.26 100.42 277.05 99.89 277.05 99.23V89.6C277.03 89.04 276.96 88.64 276.84 88.4C276.72 88.14 276.52 88.01 276.24 88.01C275.86 88.01 275.6 88.13 275.46 88.37C275.22 87.97 275.1 87.56 275.1 87.14C275.1 86.54 275.3 86.06 275.7 85.7C276.12 85.32 276.7 85.13 277.44 85.13C278.36 85.13 279.08 85.43 279.6 86.03C280.14 86.61 280.42 87.49 280.44 88.67C281.3 86.29 282.97 85.1 285.45 85.1C287.09 85.1 288.3 85.61 289.08 86.63C289.88 87.63 290.28 89.14 290.28 91.16V96.77ZM294.208 84.86H295.828L296.848 79.25C296.428 79.09 295.868 79.01 295.168 79.01C294.448 79.01 293.848 79.09 293.368 79.25L294.208 84.86ZM304.477 85.55C304.897 85.55 305.557 85.54 306.457 85.52C307.377 85.48 307.897 85.45 308.017 85.43L307.987 86.36C307.967 86.66 307.867 86.9 307.687 87.08C307.507 87.24 307.277 87.32 306.997 87.32H304.327V88.22V96.83C304.327 97.89 304.787 98.42 305.707 98.42C305.947 98.42 306.187 98.39 306.427 98.33C306.687 98.25 306.847 98.14 306.907 98C307.167 98.34 307.297 98.75 307.297 99.23C307.297 99.85 307.007 100.35 306.427 100.73C305.847 101.11 305.077 101.3 304.117 101.3C302.957 101.3 302.057 100.93 301.417 100.19C300.777 99.45 300.457 98.44 300.457 97.16V87.32H300.037C299.217 87.32 298.617 87.35 298.237 87.41L298.267 86.48C298.287 86.18 298.387 85.95 298.567 85.79C298.767 85.63 299.007 85.55 299.287 85.55H300.457V83.54C300.457 82.92 300.667 82.43 301.087 82.07C301.507 81.71 302.047 81.53 302.707 81.53C303.187 81.53 303.617 81.62 303.997 81.8C304.377 81.98 304.677 82.18 304.897 82.4C304.637 83.42 304.467 84.47 304.387 85.55H304.477ZM331.669 98.18C331.929 98.56 332.059 98.96 332.059 99.38C332.059 100 331.849 100.49 331.429 100.85C331.029 101.21 330.449 101.39 329.689 101.39C328.789 101.39 328.069 101.1 327.529 100.52C327.009 99.94 326.729 99.07 326.689 97.91C325.849 100.27 324.219 101.45 321.799 101.45C320.159 101.45 318.959 100.98 318.199 100.04C317.439 99.1 317.059 97.54 317.059 95.36V89.78C317.059 88.26 316.869 86.99 316.489 85.97C317.189 85.39 317.929 85.1 318.709 85.1C319.369 85.1 319.899 85.28 320.299 85.64C320.719 86 320.929 86.5 320.929 87.14L320.959 94.76C320.959 96.48 321.109 97.72 321.409 98.48C321.709 99.24 322.269 99.62 323.089 99.62C324.049 99.62 324.819 99.02 325.399 97.82C325.979 96.62 326.269 94.88 326.269 92.6C326.269 90.4 326.239 88.93 326.179 88.19C326.119 87.43 325.929 86.68 325.609 85.94C325.829 85.74 326.129 85.55 326.509 85.37C326.909 85.19 327.349 85.1 327.829 85.1C328.469 85.1 328.999 85.3 329.419 85.7C329.859 86.1 330.079 86.64 330.079 87.32L330.109 96.95C330.109 97.51 330.169 97.91 330.289 98.15C330.409 98.39 330.609 98.51 330.889 98.51C331.229 98.51 331.489 98.4 331.669 98.18ZM339.11 101.42C337.23 101.42 335.8 101.1 334.82 100.46C333.86 99.82 333.38 98.97 333.38 97.91C333.38 97.35 333.55 96.86 333.89 96.44C334.25 96.02 334.81 95.81 335.57 95.81C335.71 95.81 335.94 95.83 336.26 95.87C336.22 96.03 336.2 96.26 336.2 96.56C336.2 96.9 336.24 97.2 336.32 97.46C336.42 98.16 336.75 98.76 337.31 99.26C337.87 99.74 338.65 99.98 339.65 99.98C340.47 99.98 341.13 99.83 341.63 99.53C342.13 99.21 342.38 98.74 342.38 98.12C342.38 97.62 342.22 97.2 341.9 96.86C341.6 96.5 341.24 96.21 340.82 95.99C340.42 95.75 339.75 95.41 338.81 94.97C337.73 94.45 336.87 93.99 336.23 93.59C335.59 93.19 335.04 92.65 334.58 91.97C334.12 91.29 333.89 90.45 333.89 89.45C333.89 87.99 334.45 86.9 335.57 86.18C336.69 85.44 338.11 85.07 339.83 85.07C341.49 85.07 342.81 85.33 343.79 85.85C344.79 86.35 345.29 87.07 345.29 88.01C345.29 88.51 345.14 88.93 344.84 89.27C344.56 89.61 344.1 89.79 343.46 89.81C343.36 89.83 343.21 89.84 343.01 89.84C342.89 89.84 342.69 89.82 342.41 89.78C342.43 89.68 342.44 89.51 342.44 89.27C342.44 88.77 342.36 88.36 342.2 88.04C342.04 87.54 341.74 87.15 341.3 86.87C340.86 86.59 340.32 86.45 339.68 86.45C339.02 86.45 338.47 86.59 338.03 86.87C337.59 87.15 337.37 87.57 337.37 88.13C337.37 88.65 337.53 89.11 337.85 89.51C338.17 89.89 338.56 90.22 339.02 90.5C339.5 90.76 340.17 91.1 341.03 91.52C342.11 92.04 342.97 92.5 343.61 92.9C344.27 93.28 344.83 93.78 345.29 94.4C345.77 95.02 346.01 95.76 346.01 96.62C346.01 97.46 345.77 98.25 345.29 98.99C344.83 99.71 344.08 100.3 343.04 100.76C342.02 101.2 340.71 101.42 339.11 101.42ZM360.788 96.68C361.108 96.82 361.268 97.09 361.268 97.49C361.268 97.75 361.198 98.05 361.058 98.39C360.678 99.35 359.988 100.1 358.988 100.64C357.988 101.16 356.778 101.42 355.358 101.42C353.038 101.42 351.198 100.71 349.838 99.29C348.478 97.85 347.798 95.83 347.798 93.23C347.798 90.69 348.458 88.7 349.778 87.26C351.098 85.82 352.978 85.1 355.418 85.1C357.198 85.1 358.658 85.5 359.798 86.3C360.938 87.08 361.508 88.19 361.508 89.63C361.508 91.09 360.918 92.22 359.738 93.02C358.558 93.82 356.978 94.22 354.998 94.22C353.718 94.22 352.728 94.18 352.028 94.1C352.168 95.84 352.608 97.09 353.348 97.85C354.108 98.61 355.148 98.99 356.468 98.99C357.528 98.99 358.428 98.78 359.168 98.36C359.908 97.94 360.448 97.38 360.788 96.68ZM355.268 86.45C354.228 86.45 353.418 87.01 352.838 88.13C352.258 89.23 351.968 90.76 351.968 92.72V92.75L352.988 92.78C354.228 92.78 355.258 92.52 356.078 92C356.918 91.48 357.338 90.48 357.338 89C357.338 87.3 356.648 86.45 355.268 86.45ZM385.306 98C385.566 98.38 385.696 98.79 385.696 99.23C385.696 99.81 385.446 100.3 384.946 100.7C384.446 101.1 383.776 101.3 382.936 101.3C381.976 101.3 381.226 100.99 380.686 100.37C380.146 99.73 379.836 98.7 379.756 97.28C379.196 98.5 378.416 99.48 377.416 100.22C376.416 100.94 375.256 101.3 373.936 101.3C372.756 101.3 371.806 100.99 371.086 100.37C370.366 99.75 370.006 98.88 370.006 97.76C370.006 96.48 370.496 95.43 371.476 94.61C372.456 93.79 373.696 93.16 375.196 92.72C376.496 92.36 377.926 92.16 379.486 92.12V91.37C379.486 89.67 379.286 88.42 378.886 87.62C378.486 86.82 377.796 86.42 376.816 86.42C376.176 86.42 375.656 86.61 375.256 86.99C374.856 87.35 374.656 87.91 374.656 88.67C374.656 89.73 375.016 90.47 375.736 90.89C375.516 91.11 375.216 91.28 374.836 91.4C374.476 91.52 374.086 91.58 373.666 91.58C372.746 91.58 372.016 91.32 371.476 90.8C370.956 90.28 370.696 89.62 370.696 88.82C370.696 87.64 371.266 86.73 372.406 86.09C373.546 85.43 375.096 85.1 377.056 85.1C379.276 85.1 380.896 85.61 381.916 86.63C382.956 87.65 383.476 89.31 383.476 91.61V96.83C383.476 97.89 383.806 98.42 384.466 98.42C384.606 98.42 384.756 98.39 384.916 98.33C385.076 98.25 385.206 98.14 385.306 98ZM375.736 98.78C376.316 98.78 376.906 98.54 377.506 98.06C378.106 97.58 378.606 96.93 379.006 96.11C379.406 95.27 379.606 94.36 379.606 93.38C378.026 93.38 376.846 93.6 376.066 94.04C375.506 94.32 375.056 94.7 374.716 95.18C374.396 95.66 374.236 96.21 374.236 96.83C374.236 97.37 374.356 97.83 374.596 98.21C374.856 98.59 375.236 98.78 375.736 98.78ZM401.579 96.77C401.639 98.43 401.839 99.69 402.179 100.55C401.519 101.13 400.769 101.42 399.929 101.42C399.289 101.42 398.759 101.24 398.339 100.88C397.919 100.52 397.709 100.03 397.709 99.41V91.76C397.689 90.14 397.519 88.95 397.199 88.19C396.879 87.43 396.289 87.05 395.429 87.05C394.469 87.05 393.689 87.64 393.089 88.82C392.489 89.98 392.189 91.68 392.189 93.92C392.189 96.12 392.219 97.6 392.279 98.36C392.339 99.1 392.519 99.84 392.819 100.58C392.619 100.78 392.319 100.97 391.919 101.15C391.539 101.33 391.109 101.42 390.629 101.42C389.949 101.42 389.399 101.22 388.979 100.82C388.559 100.42 388.349 99.89 388.349 99.23V89.6C388.329 89.04 388.259 88.64 388.139 88.4C388.019 88.14 387.819 88.01 387.539 88.01C387.159 88.01 386.899 88.13 386.759 88.37C386.519 87.97 386.399 87.56 386.399 87.14C386.399 86.54 386.599 86.06 386.999 85.7C387.419 85.32 387.999 85.13 388.739 85.13C389.659 85.13 390.379 85.43 390.899 86.03C391.439 86.61 391.719 87.49 391.739 88.67C392.599 86.29 394.269 85.1 396.749 85.1C398.389 85.1 399.599 85.61 400.379 86.63C401.179 87.63 401.579 89.14 401.579 91.16V96.77ZM418.527 99.44C418.527 102.36 417.837 104.47 416.457 105.77C415.077 107.09 413.187 107.75 410.787 107.75C407.007 107.75 405.117 106.7 405.117 104.6C405.117 103.96 405.357 103.43 405.837 103.01C406.337 102.61 406.987 102.41 407.787 102.41C408.627 102.41 409.217 102.63 409.557 103.07C409.277 103.27 409.067 103.5 408.927 103.76C408.787 104.04 408.717 104.31 408.717 104.57C408.717 105.17 408.907 105.65 409.287 106.01C409.667 106.37 410.197 106.55 410.877 106.55C412.177 106.55 413.167 105.96 413.847 104.78C414.547 103.62 414.897 102.02 414.897 99.98C414.897 99.58 414.977 98.76 415.137 97.52C414.317 99.98 412.657 101.21 410.157 101.21C408.557 101.21 407.377 100.74 406.617 99.8C405.857 98.86 405.477 97.31 405.477 95.15V89.78C405.477 88.26 405.287 86.99 404.907 85.97C405.607 85.39 406.347 85.1 407.127 85.1C407.787 85.1 408.317 85.28 408.717 85.64C409.137 86 409.347 86.5 409.347 87.14L409.377 94.55C409.377 96.23 409.517 97.46 409.797 98.24C410.097 99 410.647 99.38 411.447 99.38C412.427 99.38 413.207 98.8 413.787 97.64C414.387 96.46 414.687 94.76 414.687 92.54C414.687 90.36 414.657 88.9 414.597 88.16C414.537 87.42 414.347 86.68 414.027 85.94C414.247 85.74 414.547 85.55 414.927 85.37C415.327 85.19 415.767 85.1 416.247 85.1C416.887 85.1 417.417 85.3 417.837 85.7C418.277 86.1 418.497 86.64 418.497 87.32L418.527 99.44ZM444.406 96.77C444.406 98.29 444.596 99.55 444.976 100.55C444.316 101.13 443.576 101.42 442.756 101.42C442.096 101.42 441.556 101.24 441.136 100.88C440.716 100.52 440.506 100.03 440.506 99.41V91.76C440.506 90.18 440.386 88.98 440.146 88.16C439.906 87.34 439.386 86.93 438.586 86.93C438.026 86.93 437.506 87.19 437.026 87.71C436.566 88.21 436.186 88.98 435.886 90.02C435.586 91.06 435.426 92.32 435.406 93.8L435.436 96.77C435.436 98.35 435.616 99.61 435.976 100.55C435.356 101.13 434.636 101.42 433.816 101.42C433.196 101.42 432.686 101.24 432.286 100.88C431.886 100.52 431.686 100.03 431.686 99.41L431.656 91.76C431.656 90.08 431.506 88.86 431.206 88.1C430.926 87.32 430.376 86.93 429.556 86.93C428.676 86.93 427.956 87.53 427.396 88.73C426.856 89.93 426.586 91.69 426.586 94.01C426.586 96.17 426.616 97.63 426.676 98.39C426.736 99.13 426.916 99.86 427.216 100.58C426.656 101.14 425.916 101.42 424.996 101.42C424.356 101.42 423.826 101.22 423.406 100.82C422.986 100.42 422.776 99.89 422.776 99.23L422.746 89.6C422.746 88.54 422.456 88.01 421.876 88.01C421.716 88.01 421.556 88.05 421.396 88.13C421.236 88.19 421.116 88.3 421.036 88.46C420.796 88.08 420.676 87.67 420.676 87.23C420.676 86.61 420.886 86.11 421.306 85.73C421.746 85.33 422.336 85.13 423.076 85.13C423.976 85.13 424.686 85.44 425.206 86.06C425.726 86.66 426.026 87.56 426.106 88.76C426.486 87.6 427.066 86.7 427.846 86.06C428.626 85.42 429.626 85.1 430.846 85.1C432.046 85.1 432.986 85.4 433.666 86C434.366 86.58 434.856 87.46 435.136 88.64C435.516 87.54 436.106 86.68 436.906 86.06C437.706 85.42 438.686 85.1 439.846 85.1C442.886 85.1 444.406 87.12 444.406 91.16V96.77ZM454.699 101.42C452.399 101.42 450.599 100.71 449.299 99.29C447.999 97.85 447.349 95.85 447.349 93.29C447.349 90.71 447.989 88.7 449.269 87.26C450.569 85.82 452.379 85.1 454.699 85.1C456.999 85.1 458.789 85.82 460.069 87.26C461.369 88.7 462.019 90.71 462.019 93.29C462.019 95.85 461.369 97.85 460.069 99.29C458.789 100.71 456.999 101.42 454.699 101.42ZM454.699 100.07C456.799 100.07 457.849 97.81 457.849 93.29C457.849 88.73 456.799 86.45 454.699 86.45C453.619 86.45 452.819 87.02 452.299 88.16C451.779 89.3 451.519 91.01 451.519 93.29C451.519 95.55 451.779 97.25 452.299 98.39C452.819 99.51 453.619 100.07 454.699 100.07ZM472.866 85.1C474.006 85.1 474.926 85.41 475.626 86.03C476.346 86.63 476.706 87.46 476.706 88.52C476.706 89.28 476.476 89.91 476.016 90.41C475.556 90.91 474.976 91.17 474.276 91.19C473.476 91.19 472.886 90.98 472.506 90.56C472.726 90.2 472.876 89.87 472.956 89.57C473.036 89.27 473.076 88.92 473.076 88.52C473.076 88 472.966 87.61 472.746 87.35C472.526 87.07 472.196 86.93 471.756 86.93C471.016 86.93 470.436 87.52 470.016 88.7C469.596 89.86 469.386 91.6 469.386 93.92C469.386 96.06 469.416 97.51 469.476 98.27C469.536 99.01 469.716 99.74 470.016 100.46C469.796 100.68 469.496 100.87 469.116 101.03C468.736 101.21 468.296 101.31 467.796 101.33C467.176 101.33 466.646 101.13 466.206 100.73C465.766 100.33 465.546 99.79 465.546 99.11V89.6C465.546 89.04 465.476 88.64 465.336 88.4C465.216 88.14 465.016 88.01 464.736 88.01C464.356 88.01 464.096 88.13 463.956 88.37C463.716 87.97 463.596 87.56 463.596 87.14C463.596 86.54 463.796 86.06 464.196 85.7C464.616 85.32 465.196 85.13 465.936 85.13C466.816 85.13 467.516 85.4 468.036 85.94C468.556 86.48 468.856 87.29 468.936 88.37C469.616 86.19 470.926 85.1 472.866 85.1ZM491.159 96.68C491.479 96.82 491.639 97.09 491.639 97.49C491.639 97.75 491.569 98.05 491.429 98.39C491.049 99.35 490.359 100.1 489.359 100.64C488.359 101.16 487.149 101.42 485.729 101.42C483.409 101.42 481.569 100.71 480.209 99.29C478.849 97.85 478.169 95.83 478.169 93.23C478.169 90.69 478.829 88.7 480.149 87.26C481.469 85.82 483.349 85.1 485.789 85.1C487.569 85.1 489.029 85.5 490.169 86.3C491.309 87.08 491.879 88.19 491.879 89.63C491.879 91.09 491.289 92.22 490.109 93.02C488.929 93.82 487.349 94.22 485.369 94.22C484.089 94.22 483.099 94.18 482.399 94.1C482.539 95.84 482.979 97.09 483.719 97.85C484.479 98.61 485.519 98.99 486.839 98.99C487.899 98.99 488.799 98.78 489.539 98.36C490.279 97.94 490.819 97.38 491.159 96.68ZM485.639 86.45C484.599 86.45 483.789 87.01 483.209 88.13C482.629 89.23 482.339 90.76 482.339 92.72V92.75L483.359 92.78C484.599 92.78 485.629 92.52 486.449 92C487.289 91.48 487.709 90.48 487.709 89C487.709 87.3 487.019 86.45 485.639 86.45ZM36.38 147C36.64 147.38 36.77 147.79 36.77 148.23C36.77 148.81 36.52 149.3 36.02 149.7C35.52 150.1 34.85 150.3 34.01 150.3C33.05 150.3 32.3 149.99 31.76 149.37C31.22 148.73 30.91 147.7 30.83 146.28C30.27 147.5 29.49 148.48 28.49 149.22C27.49 149.94 26.33 150.3 25.01 150.3C23.83 150.3 22.88 149.99 22.16 149.37C21.44 148.75 21.08 147.88 21.08 146.76C21.08 145.48 21.57 144.43 22.55 143.61C23.53 142.79 24.77 142.16 26.27 141.72C27.57 141.36 29 141.16 30.56 141.12V140.37C30.56 138.67 30.36 137.42 29.96 136.62C29.56 135.82 28.87 135.42 27.89 135.42C27.25 135.42 26.73 135.61 26.33 135.99C25.93 136.35 25.73 136.91 25.73 137.67C25.73 138.73 26.09 139.47 26.81 139.89C26.59 140.11 26.29 140.28 25.91 140.4C25.55 140.52 25.16 140.58 24.74 140.58C23.82 140.58 23.09 140.32 22.55 139.8C22.03 139.28 21.77 138.62 21.77 137.82C21.77 136.64 22.34 135.73 23.48 135.09C24.62 134.43 26.17 134.1 28.13 134.1C30.35 134.1 31.97 134.61 32.99 135.63C34.03 136.65 34.55 138.31 34.55 140.61V145.83C34.55 146.89 34.88 147.42 35.54 147.42C35.68 147.42 35.83 147.39 35.99 147.33C36.15 147.25 36.28 147.14 36.38 147ZM26.81 147.78C27.39 147.78 27.98 147.54 28.58 147.06C29.18 146.58 29.68 145.93 30.08 145.11C30.48 144.27 30.68 143.36 30.68 142.38C29.1 142.38 27.92 142.6 27.14 143.04C26.58 143.32 26.13 143.7 25.79 144.18C25.47 144.66 25.31 145.21 25.31 145.83C25.31 146.37 25.43 146.83 25.67 147.21C25.93 147.59 26.31 147.78 26.81 147.78ZM52.6529 145.77C52.7129 147.43 52.9129 148.69 53.2529 149.55C52.5929 150.13 51.8429 150.42 51.0029 150.42C50.3629 150.42 49.8329 150.24 49.4129 149.88C48.9929 149.52 48.7829 149.03 48.7829 148.41V140.76C48.7629 139.14 48.5929 137.95 48.2729 137.19C47.9529 136.43 47.3629 136.05 46.5029 136.05C45.5429 136.05 44.7629 136.64 44.1629 137.82C43.5629 138.98 43.2629 140.68 43.2629 142.92C43.2629 145.12 43.2929 146.6 43.3529 147.36C43.4129 148.1 43.5929 148.84 43.8929 149.58C43.6929 149.78 43.3929 149.97 42.9929 150.15C42.6129 150.33 42.1829 150.42 41.7029 150.42C41.0229 150.42 40.4729 150.22 40.0529 149.82C39.6329 149.42 39.4229 148.89 39.4229 148.23V138.6C39.4029 138.04 39.3329 137.64 39.2129 137.4C39.0929 137.14 38.8929 137.01 38.6129 137.01C38.2329 137.01 37.9729 137.13 37.8329 137.37C37.5929 136.97 37.4729 136.56 37.4729 136.14C37.4729 135.54 37.6729 135.06 38.0729 134.7C38.4929 134.32 39.0729 134.13 39.8129 134.13C40.7329 134.13 41.4529 134.43 41.9729 135.03C42.5129 135.61 42.7929 136.49 42.8129 137.67C43.6729 135.29 45.3429 134.1 47.8229 134.1C49.4629 134.1 50.6729 134.61 51.4529 135.63C52.2529 136.63 52.6529 138.14 52.6529 140.16V145.77ZM71.281 147.03C71.541 147.43 71.671 147.84 71.671 148.26C71.671 148.84 71.421 149.32 70.921 149.7C70.441 150.08 69.841 150.27 69.121 150.27C68.181 150.27 67.451 149.93 66.931 149.25C66.411 148.57 66.091 147.6 65.971 146.34C65.071 149.06 63.391 150.42 60.931 150.42C59.091 150.42 57.741 149.73 56.881 148.35C56.021 146.97 55.591 145.13 55.591 142.83C55.591 140.05 56.141 137.9 57.241 136.38C58.361 134.86 59.951 134.1 62.011 134.1C62.931 134.1 63.701 134.26 64.321 134.58C64.961 134.9 65.421 135.36 65.701 135.96V134.34C65.701 132.16 65.491 130.34 65.071 128.88C65.711 128.3 66.451 128.01 67.291 128.01C67.931 128.01 68.461 128.2 68.881 128.58C69.301 128.94 69.511 129.43 69.511 130.05L69.481 145.83C69.481 146.87 69.821 147.39 70.501 147.39C70.881 147.39 71.141 147.27 71.281 147.03ZM62.071 148.29C63.231 148.29 64.111 147.52 64.711 145.98C65.311 144.42 65.611 142.55 65.611 140.37C65.611 139.05 65.431 138 65.071 137.22C64.711 136.44 64.011 136.05 62.971 136.05C61.851 136.05 61.031 136.62 60.511 137.76C60.011 138.88 59.761 140.54 59.761 142.74C59.761 144.64 59.931 146.04 60.271 146.94C60.611 147.84 61.211 148.29 62.071 148.29ZM82.6138 132.27C82.0138 132.27 81.5038 132.07 81.0838 131.67C80.6638 131.25 80.4538 130.73 80.4538 130.11C80.4538 129.51 80.6638 129.01 81.0838 128.61C81.5038 128.19 82.0138 127.98 82.6138 127.98C83.2138 127.98 83.7238 128.19 84.1438 128.61C84.5638 129.01 84.7738 129.51 84.7738 130.11C84.7738 130.73 84.5638 131.25 84.1438 131.67C83.7238 132.07 83.2138 132.27 82.6138 132.27ZM79.2238 156.84C77.9637 156.84 77.0137 156.6 76.3737 156.12C75.7337 155.64 75.4137 155.01 75.4137 154.23C75.4137 153.69 75.5937 153.23 75.9537 152.85C76.2937 152.47 76.7937 152.28 77.4537 152.28C77.7937 152.28 78.0737 152.34 78.2937 152.46C78.4937 152.6 78.6738 152.82 78.8338 153.12C78.5337 153.62 78.3837 154.07 78.3837 154.47C78.3837 154.83 78.4737 155.11 78.6538 155.31C78.8538 155.51 79.0938 155.61 79.3738 155.61C79.8338 155.61 80.1638 155.36 80.3638 154.86C80.5838 154.36 80.7138 153.74 80.7538 153C80.8138 152.26 80.8438 151.25 80.8438 149.97L80.8738 138.78C80.8738 137.2 80.6938 135.93 80.3338 134.97C80.6138 134.71 80.9338 134.5 81.2938 134.34C81.6738 134.18 82.0738 134.1 82.4938 134.1C83.1338 134.1 83.6538 134.29 84.0538 134.67C84.4738 135.03 84.6838 135.52 84.6838 136.14V150.66C84.6838 152.5 84.2438 153.99 83.3638 155.13C82.5038 156.27 81.1238 156.84 79.2238 156.84ZM103.212 147.18C103.472 147.56 103.602 147.96 103.602 148.38C103.602 149 103.392 149.49 102.972 149.85C102.572 150.21 101.992 150.39 101.232 150.39C100.332 150.39 99.6118 150.1 99.0718 149.52C98.5518 148.94 98.2718 148.07 98.2318 146.91C97.3918 149.27 95.7618 150.45 93.3418 150.45C91.7018 150.45 90.5018 149.98 89.7418 149.04C88.9818 148.1 88.6018 146.54 88.6018 144.36V138.78C88.6018 137.26 88.4118 135.99 88.0318 134.97C88.7318 134.39 89.4718 134.1 90.2518 134.1C90.9118 134.1 91.4418 134.28 91.8418 134.64C92.2618 135 92.4718 135.5 92.4718 136.14L92.5018 143.76C92.5018 145.48 92.6518 146.72 92.9518 147.48C93.2518 148.24 93.8118 148.62 94.6318 148.62C95.5918 148.62 96.3618 148.02 96.9418 146.82C97.5218 145.62 97.8118 143.88 97.8118 141.6C97.8118 139.4 97.7818 137.93 97.7218 137.19C97.6618 136.43 97.4718 135.68 97.1518 134.94C97.3718 134.74 97.6718 134.55 98.0518 134.37C98.4518 134.19 98.8918 134.1 99.3718 134.1C100.012 134.1 100.542 134.3 100.962 134.7C101.402 135.1 101.622 135.64 101.622 136.32L101.652 145.95C101.652 146.51 101.712 146.91 101.832 147.15C101.952 147.39 102.152 147.51 102.432 147.51C102.772 147.51 103.032 147.4 103.212 147.18ZM110.653 150.42C108.773 150.42 107.343 150.1 106.363 149.46C105.403 148.82 104.923 147.97 104.923 146.91C104.923 146.35 105.093 145.86 105.433 145.44C105.793 145.02 106.353 144.81 107.113 144.81C107.253 144.81 107.483 144.83 107.803 144.87C107.763 145.03 107.743 145.26 107.743 145.56C107.743 145.9 107.783 146.2 107.863 146.46C107.963 147.16 108.293 147.76 108.853 148.26C109.413 148.74 110.193 148.98 111.193 148.98C112.013 148.98 112.673 148.83 113.173 148.53C113.673 148.21 113.923 147.74 113.923 147.12C113.923 146.62 113.763 146.2 113.443 145.86C113.143 145.5 112.783 145.21 112.363 144.99C111.963 144.75 111.293 144.41 110.353 143.97C109.273 143.45 108.413 142.99 107.773 142.59C107.133 142.19 106.583 141.65 106.123 140.97C105.663 140.29 105.433 139.45 105.433 138.45C105.433 136.99 105.993 135.9 107.113 135.18C108.233 134.44 109.653 134.07 111.373 134.07C113.033 134.07 114.353 134.33 115.333 134.85C116.333 135.35 116.833 136.07 116.833 137.01C116.833 137.51 116.683 137.93 116.383 138.27C116.103 138.61 115.643 138.79 115.003 138.81C114.903 138.83 114.753 138.84 114.553 138.84C114.433 138.84 114.233 138.82 113.953 138.78C113.973 138.68 113.983 138.51 113.983 138.27C113.983 137.77 113.903 137.36 113.743 137.04C113.583 136.54 113.283 136.15 112.843 135.87C112.403 135.59 111.863 135.45 111.223 135.45C110.563 135.45 110.013 135.59 109.573 135.87C109.133 136.15 108.913 136.57 108.913 137.13C108.913 137.65 109.073 138.11 109.393 138.51C109.713 138.89 110.103 139.22 110.563 139.5C111.043 139.76 111.713 140.1 112.573 140.52C113.653 141.04 114.513 141.5 115.153 141.9C115.813 142.28 116.373 142.78 116.833 143.4C117.313 144.02 117.553 144.76 117.553 145.62C117.553 146.46 117.313 147.25 116.833 147.99C116.373 148.71 115.623 149.3 114.583 149.76C113.563 150.2 112.253 150.42 110.653 150.42ZM124.711 134.55C125.131 134.55 125.791 134.54 126.691 134.52C127.611 134.48 128.131 134.45 128.251 134.43L128.221 135.36C128.201 135.66 128.101 135.9 127.921 136.08C127.741 136.24 127.511 136.32 127.231 136.32H124.561V137.22V145.83C124.561 146.89 125.021 147.42 125.941 147.42C126.181 147.42 126.421 147.39 126.661 147.33C126.921 147.25 127.081 147.14 127.141 147C127.401 147.34 127.531 147.75 127.531 148.23C127.531 148.85 127.241 149.35 126.661 149.73C126.081 150.11 125.311 150.3 124.351 150.3C123.191 150.3 122.291 149.93 121.651 149.19C121.011 148.45 120.691 147.44 120.691 146.16V136.32H120.271C119.451 136.32 118.851 136.35 118.471 136.41L118.501 135.48C118.521 135.18 118.621 134.95 118.801 134.79C119.001 134.63 119.241 134.55 119.521 134.55H120.691V132.54C120.691 131.92 120.901 131.43 121.321 131.07C121.741 130.71 122.281 130.53 122.941 130.53C123.421 130.53 123.851 130.62 124.231 130.8C124.611 130.98 124.911 131.18 125.131 131.4C124.871 132.42 124.701 133.47 124.621 134.55H124.711ZM150.493 145.77C150.493 147.29 150.683 148.55 151.063 149.55C150.403 150.13 149.673 150.42 148.873 150.42C148.233 150.42 147.703 150.24 147.283 149.88C146.863 149.52 146.653 149.03 146.653 148.41V140.76C146.653 139.1 146.483 137.88 146.143 137.1C145.823 136.32 145.233 135.93 144.373 135.93C143.393 135.93 142.603 136.53 142.003 137.73C141.403 138.93 141.103 140.66 141.103 142.92C141.103 145.12 141.133 146.6 141.193 147.36C141.253 148.1 141.443 148.84 141.763 149.58C141.563 149.78 141.263 149.97 140.863 150.15C140.483 150.33 140.053 150.42 139.573 150.42C138.913 150.42 138.373 150.22 137.953 149.82C137.533 149.42 137.323 148.89 137.323 148.23L137.293 130.05C137.293 129.39 137.483 128.89 137.863 128.55C138.243 128.21 138.743 128.04 139.363 128.04C139.843 128.04 140.303 128.13 140.743 128.31C141.183 128.49 141.523 128.68 141.763 128.88C141.503 129.72 141.333 130.66 141.253 131.7C141.173 132.74 141.123 134.12 141.103 135.84V137.16C141.943 135.12 143.463 134.1 145.663 134.1C147.303 134.1 148.513 134.61 149.293 135.63C150.093 136.63 150.493 138.14 150.493 140.16V145.77ZM166.433 145.68C166.753 145.82 166.913 146.09 166.913 146.49C166.913 146.75 166.843 147.05 166.703 147.39C166.323 148.35 165.633 149.1 164.633 149.64C163.633 150.16 162.423 150.42 161.003 150.42C158.683 150.42 156.843 149.71 155.483 148.29C154.123 146.85 153.443 144.83 153.443 142.23C153.443 139.69 154.103 137.7 155.423 136.26C156.743 134.82 158.623 134.1 161.063 134.1C162.843 134.1 164.303 134.5 165.443 135.3C166.583 136.08 167.153 137.19 167.153 138.63C167.153 140.09 166.563 141.22 165.383 142.02C164.203 142.82 162.623 143.22 160.643 143.22C159.363 143.22 158.373 143.18 157.673 143.1C157.813 144.84 158.253 146.09 158.993 146.85C159.753 147.61 160.793 147.99 162.113 147.99C163.173 147.99 164.073 147.78 164.813 147.36C165.553 146.94 166.093 146.38 166.433 145.68ZM160.913 135.45C159.873 135.45 159.063 136.01 158.483 137.13C157.903 138.23 157.613 139.76 157.613 141.72V141.75L158.633 141.78C159.873 141.78 160.903 141.52 161.723 141C162.563 140.48 162.983 139.48 162.983 138C162.983 136.3 162.293 135.45 160.913 135.45ZM184.534 147C184.794 147.38 184.924 147.79 184.924 148.23C184.924 148.81 184.674 149.3 184.174 149.7C183.674 150.1 183.004 150.3 182.164 150.3C181.204 150.3 180.454 149.99 179.914 149.37C179.374 148.73 179.064 147.7 178.984 146.28C178.424 147.5 177.644 148.48 176.644 149.22C175.644 149.94 174.484 150.3 173.164 150.3C171.984 150.3 171.034 149.99 170.314 149.37C169.594 148.75 169.234 147.88 169.234 146.76C169.234 145.48 169.724 144.43 170.704 143.61C171.684 142.79 172.924 142.16 174.424 141.72C175.724 141.36 177.154 141.16 178.714 141.12V140.37C178.714 138.67 178.514 137.42 178.114 136.62C177.714 135.82 177.024 135.42 176.044 135.42C175.404 135.42 174.884 135.61 174.484 135.99C174.084 136.35 173.884 136.91 173.884 137.67C173.884 138.73 174.244 139.47 174.964 139.89C174.744 140.11 174.444 140.28 174.064 140.4C173.704 140.52 173.314 140.58 172.894 140.58C171.974 140.58 171.244 140.32 170.704 139.8C170.184 139.28 169.924 138.62 169.924 137.82C169.924 136.64 170.494 135.73 171.634 135.09C172.774 134.43 174.324 134.1 176.284 134.1C178.504 134.1 180.124 134.61 181.144 135.63C182.184 136.65 182.704 138.31 182.704 140.61V145.83C182.704 146.89 183.034 147.42 183.694 147.42C183.834 147.42 183.984 147.39 184.144 147.33C184.304 147.25 184.434 147.14 184.534 147ZM174.964 147.78C175.544 147.78 176.134 147.54 176.734 147.06C177.334 146.58 177.834 145.93 178.234 145.11C178.634 144.27 178.834 143.36 178.834 142.38C177.254 142.38 176.074 142.6 175.294 143.04C174.734 143.32 174.284 143.7 173.944 144.18C173.624 144.66 173.464 145.21 173.464 145.83C173.464 146.37 173.584 146.83 173.824 147.21C174.084 147.59 174.464 147.78 174.964 147.78ZM196.127 134.1C198.007 134.1 199.367 134.81 200.207 136.23C201.067 137.63 201.497 139.45 201.497 141.69C201.497 144.49 200.917 146.65 199.757 148.17C198.617 149.67 197.037 150.42 195.017 150.42C194.137 150.42 193.377 150.27 192.737 149.97C192.117 149.65 191.667 149.19 191.387 148.59V150.12C191.387 152.36 191.587 154.21 191.987 155.67C191.747 155.89 191.437 156.08 191.057 156.24C190.677 156.42 190.247 156.51 189.767 156.51C189.127 156.51 188.597 156.33 188.177 155.97C187.757 155.61 187.547 155.13 187.547 154.53L187.577 138.69C187.577 138.15 187.507 137.76 187.367 137.52C187.247 137.28 187.047 137.16 186.767 137.16C186.387 137.16 186.127 137.27 185.987 137.49C185.747 137.09 185.627 136.68 185.627 136.26C185.627 135.68 185.847 135.2 186.287 134.82C186.727 134.44 187.297 134.25 187.997 134.25C188.917 134.25 189.627 134.59 190.127 135.27C190.647 135.95 190.967 136.92 191.087 138.18C191.987 135.46 193.667 134.1 196.127 134.1ZM194.057 148.41C195.197 148.41 196.027 147.84 196.547 146.7C197.087 145.56 197.357 143.88 197.357 141.66C197.357 139.86 197.187 138.5 196.847 137.58C196.507 136.66 195.887 136.2 194.987 136.2C193.847 136.2 192.967 136.96 192.347 138.48C191.747 139.98 191.447 141.74 191.447 143.76C191.447 145.34 191.647 146.51 192.047 147.27C192.447 148.03 193.117 148.41 194.057 148.41ZM206.628 132.63C206.008 132.63 205.478 132.42 205.038 132C204.598 131.56 204.378 131.03 204.378 130.41C204.378 129.77 204.598 129.24 205.038 128.82C205.478 128.38 206.008 128.16 206.628 128.16C207.248 128.16 207.768 128.38 208.188 128.82C208.608 129.24 208.818 129.77 208.818 130.41C208.818 131.03 208.608 131.56 208.188 132C207.768 132.42 207.248 132.63 206.628 132.63ZM208.698 145.77C208.698 147.35 208.888 148.61 209.268 149.55C208.628 150.13 207.878 150.42 207.018 150.42C206.398 150.42 205.878 150.24 205.458 149.88C205.058 149.52 204.858 149.03 204.858 148.41V138.75C204.858 137.23 204.668 135.96 204.288 134.94C204.908 134.38 205.628 134.1 206.448 134.1C207.108 134.1 207.638 134.28 208.038 134.64C208.458 134.98 208.668 135.47 208.668 136.11L208.698 145.77ZM226.442 145.77C226.502 147.43 226.702 148.69 227.042 149.55C226.382 150.13 225.632 150.42 224.792 150.42C224.152 150.42 223.622 150.24 223.202 149.88C222.782 149.52 222.572 149.03 222.572 148.41V140.76C222.552 139.14 222.382 137.95 222.062 137.19C221.742 136.43 221.152 136.05 220.292 136.05C219.332 136.05 218.552 136.64 217.952 137.82C217.352 138.98 217.052 140.68 217.052 142.92C217.052 145.12 217.082 146.6 217.142 147.36C217.202 148.1 217.382 148.84 217.682 149.58C217.482 149.78 217.182 149.97 216.782 150.15C216.402 150.33 215.972 150.42 215.492 150.42C214.812 150.42 214.262 150.22 213.842 149.82C213.422 149.42 213.212 148.89 213.212 148.23V138.6C213.192 138.04 213.122 137.64 213.002 137.4C212.882 137.14 212.682 137.01 212.402 137.01C212.022 137.01 211.762 137.13 211.622 137.37C211.382 136.97 211.262 136.56 211.262 136.14C211.262 135.54 211.462 135.06 211.862 134.7C212.282 134.32 212.862 134.13 213.602 134.13C214.522 134.13 215.242 134.43 215.762 135.03C216.302 135.61 216.582 136.49 216.602 137.67C217.462 135.29 219.132 134.1 221.612 134.1C223.252 134.1 224.462 134.61 225.242 135.63C226.042 136.63 226.442 138.14 226.442 140.16V145.77ZM235.14 156.75C233.52 156.75 232.17 156.46 231.09 155.88C230.03 155.32 229.5 154.46 229.5 153.3C229.5 152.54 229.75 151.93 230.25 151.47C230.75 151.03 231.4 150.81 232.2 150.81C233.02 150.81 233.62 151.03 234 151.47C233.4 151.99 233.1 152.67 233.1 153.51C233.1 154.13 233.28 154.62 233.64 154.98C234 155.36 234.54 155.55 235.26 155.55C236.56 155.55 237.54 154.98 238.2 153.84C238.88 152.7 239.22 151.14 239.22 149.16C239.22 148.16 239.23 147.42 239.25 146.94C238.91 147.92 238.35 148.67 237.57 149.19C236.81 149.71 235.86 149.97 234.72 149.97C233.04 149.97 231.73 149.38 230.79 148.2C229.85 147.02 229.38 145.13 229.38 142.53C229.38 139.95 229.96 137.9 231.12 136.38C232.28 134.86 234.14 134.1 236.7 134.1C237.96 134.1 239.15 134.28 240.27 134.64C241.39 134.98 242.32 135.46 243.06 136.08V148.68C243.06 151.52 242.35 153.57 240.93 154.83C239.53 156.11 237.6 156.75 235.14 156.75ZM235.89 148.17C236.97 148.17 237.78 147.67 238.32 146.67C238.88 145.67 239.17 144.29 239.19 142.53L239.22 136.14C238.94 135.92 238.59 135.75 238.17 135.63C237.77 135.51 237.35 135.45 236.91 135.45C235.61 135.45 234.72 136.07 234.24 137.31C233.76 138.55 233.52 140.42 233.52 142.92C233.52 144.24 233.59 145.28 233.73 146.04C233.89 146.78 234.14 147.32 234.48 147.66C234.82 148 235.29 148.17 235.89 148.17ZM255.173 132.63C254.553 132.63 254.023 132.42 253.583 132C253.143 131.56 252.923 131.03 252.923 130.41C252.923 129.77 253.143 129.24 253.583 128.82C254.023 128.38 254.553 128.16 255.173 128.16C255.793 128.16 256.313 128.38 256.733 128.82C257.153 129.24 257.363 129.77 257.363 130.41C257.363 131.03 257.153 131.56 256.733 132C256.313 132.42 255.793 132.63 255.173 132.63ZM257.243 145.77C257.243 147.35 257.433 148.61 257.813 149.55C257.173 150.13 256.423 150.42 255.563 150.42C254.943 150.42 254.423 150.24 254.003 149.88C253.603 149.52 253.403 149.03 253.403 148.41V138.75C253.403 137.23 253.213 135.96 252.833 134.94C253.453 134.38 254.173 134.1 254.993 134.1C255.653 134.1 256.183 134.28 256.583 134.64C257.003 134.98 257.213 135.47 257.213 136.11L257.243 145.77ZM265.717 134.55C266.137 134.55 266.797 134.54 267.697 134.52C268.617 134.48 269.137 134.45 269.257 134.43L269.227 135.36C269.207 135.66 269.107 135.9 268.927 136.08C268.747 136.24 268.517 136.32 268.237 136.32H265.567V137.22V145.83C265.567 146.89 266.027 147.42 266.947 147.42C267.187 147.42 267.427 147.39 267.667 147.33C267.927 147.25 268.087 147.14 268.147 147C268.407 147.34 268.537 147.75 268.537 148.23C268.537 148.85 268.247 149.35 267.667 149.73C267.087 150.11 266.317 150.3 265.357 150.3C264.197 150.3 263.297 149.93 262.657 149.19C262.017 148.45 261.697 147.44 261.697 146.16V136.32H261.277C260.457 136.32 259.857 136.35 259.477 136.41L259.507 135.48C259.527 135.18 259.627 134.95 259.807 134.79C260.007 134.63 260.247 134.55 260.527 134.55H261.697V132.54C261.697 131.92 261.907 131.43 262.327 131.07C262.747 130.71 263.287 130.53 263.947 130.53C264.427 130.53 264.857 130.62 265.237 130.8C265.617 130.98 265.917 131.18 266.137 131.4C265.877 132.42 265.707 133.47 265.627 134.55H265.717ZM276.503 150.42C274.623 150.42 273.193 150.1 272.213 149.46C271.253 148.82 270.773 147.97 270.773 146.91C270.773 146.35 270.943 145.86 271.283 145.44C271.643 145.02 272.203 144.81 272.963 144.81C273.103 144.81 273.333 144.83 273.653 144.87C273.613 145.03 273.593 145.26 273.593 145.56C273.593 145.9 273.633 146.2 273.713 146.46C273.813 147.16 274.143 147.76 274.703 148.26C275.263 148.74 276.043 148.98 277.043 148.98C277.863 148.98 278.523 148.83 279.023 148.53C279.523 148.21 279.773 147.74 279.773 147.12C279.773 146.62 279.613 146.2 279.293 145.86C278.993 145.5 278.633 145.21 278.213 144.99C277.813 144.75 277.143 144.41 276.203 143.97C275.123 143.45 274.263 142.99 273.623 142.59C272.983 142.19 272.433 141.65 271.973 140.97C271.513 140.29 271.283 139.45 271.283 138.45C271.283 136.99 271.843 135.9 272.963 135.18C274.083 134.44 275.503 134.07 277.223 134.07C278.883 134.07 280.203 134.33 281.183 134.85C282.183 135.35 282.683 136.07 282.683 137.01C282.683 137.51 282.533 137.93 282.233 138.27C281.953 138.61 281.493 138.79 280.853 138.81C280.753 138.83 280.603 138.84 280.403 138.84C280.283 138.84 280.083 138.82 279.803 138.78C279.823 138.68 279.833 138.51 279.833 138.27C279.833 137.77 279.753 137.36 279.593 137.04C279.433 136.54 279.133 136.15 278.693 135.87C278.253 135.59 277.713 135.45 277.073 135.45C276.413 135.45 275.863 135.59 275.423 135.87C274.983 136.15 274.763 136.57 274.763 137.13C274.763 137.65 274.923 138.11 275.243 138.51C275.563 138.89 275.953 139.22 276.413 139.5C276.893 139.76 277.563 140.1 278.423 140.52C279.503 141.04 280.363 141.5 281.003 141.9C281.663 142.28 282.223 142.78 282.683 143.4C283.163 144.02 283.403 144.76 283.403 145.62C283.403 146.46 283.163 147.25 282.683 147.99C282.223 148.71 281.473 149.3 280.433 149.76C279.413 150.2 278.103 150.42 276.503 150.42ZM288.671 153.24C288.211 153.18 287.791 152.95 287.411 152.55C288.131 151.69 288.491 150.92 288.491 150.24C288.491 149.58 288.311 149.12 287.951 148.86C287.591 148.6 287.121 148.38 286.541 148.2C286.541 147.6 286.751 147.08 287.171 146.64C287.611 146.2 288.161 145.98 288.821 145.98C289.461 145.98 289.991 146.2 290.411 146.64C290.851 147.08 291.071 147.77 291.071 148.71C291.071 150.29 290.271 151.8 288.671 153.24ZM303.923 132.63C303.303 132.63 302.773 132.42 302.333 132C301.893 131.56 301.673 131.03 301.673 130.41C301.673 129.77 301.893 129.24 302.333 128.82C302.773 128.38 303.303 128.16 303.923 128.16C304.543 128.16 305.063 128.38 305.483 128.82C305.903 129.24 306.113 129.77 306.113 130.41C306.113 131.03 305.903 131.56 305.483 132C305.063 132.42 304.543 132.63 303.923 132.63ZM305.993 145.77C305.993 147.35 306.183 148.61 306.563 149.55C305.923 150.13 305.173 150.42 304.313 150.42C303.693 150.42 303.173 150.24 302.753 149.88C302.353 149.52 302.153 149.03 302.153 148.41V138.75C302.153 137.23 301.963 135.96 301.583 134.94C302.203 134.38 302.923 134.1 303.743 134.1C304.403 134.1 304.933 134.28 305.333 134.64C305.753 134.98 305.963 135.47 305.963 136.11L305.993 145.77ZM314.467 134.55C314.887 134.55 315.547 134.54 316.447 134.52C317.367 134.48 317.887 134.45 318.007 134.43L317.977 135.36C317.957 135.66 317.857 135.9 317.677 136.08C317.497 136.24 317.267 136.32 316.987 136.32H314.317V137.22V145.83C314.317 146.89 314.777 147.42 315.697 147.42C315.937 147.42 316.177 147.39 316.417 147.33C316.677 147.25 316.837 147.14 316.897 147C317.157 147.34 317.287 147.75 317.287 148.23C317.287 148.85 316.997 149.35 316.417 149.73C315.837 150.11 315.067 150.3 314.107 150.3C312.947 150.3 312.047 149.93 311.407 149.19C310.767 148.45 310.447 147.44 310.447 146.16V136.32H310.027C309.207 136.32 308.607 136.35 308.227 136.41L308.257 135.48C308.277 135.18 308.377 134.95 308.557 134.79C308.757 134.63 308.997 134.55 309.277 134.55H310.447V132.54C310.447 131.92 310.657 131.43 311.077 131.07C311.497 130.71 312.037 130.53 312.697 130.53C313.177 130.53 313.607 130.62 313.987 130.8C314.367 130.98 314.667 131.18 314.887 131.4C314.627 132.42 314.457 133.47 314.377 134.55H314.467ZM321.503 134.37C321.043 134.31 320.623 134.08 320.243 133.68C320.963 132.82 321.323 132.05 321.323 131.37C321.323 130.71 321.143 130.25 320.783 129.99C320.423 129.73 319.953 129.51 319.373 129.33C319.373 128.73 319.583 128.21 320.003 127.77C320.443 127.33 320.993 127.11 321.653 127.11C322.293 127.11 322.823 127.33 323.243 127.77C323.683 128.21 323.903 128.9 323.903 129.84C323.903 131.42 323.103 132.93 321.503 134.37ZM331.259 150.42C329.379 150.42 327.949 150.1 326.969 149.46C326.009 148.82 325.529 147.97 325.529 146.91C325.529 146.35 325.699 145.86 326.039 145.44C326.399 145.02 326.959 144.81 327.719 144.81C327.859 144.81 328.089 144.83 328.409 144.87C328.369 145.03 328.349 145.26 328.349 145.56C328.349 145.9 328.389 146.2 328.469 146.46C328.569 147.16 328.899 147.76 329.459 148.26C330.019 148.74 330.799 148.98 331.799 148.98C332.619 148.98 333.279 148.83 333.779 148.53C334.279 148.21 334.529 147.74 334.529 147.12C334.529 146.62 334.369 146.2 334.049 145.86C333.749 145.5 333.389 145.21 332.969 144.99C332.569 144.75 331.899 144.41 330.959 143.97C329.879 143.45 329.019 142.99 328.379 142.59C327.739 142.19 327.189 141.65 326.729 140.97C326.269 140.29 326.039 139.45 326.039 138.45C326.039 136.99 326.599 135.9 327.719 135.18C328.839 134.44 330.259 134.07 331.979 134.07C333.639 134.07 334.959 134.33 335.939 134.85C336.939 135.35 337.439 136.07 337.439 137.01C337.439 137.51 337.289 137.93 336.989 138.27C336.709 138.61 336.249 138.79 335.609 138.81C335.509 138.83 335.359 138.84 335.159 138.84C335.039 138.84 334.839 138.82 334.559 138.78C334.579 138.68 334.589 138.51 334.589 138.27C334.589 137.77 334.509 137.36 334.349 137.04C334.189 136.54 333.889 136.15 333.449 135.87C333.009 135.59 332.469 135.45 331.829 135.45C331.169 135.45 330.619 135.59 330.179 135.87C329.739 136.15 329.519 136.57 329.519 137.13C329.519 137.65 329.679 138.11 329.999 138.51C330.319 138.89 330.709 139.22 331.169 139.5C331.649 139.76 332.319 140.1 333.179 140.52C334.259 141.04 335.119 141.5 335.759 141.9C336.419 142.28 336.979 142.78 337.439 143.4C337.919 144.02 338.159 144.76 338.159 145.62C338.159 146.46 337.919 147.25 337.439 147.99C336.979 148.71 336.229 149.3 335.189 149.76C334.169 150.2 332.859 150.42 331.259 150.42ZM351.733 134.55C352.153 134.55 352.813 134.54 353.713 134.52C354.633 134.48 355.153 134.45 355.273 134.43L355.243 135.36C355.223 135.66 355.123 135.9 354.943 136.08C354.763 136.24 354.533 136.32 354.253 136.32H351.583V137.22V145.83C351.583 146.89 352.043 147.42 352.963 147.42C353.203 147.42 353.443 147.39 353.683 147.33C353.943 147.25 354.103 147.14 354.163 147C354.423 147.34 354.553 147.75 354.553 148.23C354.553 148.85 354.263 149.35 353.683 149.73C353.103 150.11 352.333 150.3 351.373 150.3C350.213 150.3 349.313 149.93 348.673 149.19C348.033 148.45 347.713 147.44 347.713 146.16V136.32H347.292C346.473 136.32 345.873 136.35 345.493 136.41L345.523 135.48C345.543 135.18 345.643 134.95 345.823 134.79C346.023 134.63 346.263 134.55 346.543 134.55H347.713V132.54C347.713 131.92 347.923 131.43 348.343 131.07C348.763 130.71 349.303 130.53 349.963 130.53C350.443 130.53 350.873 130.62 351.253 130.8C351.633 130.98 351.933 131.18 352.153 131.4C351.893 132.42 351.723 133.47 351.643 134.55H351.733ZM364.289 150.42C361.989 150.42 360.189 149.71 358.889 148.29C357.589 146.85 356.939 144.85 356.939 142.29C356.939 139.71 357.579 137.7 358.859 136.26C360.159 134.82 361.969 134.1 364.289 134.1C366.589 134.1 368.379 134.82 369.659 136.26C370.959 137.7 371.609 139.71 371.609 142.29C371.609 144.85 370.959 146.85 369.659 148.29C368.379 149.71 366.589 150.42 364.289 150.42ZM364.289 149.07C366.389 149.07 367.439 146.81 367.439 142.29C367.439 137.73 366.389 135.45 364.289 135.45C363.209 135.45 362.409 136.02 361.889 137.16C361.369 138.3 361.109 140.01 361.109 142.29C361.109 144.55 361.369 146.25 361.889 147.39C362.409 148.51 363.209 149.07 364.289 149.07ZM381.076 150.42C378.776 150.42 376.976 149.71 375.676 148.29C374.376 146.85 373.726 144.85 373.726 142.29C373.726 139.71 374.366 137.7 375.646 136.26C376.946 134.82 378.756 134.1 381.076 134.1C383.376 134.1 385.166 134.82 386.446 136.26C387.746 137.7 388.396 139.71 388.396 142.29C388.396 144.85 387.746 146.85 386.446 148.29C385.166 149.71 383.376 150.42 381.076 150.42ZM381.076 149.07C383.176 149.07 384.226 146.81 384.226 142.29C384.226 137.73 383.176 135.45 381.076 135.45C379.996 135.45 379.196 136.02 378.676 137.16C378.156 138.3 377.896 140.01 377.896 142.29C377.896 144.55 378.156 146.25 378.676 147.39C379.196 148.51 379.996 149.07 381.076 149.07ZM404.159 150.42C402.859 150.42 401.629 150.25 400.469 149.91C399.309 149.55 398.379 149.06 397.679 148.44V130.05C397.679 129.43 397.869 128.94 398.249 128.58C398.649 128.2 399.149 128.01 399.749 128.01C400.269 128.01 400.729 128.1 401.129 128.28C401.549 128.46 401.889 128.66 402.149 128.88C401.729 130.56 401.519 132.63 401.519 135.09V137.22C401.879 136.26 402.449 135.5 403.229 134.94C404.029 134.38 404.989 134.1 406.109 134.1C407.789 134.1 409.089 134.72 410.009 135.96C410.949 137.18 411.419 139.09 411.419 141.69C411.419 144.47 410.829 146.62 409.649 148.14C408.489 149.66 406.659 150.42 404.159 150.42ZM403.889 148.86C405.209 148.84 406.099 148.2 406.559 146.94C407.039 145.68 407.279 143.93 407.279 141.69C407.279 139.75 407.119 138.34 406.799 137.46C406.479 136.58 405.949 136.14 405.209 136.14C404.029 136.14 403.119 136.77 402.479 138.03C401.859 139.27 401.549 140.8 401.549 142.62V148.14C401.829 148.36 402.179 148.54 402.599 148.68C403.039 148.8 403.469 148.86 403.889 148.86ZM428.87 147C429.13 147.38 429.26 147.79 429.26 148.23C429.26 148.81 429.01 149.3 428.51 149.7C428.01 150.1 427.34 150.3 426.5 150.3C425.54 150.3 424.79 149.99 424.25 149.37C423.71 148.73 423.4 147.7 423.32 146.28C422.76 147.5 421.98 148.48 420.98 149.22C419.98 149.94 418.82 150.3 417.5 150.3C416.32 150.3 415.37 149.99 414.65 149.37C413.93 148.75 413.57 147.88 413.57 146.76C413.57 145.48 414.06 144.43 415.04 143.61C416.02 142.79 417.26 142.16 418.76 141.72C420.06 141.36 421.49 141.16 423.05 141.12V140.37C423.05 138.67 422.85 137.42 422.45 136.62C422.05 135.82 421.36 135.42 420.38 135.42C419.74 135.42 419.22 135.61 418.82 135.99C418.42 136.35 418.22 136.91 418.22 137.67C418.22 138.73 418.58 139.47 419.3 139.89C419.08 140.11 418.78 140.28 418.4 140.4C418.04 140.52 417.65 140.58 417.23 140.58C416.31 140.58 415.58 140.32 415.04 139.8C414.52 139.28 414.26 138.62 414.26 137.82C414.26 136.64 414.83 135.73 415.97 135.09C417.11 134.43 418.66 134.1 420.62 134.1C422.84 134.1 424.46 134.61 425.48 135.63C426.52 136.65 427.04 138.31 427.04 140.61V145.83C427.04 146.89 427.37 147.42 428.03 147.42C428.17 147.42 428.32 147.39 428.48 147.33C428.64 147.25 428.77 147.14 428.87 147ZM419.3 147.78C419.88 147.78 420.47 147.54 421.07 147.06C421.67 146.58 422.17 145.93 422.57 145.11C422.97 144.27 423.17 143.36 423.17 142.38C421.59 142.38 420.41 142.6 419.63 143.04C419.07 143.32 418.62 143.7 418.28 144.18C417.96 144.66 417.8 145.21 417.8 145.83C417.8 146.37 417.92 146.83 418.16 147.21C418.42 147.59 418.8 147.78 419.3 147.78ZM446.193 147.03C446.453 147.43 446.583 147.84 446.583 148.26C446.583 148.84 446.333 149.32 445.833 149.7C445.353 150.08 444.753 150.27 444.033 150.27C443.093 150.27 442.363 149.93 441.843 149.25C441.323 148.57 441.003 147.6 440.883 146.34C439.983 149.06 438.303 150.42 435.843 150.42C434.003 150.42 432.653 149.73 431.793 148.35C430.933 146.97 430.503 145.13 430.503 142.83C430.503 140.05 431.053 137.9 432.153 136.38C433.273 134.86 434.863 134.1 436.923 134.1C437.843 134.1 438.613 134.26 439.233 134.58C439.873 134.9 440.333 135.36 440.613 135.96V134.34C440.613 132.16 440.403 130.34 439.983 128.88C440.623 128.3 441.363 128.01 442.203 128.01C442.843 128.01 443.373 128.2 443.793 128.58C444.213 128.94 444.423 129.43 444.423 130.05L444.393 145.83C444.393 146.87 444.733 147.39 445.413 147.39C445.793 147.39 446.053 147.27 446.193 147.03ZM436.983 148.29C438.143 148.29 439.023 147.52 439.623 145.98C440.223 144.42 440.523 142.55 440.523 140.37C440.523 139.05 440.343 138 439.983 137.22C439.623 136.44 438.923 136.05 437.883 136.05C436.763 136.05 435.943 136.62 435.423 137.76C434.923 138.88 434.673 140.54 434.673 142.74C434.673 144.64 434.843 146.04 435.183 146.94C435.523 147.84 436.123 148.29 436.983 148.29ZM461.726 127.71C463.166 127.71 464.286 127.94 465.086 128.4C465.886 128.86 466.286 129.51 466.286 130.35C466.286 130.93 466.066 131.41 465.626 131.79C465.206 132.15 464.686 132.33 464.066 132.33C463.266 132.33 462.686 132.13 462.326 131.73C462.706 131.21 462.896 130.7 462.896 130.2C462.896 129.76 462.796 129.44 462.596 129.24C462.396 129.04 462.086 128.94 461.666 128.94C461.086 128.94 460.666 129.19 460.406 129.69C460.146 130.17 459.986 130.77 459.926 131.49C459.866 132.21 459.836 133.23 459.836 134.55H460.406C460.806 134.55 461.426 134.54 462.266 134.52C463.106 134.48 463.586 134.45 463.706 134.43L463.676 135.36C463.656 135.66 463.556 135.9 463.376 136.08C463.196 136.24 462.966 136.32 462.686 136.32H459.836V145.77C459.836 147.29 460.026 148.55 460.406 149.55C459.746 150.13 459.006 150.42 458.186 150.42C457.546 150.42 457.016 150.24 456.596 149.88C456.176 149.52 455.966 149.03 455.966 148.41V136.32H455.696C454.896 136.32 454.296 136.35 453.896 136.41L453.926 135.48C453.946 135.18 454.046 134.95 454.226 134.79C454.426 134.63 454.666 134.55 454.946 134.55H455.966V133.95C455.966 129.79 457.886 127.71 461.726 127.71ZM474.005 150.42C471.705 150.42 469.905 149.71 468.605 148.29C467.305 146.85 466.655 144.85 466.655 142.29C466.655 139.71 467.295 137.7 468.575 136.26C469.875 134.82 471.685 134.1 474.005 134.1C476.305 134.1 478.095 134.82 479.375 136.26C480.675 137.7 481.325 139.71 481.325 142.29C481.325 144.85 480.675 146.85 479.375 148.29C478.095 149.71 476.305 150.42 474.005 150.42ZM474.005 149.07C476.105 149.07 477.155 146.81 477.155 142.29C477.155 137.73 476.105 135.45 474.005 135.45C472.925 135.45 472.125 136.02 471.605 137.16C471.085 138.3 470.825 140.01 470.825 142.29C470.825 144.55 471.085 146.25 471.605 147.39C472.125 148.51 472.925 149.07 474.005 149.07ZM492.173 134.1C493.313 134.1 494.233 134.41 494.933 135.03C495.653 135.63 496.013 136.46 496.013 137.52C496.013 138.28 495.783 138.91 495.323 139.41C494.863 139.91 494.283 140.17 493.583 140.19C492.783 140.19 492.193 139.98 491.813 139.56C492.033 139.2 492.183 138.87 492.263 138.57C492.343 138.27 492.383 137.92 492.383 137.52C492.383 137 492.273 136.61 492.053 136.35C491.833 136.07 491.503 135.93 491.063 135.93C490.323 135.93 489.743 136.52 489.323 137.7C488.903 138.86 488.693 140.6 488.693 142.92C488.693 145.06 488.723 146.51 488.783 147.27C488.843 148.01 489.023 148.74 489.323 149.46C489.103 149.68 488.803 149.87 488.423 150.03C488.043 150.21 487.603 150.31 487.103 150.33C486.483 150.33 485.953 150.13 485.513 149.73C485.073 149.33 484.853 148.79 484.853 148.11V138.6C484.853 138.04 484.783 137.64 484.643 137.4C484.523 137.14 484.323 137.01 484.043 137.01C483.663 137.01 483.403 137.13 483.263 137.37C483.023 136.97 482.903 136.56 482.903 136.14C482.903 135.54 483.103 135.06 483.503 134.7C483.923 134.32 484.503 134.13 485.243 134.13C486.123 134.13 486.823 134.4 487.343 134.94C487.863 135.48 488.163 136.29 488.243 137.37C488.923 135.19 490.233 134.1 492.173 134.1ZM26.42 183.55C26.84 183.55 27.5 183.54 28.4 183.52C29.32 183.48 29.84 183.45 29.96 183.43L29.93 184.36C29.91 184.66 29.81 184.9 29.63 185.08C29.45 185.24 29.22 185.32 28.94 185.32H26.27V186.22V194.83C26.27 195.89 26.73 196.42 27.65 196.42C27.89 196.42 28.13 196.39 28.37 196.33C28.63 196.25 28.79 196.14 28.85 196C29.11 196.34 29.24 196.75 29.24 197.23C29.24 197.85 28.95 198.35 28.37 198.73C27.79 199.11 27.02 199.3 26.06 199.3C24.9 199.3 24 198.93 23.36 198.19C22.72 197.45 22.4 196.44 22.4 195.16V185.32H21.98C21.16 185.32 20.56 185.35 20.18 185.41L20.21 184.48C20.23 184.18 20.33 183.95 20.51 183.79C20.71 183.63 20.95 183.55 21.23 183.55H22.4V181.54C22.4 180.92 22.61 180.43 23.03 180.07C23.45 179.71 23.99 179.53 24.65 179.53C25.13 179.53 25.56 179.62 25.94 179.8C26.32 179.98 26.62 180.18 26.84 180.4C26.58 181.42 26.41 182.47 26.33 183.55H26.42ZM45.7862 194.77C45.7862 196.29 45.9762 197.55 46.3562 198.55C45.6962 199.13 44.9662 199.42 44.1662 199.42C43.5262 199.42 42.9962 199.24 42.5762 198.88C42.1562 198.52 41.9462 198.03 41.9462 197.41V189.76C41.9462 188.1 41.7762 186.88 41.4362 186.1C41.1162 185.32 40.5262 184.93 39.6662 184.93C38.6862 184.93 37.8962 185.53 37.2962 186.73C36.6962 187.93 36.3962 189.66 36.3962 191.92C36.3962 194.12 36.4262 195.6 36.4862 196.36C36.5462 197.1 36.7362 197.84 37.0562 198.58C36.8562 198.78 36.5562 198.97 36.1562 199.15C35.7762 199.33 35.3462 199.42 34.8662 199.42C34.2062 199.42 33.6662 199.22 33.2462 198.82C32.8262 198.42 32.6162 197.89 32.6162 197.23L32.5862 179.05C32.5862 178.39 32.7762 177.89 33.1562 177.55C33.5362 177.21 34.0362 177.04 34.6562 177.04C35.1362 177.04 35.5962 177.13 36.0362 177.31C36.4762 177.49 36.8162 177.68 37.0562 177.88C36.7962 178.72 36.6262 179.66 36.5462 180.7C36.4662 181.74 36.4162 183.12 36.3962 184.84V186.16C37.2362 184.12 38.7562 183.1 40.9562 183.1C42.5962 183.1 43.8062 183.61 44.5862 184.63C45.3862 185.63 45.7862 187.14 45.7862 189.16V194.77ZM61.7255 194.68C62.0455 194.82 62.2055 195.09 62.2055 195.49C62.2055 195.75 62.1355 196.05 61.9955 196.39C61.6155 197.35 60.9255 198.1 59.9255 198.64C58.9255 199.16 57.7155 199.42 56.2955 199.42C53.9755 199.42 52.1355 198.71 50.7755 197.29C49.4155 195.85 48.7355 193.83 48.7355 191.23C48.7355 188.69 49.3955 186.7 50.7155 185.26C52.0355 183.82 53.9155 183.1 56.3555 183.1C58.1355 183.1 59.5955 183.5 60.7355 184.3C61.8755 185.08 62.4455 186.19 62.4455 187.63C62.4455 189.09 61.8555 190.22 60.6755 191.02C59.4955 191.82 57.9155 192.22 55.9355 192.22C54.6555 192.22 53.6655 192.18 52.9655 192.1C53.1055 193.84 53.5455 195.09 54.2855 195.85C55.0455 196.61 56.0855 196.99 57.4055 196.99C58.4655 196.99 59.3655 196.78 60.1055 196.36C60.8455 195.94 61.3855 195.38 61.7255 194.68ZM56.2055 184.45C55.1655 184.45 54.3555 185.01 53.7755 186.13C53.1955 187.23 52.9055 188.76 52.9055 190.72V190.75L53.9255 190.78C55.1655 190.78 56.1955 190.52 57.0155 190C57.8555 189.48 58.2755 188.48 58.2755 187C58.2755 185.3 57.5855 184.45 56.2055 184.45ZM83.9033 194.68C84.2233 194.82 84.3833 195.09 84.3833 195.49C84.3833 195.75 84.3133 196.05 84.1733 196.39C83.7933 197.35 83.1033 198.1 82.1033 198.64C81.1033 199.16 79.8933 199.42 78.4733 199.42C76.1533 199.42 74.3133 198.71 72.9533 197.29C71.5933 195.85 70.9133 193.83 70.9133 191.23C70.9133 188.69 71.5733 186.7 72.8933 185.26C74.2133 183.82 76.0933 183.1 78.5333 183.1C80.3133 183.1 81.7733 183.5 82.9133 184.3C84.0533 185.08 84.6233 186.19 84.6233 187.63C84.6233 189.09 84.0333 190.22 82.8533 191.02C81.6733 191.82 80.0933 192.22 78.1133 192.22C76.8333 192.22 75.8433 192.18 75.1433 192.1C75.2833 193.84 75.7233 195.09 76.4633 195.85C77.2233 196.61 78.2633 196.99 79.5833 196.99C80.6433 196.99 81.5433 196.78 82.2833 196.36C83.0233 195.94 83.5633 195.38 83.9033 194.68ZM78.3833 184.45C77.3433 184.45 76.5333 185.01 75.9533 186.13C75.3733 187.23 75.0833 188.76 75.0833 190.72V190.75L76.1033 190.78C77.3433 190.78 78.3733 190.52 79.1933 190C80.0333 189.48 80.4533 188.48 80.4533 187C80.4533 185.3 79.7633 184.45 78.3833 184.45ZM101.315 194.77C101.375 196.43 101.575 197.69 101.915 198.55C101.255 199.13 100.505 199.42 99.665 199.42C99.025 199.42 98.495 199.24 98.075 198.88C97.655 198.52 97.445 198.03 97.445 197.41V189.76C97.425 188.14 97.255 186.95 96.935 186.19C96.615 185.43 96.025 185.05 95.165 185.05C94.205 185.05 93.425 185.64 92.825 186.82C92.225 187.98 91.925 189.68 91.925 191.92C91.925 194.12 91.955 195.6 92.015 196.36C92.075 197.1 92.255 197.84 92.555 198.58C92.355 198.78 92.055 198.97 91.655 199.15C91.275 199.33 90.845 199.42 90.365 199.42C89.685 199.42 89.135 199.22 88.715 198.82C88.295 198.42 88.085 197.89 88.085 197.23V187.6C88.065 187.04 87.995 186.64 87.875 186.4C87.755 186.14 87.555 186.01 87.275 186.01C86.895 186.01 86.635 186.13 86.495 186.37C86.255 185.97 86.135 185.56 86.135 185.14C86.135 184.54 86.335 184.06 86.735 183.7C87.155 183.32 87.735 183.13 88.475 183.13C89.395 183.13 90.115 183.43 90.635 184.03C91.175 184.61 91.455 185.49 91.475 186.67C92.335 184.29 94.005 183.1 96.485 183.1C98.125 183.1 99.335 183.61 100.115 184.63C100.915 185.63 101.315 187.14 101.315 189.16V194.77ZM115.953 183.16C116.693 183.16 117.233 183.29 117.573 183.55C117.913 183.81 118.083 184.23 118.083 184.81C118.083 185.53 117.943 186.21 117.663 186.85L113.133 198.85C112.293 199.23 111.423 199.42 110.523 199.42C109.423 199.42 108.743 199 108.483 198.16L104.373 185.92C104.233 185.48 104.093 185.12 103.953 184.84C103.833 184.54 103.673 184.28 103.473 184.06C103.953 183.46 104.683 183.16 105.663 183.16C106.283 183.16 106.793 183.29 107.193 183.55C107.593 183.81 107.843 184.19 107.943 184.69L111.213 197.08L114.033 185.86C114.153 185.26 114.213 184.82 114.213 184.54C114.213 184.1 114.123 183.78 113.943 183.58C114.303 183.44 114.623 183.34 114.903 183.28C115.183 183.2 115.533 183.16 115.953 183.16ZM122.546 181.63C121.926 181.63 121.396 181.42 120.956 181C120.516 180.56 120.296 180.03 120.296 179.41C120.296 178.77 120.516 178.24 120.956 177.82C121.396 177.38 121.926 177.16 122.546 177.16C123.166 177.16 123.686 177.38 124.106 177.82C124.526 178.24 124.736 178.77 124.736 179.41C124.736 180.03 124.526 180.56 124.106 181C123.686 181.42 123.166 181.63 122.546 181.63ZM124.616 194.77C124.616 196.35 124.806 197.61 125.186 198.55C124.546 199.13 123.796 199.42 122.936 199.42C122.316 199.42 121.796 199.24 121.376 198.88C120.976 198.52 120.776 198.03 120.776 197.41V187.75C120.776 186.23 120.586 184.96 120.206 183.94C120.826 183.38 121.546 183.1 122.366 183.1C123.026 183.1 123.556 183.28 123.956 183.64C124.376 183.98 124.586 184.47 124.586 185.11L124.616 194.77ZM136.45 183.1C137.59 183.1 138.51 183.41 139.21 184.03C139.93 184.63 140.29 185.46 140.29 186.52C140.29 187.28 140.06 187.91 139.6 188.41C139.14 188.91 138.56 189.17 137.86 189.19C137.06 189.19 136.47 188.98 136.09 188.56C136.31 188.2 136.46 187.87 136.54 187.57C136.62 187.27 136.66 186.92 136.66 186.52C136.66 186 136.55 185.61 136.33 185.35C136.11 185.07 135.78 184.93 135.34 184.93C134.6 184.93 134.02 185.52 133.6 186.7C133.18 187.86 132.97 189.6 132.97 191.92C132.97 194.06 133 195.51 133.06 196.27C133.12 197.01 133.3 197.74 133.6 198.46C133.38 198.68 133.08 198.87 132.7 199.03C132.32 199.21 131.88 199.31 131.38 199.33C130.76 199.33 130.23 199.13 129.79 198.73C129.35 198.33 129.13 197.79 129.13 197.11V187.6C129.13 187.04 129.06 186.64 128.92 186.4C128.8 186.14 128.6 186.01 128.32 186.01C127.94 186.01 127.68 186.13 127.54 186.37C127.3 185.97 127.18 185.56 127.18 185.14C127.18 184.54 127.38 184.06 127.78 183.7C128.2 183.32 128.78 183.13 129.52 183.13C130.4 183.13 131.1 183.4 131.62 183.94C132.14 184.48 132.44 185.29 132.52 186.37C133.2 184.19 134.51 183.1 136.45 183.1ZM149.103 199.42C146.803 199.42 145.003 198.71 143.703 197.29C142.403 195.85 141.753 193.85 141.753 191.29C141.753 188.71 142.393 186.7 143.673 185.26C144.973 183.82 146.783 183.1 149.103 183.1C151.403 183.1 153.193 183.82 154.473 185.26C155.773 186.7 156.423 188.71 156.423 191.29C156.423 193.85 155.773 195.85 154.473 197.29C153.193 198.71 151.403 199.42 149.103 199.42ZM149.103 198.07C151.203 198.07 152.253 195.81 152.253 191.29C152.253 186.73 151.203 184.45 149.103 184.45C148.023 184.45 147.223 185.02 146.703 186.16C146.183 187.3 145.923 189.01 145.923 191.29C145.923 193.55 146.183 195.25 146.703 196.39C147.223 197.51 148.023 198.07 149.103 198.07ZM173.18 194.77C173.24 196.43 173.44 197.69 173.78 198.55C173.12 199.13 172.37 199.42 171.53 199.42C170.89 199.42 170.36 199.24 169.94 198.88C169.52 198.52 169.31 198.03 169.31 197.41V189.76C169.29 188.14 169.12 186.95 168.8 186.19C168.48 185.43 167.89 185.05 167.03 185.05C166.07 185.05 165.29 185.64 164.69 186.82C164.09 187.98 163.79 189.68 163.79 191.92C163.79 194.12 163.82 195.6 163.88 196.36C163.94 197.1 164.12 197.84 164.42 198.58C164.22 198.78 163.92 198.97 163.52 199.15C163.14 199.33 162.71 199.42 162.23 199.42C161.55 199.42 161 199.22 160.58 198.82C160.16 198.42 159.95 197.89 159.95 197.23V187.6C159.93 187.04 159.86 186.64 159.74 186.4C159.62 186.14 159.42 186.01 159.14 186.01C158.76 186.01 158.5 186.13 158.36 186.37C158.12 185.97 158 185.56 158 185.14C158 184.54 158.2 184.06 158.6 183.7C159.02 183.32 159.6 183.13 160.34 183.13C161.26 183.13 161.98 183.43 162.5 184.03C163.04 184.61 163.32 185.49 163.34 186.67C164.2 184.29 165.87 183.1 168.35 183.1C169.99 183.1 171.2 183.61 171.98 184.63C172.78 185.63 173.18 187.14 173.18 189.16V194.77ZM199.308 194.77C199.308 196.29 199.498 197.55 199.878 198.55C199.218 199.13 198.478 199.42 197.658 199.42C196.998 199.42 196.458 199.24 196.038 198.88C195.618 198.52 195.408 198.03 195.408 197.41V189.76C195.408 188.18 195.288 186.98 195.048 186.16C194.808 185.34 194.288 184.93 193.488 184.93C192.928 184.93 192.408 185.19 191.928 185.71C191.468 186.21 191.088 186.98 190.788 188.02C190.488 189.06 190.328 190.32 190.308 191.8L190.338 194.77C190.338 196.35 190.518 197.61 190.878 198.55C190.258 199.13 189.538 199.42 188.718 199.42C188.098 199.42 187.588 199.24 187.188 198.88C186.788 198.52 186.588 198.03 186.588 197.41L186.558 189.76C186.558 188.08 186.408 186.86 186.108 186.1C185.828 185.32 185.278 184.93 184.458 184.93C183.578 184.93 182.858 185.53 182.298 186.73C181.758 187.93 181.488 189.69 181.488 192.01C181.488 194.17 181.518 195.63 181.578 196.39C181.638 197.13 181.818 197.86 182.118 198.58C181.558 199.14 180.818 199.42 179.898 199.42C179.258 199.42 178.728 199.22 178.308 198.82C177.888 198.42 177.678 197.89 177.678 197.23L177.648 187.6C177.648 186.54 177.358 186.01 176.778 186.01C176.618 186.01 176.458 186.05 176.298 186.13C176.138 186.19 176.018 186.3 175.938 186.46C175.698 186.08 175.578 185.67 175.578 185.23C175.578 184.61 175.788 184.11 176.208 183.73C176.648 183.33 177.238 183.13 177.978 183.13C178.878 183.13 179.588 183.44 180.108 184.06C180.628 184.66 180.928 185.56 181.008 186.76C181.388 185.6 181.968 184.7 182.748 184.06C183.528 183.42 184.528 183.1 185.748 183.1C186.948 183.1 187.888 183.4 188.568 184C189.268 184.58 189.758 185.46 190.038 186.64C190.418 185.54 191.008 184.68 191.808 184.06C192.608 183.42 193.588 183.1 194.748 183.1C197.788 183.1 199.308 185.12 199.308 189.16V194.77ZM215.241 194.68C215.561 194.82 215.721 195.09 215.721 195.49C215.721 195.75 215.651 196.05 215.511 196.39C215.131 197.35 214.441 198.1 213.441 198.64C212.441 199.16 211.231 199.42 209.811 199.42C207.491 199.42 205.651 198.71 204.291 197.29C202.931 195.85 202.251 193.83 202.251 191.23C202.251 188.69 202.911 186.7 204.231 185.26C205.551 183.82 207.431 183.1 209.871 183.1C211.651 183.1 213.111 183.5 214.251 184.3C215.391 185.08 215.961 186.19 215.961 187.63C215.961 189.09 215.371 190.22 214.191 191.02C213.011 191.82 211.431 192.22 209.451 192.22C208.171 192.22 207.181 192.18 206.481 192.1C206.621 193.84 207.061 195.09 207.801 195.85C208.561 196.61 209.601 196.99 210.921 196.99C211.981 196.99 212.881 196.78 213.621 196.36C214.361 195.94 214.901 195.38 215.241 194.68ZM209.721 184.45C208.681 184.45 207.871 185.01 207.291 186.13C206.711 187.23 206.421 188.76 206.421 190.72V190.75L207.441 190.78C208.681 190.78 209.711 190.52 210.531 190C211.371 189.48 211.791 188.48 211.791 187C211.791 185.3 211.101 184.45 209.721 184.45ZM232.653 194.77C232.713 196.43 232.913 197.69 233.253 198.55C232.593 199.13 231.843 199.42 231.003 199.42C230.363 199.42 229.833 199.24 229.413 198.88C228.993 198.52 228.783 198.03 228.783 197.41V189.76C228.763 188.14 228.593 186.95 228.273 186.19C227.953 185.43 227.363 185.05 226.503 185.05C225.543 185.05 224.763 185.64 224.163 186.82C223.563 187.98 223.263 189.68 223.263 191.92C223.263 194.12 223.293 195.6 223.353 196.36C223.413 197.1 223.593 197.84 223.893 198.58C223.693 198.78 223.393 198.97 222.993 199.15C222.613 199.33 222.183 199.42 221.703 199.42C221.023 199.42 220.473 199.22 220.053 198.82C219.633 198.42 219.423 197.89 219.423 197.23V187.6C219.403 187.04 219.333 186.64 219.213 186.4C219.093 186.14 218.893 186.01 218.613 186.01C218.233 186.01 217.973 186.13 217.833 186.37C217.593 185.97 217.473 185.56 217.473 185.14C217.473 184.54 217.673 184.06 218.073 183.7C218.493 183.32 219.073 183.13 219.813 183.13C220.733 183.13 221.453 183.43 221.973 184.03C222.513 184.61 222.793 185.49 222.813 186.67C223.673 184.29 225.343 183.1 227.823 183.1C229.463 183.1 230.673 183.61 231.453 184.63C232.253 185.63 232.653 187.14 232.653 189.16V194.77ZM240.961 183.55C241.381 183.55 242.041 183.54 242.941 183.52C243.861 183.48 244.381 183.45 244.501 183.43L244.471 184.36C244.451 184.66 244.351 184.9 244.171 185.08C243.991 185.24 243.761 185.32 243.481 185.32H240.811V186.22V194.83C240.811 195.89 241.271 196.42 242.191 196.42C242.431 196.42 242.671 196.39 242.911 196.33C243.171 196.25 243.331 196.14 243.391 196C243.651 196.34 243.781 196.75 243.781 197.23C243.781 197.85 243.491 198.35 242.911 198.73C242.331 199.11 241.561 199.3 240.601 199.3C239.441 199.3 238.541 198.93 237.901 198.19C237.261 197.45 236.941 196.44 236.941 195.16V185.32H236.521C235.701 185.32 235.101 185.35 234.721 185.41L234.751 184.48C234.771 184.18 234.871 183.95 235.051 183.79C235.251 183.63 235.491 183.55 235.771 183.55H236.941V181.54C236.941 180.92 237.151 180.43 237.571 180.07C237.991 179.71 238.531 179.53 239.191 179.53C239.671 179.53 240.101 179.62 240.481 179.8C240.861 179.98 241.161 180.18 241.381 180.4C241.121 181.42 240.951 182.47 240.871 183.55H240.961ZM249.767 199.42C249.147 199.42 248.617 199.21 248.177 198.79C247.737 198.35 247.517 197.82 247.517 197.2C247.517 196.58 247.727 196.06 248.147 195.64C248.587 195.2 249.127 194.98 249.767 194.98C250.387 194.98 250.907 195.2 251.327 195.64C251.747 196.06 251.957 196.58 251.957 197.2C251.957 197.82 251.747 198.35 251.327 198.79C250.907 199.21 250.387 199.42 249.767 199.42ZM258.996 199.42C258.376 199.42 257.846 199.21 257.406 198.79C256.966 198.35 256.746 197.82 256.746 197.2C256.746 196.58 256.956 196.06 257.376 195.64C257.816 195.2 258.356 194.98 258.996 194.98C259.616 194.98 260.136 195.2 260.556 195.64C260.976 196.06 261.186 196.58 261.186 197.2C261.186 197.82 260.976 198.35 260.556 198.79C260.136 199.21 259.616 199.42 258.996 199.42ZM268.224 199.42C267.604 199.42 267.074 199.21 266.634 198.79C266.194 198.35 265.974 197.82 265.974 197.2C265.974 196.58 266.184 196.06 266.604 195.64C267.044 195.2 267.584 194.98 268.224 194.98C268.844 194.98 269.364 195.2 269.784 195.64C270.204 196.06 270.414 196.58 270.414 197.2C270.414 197.82 270.204 198.35 269.784 198.79C269.364 199.21 268.844 199.42 268.224 199.42Z" fill="black"/>
</svg>
