<svg width="875" height="1320" viewBox="0 0 875 1320" fill="none" xmlns="http://www.w3.org/2000/svg">
<g clip-path="url(#clip0_6_4403)">
<rect width="1320" height="875" transform="translate(0 1320) rotate(-90)" fill="#D6B8EE"/>
<rect x="723.642" y="-370" width="1393.11" height="2722.17" fill="#48484E"/>
<rect width="640.511" height="2081.66" transform="matrix(-1 0 0 1 1412.19 -321.961)" fill="#54545A"/>
<path d="M394.982 1061.36C409.754 1017.04 448.289 950.299 448.289 950.299H732.593C732.593 950.299 774.769 1053.48 785.9 1092.38C812.553 1185.54 825.88 1287.84 825.88 1350.03C825.88 1483.3 818.964 1493.66 812.554 1625.45C804.194 1797.31 794.785 1891.99 785.9 2056.35C782.716 2115.25 772.573 2220.78 772.573 2220.78H612.652C612.652 2220.78 619.129 2001.85 612.652 1860.96C603.051 1652.11 577.114 1323.38 577.114 1323.38C577.114 1323.38 537.134 1669.88 519.365 1860.96C507.443 1989.16 501.596 2220.78 501.596 2220.78H346.117C346.117 2220.78 328.349 2084.03 328.349 2016.37C328.349 1918.57 306.138 1709.86 306.138 1652.11C306.138 1594.36 315.123 1381.13 328.349 1323.38C349.789 1229.76 350.56 1194.62 394.982 1061.36Z" fill="#6DA7BD"/>
<path d="M447.186 952.022C438.257 949.988 437.136 896.693 446.065 898.727C499.641 910.93 519.248 906.949 575.142 909.342C634.072 911.866 703.571 906.641 730.586 906.073C743.91 905.793 742.561 953.881 736.055 954.834C700.618 960.022 639.581 956.863 580.611 958.103C525.109 959.27 482.903 960.157 447.186 952.022Z" fill="#659FB5"/>
<path d="M576.55 960.909C576.55 1032.39 567.826 1164.34 576.55 1158.85C595.185 1147.1 605.626 1114.04 605.626 1092.87C605.626 1062.62 611.44 1037.88 605.626 960.909C605.211 955.41 576.55 950.173 576.55 960.909Z" fill="#659FB5"/>
<path d="M701.935 1060.05C709.729 1053.37 727.163 1046.99 729.392 1052.04C737.259 1069.85 745.126 1087.66 757.501 1107.88C769.876 1128.1 781.513 1138.85 789.38 1156.66C793.603 1166.22 763.132 1173.26 760.039 1168.21C747.664 1147.99 737.903 1136.72 725.537 1113.49C712.79 1089.54 694.141 1066.74 701.935 1060.05Z" fill="#659FB5"/>
<path d="M396.184 1180.4C385.26 1176.92 369.354 1165 373.141 1160.67C386.513 1145.35 399.884 1130.04 413.171 1109.69C426.457 1089.35 430.746 1074.19 444.117 1058.87C451.294 1050.65 475.023 1073.45 471.701 1078.53C458.414 1098.88 452.583 1112.68 436.297 1134.46C419.511 1156.91 407.108 1183.88 396.184 1180.4Z" fill="#659FB5"/>
<circle cx="594.888" cy="932.461" r="13.3267" fill="#246F8B"/>
<path d="M701.791 1021.87C681.95 1004.24 674.418 959.665 674.418 959.665L734.139 952.2L766.488 1041.78C766.488 1041.78 721.551 1039.43 701.791 1021.87Z" fill="#659FB5" stroke="#659FB5" stroke-linecap="round" stroke-linejoin="round"/>
<path d="M476.644 1018.57C498.47 1003.47 511.334 960.128 511.334 960.128L452.953 945.5L410.015 1030.52C410.015 1030.52 454.906 1033.62 476.644 1018.57Z" fill="#659FB5" stroke="#659FB5" stroke-linecap="round" stroke-linejoin="round"/>
<path d="M537.493 472.222C537.493 461.094 535.005 434.896 535.005 434.896L642.005 437.34C642.005 437.34 639.535 462.459 639.517 472.177C639.507 477.154 641.313 487.394 644.493 492.084C647.221 496.105 662.03 494.572 666.889 494.572C676.833 494.572 605.404 522.363 613.5 529.41C617.775 533.129 774.308 544.235 722.072 554.189C696.447 559.072 617.54 611.422 617.54 611.422C617.54 611.422 524.753 630.43 535.004 579.5C536.643 571.36 489.426 503.024 495.203 497.061C502.263 489.774 521.209 502.501 527.54 494.572C531.374 489.769 537.493 479.687 537.493 472.222Z" fill="#ECC6A2"/>
<path d="M388.26 554.061C402.292 540.266 425.634 528.473 443.001 519.223C532.268 471.677 686.862 499.316 686.862 499.316C686.862 499.316 726.676 514.247 751.56 524.2C776.444 534.154 786.549 536.649 798.839 554.061C828.7 596.363 840.963 630.875 868.514 680.968C895.886 730.735 913.305 765.573 938.188 810.363C958.189 846.364 969.879 874.488 965.56 892.48C955.408 934.782 916.17 973.219 871.005 1024.36C836.89 1063 774.231 1132.1 774.231 1132.1C765.947 1121.06 760.53 1111.73 754.901 1103.11C749.06 1094.17 744.931 1085.09 738.332 1072.73C738.332 1072.73 806.304 992.015 831.188 959.666C851.599 933.133 871.005 897.457 871.005 882.526C871.005 877.55 851.095 830.27 838.653 805.387C814.546 757.173 761.517 683.456 761.517 683.456C761.517 683.456 757.699 712.402 754.052 730.735C745.953 771.452 739.362 794.063 734.141 835.247C729.987 868.025 727.935 905.663 727.935 905.663C727.935 905.663 684.483 909.805 587.831 909.805C524.317 909.805 451.137 905.663 451.137 898.759L451.137 897.844C451.138 873.003 451.139 859.731 445.49 835.247C430.563 770.549 443.005 683.456 443.005 683.456C443.005 683.456 431.948 717.244 423.098 738.201C403.122 785.503 393.236 815.34 358.4 852.666C350.935 860.664 368.353 917.364 368.353 917.364L429.045 1083.78C429.045 1083.78 416.372 1106.18 406.954 1119.68C397.944 1132.59 382.1 1151.44 382.1 1151.44L303.652 964.643C303.652 964.643 267.317 888.73 273.795 840.224C281.279 784.183 301.166 765.573 323.561 713.317C333.131 690.987 343.321 671.689 350.935 648.619C363.377 610.919 373.329 568.739 388.26 554.061Z" fill="#ECC6A2"/>
<path d="M537.494 457.234C535.373 452.756 535.005 444.792 535.005 444.792H642.006C642.006 444.792 641.55 450.226 639.517 454.745C637.524 459.177 634.54 463.455 627.075 467.187C617.122 472.164 604.68 477.141 589.75 477.141C574.819 477.141 557.305 474.652 549.936 469.676C544.241 465.83 540.435 463.444 537.494 457.234Z" fill="#DFB48B"/>
<path d="M510.123 400.001C505.264 390.283 477.35 397.424 472.797 387.559C463.085 366.512 457.867 340.28 457.867 340.28L547.449 173.559L677.279 243.141C677.279 243.141 696.654 325.766 701.728 377.606C702.397 384.444 666.789 380.688 666.891 387.559C667.082 400.523 654.449 432.35 646.984 439.815C639.909 446.89 615.54 464.699 589.751 464.699C564.867 464.699 541.731 452.2 535.007 444.792C528.283 437.383 525.053 432.35 520.077 422.396C516.573 415.389 515.1 409.955 510.123 400.001Z" fill="#ECC6A2"/>
<path d="M445.388 679.675C453.553 662.038 475.248 639.861 475.248 639.861C475.248 639.861 545.005 637.897 589.714 637.372C642.186 636.757 724.086 637.372 724.086 637.372C724.086 637.372 755.42 658.652 758.924 679.675C764.316 712.024 751.459 746.861 741.505 794.14C735.486 822.731 734.04 883.722 734.04 883.722C734.04 883.722 648.634 887.404 597.18 883.722C541.718 879.753 452.854 878.745 452.854 878.745C452.854 878.745 445.207 804.66 442.899 774.233C440.106 737.399 429.869 713.197 445.388 679.675Z" fill="black"/>
<path d="M452.854 514.5L475.248 639.861M475.248 639.861C475.248 639.861 453.553 662.038 445.388 679.675C429.869 713.197 440.106 737.399 442.899 774.233C445.207 804.66 452.854 878.745 452.854 878.745C452.854 878.745 541.718 879.753 597.18 883.722C648.634 887.404 734.04 883.722 734.04 883.722C734.04 883.722 735.486 822.731 741.505 794.14C751.459 746.861 764.316 712.024 758.924 679.675C755.42 658.652 724.086 637.372 724.086 637.372M475.248 639.861C475.248 639.861 545.005 637.897 589.714 637.372C642.186 636.757 724.086 637.372 724.086 637.372M724.086 637.372L734.04 517" stroke="black" stroke-width="5" stroke-linecap="round" stroke-linejoin="round"/>
<path d="M522.626 509.269C530.091 519.222 547.753 531.818 564.928 536.641C584.576 542.158 606.276 543.034 624.649 534.153C636.42 528.463 649.533 519.222 654.51 509.269" stroke="#F1B415" stroke-width="3"/>
<path d="M547.451 248.21C563.59 235.311 572.334 213.373 572.334 213.373C572.334 213.373 572.334 225.814 584.777 238.257C604.684 258.164 607.957 255.525 622.102 265.629C639.521 278.071 640.307 284.368 651.963 297.978C661.08 308.622 666.893 330.327 666.893 330.327C666.893 330.327 665.834 311.444 674.358 307.931C682.034 304.768 682.947 314.672 684.312 322.862C686.801 337.792 684.312 352.722 681.824 362.675C680.013 369.918 671.87 385.073 666.893 370.141C663.512 360 663.636 389.451 661.917 400.001C658.98 418.021 654.88 429.766 642.438 444.696C636.839 451.415 636.284 478.495 642.438 496.956C647.416 511.889 654.134 517.259 671.869 524.328C696.176 534.016 712.113 519.347 712.113 519.347C712.113 519.347 722.066 494.464 711.684 459.626C704.696 436.177 718.269 404.51 716.657 380.094C714.673 350.035 717.251 337.537 711.684 307.931C705.246 273.696 699.672 260.556 692.207 243.138C684.742 225.719 676.847 200.935 651.963 181.024C627.079 161.113 599.189 154.928 572.334 156.044C536.634 157.528 508.065 173.463 495.195 185.905C472.028 208.3 460.783 228.303 455.806 248.21C448.496 277.451 449.392 310.08 447.921 340.184C445.925 381.054 455.383 417.324 447.921 437.231C431.045 482.252 421.806 502.769 455.806 536.766C463.272 544.231 464.638 556.77 482.753 544.231C501.696 531.12 488.588 536.67 510.554 529.301C532.52 521.932 530.464 511.889 535.439 491.979C540.415 472.068 537.926 447.184 532.52 442.304C527.114 437.423 525.052 429.862 520.075 419.908C513.427 406.612 507.199 365.451 505.149 372.629C500.173 390.047 490.219 370.141 487.73 365.164C483.607 356.918 474.959 322.808 482.753 317.885C489.326 313.733 495.195 322.862 495.195 322.862C495.195 322.862 492.825 314.209 497.684 300.466C506.043 276.822 527.861 263.868 547.451 248.21Z" fill="#26221F"/>
<path d="M492.77 559.036L480.328 534.152L511.512 525.508L509.13 556.94L499.6 550.654L492.77 559.036Z" fill="#26221F"/>
<path d="M678.286 540.176L664.468 519.222H711.747L709.259 533.89L702.111 525.508L692.581 540.176L683.051 533.89L678.286 540.176Z" fill="#26221F"/>
<path d="M526.871 540.655L528.355 517.612L468.323 548.888L475.656 557.661L479.839 549.301L493.155 559.504L490.006 542.372L510.272 543.707L519.921 549.523L521.338 541.672L526.871 540.655Z" fill="#26221F"/>
<path d="M572.098 374.095C573.772 361.26 574.153 326.212 578.783 322.759C583.416 319.306 585.821 360.562 591.364 372.977C596.207 383.822 570.513 386.25 572.098 374.095Z" fill="#E2B78D"/>
<path d="M676.911 367.432C679.399 364.943 681.887 367.434 681.887 372.411C681.887 374.899 679.399 374.896 676.911 372.408" stroke="#DD9F00" stroke-width="2" stroke-linecap="round"/>
<path d="M671.939 372.408C674.427 372.408 676.918 379.873 674.428 382.362C671.938 384.85 666.962 379.873 669.45 374.896" stroke="#DD9F00" stroke-width="2" stroke-linecap="round"/>
<path d="M678.273 361.143C681.027 358.953 686.87 363.846 685.197 366.942C684.544 368.151 683.524 370.038 680.428 368.365" stroke="#DD9F00" stroke-width="2" stroke-linecap="round"/>
<path d="M494.705 373.039C492.217 370.55 489.728 373.041 489.728 378.018C489.728 380.506 492.217 380.504 494.705 378.015" stroke="#DD9F00" stroke-width="2" stroke-linecap="round"/>
<path d="M499.68 378.015C497.191 378.015 494.701 385.481 497.19 387.969C499.68 390.457 504.656 385.48 502.168 380.503" stroke="#DD9F00" stroke-width="2" stroke-linecap="round"/>
<path d="M493.343 366.752C490.588 364.561 484.746 369.454 486.418 372.55C487.072 373.759 488.091 375.646 491.187 373.973" stroke="#DD9F00" stroke-width="2" stroke-linecap="round"/>
<path d="M679.399 325.128C680.086 327.19 681.534 328.564 684.376 327.617C687.217 326.67 686.864 322.64 684.376 322.64" stroke="#DD9F00" stroke-width="2" stroke-linecap="round"/>
<path d="M586.943 424.93C573.354 424.93 571.703 423.823 559.578 414.977C556.382 412.645 567.036 412.488 576.99 410C584.455 410 585.889 412.488 586.943 412.488C587.997 412.488 589.431 410 594.408 410C609.338 412.488 617.629 410.441 614.323 412.488C604.053 418.846 600.532 424.93 586.943 424.93Z" fill="#C94530"/>
<path d="M561.428 300.774C563.364 299.139 562.066 293.334 559.592 293.11C557.117 292.886 540.181 286.456 535.221 286.028C529.109 285.502 525.09 287.654 522.398 289.92C516.378 294.987 512.272 302.802 516.232 299.421C521.698 294.754 529.6 293.41 534.572 293.621C537.059 293.727 541.495 295.357 546.769 297.001C552.044 298.644 559.492 302.408 561.428 300.774Z" fill="#26221F"/>
<ellipse cx="540.935" cy="324.023" rx="7.46513" ry="12.4419" transform="rotate(2.62624 540.935 324.023)" fill="black"/>
<path d="M600.54 299.813C597.612 300.72 594.676 296.181 596.635 293.12C598.593 290.059 622.318 283.563 627.877 285.286C633.736 287.102 634.043 288.068 635.696 288.917C640.417 291.342 648.597 302.114 644.784 298.568C642.832 296.752 636.635 293.662 631.113 293.12C624.244 292.446 618.874 293.518 613.535 294.936C608.196 296.354 603.468 298.905 600.54 299.813Z" fill="#26221F"/>
<ellipse cx="618.394" cy="322.326" rx="7.46513" ry="12.4419" fill="black"/>
</g>
<defs>
<clipPath id="clip0_6_4403">
<rect width="1320" height="875" fill="white" transform="translate(0 1320) rotate(-90)"/>
</clipPath>
</defs>
</svg>
