<svg width="1024" height="1366" viewBox="0 0 1024 1366" fill="none" xmlns="http://www.w3.org/2000/svg">
<rect width="1366" height="1024" transform="translate(0 1366) rotate(-90)" fill="#F9A320"/>
<path d="M215.645 499.3C216.378 499.3 216.911 499.633 217.245 500.3C217.578 500.967 217.745 501.833 217.745 502.9C217.745 504.433 217.411 506 216.745 507.6C216.078 509.2 215.245 510.233 214.245 510.7C206.378 507.5 198.178 505.8 189.645 505.6V529.5H211.345C211.611 530.5 211.745 531.6 211.745 532.8C211.745 533.867 211.611 535.133 211.345 536.6H189.745V554.9C189.745 560.167 190.378 564.367 191.645 567.5C190.911 568.233 189.878 568.9 188.545 569.5C187.278 570.1 185.811 570.4 184.145 570.4C181.945 570.4 180.145 569.8 178.745 568.6C177.345 567.4 176.645 565.767 176.645 563.7V515.2C176.645 510.133 176.011 505.933 174.745 502.6C176.345 501.267 177.945 500.4 179.545 500C181.211 499.533 183.578 499.3 186.645 499.3H215.645ZM275.967 559C276.834 560.267 277.267 561.633 277.267 563.1C277.267 565.033 276.434 566.667 274.767 568C273.101 569.333 270.867 570 268.067 570C264.867 570 262.367 568.967 260.567 566.9C258.767 564.767 257.734 561.333 257.467 556.6C255.601 560.667 253.001 563.933 249.667 566.4C246.334 568.8 242.467 570 238.067 570C234.134 570 230.967 568.967 228.567 566.9C226.167 564.833 224.967 561.933 224.967 558.2C224.967 553.933 226.601 550.433 229.867 547.7C233.134 544.967 237.267 542.867 242.267 541.4C246.601 540.2 251.367 539.533 256.567 539.4V536.9C256.567 531.233 255.901 527.067 254.567 524.4C253.234 521.733 250.934 520.4 247.667 520.4C245.534 520.4 243.801 521.033 242.467 522.3C241.134 523.5 240.467 525.367 240.467 527.9C240.467 531.433 241.667 533.9 244.067 535.3C243.334 536.033 242.334 536.6 241.067 537C239.867 537.4 238.567 537.6 237.167 537.6C234.101 537.6 231.667 536.733 229.867 535C228.134 533.267 227.267 531.067 227.267 528.4C227.267 524.467 229.167 521.433 232.967 519.3C236.767 517.1 241.934 516 248.467 516C255.867 516 261.267 517.7 264.667 521.1C268.134 524.5 269.867 530.033 269.867 537.7V555.1C269.867 558.633 270.967 560.4 273.167 560.4C273.634 560.4 274.134 560.3 274.667 560.1C275.201 559.833 275.634 559.467 275.967 559ZM244.067 561.6C246.001 561.6 247.967 560.8 249.967 559.2C251.967 557.6 253.634 555.433 254.967 552.7C256.301 549.9 256.967 546.867 256.967 543.6C251.701 543.6 247.767 544.333 245.167 545.8C243.301 546.733 241.801 548 240.667 549.6C239.601 551.2 239.067 553.033 239.067 555.1C239.067 556.9 239.467 558.433 240.267 559.7C241.134 560.967 242.401 561.6 244.067 561.6ZM300.01 570.4C293.743 570.4 288.977 569.333 285.71 567.2C282.51 565.067 280.91 562.233 280.91 558.7C280.91 556.833 281.477 555.2 282.61 553.8C283.81 552.4 285.677 551.7 288.21 551.7C288.677 551.7 289.443 551.767 290.51 551.9C290.377 552.433 290.31 553.2 290.31 554.2C290.31 555.333 290.443 556.333 290.71 557.2C291.043 559.533 292.143 561.533 294.01 563.2C295.877 564.8 298.477 565.6 301.81 565.6C304.543 565.6 306.743 565.1 308.41 564.1C310.077 563.033 310.91 561.467 310.91 559.4C310.91 557.733 310.377 556.333 309.31 555.2C308.31 554 307.11 553.033 305.71 552.3C304.377 551.5 302.143 550.367 299.01 548.9C295.41 547.167 292.543 545.633 290.41 544.3C288.277 542.967 286.443 541.167 284.91 538.9C283.377 536.633 282.61 533.833 282.61 530.5C282.61 525.633 284.477 522 288.21 519.6C291.943 517.133 296.677 515.9 302.41 515.9C307.943 515.9 312.343 516.767 315.61 518.5C318.943 520.167 320.61 522.567 320.61 525.7C320.61 527.367 320.11 528.767 319.11 529.9C318.177 531.033 316.643 531.633 314.51 531.7C314.177 531.767 313.677 531.8 313.01 531.8C312.61 531.8 311.943 531.733 311.01 531.6C311.077 531.267 311.11 530.7 311.11 529.9C311.11 528.233 310.843 526.867 310.31 525.8C309.777 524.133 308.777 522.833 307.31 521.9C305.843 520.967 304.043 520.5 301.91 520.5C299.71 520.5 297.877 520.967 296.41 521.9C294.943 522.833 294.21 524.233 294.21 526.1C294.21 527.833 294.743 529.367 295.81 530.7C296.877 531.967 298.177 533.067 299.71 534C301.31 534.867 303.543 536 306.41 537.4C310.01 539.133 312.877 540.667 315.01 542C317.21 543.267 319.077 544.933 320.61 547C322.21 549.067 323.01 551.533 323.01 554.4C323.01 557.2 322.21 559.833 320.61 562.3C319.077 564.7 316.577 566.667 313.11 568.2C309.71 569.667 305.343 570.4 300.01 570.4ZM376.169 554.9C376.169 559.967 376.802 564.167 378.069 567.5C375.869 569.433 373.435 570.4 370.769 570.4C368.635 570.4 366.869 569.8 365.469 568.6C364.069 567.4 363.369 565.767 363.369 563.7V538.2C363.369 532.667 362.802 528.6 361.669 526C360.602 523.4 358.635 522.1 355.769 522.1C352.502 522.1 349.869 524.1 347.869 528.1C345.869 532.1 344.869 537.867 344.869 545.4C344.869 552.733 344.969 557.667 345.169 560.2C345.369 562.667 346.002 565.133 347.069 567.6C346.402 568.267 345.402 568.9 344.069 569.5C342.802 570.1 341.369 570.4 339.769 570.4C337.569 570.4 335.769 569.733 334.369 568.4C332.969 567.067 332.269 565.3 332.269 563.1L332.169 502.5C332.169 500.3 332.802 498.633 334.069 497.5C335.335 496.367 337.002 495.8 339.069 495.8C340.669 495.8 342.202 496.1 343.669 496.7C345.135 497.3 346.269 497.933 347.069 498.6C346.202 501.4 345.635 504.533 345.369 508C345.102 511.467 344.935 516.067 344.869 521.8V526.2C347.669 519.4 352.735 516 360.069 516C365.535 516 369.569 517.7 372.169 521.1C374.835 524.433 376.169 529.467 376.169 536.2V554.9ZM396 511.1C393.933 511.1 392.167 510.4 390.7 509C389.233 507.533 388.5 505.767 388.5 503.7C388.5 501.567 389.233 499.8 390.7 498.4C392.167 496.933 393.933 496.2 396 496.2C398.067 496.2 399.8 496.933 401.2 498.4C402.6 499.8 403.3 501.567 403.3 503.7C403.3 505.767 402.6 507.533 401.2 509C399.8 510.4 398.067 511.1 396 511.1ZM402.9 554.9C402.9 560.167 403.533 564.367 404.8 567.5C402.667 569.433 400.167 570.4 397.3 570.4C395.233 570.4 393.5 569.8 392.1 568.6C390.767 567.4 390.1 565.767 390.1 563.7V531.5C390.1 526.433 389.467 522.2 388.2 518.8C390.267 516.933 392.667 516 395.4 516C397.6 516 399.367 516.6 400.7 517.8C402.1 518.933 402.8 520.567 402.8 522.7L402.9 554.9ZM437.746 570.4C430.079 570.4 424.079 568.033 419.746 563.3C415.413 558.5 413.246 551.833 413.246 543.3C413.246 534.7 415.379 528 419.646 523.2C423.979 518.4 430.013 516 437.746 516C445.413 516 451.379 518.4 455.646 523.2C459.979 528 462.146 534.7 462.146 543.3C462.146 551.833 459.979 558.5 455.646 563.3C451.379 568.033 445.413 570.4 437.746 570.4ZM437.746 565.9C444.746 565.9 448.246 558.367 448.246 543.3C448.246 528.1 444.746 520.5 437.746 520.5C434.146 520.5 431.479 522.4 429.746 526.2C428.013 530 427.146 535.7 427.146 543.3C427.146 550.833 428.013 556.5 429.746 560.3C431.479 564.033 434.146 565.9 437.746 565.9ZM518.003 554.9C518.203 560.433 518.87 564.633 520.003 567.5C517.803 569.433 515.303 570.4 512.503 570.4C510.37 570.4 508.603 569.8 507.203 568.6C505.803 567.4 505.103 565.767 505.103 563.7V538.2C505.036 532.8 504.47 528.833 503.403 526.3C502.336 523.767 500.37 522.5 497.503 522.5C494.303 522.5 491.703 524.467 489.703 528.4C487.703 532.267 486.703 537.933 486.703 545.4C486.703 552.733 486.803 557.667 487.003 560.2C487.203 562.667 487.803 565.133 488.803 567.6C488.136 568.267 487.136 568.9 485.803 569.5C484.536 570.1 483.103 570.4 481.503 570.4C479.236 570.4 477.403 569.733 476.003 568.4C474.603 567.067 473.903 565.3 473.903 563.1V531C473.836 529.133 473.603 527.8 473.203 527C472.803 526.133 472.136 525.7 471.203 525.7C469.936 525.7 469.07 526.1 468.603 526.9C467.803 525.567 467.403 524.2 467.403 522.8C467.403 520.8 468.07 519.2 469.403 518C470.803 516.733 472.736 516.1 475.203 516.1C478.27 516.1 480.67 517.1 482.403 519.1C484.203 521.033 485.136 523.967 485.203 527.9C488.07 519.967 493.636 516 501.903 516C507.37 516 511.403 517.7 514.003 521.1C516.67 524.433 518.003 529.467 518.003 536.2V554.9ZM546.397 570.4C540.13 570.4 535.364 569.333 532.097 567.2C528.897 565.067 527.297 562.233 527.297 558.7C527.297 556.833 527.864 555.2 528.997 553.8C530.197 552.4 532.064 551.7 534.597 551.7C535.064 551.7 535.83 551.767 536.897 551.9C536.764 552.433 536.697 553.2 536.697 554.2C536.697 555.333 536.83 556.333 537.097 557.2C537.43 559.533 538.53 561.533 540.397 563.2C542.264 564.8 544.864 565.6 548.197 565.6C550.93 565.6 553.13 565.1 554.797 564.1C556.464 563.033 557.297 561.467 557.297 559.4C557.297 557.733 556.764 556.333 555.697 555.2C554.697 554 553.497 553.033 552.097 552.3C550.764 551.5 548.53 550.367 545.397 548.9C541.797 547.167 538.93 545.633 536.797 544.3C534.664 542.967 532.83 541.167 531.297 538.9C529.764 536.633 528.997 533.833 528.997 530.5C528.997 525.633 530.864 522 534.597 519.6C538.33 517.133 543.064 515.9 548.797 515.9C554.33 515.9 558.73 516.767 561.997 518.5C565.33 520.167 566.997 522.567 566.997 525.7C566.997 527.367 566.497 528.767 565.497 529.9C564.564 531.033 563.03 531.633 560.897 531.7C560.564 531.767 560.064 531.8 559.397 531.8C558.997 531.8 558.33 531.733 557.397 531.6C557.464 531.267 557.497 530.7 557.497 529.9C557.497 528.233 557.23 526.867 556.697 525.8C556.164 524.133 555.164 522.833 553.697 521.9C552.23 520.967 550.43 520.5 548.297 520.5C546.097 520.5 544.264 520.967 542.797 521.9C541.33 522.833 540.597 524.233 540.597 526.1C540.597 527.833 541.13 529.367 542.197 530.7C543.264 531.967 544.564 533.067 546.097 534C547.697 534.867 549.93 536 552.797 537.4C556.397 539.133 559.264 540.667 561.397 542C563.597 543.267 565.464 544.933 566.997 547C568.597 549.067 569.397 551.533 569.397 554.4C569.397 557.2 568.597 559.833 566.997 562.3C565.464 564.7 562.964 566.667 559.497 568.2C556.097 569.667 551.73 570.4 546.397 570.4Z" fill="#5F1B98"/>
<path d="M424.658 645.12C421.938 648.8 418.791 651.44 415.218 653.04C411.644 654.64 407.778 655.44 403.618 655.44C399.298 655.44 395.324 654.72 391.698 653.28C388.124 651.787 385.058 649.733 382.498 647.12C379.938 644.453 377.938 641.307 376.498 637.68C375.058 634 374.338 630 374.338 625.68C374.338 621.36 375.058 617.387 376.498 613.76C377.938 610.133 379.938 607.013 382.498 604.4C385.058 601.733 388.124 599.653 391.698 598.16C395.324 596.667 399.298 595.92 403.618 595.92C407.458 595.92 411.031 596.613 414.338 598C417.698 599.333 420.631 601.6 423.138 604.8L418.818 608.4C417.058 605.733 414.791 603.787 412.018 602.56C409.298 601.333 406.498 600.72 403.618 600.72C399.938 600.72 396.604 601.36 393.618 602.64C390.684 603.92 388.178 605.68 386.098 607.92C384.018 610.16 382.418 612.8 381.298 615.84C380.178 618.88 379.618 622.16 379.618 625.68C379.618 629.2 380.178 632.48 381.298 635.52C382.418 638.56 384.018 641.2 386.098 643.44C388.178 645.68 390.684 647.44 393.618 648.72C396.604 650 399.938 650.64 403.618 650.64C405.058 650.64 406.551 650.48 408.098 650.16C409.644 649.787 411.138 649.253 412.578 648.56C414.071 647.813 415.484 646.907 416.818 645.84C418.151 644.72 419.324 643.387 420.338 641.84L424.658 645.12ZM451.706 597.36H457.146L480.986 654H475.066L468.906 638.96H438.906L432.506 654H426.986L451.706 597.36ZM454.186 603.12L440.986 634.16H466.986L454.186 603.12ZM489.112 597.36H494.392V649.2H520.792V654H489.112V597.36ZM575.752 645.12C573.032 648.8 569.885 651.44 566.312 653.04C562.738 654.64 558.872 655.44 554.712 655.44C550.392 655.44 546.418 654.72 542.792 653.28C539.218 651.787 536.152 649.733 533.592 647.12C531.032 644.453 529.032 641.307 527.592 637.68C526.152 634 525.432 630 525.432 625.68C525.432 621.36 526.152 617.387 527.592 613.76C529.032 610.133 531.032 607.013 533.592 604.4C536.152 601.733 539.218 599.653 542.792 598.16C546.418 596.667 550.392 595.92 554.712 595.92C558.552 595.92 562.125 596.613 565.432 598C568.792 599.333 571.725 601.6 574.232 604.8L569.912 608.4C568.152 605.733 565.885 603.787 563.112 602.56C560.392 601.333 557.592 600.72 554.712 600.72C551.032 600.72 547.698 601.36 544.712 602.64C541.778 603.92 539.272 605.68 537.192 607.92C535.112 610.16 533.512 612.8 532.392 615.84C531.272 618.88 530.712 622.16 530.712 625.68C530.712 629.2 531.272 632.48 532.392 635.52C533.512 638.56 535.112 641.2 537.192 643.44C539.272 645.68 541.778 647.44 544.712 648.72C547.698 650 551.032 650.64 554.712 650.64C556.152 650.64 557.645 650.48 559.192 650.16C560.738 649.787 562.232 649.253 563.672 648.56C565.165 647.813 566.578 646.907 567.912 645.84C569.245 644.72 570.418 643.387 571.432 641.84L575.752 645.12ZM625.68 632.32C625.68 635.36 625.333 638.267 624.64 641.04C623.946 643.813 622.773 646.267 621.12 648.4C619.52 650.533 617.386 652.24 614.72 653.52C612.106 654.8 608.88 655.44 605.04 655.44C601.2 655.44 597.946 654.8 595.28 653.52C592.666 652.24 590.533 650.533 588.88 648.4C587.28 646.267 586.133 643.813 585.44 641.04C584.746 638.267 584.4 635.36 584.4 632.32V597.36H589.68V630.96C589.68 632.987 589.866 635.147 590.24 637.44C590.613 639.733 591.333 641.867 592.4 643.84C593.52 645.813 595.066 647.44 597.04 648.72C599.066 650 601.733 650.64 605.04 650.64C608.346 650.64 610.986 650 612.96 648.72C614.986 647.44 616.533 645.813 617.6 643.84C618.72 641.867 619.466 639.733 619.84 637.44C620.213 635.147 620.4 632.987 620.4 630.96V597.36H625.68V632.32ZM640.127 597.36H645.407V649.2H671.807V654H640.127V597.36ZM697.487 597.36H702.927L726.767 654H720.847L714.687 638.96H684.687L678.287 654H672.767L697.487 597.36ZM699.967 603.12L686.767 634.16H712.767L699.967 603.12ZM741.984 602.16H722.624V597.36H766.624V602.16H747.264V654H741.984V602.16ZM771.682 625.68C771.682 621.36 772.402 617.387 773.842 613.76C775.282 610.133 777.282 607.013 779.842 604.4C782.402 601.733 785.468 599.653 789.042 598.16C792.668 596.667 796.642 595.92 800.962 595.92C805.282 595.92 809.228 596.667 812.802 598.16C816.428 599.653 819.522 601.733 822.082 604.4C824.642 607.013 826.642 610.133 828.082 613.76C829.522 617.387 830.242 621.36 830.242 625.68C830.242 630 829.522 634 828.082 637.68C826.642 641.307 824.642 644.453 822.082 647.12C819.522 649.733 816.428 651.787 812.802 653.28C809.228 654.72 805.282 655.44 800.962 655.44C796.642 655.44 792.668 654.72 789.042 653.28C785.468 651.787 782.402 649.733 779.842 647.12C777.282 644.453 775.282 641.307 773.842 637.68C772.402 634 771.682 630 771.682 625.68ZM776.962 625.68C776.962 629.2 777.522 632.48 778.642 635.52C779.762 638.56 781.362 641.2 783.442 643.44C785.522 645.68 788.028 647.44 790.962 648.72C793.948 650 797.282 650.64 800.962 650.64C804.642 650.64 807.948 650 810.882 648.72C813.868 647.44 816.402 645.68 818.482 643.44C820.562 641.2 822.162 638.56 823.282 635.52C824.402 632.48 824.962 629.2 824.962 625.68C824.962 622.16 824.402 618.88 823.282 615.84C822.162 612.8 820.562 610.16 818.482 607.92C816.402 605.68 813.868 603.92 810.882 602.64C807.948 601.36 804.642 600.72 800.962 600.72C797.282 600.72 793.948 601.36 790.962 602.64C788.028 603.92 785.522 605.68 783.442 607.92C781.362 610.16 779.762 612.8 778.642 615.84C777.522 618.88 776.962 622.16 776.962 625.68ZM847.36 622.32H858.56C861.334 622.32 863.574 621.973 865.28 621.28C867.04 620.587 868.4 619.733 869.36 618.72C870.32 617.707 870.96 616.613 871.28 615.44C871.654 614.267 871.84 613.2 871.84 612.24C871.84 611.28 871.654 610.213 871.28 609.04C870.96 607.867 870.32 606.773 869.36 605.76C868.4 604.747 867.04 603.893 865.28 603.2C863.574 602.507 861.334 602.16 858.56 602.16H847.36V622.32ZM842.08 597.36H856.96C857.707 597.36 858.72 597.387 860 597.44C861.28 597.493 862.667 597.653 864.16 597.92C865.654 598.187 867.174 598.613 868.72 599.2C870.267 599.787 871.654 600.64 872.88 601.76C874.107 602.88 875.12 604.293 875.92 606C876.72 607.707 877.12 609.787 877.12 612.24C877.12 614.96 876.64 617.2 875.68 618.96C874.774 620.72 873.6 622.16 872.16 623.28C870.774 624.347 869.227 625.147 867.52 625.68C865.814 626.213 864.187 626.587 862.64 626.8L879.12 654H873.12L857.2 627.12H847.36V654H842.08V597.36Z" fill="#5F1B98"/>
<path d="M802.767 653.781C802.821 654.33 803.31 654.732 803.86 654.679C804.41 654.625 804.812 654.136 804.758 653.586L802.767 653.781ZM808.068 647.778L808.235 648.764L808.068 647.778ZM814.093 652.068L815.073 651.868L814.093 652.068ZM809.277 661.977C809.362 662.522 809.873 662.895 810.419 662.81C810.965 662.725 811.338 662.213 811.253 661.668L809.277 661.977ZM804.758 653.586C804.52 651.154 806.046 649.134 808.235 648.764L807.902 646.792C804.596 647.351 802.435 650.388 802.767 653.781L804.758 653.586ZM808.235 648.764C810.457 648.389 812.622 649.864 813.113 652.268L815.073 651.868C814.377 648.465 811.243 646.227 807.902 646.792L808.235 648.764ZM813.113 652.268C813.342 653.388 813.202 654.168 812.939 654.726C812.672 655.294 812.232 655.724 811.716 656.063C811.195 656.405 810.632 656.631 810.157 656.803C809.946 656.88 809.688 656.968 809.517 657.04C809.435 657.074 809.295 657.135 809.165 657.225C809.1 657.27 808.982 657.361 808.879 657.507C808.766 657.667 808.645 657.937 808.698 658.274L810.674 657.965C810.723 658.278 810.609 658.524 810.513 658.66C810.427 658.781 810.337 658.847 810.309 658.866C810.253 658.905 810.225 658.911 810.286 658.886C810.401 658.838 810.557 658.786 810.84 658.683C811.351 658.497 812.093 658.208 812.814 657.735C813.54 657.258 814.28 656.572 814.748 655.578C815.222 654.574 815.375 653.346 815.073 651.868L813.113 652.268ZM808.698 658.274C808.698 658.277 808.699 658.28 808.699 658.283C808.699 658.285 808.7 658.288 808.7 658.291C808.701 658.294 808.701 658.297 808.702 658.3C808.702 658.302 808.702 658.305 808.703 658.308C808.703 658.311 808.704 658.314 808.704 658.317C808.705 658.32 808.705 658.322 808.706 658.325C808.706 658.328 808.707 658.331 808.707 658.334C808.707 658.337 808.708 658.34 808.708 658.343C808.709 658.345 808.709 658.348 808.71 658.351C808.71 658.354 808.711 658.357 808.711 658.36C808.711 658.363 808.712 658.366 808.712 658.368C808.713 658.371 808.713 658.374 808.714 658.377C808.714 658.38 808.715 658.383 808.715 658.386C808.716 658.389 808.716 658.392 808.716 658.395C808.717 658.397 808.717 658.4 808.718 658.403C808.718 658.406 808.719 658.409 808.719 658.412C808.72 658.415 808.72 658.418 808.721 658.421C808.721 658.424 808.721 658.427 808.722 658.43C808.722 658.432 808.723 658.435 808.723 658.438C808.724 658.441 808.724 658.444 808.725 658.447C808.725 658.45 808.726 658.453 808.726 658.456C808.727 658.459 808.727 658.462 808.727 658.465C808.728 658.468 808.728 658.471 808.729 658.474C808.729 658.477 808.73 658.48 808.73 658.483C808.731 658.485 808.731 658.488 808.732 658.491C808.732 658.494 808.733 658.497 808.733 658.5C808.733 658.503 808.734 658.506 808.734 658.509C808.735 658.512 808.735 658.515 808.736 658.518C808.736 658.521 808.737 658.524 808.737 658.527C808.738 658.53 808.738 658.533 808.739 658.536C808.739 658.539 808.74 658.542 808.74 658.545C808.74 658.548 808.741 658.551 808.741 658.554C808.742 658.557 808.742 658.56 808.743 658.563C808.743 658.566 808.744 658.569 808.744 658.572C808.745 658.575 808.745 658.578 808.746 658.581C808.746 658.584 808.747 658.587 808.747 658.59C808.748 658.593 808.748 658.596 808.748 658.599C808.749 658.602 808.749 658.605 808.75 658.608C808.75 658.611 808.751 658.614 808.751 658.617C808.752 658.62 808.752 658.623 808.753 658.626C808.753 658.629 808.754 658.632 808.754 658.636C808.755 658.639 808.755 658.642 808.756 658.645C808.756 658.648 808.757 658.651 808.757 658.654C808.757 658.657 808.758 658.66 808.758 658.663C808.759 658.666 808.759 658.669 808.76 658.672C808.76 658.675 808.761 658.678 808.761 658.681C808.762 658.684 808.762 658.687 808.763 658.69C808.763 658.694 808.764 658.697 808.764 658.7C808.765 658.703 808.765 658.706 808.766 658.709C808.766 658.712 808.767 658.715 808.767 658.718C808.768 658.721 808.768 658.724 808.768 658.727C808.769 658.73 808.769 658.733 808.77 658.737C808.77 658.74 808.771 658.743 808.771 658.746C808.772 658.749 808.772 658.752 808.773 658.755C808.773 658.758 808.774 658.761 808.774 658.764C808.775 658.767 808.775 658.771 808.776 658.774C808.776 658.777 808.777 658.78 808.777 658.783C808.778 658.786 808.778 658.789 808.779 658.792C808.779 658.795 808.78 658.799 808.78 658.802C808.781 658.805 808.781 658.808 808.782 658.811C808.782 658.814 808.783 658.817 808.783 658.82C808.784 658.823 808.784 658.827 808.784 658.83C808.785 658.833 808.785 658.836 808.786 658.839C808.786 658.842 808.787 658.845 808.787 658.848C808.788 658.852 808.788 658.855 808.789 658.858C808.789 658.861 808.79 658.864 808.79 658.867C808.791 658.87 808.791 658.873 808.792 658.877C808.792 658.88 808.793 658.883 808.793 658.886C808.794 658.889 808.794 658.892 808.795 658.895C808.795 658.899 808.796 658.902 808.796 658.905C808.797 658.908 808.797 658.911 808.798 658.914C808.798 658.917 808.799 658.921 808.799 658.924C808.8 658.927 808.8 658.93 808.801 658.933C808.801 658.936 808.802 658.939 808.802 658.943C808.803 658.946 808.803 658.949 808.804 658.952C808.804 658.955 808.805 658.958 808.805 658.962C808.806 658.965 808.806 658.968 808.807 658.971C808.807 658.974 808.808 658.977 808.808 658.981C808.809 658.984 808.809 658.987 808.81 658.99C808.81 658.993 808.811 658.996 808.811 659C808.812 659.003 808.812 659.006 808.813 659.009C808.813 659.012 808.814 659.015 808.814 659.019C808.815 659.022 808.815 659.025 808.816 659.028C808.816 659.031 808.817 659.035 808.817 659.038C808.818 659.041 808.818 659.044 808.819 659.047C808.819 659.05 808.82 659.054 808.82 659.057C808.821 659.06 808.821 659.063 808.822 659.066C808.822 659.07 808.823 659.073 808.823 659.076C808.824 659.079 808.824 659.082 808.825 659.086C808.825 659.089 808.826 659.092 808.826 659.095C808.827 659.098 808.827 659.102 808.828 659.105C808.828 659.108 808.829 659.111 808.829 659.114C808.83 659.118 808.83 659.121 808.831 659.124C808.831 659.127 808.832 659.13 808.832 659.134C808.833 659.137 808.833 659.14 808.834 659.143C808.834 659.146 808.835 659.15 808.835 659.153C808.836 659.156 808.836 659.159 808.837 659.162C808.837 659.166 808.838 659.169 808.838 659.172C808.839 659.175 808.839 659.178 808.84 659.182C808.84 659.185 808.841 659.188 808.841 659.191C808.842 659.194 808.842 659.198 808.843 659.201C808.843 659.204 808.844 659.207 808.844 659.211C808.845 659.214 808.845 659.217 808.846 659.22C808.846 659.223 808.847 659.227 808.847 659.23C808.848 659.233 808.848 659.236 808.849 659.24C808.849 659.243 808.85 659.246 808.85 659.249C808.851 659.252 808.851 659.256 808.852 659.259C808.852 659.262 808.853 659.265 808.853 659.269C808.854 659.272 808.854 659.275 808.855 659.278C808.855 659.281 808.856 659.285 808.856 659.288C808.857 659.291 808.857 659.294 808.858 659.298C808.858 659.301 808.859 659.304 808.859 659.307C808.86 659.311 808.86 659.314 808.861 659.317C808.861 659.32 808.862 659.323 808.862 659.327C808.863 659.33 808.863 659.333 808.864 659.336C808.864 659.34 808.865 659.343 808.865 659.346C808.866 659.349 808.866 659.353 808.867 659.356C808.867 659.359 808.868 659.362 808.868 659.365C808.869 659.369 808.869 659.372 808.87 659.375C808.87 659.378 808.871 659.382 808.871 659.385C808.872 659.388 808.872 659.391 808.873 659.395C808.873 659.398 808.874 659.401 808.874 659.404C808.875 659.408 808.875 659.411 808.876 659.414C808.876 659.417 808.877 659.421 808.877 659.424C808.878 659.427 808.878 659.43 808.879 659.433C808.879 659.437 808.88 659.44 808.88 659.443C808.881 659.446 808.881 659.45 808.882 659.453C808.882 659.456 808.883 659.459 808.883 659.463C808.884 659.466 808.884 659.469 808.885 659.472C808.886 659.476 808.886 659.479 808.887 659.482C808.887 659.485 808.888 659.489 808.888 659.492C808.889 659.495 808.889 659.498 808.89 659.502C808.89 659.505 808.891 659.508 808.891 659.511C808.892 659.515 808.892 659.518 808.893 659.521C808.893 659.524 808.894 659.527 808.894 659.531C808.895 659.534 808.895 659.537 808.896 659.54C808.896 659.544 808.897 659.547 808.897 659.55C808.898 659.553 808.898 659.557 808.899 659.56C808.899 659.563 808.9 659.566 808.9 659.57C808.901 659.573 808.901 659.576 808.902 659.579C808.902 659.583 808.903 659.586 808.903 659.589C808.904 659.592 808.904 659.596 808.905 659.599C808.905 659.602 808.906 659.605 808.906 659.609C808.907 659.612 808.907 659.615 808.908 659.618C808.908 659.622 808.909 659.625 808.909 659.628C808.91 659.631 808.91 659.634 808.911 659.638C808.911 659.641 808.912 659.644 808.912 659.647C808.913 659.651 808.913 659.654 808.914 659.657C808.914 659.66 808.915 659.664 808.915 659.667C808.916 659.67 808.916 659.673 808.917 659.677C808.917 659.68 808.918 659.683 808.918 659.686C808.919 659.69 808.919 659.693 808.92 659.696C808.92 659.699 808.921 659.702 808.921 659.706C808.922 659.709 808.923 659.712 808.923 659.715C808.924 659.719 808.924 659.722 808.925 659.725C808.925 659.728 808.926 659.732 808.926 659.735C808.927 659.738 808.927 659.741 808.928 659.745C808.928 659.748 808.929 659.751 808.929 659.754C808.93 659.757 808.93 659.761 808.931 659.764C808.931 659.767 808.932 659.77 808.932 659.774C808.933 659.777 808.933 659.78 808.934 659.783C808.934 659.786 808.935 659.79 808.935 659.793C808.936 659.796 808.936 659.799 808.937 659.803C808.937 659.806 808.938 659.809 808.938 659.812C808.939 659.816 808.939 659.819 808.94 659.822C808.94 659.825 808.941 659.828 808.941 659.832C808.942 659.835 808.942 659.838 808.943 659.841C808.943 659.845 808.944 659.848 808.944 659.851C808.945 659.854 808.945 659.857 808.946 659.861C808.946 659.864 808.947 659.867 808.947 659.87C808.948 659.873 808.948 659.877 808.949 659.88C808.949 659.883 808.95 659.886 808.95 659.89C808.951 659.893 808.951 659.896 808.952 659.899C808.952 659.902 808.953 659.906 808.953 659.909C808.954 659.912 808.954 659.915 808.955 659.918C808.955 659.922 808.956 659.925 808.956 659.928C808.957 659.931 808.957 659.934 808.958 659.938C808.958 659.941 808.959 659.944 808.959 659.947C808.96 659.95 808.96 659.954 808.961 659.957C808.961 659.96 808.962 659.963 808.962 659.966C808.963 659.97 808.963 659.973 808.964 659.976C808.964 659.979 808.965 659.982 808.965 659.986C808.966 659.989 808.966 659.992 808.967 659.995C808.967 659.998 808.968 660.002 808.968 660.005C808.969 660.008 808.969 660.011 808.97 660.014C808.97 660.017 808.971 660.021 808.971 660.024C808.972 660.027 808.972 660.03 808.973 660.033C808.973 660.037 808.974 660.04 808.974 660.043C808.975 660.046 808.975 660.049 808.976 660.052C808.976 660.056 808.977 660.059 808.977 660.062C808.978 660.065 808.978 660.068 808.979 660.072C808.979 660.075 808.98 660.078 808.98 660.081C808.981 660.084 808.981 660.087 808.982 660.091C808.982 660.094 808.983 660.097 808.983 660.1C808.984 660.103 808.984 660.106 808.985 660.11C808.985 660.113 808.986 660.116 808.986 660.119C808.987 660.122 808.987 660.125 808.988 660.128C808.988 660.132 808.989 660.135 808.989 660.138C808.99 660.141 808.99 660.144 808.991 660.147C808.991 660.151 808.992 660.154 808.992 660.157C808.993 660.16 808.993 660.163 808.994 660.166C808.994 660.169 808.995 660.173 808.995 660.176C808.995 660.179 808.996 660.182 808.996 660.185C808.997 660.188 808.997 660.191 808.998 660.195C808.998 660.198 808.999 660.201 808.999 660.204C809 660.207 809 660.21 809.001 660.213C809.001 660.216 809.002 660.22 809.002 660.223C809.003 660.226 809.003 660.229 809.004 660.232C809.004 660.235 809.005 660.238 809.005 660.241C809.006 660.245 809.006 660.248 809.007 660.251C809.007 660.254 809.008 660.257 809.008 660.26C809.009 660.263 809.009 660.266 809.01 660.269C809.01 660.273 809.011 660.276 809.011 660.279C809.012 660.282 809.012 660.285 809.013 660.288C809.013 660.291 809.014 660.294 809.014 660.297C809.015 660.3 809.015 660.304 809.015 660.307C809.016 660.31 809.016 660.313 809.017 660.316C809.017 660.319 809.018 660.322 809.018 660.325C809.019 660.328 809.019 660.331 809.02 660.334C809.02 660.338 809.021 660.341 809.021 660.344C809.022 660.347 809.022 660.35 809.023 660.353C809.023 660.356 809.024 660.359 809.024 660.362C809.025 660.365 809.025 660.368 809.026 660.371C809.026 660.374 809.027 660.377 809.027 660.381C809.028 660.384 809.028 660.387 809.028 660.39C809.029 660.393 809.029 660.396 809.03 660.399C809.03 660.402 809.031 660.405 809.031 660.408C809.032 660.411 809.032 660.414 809.033 660.417C809.033 660.42 809.034 660.423 809.034 660.426C809.035 660.429 809.035 660.432 809.036 660.435C809.036 660.438 809.037 660.442 809.037 660.445C809.038 660.448 809.038 660.451 809.038 660.454C809.039 660.457 809.039 660.46 809.04 660.463C809.04 660.466 809.041 660.469 809.041 660.472C809.042 660.475 809.042 660.478 809.043 660.481C809.043 660.484 809.044 660.487 809.044 660.49C809.045 660.493 809.045 660.496 809.046 660.499C809.046 660.502 809.046 660.505 809.047 660.508C809.047 660.511 809.048 660.514 809.048 660.517C809.049 660.52 809.049 660.523 809.05 660.526C809.05 660.529 809.051 660.532 809.051 660.535C809.052 660.538 809.052 660.541 809.053 660.544C809.053 660.547 809.053 660.55 809.054 660.553C809.054 660.556 809.055 660.559 809.055 660.562C809.056 660.565 809.056 660.568 809.057 660.571C809.057 660.574 809.058 660.577 809.058 660.58C809.059 660.582 809.059 660.585 809.06 660.588C809.06 660.591 809.06 660.594 809.061 660.597C809.061 660.6 809.062 660.603 809.062 660.606C809.063 660.609 809.063 660.612 809.064 660.615C809.064 660.618 809.065 660.621 809.065 660.624C809.066 660.627 809.066 660.63 809.066 660.633C809.067 660.635 809.067 660.638 809.068 660.641C809.068 660.644 809.069 660.647 809.069 660.65C809.07 660.653 809.07 660.656 809.071 660.659C809.071 660.662 809.071 660.665 809.072 660.668C809.072 660.671 809.073 660.673 809.073 660.676C809.074 660.679 809.074 660.682 809.075 660.685C809.075 660.688 809.076 660.691 809.076 660.694C809.076 660.697 809.077 660.699 809.077 660.702C809.078 660.705 809.078 660.708 809.079 660.711C809.079 660.714 809.08 660.717 809.08 660.72C809.081 660.723 809.081 660.725 809.081 660.728C809.082 660.731 809.082 660.734 809.083 660.737C809.083 660.74 809.084 660.743 809.084 660.745C809.085 660.748 809.085 660.751 809.085 660.754C809.086 660.757 809.086 660.76 809.087 660.763C809.087 660.765 809.088 660.768 809.088 660.771C809.089 660.774 809.089 660.777 809.089 660.78C809.09 660.782 809.09 660.785 809.091 660.788C809.091 660.791 809.092 660.794 809.092 660.797C809.093 660.799 809.093 660.802 809.093 660.805C809.094 660.808 809.094 660.811 809.095 660.813C809.095 660.816 809.096 660.819 809.096 660.822C809.096 660.825 809.097 660.828 809.097 660.83C809.098 660.833 809.098 660.836 809.099 660.839C809.099 660.841 809.1 660.844 809.1 660.847C809.1 660.85 809.101 660.853 809.101 660.855C809.102 660.858 809.102 660.861 809.103 660.864C809.103 660.866 809.103 660.869 809.104 660.872C809.104 660.875 809.105 660.878 809.105 660.88C809.106 660.883 809.106 660.886 809.106 660.889C809.107 660.891 809.107 660.894 809.108 660.897C809.108 660.9 809.109 660.902 809.109 660.905C809.109 660.908 809.11 660.91 809.11 660.913C809.111 660.916 809.111 660.919 809.112 660.921C809.112 660.924 809.112 660.927 809.113 660.93C809.113 660.932 809.114 660.935 809.114 660.938C809.115 660.94 809.115 660.943 809.115 660.946C809.116 660.949 809.116 660.951 809.117 660.954C809.117 660.957 809.118 660.959 809.118 660.962C809.118 660.965 809.119 660.967 809.119 660.97C809.12 660.973 809.12 660.975 809.12 660.978C809.121 660.981 809.121 660.983 809.122 660.986C809.122 660.989 809.123 660.991 809.123 660.994C809.123 660.997 809.124 660.999 809.124 661.002C809.125 661.005 809.125 661.007 809.125 661.01C809.126 661.013 809.126 661.015 809.127 661.018C809.127 661.021 809.128 661.023 809.128 661.026C809.128 661.028 809.129 661.031 809.129 661.034C809.13 661.036 809.13 661.039 809.13 661.042C809.131 661.044 809.131 661.047 809.132 661.049C809.132 661.052 809.132 661.055 809.133 661.057C809.133 661.06 809.134 661.062 809.134 661.065C809.134 661.068 809.135 661.07 809.135 661.073C809.136 661.075 809.136 661.078 809.136 661.081C809.137 661.083 809.137 661.086 809.138 661.088C809.138 661.091 809.139 661.093 809.139 661.096C809.139 661.098 809.14 661.101 809.14 661.104C809.141 661.106 809.141 661.109 809.141 661.111C809.142 661.114 809.142 661.116 809.142 661.119C809.143 661.121 809.143 661.124 809.144 661.126C809.144 661.129 809.144 661.132 809.145 661.134C809.145 661.137 809.146 661.139 809.146 661.142C809.146 661.144 809.147 661.147 809.147 661.149C809.148 661.152 809.148 661.154 809.148 661.157C809.149 661.159 809.149 661.162 809.15 661.164C809.15 661.167 809.15 661.169 809.151 661.172C809.151 661.174 809.152 661.177 809.152 661.179C809.152 661.181 809.153 661.184 809.153 661.186C809.153 661.189 809.154 661.191 809.154 661.194C809.155 661.196 809.155 661.199 809.155 661.201C809.156 661.204 809.156 661.206 809.156 661.208C809.157 661.211 809.157 661.213 809.158 661.216C809.158 661.218 809.158 661.221 809.159 661.223C809.159 661.225 809.16 661.228 809.16 661.23C809.16 661.233 809.161 661.235 809.161 661.237C809.161 661.24 809.162 661.242 809.162 661.245C809.163 661.247 809.163 661.249 809.163 661.252C809.164 661.254 809.164 661.257 809.164 661.259C809.165 661.261 809.165 661.264 809.166 661.266C809.166 661.268 809.166 661.271 809.167 661.273C809.167 661.276 809.167 661.278 809.168 661.28C809.168 661.283 809.168 661.285 809.169 661.287C809.169 661.29 809.17 661.292 809.17 661.294C809.17 661.297 809.171 661.299 809.171 661.301C809.171 661.304 809.172 661.306 809.172 661.308C809.172 661.311 809.173 661.313 809.173 661.315C809.174 661.317 809.174 661.32 809.174 661.322C809.175 661.324 809.175 661.327 809.175 661.329C809.176 661.331 809.176 661.333 809.176 661.336C809.177 661.338 809.177 661.34 809.177 661.343C809.178 661.345 809.178 661.347 809.179 661.349C809.179 661.352 809.179 661.354 809.18 661.356C809.18 661.358 809.18 661.361 809.181 661.363C809.181 661.365 809.181 661.367 809.182 661.37C809.182 661.372 809.182 661.374 809.183 661.376C809.183 661.378 809.183 661.381 809.184 661.383C809.184 661.385 809.184 661.387 809.185 661.389C809.185 661.392 809.185 661.394 809.186 661.396C809.186 661.398 809.187 661.4 809.187 661.403C809.187 661.405 809.188 661.407 809.188 661.409C809.188 661.411 809.189 661.413 809.189 661.416C809.189 661.418 809.19 661.42 809.19 661.422C809.19 661.424 809.191 661.426 809.191 661.429C809.191 661.431 809.192 661.433 809.192 661.435C809.192 661.437 809.193 661.439 809.193 661.441C809.193 661.443 809.194 661.446 809.194 661.448C809.194 661.45 809.195 661.452 809.195 661.454C809.195 661.456 809.196 661.458 809.196 661.46C809.196 661.462 809.197 661.464 809.197 661.466C809.197 661.469 809.198 661.471 809.198 661.473C809.198 661.475 809.198 661.477 809.199 661.479C809.199 661.481 809.199 661.483 809.2 661.485C809.2 661.487 809.2 661.489 809.201 661.491C809.201 661.493 809.201 661.495 809.202 661.497C809.202 661.499 809.202 661.501 809.203 661.503C809.203 661.505 809.203 661.507 809.204 661.509C809.204 661.511 809.204 661.513 809.204 661.515C809.205 661.517 809.205 661.519 809.205 661.521C809.206 661.523 809.206 661.525 809.206 661.527C809.207 661.529 809.207 661.531 809.207 661.533C809.208 661.535 809.208 661.537 809.208 661.539C809.209 661.541 809.209 661.543 809.209 661.545C809.209 661.547 809.21 661.549 809.21 661.551C809.21 661.553 809.211 661.555 809.211 661.556C809.211 661.558 809.212 661.56 809.212 661.562C809.212 661.564 809.212 661.566 809.213 661.568C809.213 661.57 809.213 661.572 809.214 661.574C809.214 661.575 809.214 661.577 809.214 661.579C809.215 661.581 809.215 661.583 809.215 661.585C809.216 661.587 809.216 661.589 809.216 661.59C809.217 661.592 809.217 661.594 809.217 661.596C809.217 661.598 809.218 661.6 809.218 661.601C809.218 661.603 809.219 661.605 809.219 661.607C809.219 661.609 809.219 661.611 809.22 661.612C809.22 661.614 809.22 661.616 809.221 661.618C809.221 661.62 809.221 661.621 809.221 661.623C809.222 661.625 809.222 661.627 809.222 661.628C809.222 661.63 809.223 661.632 809.223 661.634C809.223 661.636 809.224 661.637 809.224 661.639C809.224 661.641 809.224 661.642 809.225 661.644C809.225 661.646 809.225 661.648 809.225 661.649C809.226 661.651 809.226 661.653 809.226 661.655C809.227 661.656 809.227 661.658 809.227 661.66C809.227 661.661 809.228 661.663 809.228 661.665C809.228 661.666 809.228 661.668 809.229 661.67C809.229 661.672 809.229 661.673 809.229 661.675C809.23 661.677 809.23 661.678 809.23 661.68C809.23 661.681 809.231 661.683 809.231 661.685C809.231 661.686 809.232 661.688 809.232 661.69C809.232 661.691 809.232 661.693 809.233 661.695C809.233 661.696 809.233 661.698 809.233 661.699C809.234 661.701 809.234 661.703 809.234 661.704C809.234 661.706 809.235 661.707 809.235 661.709C809.235 661.711 809.235 661.712 809.236 661.714C809.236 661.715 809.236 661.717 809.236 661.718C809.236 661.72 809.237 661.721 809.237 661.723C809.237 661.725 809.237 661.726 809.238 661.728C809.238 661.729 809.238 661.731 809.238 661.732C809.239 661.734 809.239 661.735 809.239 661.737C809.239 661.738 809.24 661.74 809.24 661.741C809.24 661.743 809.24 661.744 809.241 661.746C809.241 661.747 809.241 661.749 809.241 661.75C809.241 661.752 809.242 661.753 809.242 661.754C809.242 661.756 809.242 661.757 809.243 661.759C809.243 661.76 809.243 661.762 809.243 661.763C809.243 661.765 809.244 661.766 809.244 661.767C809.244 661.769 809.244 661.77 809.245 661.772C809.245 661.773 809.245 661.774 809.245 661.776C809.245 661.777 809.246 661.779 809.246 661.78C809.246 661.781 809.246 661.783 809.247 661.784C809.247 661.785 809.247 661.787 809.247 661.788C809.247 661.79 809.248 661.791 809.248 661.792C809.248 661.794 809.248 661.795 809.248 661.796C809.249 661.798 809.249 661.799 809.249 661.8C809.249 661.801 809.249 661.803 809.25 661.804C809.25 661.805 809.25 661.807 809.25 661.808C809.25 661.809 809.251 661.811 809.251 661.812C809.251 661.813 809.251 661.814 809.251 661.816C809.252 661.817 809.252 661.818 809.252 661.819C809.252 661.821 809.252 661.822 809.253 661.823C809.253 661.824 809.253 661.825 809.253 661.827C809.253 661.828 809.254 661.829 809.254 661.83C809.254 661.832 809.254 661.833 809.254 661.834C809.255 661.835 809.255 661.836 809.255 661.837C809.255 661.839 809.255 661.84 809.255 661.841C809.256 661.842 809.256 661.843 809.256 661.844C809.256 661.846 809.256 661.847 809.256 661.848C809.257 661.849 809.257 661.85 809.257 661.851C809.257 661.852 809.257 661.854 809.258 661.855C809.258 661.856 809.258 661.857 809.258 661.858C809.258 661.859 809.258 661.86 809.259 661.861C809.259 661.862 809.259 661.863 809.259 661.864C809.259 661.865 809.259 661.867 809.26 661.868C809.26 661.869 809.26 661.87 809.26 661.871C809.26 661.872 809.26 661.873 809.261 661.874C809.261 661.875 809.261 661.876 809.261 661.877C809.261 661.878 809.261 661.879 809.261 661.88C809.262 661.881 809.262 661.882 809.262 661.883C809.262 661.884 809.262 661.885 809.262 661.886C809.263 661.887 809.263 661.888 809.263 661.889C809.263 661.89 809.263 661.89 809.263 661.891C809.263 661.892 809.264 661.893 809.264 661.894C809.264 661.895 809.264 661.896 809.264 661.897C809.264 661.898 809.264 661.899 809.265 661.9C809.265 661.901 809.265 661.901 809.265 661.902C809.265 661.903 809.265 661.904 809.265 661.905C809.266 661.906 809.266 661.907 809.266 661.907C809.266 661.908 809.266 661.909 809.266 661.91C809.266 661.911 809.266 661.912 809.267 661.912C809.267 661.913 809.267 661.914 809.267 661.915C809.267 661.916 809.267 661.917 809.267 661.917C809.267 661.918 809.268 661.919 809.268 661.92C809.268 661.92 809.268 661.921 809.268 661.922C809.268 661.923 809.268 661.923 809.268 661.924C809.269 661.925 809.269 661.926 809.269 661.926C809.269 661.927 809.269 661.928 809.269 661.929C809.269 661.929 809.269 661.93 809.269 661.931C809.27 661.931 809.27 661.932 809.27 661.933C809.27 661.933 809.27 661.934 809.27 661.935C809.27 661.935 809.27 661.936 809.27 661.937C809.271 661.937 809.271 661.938 809.271 661.939C809.271 661.939 809.271 661.94 809.271 661.941C809.271 661.941 809.271 661.942 809.271 661.942C809.271 661.943 809.271 661.944 809.272 661.944C809.272 661.945 809.272 661.945 809.272 661.946C809.272 661.947 809.272 661.947 809.272 661.948C809.272 661.948 809.272 661.949 809.272 661.949C809.272 661.95 809.273 661.95 809.273 661.951C809.273 661.951 809.273 661.952 809.273 661.952C809.273 661.953 809.273 661.953 809.273 661.954C809.273 661.954 809.273 661.955 809.273 661.955C809.273 661.956 809.273 661.956 809.274 661.957C809.274 661.957 809.274 661.958 809.274 661.958C809.274 661.959 809.274 661.959 809.274 661.96C809.274 661.96 809.274 661.96 809.274 661.961C809.274 661.961 809.274 661.962 809.274 661.962C809.274 661.962 809.274 661.963 809.275 661.963C809.275 661.964 809.275 661.964 809.275 661.964C809.275 661.965 809.275 661.965 809.275 661.965C809.275 661.966 809.275 661.966 809.275 661.966C809.275 661.967 809.275 661.967 809.275 661.967C809.275 661.968 809.275 661.968 809.275 661.968C809.275 661.969 809.275 661.969 809.275 661.969C809.276 661.97 809.276 661.97 809.276 661.97C809.276 661.97 809.276 661.971 809.276 661.971C809.276 661.971 809.276 661.971 809.276 661.972C809.276 661.972 809.276 661.972 809.276 661.972C809.276 661.973 809.276 661.973 809.276 661.973C809.276 661.973 809.276 661.973 809.276 661.974C809.276 661.974 809.276 661.974 809.276 661.974C809.276 661.974 809.276 661.974 809.276 661.975C809.276 661.975 809.276 661.975 809.276 661.975C809.276 661.975 809.276 661.975 809.276 661.975C809.276 661.975 809.276 661.976 809.276 661.976C809.277 661.976 809.277 661.976 809.277 661.976C809.277 661.976 809.277 661.976 809.277 661.976C809.277 661.976 809.277 661.976 809.277 661.976C809.277 661.976 809.277 661.976 809.277 661.977C809.277 661.977 809.277 661.977 809.277 661.977C809.277 661.977 809.277 661.977 810.265 661.822C811.253 661.668 811.253 661.668 811.253 661.668C811.253 661.668 811.253 661.668 811.253 661.667C811.253 661.667 811.253 661.667 811.253 661.667C811.253 661.667 811.253 661.667 811.253 661.667C811.253 661.667 811.253 661.667 811.253 661.667C811.253 661.667 811.252 661.667 811.252 661.667C811.252 661.667 811.252 661.666 811.252 661.666C811.252 661.666 811.252 661.666 811.252 661.666C811.252 661.666 811.252 661.666 811.252 661.666C811.252 661.665 811.252 661.665 811.252 661.665C811.252 661.665 811.252 661.665 811.252 661.665C811.252 661.664 811.252 661.664 811.252 661.664C811.252 661.664 811.252 661.664 811.252 661.663C811.252 661.663 811.252 661.663 811.252 661.663C811.252 661.662 811.252 661.662 811.252 661.662C811.252 661.662 811.252 661.661 811.252 661.661C811.252 661.661 811.252 661.661 811.251 661.66C811.251 661.66 811.251 661.66 811.251 661.659C811.251 661.659 811.251 661.659 811.251 661.658C811.251 661.658 811.251 661.658 811.251 661.657C811.251 661.657 811.251 661.657 811.251 661.656C811.251 661.656 811.251 661.656 811.251 661.655C811.251 661.655 811.251 661.655 811.251 661.654C811.25 661.654 811.25 661.653 811.25 661.653C811.25 661.653 811.25 661.652 811.25 661.652C811.25 661.651 811.25 661.651 811.25 661.651C811.25 661.65 811.25 661.65 811.25 661.649C811.25 661.649 811.25 661.648 811.25 661.648C811.249 661.647 811.249 661.647 811.249 661.646C811.249 661.646 811.249 661.645 811.249 661.645C811.249 661.644 811.249 661.644 811.249 661.643C811.249 661.643 811.249 661.642 811.249 661.642C811.249 661.641 811.248 661.641 811.248 661.64C811.248 661.64 811.248 661.639 811.248 661.639C811.248 661.638 811.248 661.638 811.248 661.637C811.248 661.636 811.248 661.636 811.248 661.635C811.247 661.635 811.247 661.634 811.247 661.633C811.247 661.633 811.247 661.632 811.247 661.632C811.247 661.631 811.247 661.63 811.247 661.63C811.247 661.629 811.246 661.628 811.246 661.628C811.246 661.627 811.246 661.626 811.246 661.626C811.246 661.625 811.246 661.624 811.246 661.624C811.246 661.623 811.246 661.622 811.245 661.622C811.245 661.621 811.245 661.62 811.245 661.62C811.245 661.619 811.245 661.618 811.245 661.617C811.245 661.617 811.245 661.616 811.244 661.615C811.244 661.614 811.244 661.614 811.244 661.613C811.244 661.612 811.244 661.611 811.244 661.611C811.244 661.61 811.243 661.609 811.243 661.608C811.243 661.607 811.243 661.607 811.243 661.606C811.243 661.605 811.243 661.604 811.243 661.603C811.242 661.603 811.242 661.602 811.242 661.601C811.242 661.6 811.242 661.599 811.242 661.598C811.242 661.598 811.242 661.597 811.241 661.596C811.241 661.595 811.241 661.594 811.241 661.593C811.241 661.592 811.241 661.592 811.241 661.591C811.24 661.59 811.24 661.589 811.24 661.588C811.24 661.587 811.24 661.586 811.24 661.585C811.24 661.584 811.239 661.583 811.239 661.582C811.239 661.581 811.239 661.581 811.239 661.58C811.239 661.579 811.239 661.578 811.238 661.577C811.238 661.576 811.238 661.575 811.238 661.574C811.238 661.573 811.238 661.572 811.237 661.571C811.237 661.57 811.237 661.569 811.237 661.568C811.237 661.567 811.237 661.566 811.237 661.565C811.236 661.564 811.236 661.563 811.236 661.562C811.236 661.561 811.236 661.56 811.236 661.559C811.235 661.557 811.235 661.556 811.235 661.555C811.235 661.554 811.235 661.553 811.235 661.552C811.234 661.551 811.234 661.55 811.234 661.549C811.234 661.548 811.234 661.547 811.234 661.546C811.233 661.544 811.233 661.543 811.233 661.542C811.233 661.541 811.233 661.54 811.232 661.539C811.232 661.538 811.232 661.537 811.232 661.535C811.232 661.534 811.232 661.533 811.231 661.532C811.231 661.531 811.231 661.53 811.231 661.528C811.231 661.527 811.23 661.526 811.23 661.525C811.23 661.524 811.23 661.523 811.23 661.521C811.23 661.52 811.229 661.519 811.229 661.518C811.229 661.516 811.229 661.515 811.229 661.514C811.228 661.513 811.228 661.512 811.228 661.51C811.228 661.509 811.228 661.508 811.227 661.507C811.227 661.505 811.227 661.504 811.227 661.503C811.227 661.501 811.226 661.5 811.226 661.499C811.226 661.498 811.226 661.496 811.226 661.495C811.225 661.494 811.225 661.492 811.225 661.491C811.225 661.49 811.225 661.489 811.224 661.487C811.224 661.486 811.224 661.485 811.224 661.483C811.224 661.482 811.223 661.481 811.223 661.479C811.223 661.478 811.223 661.476 811.223 661.475C811.222 661.474 811.222 661.472 811.222 661.471C811.222 661.47 811.221 661.468 811.221 661.467C811.221 661.465 811.221 661.464 811.221 661.463C811.22 661.461 811.22 661.46 811.22 661.458C811.22 661.457 811.219 661.456 811.219 661.454C811.219 661.453 811.219 661.451 811.219 661.45C811.218 661.448 811.218 661.447 811.218 661.445C811.218 661.444 811.217 661.443 811.217 661.441C811.217 661.44 811.217 661.438 811.217 661.437C811.216 661.435 811.216 661.434 811.216 661.432C811.216 661.431 811.215 661.429 811.215 661.428C811.215 661.426 811.215 661.425 811.214 661.423C811.214 661.422 811.214 661.42 811.214 661.419C811.213 661.417 811.213 661.416 811.213 661.414C811.213 661.412 811.212 661.411 811.212 661.409C811.212 661.408 811.212 661.406 811.211 661.405C811.211 661.403 811.211 661.402 811.211 661.4C811.211 661.398 811.21 661.397 811.21 661.395C811.21 661.394 811.21 661.392 811.209 661.39C811.209 661.389 811.209 661.387 811.209 661.386C811.208 661.384 811.208 661.382 811.208 661.381C811.207 661.379 811.207 661.377 811.207 661.376C811.207 661.374 811.206 661.372 811.206 661.371C811.206 661.369 811.206 661.368 811.205 661.366C811.205 661.364 811.205 661.363 811.205 661.361C811.204 661.359 811.204 661.357 811.204 661.356C811.204 661.354 811.203 661.352 811.203 661.351C811.203 661.349 811.203 661.347 811.202 661.346C811.202 661.344 811.202 661.342 811.201 661.34C811.201 661.339 811.201 661.337 811.201 661.335C811.2 661.333 811.2 661.332 811.2 661.33C811.2 661.328 811.199 661.326 811.199 661.325C811.199 661.323 811.198 661.321 811.198 661.319C811.198 661.318 811.198 661.316 811.197 661.314C811.197 661.312 811.197 661.311 811.196 661.309C811.196 661.307 811.196 661.305 811.196 661.303C811.195 661.302 811.195 661.3 811.195 661.298C811.195 661.296 811.194 661.294 811.194 661.292C811.194 661.291 811.193 661.289 811.193 661.287C811.193 661.285 811.193 661.283 811.192 661.281C811.192 661.28 811.192 661.278 811.191 661.276C811.191 661.274 811.191 661.272 811.19 661.27C811.19 661.268 811.19 661.266 811.19 661.265C811.189 661.263 811.189 661.261 811.189 661.259C811.188 661.257 811.188 661.255 811.188 661.253C811.188 661.251 811.187 661.249 811.187 661.247C811.187 661.246 811.186 661.244 811.186 661.242C811.186 661.24 811.185 661.238 811.185 661.236C811.185 661.234 811.184 661.232 811.184 661.23C811.184 661.228 811.184 661.226 811.183 661.224C811.183 661.222 811.183 661.22 811.182 661.218C811.182 661.216 811.182 661.214 811.181 661.212C811.181 661.21 811.181 661.208 811.18 661.206C811.18 661.204 811.18 661.202 811.18 661.2C811.179 661.198 811.179 661.196 811.179 661.194C811.178 661.192 811.178 661.19 811.178 661.188C811.177 661.186 811.177 661.184 811.177 661.182C811.176 661.18 811.176 661.178 811.176 661.176C811.175 661.174 811.175 661.172 811.175 661.17C811.174 661.168 811.174 661.166 811.174 661.164C811.173 661.162 811.173 661.16 811.173 661.157C811.173 661.155 811.172 661.153 811.172 661.151C811.172 661.149 811.171 661.147 811.171 661.145C811.171 661.143 811.17 661.141 811.17 661.139C811.17 661.137 811.169 661.134 811.169 661.132C811.169 661.13 811.168 661.128 811.168 661.126C811.168 661.124 811.167 661.122 811.167 661.119C811.167 661.117 811.166 661.115 811.166 661.113C811.166 661.111 811.165 661.109 811.165 661.107C811.165 661.104 811.164 661.102 811.164 661.1C811.164 661.098 811.163 661.096 811.163 661.094C811.163 661.091 811.162 661.089 811.162 661.087C811.161 661.085 811.161 661.083 811.161 661.08C811.16 661.078 811.16 661.076 811.16 661.074C811.159 661.072 811.159 661.069 811.159 661.067C811.158 661.065 811.158 661.063 811.158 661.061C811.157 661.058 811.157 661.056 811.157 661.054C811.156 661.052 811.156 661.049 811.156 661.047C811.155 661.045 811.155 661.043 811.155 661.04C811.154 661.038 811.154 661.036 811.153 661.034C811.153 661.031 811.153 661.029 811.152 661.027C811.152 661.024 811.152 661.022 811.151 661.02C811.151 661.018 811.151 661.015 811.15 661.013C811.15 661.011 811.15 661.008 811.149 661.006C811.149 661.004 811.148 661.002 811.148 660.999C811.148 660.997 811.147 660.995 811.147 660.992C811.147 660.99 811.146 660.988 811.146 660.985C811.146 660.983 811.145 660.981 811.145 660.978C811.144 660.976 811.144 660.974 811.144 660.971C811.143 660.969 811.143 660.967 811.143 660.964C811.142 660.962 811.142 660.959 811.141 660.957C811.141 660.955 811.141 660.952 811.14 660.95C811.14 660.948 811.14 660.945 811.139 660.943C811.139 660.94 811.139 660.938 811.138 660.936C811.138 660.933 811.137 660.931 811.137 660.928C811.137 660.926 811.136 660.924 811.136 660.921C811.136 660.919 811.135 660.916 811.135 660.914C811.134 660.912 811.134 660.909 811.134 660.907C811.133 660.904 811.133 660.902 811.132 660.899C811.132 660.897 811.132 660.895 811.131 660.892C811.131 660.89 811.131 660.887 811.13 660.885C811.13 660.882 811.129 660.88 811.129 660.877C811.129 660.875 811.128 660.872 811.128 660.87C811.127 660.867 811.127 660.865 811.127 660.863C811.126 660.86 811.126 660.858 811.126 660.855C811.125 660.853 811.125 660.85 811.124 660.848C811.124 660.845 811.124 660.843 811.123 660.84C811.123 660.838 811.122 660.835 811.122 660.833C811.122 660.83 811.121 660.828 811.121 660.825C811.12 660.823 811.12 660.82 811.12 660.817C811.119 660.815 811.119 660.812 811.118 660.81C811.118 660.807 811.118 660.805 811.117 660.802C811.117 660.8 811.116 660.797 811.116 660.795C811.116 660.792 811.115 660.789 811.115 660.787C811.114 660.784 811.114 660.782 811.114 660.779C811.113 660.777 811.113 660.774 811.112 660.771C811.112 660.769 811.112 660.766 811.111 660.764C811.111 660.761 811.11 660.759 811.11 660.756C811.11 660.753 811.109 660.751 811.109 660.748C811.108 660.746 811.108 660.743 811.108 660.74C811.107 660.738 811.107 660.735 811.106 660.733C811.106 660.73 811.106 660.727 811.105 660.725C811.105 660.722 811.104 660.719 811.104 660.717C811.104 660.714 811.103 660.712 811.103 660.709C811.102 660.706 811.102 660.704 811.101 660.701C811.101 660.698 811.101 660.696 811.1 660.693C811.1 660.69 811.099 660.688 811.099 660.685C811.099 660.682 811.098 660.68 811.098 660.677C811.097 660.674 811.097 660.672 811.096 660.669C811.096 660.666 811.096 660.664 811.095 660.661C811.095 660.658 811.094 660.656 811.094 660.653C811.094 660.65 811.093 660.648 811.093 660.645C811.092 660.642 811.092 660.64 811.091 660.637C811.091 660.634 811.091 660.631 811.09 660.629C811.09 660.626 811.089 660.623 811.089 660.621C811.088 660.618 811.088 660.615 811.088 660.612C811.087 660.61 811.087 660.607 811.086 660.604C811.086 660.601 811.085 660.599 811.085 660.596C811.085 660.593 811.084 660.591 811.084 660.588C811.083 660.585 811.083 660.582 811.082 660.58C811.082 660.577 811.082 660.574 811.081 660.571C811.081 660.569 811.08 660.566 811.08 660.563C811.079 660.56 811.079 660.557 811.079 660.555C811.078 660.552 811.078 660.549 811.077 660.546C811.077 660.544 811.076 660.541 811.076 660.538C811.076 660.535 811.075 660.532 811.075 660.53C811.074 660.527 811.074 660.524 811.073 660.521C811.073 660.518 811.072 660.516 811.072 660.513C811.072 660.51 811.071 660.507 811.071 660.504C811.07 660.502 811.07 660.499 811.069 660.496C811.069 660.493 811.069 660.49 811.068 660.488C811.068 660.485 811.067 660.482 811.067 660.479C811.066 660.476 811.066 660.473 811.065 660.471C811.065 660.468 811.065 660.465 811.064 660.462C811.064 660.459 811.063 660.456 811.063 660.454C811.062 660.451 811.062 660.448 811.061 660.445C811.061 660.442 811.061 660.439 811.06 660.436C811.06 660.434 811.059 660.431 811.059 660.428C811.058 660.425 811.058 660.422 811.057 660.419C811.057 660.416 811.056 660.414 811.056 660.411C811.056 660.408 811.055 660.405 811.055 660.402C811.054 660.399 811.054 660.396 811.053 660.393C811.053 660.39 811.052 660.388 811.052 660.385C811.052 660.382 811.051 660.379 811.051 660.376C811.05 660.373 811.05 660.37 811.049 660.367C811.049 660.364 811.048 660.361 811.048 660.359C811.047 660.356 811.047 660.353 811.047 660.35C811.046 660.347 811.046 660.344 811.045 660.341C811.045 660.338 811.044 660.335 811.044 660.332C811.043 660.329 811.043 660.326 811.042 660.324C811.042 660.321 811.042 660.318 811.041 660.315C811.041 660.312 811.04 660.309 811.04 660.306C811.039 660.303 811.039 660.3 811.038 660.297C811.038 660.294 811.037 660.291 811.037 660.288C811.036 660.285 811.036 660.282 811.036 660.279C811.035 660.276 811.035 660.273 811.034 660.27C811.034 660.268 811.033 660.265 811.033 660.262C811.032 660.259 811.032 660.256 811.031 660.253C811.031 660.25 811.03 660.247 811.03 660.244C811.029 660.241 811.029 660.238 811.029 660.235C811.028 660.232 811.028 660.229 811.027 660.226C811.027 660.223 811.026 660.22 811.026 660.217C811.025 660.214 811.025 660.211 811.024 660.208C811.024 660.205 811.023 660.202 811.023 660.199C811.022 660.196 811.022 660.193 811.022 660.19C811.021 660.187 811.021 660.184 811.02 660.181C811.02 660.178 811.019 660.175 811.019 660.172C811.018 660.169 811.018 660.166 811.017 660.163C811.017 660.16 811.016 660.157 811.016 660.154C811.015 660.151 811.015 660.148 811.014 660.145C811.014 660.142 811.013 660.139 811.013 660.136C811.013 660.133 811.012 660.129 811.012 660.126C811.011 660.123 811.011 660.12 811.01 660.117C811.01 660.114 811.009 660.111 811.009 660.108C811.008 660.105 811.008 660.102 811.007 660.099C811.007 660.096 811.006 660.093 811.006 660.09C811.005 660.087 811.005 660.084 811.004 660.081C811.004 660.078 811.003 660.075 811.003 660.072C811.003 660.068 811.002 660.065 811.002 660.062C811.001 660.059 811.001 660.056 811 660.053C811 660.05 810.999 660.047 810.999 660.044C810.998 660.041 810.998 660.038 810.997 660.035C810.997 660.032 810.996 660.029 810.996 660.025C810.995 660.022 810.995 660.019 810.994 660.016C810.994 660.013 810.993 660.01 810.993 660.007C810.992 660.004 810.992 660.001 810.991 659.998C810.991 659.995 810.99 659.991 810.99 659.988C810.99 659.985 810.989 659.982 810.989 659.979C810.988 659.976 810.988 659.973 810.987 659.97C810.987 659.967 810.986 659.964 810.986 659.96C810.985 659.957 810.985 659.954 810.984 659.951C810.984 659.948 810.983 659.945 810.983 659.942C810.982 659.939 810.982 659.936 810.981 659.932C810.981 659.929 810.98 659.926 810.98 659.923C810.979 659.92 810.979 659.917 810.978 659.914C810.978 659.911 810.977 659.907 810.977 659.904C810.976 659.901 810.976 659.898 810.975 659.895C810.975 659.892 810.974 659.889 810.974 659.886C810.973 659.882 810.973 659.879 810.972 659.876C810.972 659.873 810.971 659.87 810.971 659.867C810.97 659.864 810.97 659.86 810.97 659.857C810.969 659.854 810.969 659.851 810.968 659.848C810.968 659.845 810.967 659.842 810.967 659.838C810.966 659.835 810.966 659.832 810.965 659.829C810.965 659.826 810.964 659.823 810.964 659.819C810.963 659.816 810.963 659.813 810.962 659.81C810.962 659.807 810.961 659.804 810.961 659.801C810.96 659.797 810.96 659.794 810.959 659.791C810.959 659.788 810.958 659.785 810.958 659.782C810.957 659.778 810.957 659.775 810.956 659.772C810.956 659.769 810.955 659.766 810.955 659.763C810.954 659.759 810.954 659.756 810.953 659.753C810.953 659.75 810.952 659.747 810.952 659.743C810.951 659.74 810.951 659.737 810.95 659.734C810.95 659.731 810.949 659.728 810.949 659.724C810.948 659.721 810.948 659.718 810.947 659.715C810.947 659.712 810.946 659.708 810.946 659.705C810.945 659.702 810.945 659.699 810.944 659.696C810.944 659.693 810.943 659.689 810.943 659.686C810.942 659.683 810.942 659.68 810.941 659.677C810.941 659.673 810.94 659.67 810.94 659.667C810.939 659.664 810.939 659.661 810.938 659.657C810.938 659.654 810.937 659.651 810.937 659.648C810.936 659.645 810.936 659.641 810.935 659.638C810.935 659.635 810.934 659.632 810.934 659.629C810.933 659.625 810.933 659.622 810.932 659.619C810.932 659.616 810.931 659.613 810.931 659.609C810.93 659.606 810.93 659.603 810.929 659.6C810.929 659.597 810.928 659.593 810.928 659.59C810.927 659.587 810.927 659.584 810.926 659.581C810.926 659.577 810.925 659.574 810.925 659.571C810.924 659.568 810.924 659.564 810.923 659.561C810.923 659.558 810.922 659.555 810.922 659.552C810.921 659.548 810.921 659.545 810.92 659.542C810.92 659.539 810.919 659.535 810.919 659.532C810.918 659.529 810.918 659.526 810.917 659.523C810.917 659.519 810.916 659.516 810.916 659.513C810.915 659.51 810.915 659.507 810.914 659.503C810.914 659.5 810.913 659.497 810.913 659.494C810.912 659.49 810.912 659.487 810.911 659.484C810.911 659.481 810.91 659.477 810.91 659.474C810.909 659.471 810.909 659.468 810.908 659.465C810.908 659.461 810.907 659.458 810.907 659.455C810.906 659.452 810.906 659.448 810.905 659.445C810.905 659.442 810.904 659.439 810.904 659.435C810.903 659.432 810.903 659.429 810.902 659.426C810.902 659.423 810.901 659.419 810.901 659.416C810.9 659.413 810.899 659.41 810.899 659.406C810.898 659.403 810.898 659.4 810.897 659.397C810.897 659.393 810.896 659.39 810.896 659.387C810.895 659.384 810.895 659.381 810.894 659.377C810.894 659.374 810.893 659.371 810.893 659.368C810.892 659.364 810.892 659.361 810.891 659.358C810.891 659.355 810.89 659.351 810.89 659.348C810.889 659.345 810.889 659.342 810.888 659.338C810.888 659.335 810.887 659.332 810.887 659.329C810.886 659.325 810.886 659.322 810.885 659.319C810.885 659.316 810.884 659.312 810.884 659.309C810.883 659.306 810.883 659.303 810.882 659.3C810.882 659.296 810.881 659.293 810.881 659.29C810.88 659.287 810.88 659.283 810.879 659.28C810.879 659.277 810.878 659.274 810.878 659.27C810.877 659.267 810.877 659.264 810.876 659.261C810.876 659.257 810.875 659.254 810.875 659.251C810.874 659.248 810.874 659.244 810.873 659.241C810.873 659.238 810.872 659.235 810.872 659.231C810.871 659.228 810.871 659.225 810.87 659.222C810.87 659.218 810.869 659.215 810.869 659.212C810.868 659.209 810.868 659.206 810.867 659.202C810.867 659.199 810.866 659.196 810.866 659.193C810.865 659.189 810.865 659.186 810.864 659.183C810.864 659.18 810.863 659.176 810.863 659.173C810.862 659.17 810.861 659.167 810.861 659.163C810.86 659.16 810.86 659.157 810.859 659.154C810.859 659.15 810.858 659.147 810.858 659.144C810.857 659.141 810.857 659.137 810.856 659.134C810.856 659.131 810.855 659.128 810.855 659.124C810.854 659.121 810.854 659.118 810.853 659.115C810.853 659.112 810.852 659.108 810.852 659.105C810.851 659.102 810.851 659.099 810.85 659.095C810.85 659.092 810.849 659.089 810.849 659.086C810.848 659.082 810.848 659.079 810.847 659.076C810.847 659.073 810.846 659.069 810.846 659.066C810.845 659.063 810.845 659.06 810.844 659.056C810.844 659.053 810.843 659.05 810.843 659.047C810.842 659.044 810.842 659.04 810.841 659.037C810.841 659.034 810.84 659.031 810.84 659.027C810.839 659.024 810.839 659.021 810.838 659.018C810.838 659.014 810.837 659.011 810.837 659.008C810.836 659.005 810.836 659.002 810.835 658.998C810.835 658.995 810.834 658.992 810.834 658.989C810.833 658.985 810.833 658.982 810.832 658.979C810.832 658.976 810.831 658.972 810.831 658.969C810.83 658.966 810.83 658.963 810.829 658.96C810.829 658.956 810.828 658.953 810.828 658.95C810.827 658.947 810.827 658.943 810.826 658.94C810.826 658.937 810.825 658.934 810.825 658.931C810.824 658.927 810.824 658.924 810.823 658.921C810.823 658.918 810.822 658.914 810.822 658.911C810.821 658.908 810.821 658.905 810.82 658.902C810.82 658.898 810.819 658.895 810.819 658.892C810.818 658.889 810.818 658.885 810.817 658.882C810.817 658.879 810.816 658.876 810.816 658.873C810.815 658.869 810.815 658.866 810.814 658.863C810.814 658.86 810.813 658.857 810.813 658.853C810.812 658.85 810.812 658.847 810.811 658.844C810.811 658.841 810.81 658.837 810.809 658.834C810.809 658.831 810.808 658.828 810.808 658.825C810.807 658.821 810.807 658.818 810.806 658.815C810.806 658.812 810.805 658.809 810.805 658.805C810.804 658.802 810.804 658.799 810.803 658.796C810.803 658.793 810.802 658.789 810.802 658.786C810.801 658.783 810.801 658.78 810.8 658.777C810.8 658.773 810.799 658.77 810.799 658.767C810.798 658.764 810.798 658.761 810.797 658.757C810.797 658.754 810.796 658.751 810.796 658.748C810.796 658.745 810.795 658.741 810.795 658.738C810.794 658.735 810.794 658.732 810.793 658.729C810.793 658.726 810.792 658.722 810.792 658.719C810.791 658.716 810.791 658.713 810.79 658.71C810.79 658.706 810.789 658.703 810.789 658.7C810.788 658.697 810.788 658.694 810.787 658.691C810.787 658.687 810.786 658.684 810.786 658.681C810.785 658.678 810.785 658.675 810.784 658.672C810.784 658.668 810.783 658.665 810.783 658.662C810.782 658.659 810.782 658.656 810.781 658.653C810.781 658.649 810.78 658.646 810.78 658.643C810.779 658.64 810.779 658.637 810.778 658.634C810.778 658.63 810.777 658.627 810.777 658.624C810.776 658.621 810.776 658.618 810.775 658.615C810.775 658.612 810.774 658.608 810.774 658.605C810.773 658.602 810.773 658.599 810.772 658.596C810.772 658.593 810.771 658.59 810.771 658.586C810.77 658.583 810.77 658.58 810.769 658.577C810.769 658.574 810.768 658.571 810.768 658.568C810.767 658.564 810.767 658.561 810.766 658.558C810.766 658.555 810.765 658.552 810.765 658.549C810.764 658.546 810.764 658.542 810.763 658.539C810.763 658.536 810.762 658.533 810.762 658.53C810.761 658.527 810.761 658.524 810.76 658.521C810.76 658.518 810.759 658.514 810.759 658.511C810.759 658.508 810.758 658.505 810.758 658.502C810.757 658.499 810.757 658.496 810.756 658.493C810.756 658.489 810.755 658.486 810.755 658.483C810.754 658.48 810.754 658.477 810.753 658.474C810.753 658.471 810.752 658.468 810.752 658.465C810.751 658.462 810.751 658.458 810.75 658.455C810.75 658.452 810.749 658.449 810.749 658.446C810.748 658.443 810.748 658.44 810.747 658.437C810.747 658.434 810.746 658.431 810.746 658.428C810.745 658.424 810.745 658.421 810.744 658.418C810.744 658.415 810.744 658.412 810.743 658.409C810.743 658.406 810.742 658.403 810.742 658.4C810.741 658.397 810.741 658.394 810.74 658.391C810.74 658.388 810.739 658.385 810.739 658.381C810.738 658.378 810.738 658.375 810.737 658.372C810.737 658.369 810.736 658.366 810.736 658.363C810.735 658.36 810.735 658.357 810.734 658.354C810.734 658.351 810.733 658.348 810.733 658.345C810.732 658.342 810.732 658.339 810.732 658.336C810.731 658.333 810.731 658.33 810.73 658.327C810.73 658.323 810.729 658.32 810.729 658.317C810.728 658.314 810.728 658.311 810.727 658.308C810.727 658.305 810.726 658.302 810.726 658.299C810.725 658.296 810.725 658.293 810.724 658.29C810.724 658.287 810.723 658.284 810.723 658.281C810.723 658.278 810.722 658.275 810.722 658.272C810.721 658.269 810.721 658.266 810.72 658.263C810.72 658.26 810.719 658.257 810.719 658.254C810.718 658.251 810.718 658.248 810.717 658.245C810.717 658.242 810.716 658.239 810.716 658.236C810.715 658.233 810.715 658.23 810.715 658.227C810.714 658.224 810.714 658.221 810.713 658.218C810.713 658.215 810.712 658.212 810.712 658.209C810.711 658.206 810.711 658.203 810.71 658.2C810.71 658.197 810.709 658.194 810.709 658.191C810.709 658.188 810.708 658.185 810.708 658.182C810.707 658.179 810.707 658.176 810.706 658.174C810.706 658.171 810.705 658.168 810.705 658.165C810.704 658.162 810.704 658.159 810.703 658.156C810.703 658.153 810.702 658.15 810.702 658.147C810.702 658.144 810.701 658.141 810.701 658.138C810.7 658.135 810.7 658.132 810.699 658.129C810.699 658.126 810.698 658.123 810.698 658.121C810.697 658.118 810.697 658.115 810.697 658.112C810.696 658.109 810.696 658.106 810.695 658.103C810.695 658.1 810.694 658.097 810.694 658.094C810.693 658.091 810.693 658.088 810.692 658.086C810.692 658.083 810.692 658.08 810.691 658.077C810.691 658.074 810.69 658.071 810.69 658.068C810.689 658.065 810.689 658.062 810.688 658.059C810.688 658.057 810.687 658.054 810.687 658.051C810.687 658.048 810.686 658.045 810.686 658.042C810.685 658.039 810.685 658.036 810.684 658.034C810.684 658.031 810.683 658.028 810.683 658.025C810.682 658.022 810.682 658.019 810.682 658.016C810.681 658.013 810.681 658.011 810.68 658.008C810.68 658.005 810.679 658.002 810.679 657.999C810.678 657.996 810.678 657.993 810.678 657.991C810.677 657.988 810.677 657.985 810.676 657.982C810.676 657.979 810.675 657.976 810.675 657.974C810.674 657.971 810.674 657.968 810.674 657.965L808.698 658.274Z" fill="black"/>
<path d="M804.913 664.228C806.83 662.486 807.691 661.895 810.204 661.439C811.976 661.117 813.687 661.417 814.739 661.776C816.58 662.404 818.388 663.61 819.895 665.286C821.854 667.465 822.959 668.516 825.188 670.475C827.062 672.12 828.675 673.046 830.87 674.164C834.334 675.927 836.153 676.376 839.853 677.468C842.814 678.341 844.346 678.334 847.36 680.087C849.84 681.529 851.366 682.614 851.823 685.536C851.902 686.047 845.836 682.575 841.404 681.018C829.811 676.945 811.502 669.738 811.502 669.738C811.502 669.738 795.658 683.071 784.585 691.081C781.767 693.119 777.908 697.749 777.828 697.238C777.369 694.302 779.14 691.621 781.631 689.712C784.633 687.411 787.155 685.649 790.191 683.141C794.05 679.953 796.05 678.749 798.937 674.58C800.359 672.526 800.629 671.247 801.683 669.05C802.903 666.504 803.332 665.665 804.913 664.228Z" fill="black"/>
<path d="M782.009 691.484L846.431 681.605" stroke="black" stroke-width="2" stroke-linecap="round"/>
<path d="M387.38 1211.6C387.614 1211.6 387.789 1211.72 387.905 1211.95C388.045 1212.19 388.115 1212.49 388.115 1212.86C388.115 1213.4 387.999 1213.95 387.765 1214.51C387.532 1215.07 387.229 1215.43 386.855 1215.59C384.662 1214.52 382.76 1213.81 381.15 1213.46L381.185 1231.06C381.185 1232.91 381.407 1234.38 381.85 1235.47C381.57 1235.73 381.197 1235.96 380.73 1236.18C380.287 1236.39 379.774 1236.49 379.19 1236.49C378.42 1236.49 377.79 1236.28 377.3 1235.86C376.81 1235.44 376.565 1234.87 376.565 1234.14V1213.46C375.049 1213.79 373.147 1214.5 370.86 1215.59C370.51 1215.43 370.219 1215.07 369.985 1214.51C369.752 1213.95 369.635 1213.4 369.635 1212.86C369.635 1212.49 369.694 1212.19 369.81 1211.95C369.927 1211.72 370.114 1211.6 370.37 1211.6H387.38ZM409.071 1233.27C409.351 1234.23 409.724 1234.95 410.191 1235.44C409.584 1236.14 408.686 1236.49 407.496 1236.49C406.773 1236.49 406.154 1236.34 405.641 1236.04C405.151 1235.73 404.848 1235.29 404.731 1234.7L403.156 1228.82H395.246L394.091 1233.34C393.928 1233.95 393.846 1234.46 393.846 1234.88C393.846 1235.37 393.974 1235.74 394.231 1236C393.788 1236.16 393.379 1236.28 393.006 1236.35C392.656 1236.44 392.224 1236.49 391.711 1236.49C390.824 1236.49 390.171 1236.34 389.751 1236.04C389.354 1235.73 389.156 1235.24 389.156 1234.56C389.156 1234 389.308 1233.21 389.611 1232.18L396.506 1211.71C397.789 1211.29 399.073 1211.08 400.356 1211.08C401.756 1211.08 402.584 1211.58 402.841 1212.58L409.071 1233.27ZM402.491 1226.34L399.131 1213.81L395.876 1226.34H402.491ZM418.908 1211.11C422.408 1211.11 425.044 1211.7 426.818 1212.86C428.614 1214.01 429.513 1215.83 429.513 1218.33C429.513 1220.96 428.579 1222.99 426.713 1224.41C424.869 1225.81 422.209 1226.51 418.733 1226.51H417.893V1231.31C417.893 1233.06 418.114 1234.45 418.558 1235.47C418.301 1235.73 417.939 1235.96 417.473 1236.18C417.029 1236.39 416.516 1236.49 415.933 1236.49C415.163 1236.49 414.533 1236.28 414.043 1235.86C413.553 1235.44 413.308 1234.87 413.308 1234.14V1216.57C413.308 1214.8 413.086 1213.33 412.643 1212.16C414.089 1211.46 416.178 1211.11 418.908 1211.11ZM418.523 1224.94C420.646 1224.94 422.163 1224.39 423.073 1223.29C424.006 1222.2 424.473 1220.66 424.473 1218.67C424.473 1214.71 422.653 1212.72 419.013 1212.72C418.476 1212.72 418.103 1212.74 417.893 1212.76V1224.94H418.523ZM456.389 1211.6C456.622 1211.6 456.797 1211.72 456.914 1211.95C457.054 1212.19 457.124 1212.49 457.124 1212.86C457.124 1213.4 457.007 1213.95 456.774 1214.51C456.541 1215.07 456.237 1215.43 455.864 1215.59C453.671 1214.52 451.769 1213.81 450.159 1213.46L450.194 1231.06C450.194 1232.91 450.416 1234.38 450.859 1235.47C450.579 1235.73 450.206 1235.96 449.739 1236.18C449.296 1236.39 448.782 1236.49 448.199 1236.49C447.429 1236.49 446.799 1236.28 446.309 1235.86C445.819 1235.44 445.574 1234.87 445.574 1234.14V1213.46C444.057 1213.79 442.156 1214.5 439.869 1215.59C439.519 1215.43 439.227 1215.07 438.994 1214.51C438.761 1213.95 438.644 1213.4 438.644 1212.86C438.644 1212.49 438.702 1212.19 438.819 1211.95C438.936 1211.72 439.122 1211.6 439.379 1211.6H456.389ZM469.155 1236.49C465.888 1236.49 463.415 1235.43 461.735 1233.3C460.078 1231.18 459.25 1228.01 459.25 1223.78C459.25 1219.58 460.078 1216.42 461.735 1214.3C463.415 1212.18 465.888 1211.11 469.155 1211.11C472.421 1211.11 474.883 1212.18 476.54 1214.3C478.22 1216.42 479.06 1219.58 479.06 1223.78C479.06 1228.01 478.22 1231.18 476.54 1233.3C474.883 1235.43 472.421 1236.49 469.155 1236.49ZM469.155 1234.88C470.835 1234.88 472.06 1234 472.83 1232.25C473.6 1230.48 473.985 1227.66 473.985 1223.78C473.985 1219.91 473.6 1217.1 472.83 1215.35C472.06 1213.58 470.835 1212.69 469.155 1212.69C467.475 1212.69 466.238 1213.58 465.445 1215.35C464.675 1217.12 464.29 1219.93 464.29 1223.78C464.29 1227.63 464.675 1230.45 465.445 1232.22C466.238 1233.99 467.475 1234.88 469.155 1234.88ZM499.777 1236.49C496.674 1236.49 494.259 1235.38 492.532 1233.16C490.829 1230.95 489.977 1227.82 489.977 1223.78C489.977 1219.75 490.864 1216.63 492.637 1214.44C494.411 1212.22 496.896 1211.11 500.092 1211.11C501.399 1211.11 502.647 1211.28 503.837 1211.6C505.027 1211.93 505.996 1212.41 506.742 1213.04C507.512 1213.67 507.897 1214.4 507.897 1215.24C507.897 1215.97 507.571 1216.6 506.917 1217.13C506.264 1217.65 505.366 1217.89 504.222 1217.87C503.872 1214.42 502.519 1212.69 500.162 1212.69C498.412 1212.69 497.117 1213.61 496.277 1215.45C495.437 1217.27 495.017 1220.05 495.017 1223.78C495.017 1227.52 495.426 1230.31 496.242 1232.15C497.059 1233.97 498.331 1234.88 500.057 1234.88C501.317 1234.88 502.344 1234.41 503.137 1233.48C503.931 1232.55 504.444 1231.15 504.677 1229.28C505.004 1229.23 505.249 1229.21 505.412 1229.21C506.252 1229.21 506.976 1229.42 507.582 1229.84C508.212 1230.26 508.527 1230.83 508.527 1231.55C508.527 1232.58 508.107 1233.47 507.267 1234.21C506.427 1234.96 505.331 1235.53 503.977 1235.93C502.647 1236.3 501.247 1236.49 499.777 1236.49ZM521.45 1236.49C518.183 1236.49 515.71 1235.43 514.03 1233.3C512.373 1231.18 511.545 1228.01 511.545 1223.78C511.545 1219.58 512.373 1216.42 514.03 1214.3C515.71 1212.18 518.183 1211.11 521.45 1211.11C524.716 1211.11 527.178 1212.18 528.835 1214.3C530.515 1216.42 531.355 1219.58 531.355 1223.78C531.355 1228.01 530.515 1231.18 528.835 1233.3C527.178 1235.43 524.716 1236.49 521.45 1236.49ZM521.45 1234.88C523.13 1234.88 524.355 1234 525.125 1232.25C525.895 1230.48 526.28 1227.66 526.28 1223.78C526.28 1219.91 525.895 1217.1 525.125 1215.35C524.355 1213.58 523.13 1212.69 521.45 1212.69C519.77 1212.69 518.533 1213.58 517.74 1215.35C516.97 1217.12 516.585 1219.93 516.585 1223.78C516.585 1227.63 516.97 1230.45 517.74 1232.22C518.533 1233.99 519.77 1234.88 521.45 1234.88ZM537.272 1236.49C536.548 1236.49 535.918 1236.29 535.382 1235.89C535.825 1234.7 536.047 1233.09 536.047 1231.06V1216.57C536.047 1214.64 535.965 1213.03 535.802 1211.74C535.942 1211.56 536.21 1211.42 536.607 1211.32C537.027 1211.23 537.458 1211.18 537.902 1211.18C538.485 1211.18 538.847 1211.25 538.987 1211.39C539.57 1212.23 541.238 1214.49 543.992 1218.15C546.488 1221.49 548.355 1224.03 549.592 1225.78C550.852 1227.53 551.738 1228.96 552.252 1230.08L551.097 1214.37L551.062 1213.88C551.062 1213.11 551.237 1212.49 551.587 1212.02C551.96 1211.56 552.497 1211.29 553.197 1211.22C553.943 1211.17 554.573 1211.32 555.087 1211.67C554.783 1212.58 554.632 1214.02 554.632 1215.98L554.597 1231.13C554.597 1233.21 554.667 1234.8 554.807 1235.89C554.643 1236.06 554.363 1236.19 553.967 1236.28C553.593 1236.4 553.197 1236.46 552.777 1236.46C552.287 1236.46 551.937 1236.4 551.727 1236.28C545.45 1228.93 541.063 1222.92 538.567 1218.25L539.547 1233.86C539.617 1234.61 539.407 1235.24 538.917 1235.75C538.427 1236.25 537.878 1236.49 537.272 1236.49ZM575.779 1211.6C576.012 1211.6 576.187 1211.72 576.304 1211.95C576.444 1212.19 576.514 1212.49 576.514 1212.86C576.514 1213.4 576.397 1213.95 576.164 1214.51C575.93 1215.07 575.627 1215.43 575.254 1215.59C573.06 1214.52 571.159 1213.81 569.549 1213.46L569.584 1231.06C569.584 1232.91 569.805 1234.38 570.249 1235.47C569.969 1235.73 569.595 1235.96 569.129 1236.18C568.685 1236.39 568.172 1236.49 567.589 1236.49C566.819 1236.49 566.189 1236.28 565.699 1235.86C565.209 1235.44 564.964 1234.87 564.964 1234.14V1213.46C563.447 1213.79 561.545 1214.5 559.259 1215.59C558.909 1215.43 558.617 1215.07 558.384 1214.51C558.15 1213.95 558.034 1213.4 558.034 1212.86C558.034 1212.49 558.092 1212.19 558.209 1211.95C558.325 1211.72 558.512 1211.6 558.769 1211.6H575.779ZM582.524 1236.49C581.754 1236.49 581.124 1236.28 580.634 1235.86C580.144 1235.44 579.899 1234.87 579.899 1234.14V1216.57C579.899 1214.8 579.678 1213.33 579.234 1212.16C579.491 1211.91 579.841 1211.67 580.284 1211.46C580.751 1211.25 581.276 1211.15 581.859 1211.15C582.629 1211.15 583.259 1211.36 583.749 1211.78C584.239 1212.2 584.484 1212.77 584.484 1213.49V1231.06C584.484 1232.91 584.706 1234.38 585.149 1235.47C584.893 1235.73 584.531 1235.96 584.064 1236.18C583.621 1236.39 583.108 1236.49 582.524 1236.49ZM591.652 1236.49C590.928 1236.49 590.298 1236.29 589.762 1235.89C590.205 1234.7 590.427 1233.09 590.427 1231.06V1216.57C590.427 1214.64 590.345 1213.03 590.182 1211.74C590.322 1211.56 590.59 1211.42 590.987 1211.32C591.407 1211.23 591.838 1211.18 592.282 1211.18C592.865 1211.18 593.227 1211.25 593.367 1211.39C593.95 1212.23 595.618 1214.49 598.372 1218.15C600.868 1221.49 602.735 1224.03 603.972 1225.78C605.232 1227.53 606.118 1228.96 606.632 1230.08L605.477 1214.37L605.442 1213.88C605.442 1213.11 605.617 1212.49 605.967 1212.02C606.34 1211.56 606.877 1211.29 607.577 1211.22C608.323 1211.17 608.953 1211.32 609.467 1211.67C609.163 1212.58 609.012 1214.02 609.012 1215.98L608.977 1231.13C608.977 1233.21 609.047 1234.8 609.187 1235.89C609.023 1236.06 608.743 1236.19 608.347 1236.28C607.973 1236.4 607.577 1236.46 607.157 1236.46C606.667 1236.46 606.317 1236.4 606.107 1236.28C599.83 1228.93 595.443 1222.92 592.947 1218.25L593.927 1233.86C593.997 1234.61 593.787 1235.24 593.297 1235.75C592.807 1236.25 592.258 1236.49 591.652 1236.49ZM632.923 1225.25C632.923 1228.99 632.153 1231.8 630.613 1233.69C629.073 1235.56 626.787 1236.49 623.753 1236.49C620.767 1236.49 618.527 1235.58 617.033 1233.76C615.563 1231.94 614.828 1229.1 614.828 1225.25V1216.57C614.828 1214.8 614.607 1213.33 614.163 1212.16C614.42 1211.91 614.77 1211.67 615.213 1211.46C615.68 1211.25 616.205 1211.15 616.788 1211.15C617.535 1211.15 618.153 1211.36 618.643 1211.78C619.133 1212.2 619.378 1212.77 619.378 1213.49V1225.5C619.378 1228.79 619.728 1231.18 620.428 1232.67C621.128 1234.14 622.237 1234.88 623.753 1234.88C625.34 1234.88 626.507 1234.1 627.253 1232.53C628 1230.97 628.373 1228.63 628.373 1225.5V1216.57C628.373 1214.8 628.152 1213.33 627.708 1212.16C627.988 1211.91 628.35 1211.67 628.793 1211.46C629.237 1211.25 629.738 1211.15 630.298 1211.15C631.045 1211.15 631.663 1211.36 632.153 1211.78C632.667 1212.2 632.923 1212.77 632.923 1213.49V1225.25ZM652.483 1231.9C652.763 1232.07 652.973 1232.36 653.113 1232.78C653.277 1233.2 653.358 1233.64 653.358 1234.11C653.358 1234.65 653.265 1235.1 653.078 1235.47C652.892 1235.82 652.612 1236 652.238 1236H641.108C640.338 1236 639.708 1235.79 639.218 1235.37C638.728 1234.95 638.483 1234.38 638.483 1233.65V1217.17C638.483 1215.4 638.262 1213.93 637.818 1212.76C638.378 1212.29 638.938 1211.99 639.498 1211.85C640.082 1211.69 640.91 1211.6 641.983 1211.6H652.133C652.39 1211.6 652.577 1211.72 652.693 1211.95C652.81 1212.19 652.868 1212.49 652.868 1212.86C652.868 1213.4 652.752 1213.95 652.518 1214.51C652.285 1215.07 651.993 1215.43 651.643 1215.59C648.89 1214.47 646.02 1213.88 643.033 1213.81V1222.1H650.628C650.745 1222.52 650.803 1222.92 650.803 1223.29C650.803 1223.74 650.745 1224.17 650.628 1224.59H643.068V1233.79C644.608 1233.75 646.312 1233.54 648.178 1233.16C650.045 1232.77 651.48 1232.35 652.483 1231.9Z" fill="#FBD293"/>
</svg>
