<svg width="1024" height="1366" viewBox="0 0 1024 1366" fill="none" xmlns="http://www.w3.org/2000/svg">
<g clip-path="url(#clip0_1_2082)">
<rect width="1366" height="1024" transform="translate(0 1366) rotate(-90)" fill="#54545A"/>
<rect x="-340" y="40" width="1546" height="14.05" fill="#969598"/>
<path d="M487.39 52.6705C487.231 55.4273 489.337 57.7911 492.094 57.9501C494.851 58.1091 497.215 56.0031 497.374 53.2463L487.39 52.6705ZM511.661 33.6709L511.722 38.6705L511.661 33.6709ZM531.398 52.9584L536.393 52.7265L531.398 52.9584ZM506.661 86.7114C506.661 89.4729 508.899 91.7114 511.661 91.7114C514.422 91.7114 516.661 89.4729 516.661 86.7114H506.661ZM497.374 53.2463C497.864 44.7553 504.158 38.7639 511.722 38.6705L511.599 28.6713C498.371 28.8345 488.158 39.358 487.39 52.6705L497.374 53.2463ZM511.722 38.6705C519.411 38.5757 526.009 44.6918 526.403 53.1903L536.393 52.7265C535.761 39.1335 524.963 28.5064 511.599 28.6713L511.722 38.6705ZM526.403 53.1903C526.591 57.2213 525.677 59.7346 524.562 61.3794C523.415 63.0719 521.762 64.2746 519.808 65.1609C517.829 66.0588 515.74 66.544 513.912 66.9022C513.139 67.0538 512.071 67.2432 511.36 67.4168C511.024 67.4989 510.362 67.6683 509.7 67.991C509.372 68.151 508.738 68.4923 508.13 69.1201C507.46 69.8108 506.661 71.0373 506.661 72.728H516.661C516.661 74.3283 515.901 75.4701 515.31 76.0802C514.78 76.6274 514.261 76.8923 514.085 76.9786C513.725 77.154 513.506 77.1867 513.733 77.1313C514.148 77.03 514.687 76.9406 515.835 76.7155C517.852 76.3203 520.869 75.6602 523.939 74.2678C527.034 72.8637 530.373 70.6309 532.84 66.9892C535.341 63.2998 536.664 58.5803 536.393 52.7265L526.403 53.1903ZM506.661 72.728C506.661 72.7387 506.661 72.7494 506.661 72.7601C506.661 72.7707 506.661 72.7814 506.661 72.7922C506.661 72.8029 506.661 72.8136 506.661 72.8243C506.661 72.8351 506.661 72.8458 506.661 72.8566C506.661 72.8673 506.661 72.8781 506.661 72.8889C506.661 72.8997 506.661 72.9104 506.661 72.9213C506.661 72.9321 506.661 72.9429 506.661 72.9537C506.661 72.9645 506.661 72.9754 506.661 72.9862C506.661 72.997 506.661 73.0079 506.661 73.0188C506.661 73.0296 506.661 73.0405 506.661 73.0514C506.661 73.0623 506.661 73.0732 506.661 73.0841C506.661 73.095 506.661 73.106 506.661 73.1169C506.661 73.1278 506.661 73.1388 506.661 73.1497C506.661 73.1607 506.661 73.1716 506.661 73.1826C506.661 73.1936 506.661 73.2046 506.661 73.2156C506.661 73.2266 506.661 73.2376 506.661 73.2486C506.661 73.2596 506.661 73.2706 506.661 73.2817C506.661 73.2927 506.661 73.3038 506.661 73.3148C506.661 73.3259 506.661 73.337 506.661 73.348C506.661 73.3591 506.661 73.3702 506.661 73.3813C506.661 73.3924 506.661 73.4035 506.661 73.4146C506.661 73.4257 506.661 73.4369 506.661 73.448C506.661 73.4591 506.661 73.4703 506.661 73.4814C506.661 73.4926 506.661 73.5038 506.661 73.5149C506.661 73.5261 506.661 73.5373 506.661 73.5485C506.661 73.5597 506.661 73.5709 506.661 73.5821C506.661 73.5933 506.661 73.6046 506.661 73.6158C506.661 73.627 506.661 73.6383 506.661 73.6495C506.661 73.6608 506.661 73.672 506.661 73.6833C506.661 73.6946 506.661 73.7059 506.661 73.7171C506.661 73.7284 506.661 73.7397 506.661 73.751C506.661 73.7623 506.661 73.7737 506.661 73.785C506.661 73.7963 506.661 73.8076 506.661 73.819C506.661 73.8303 506.661 73.8417 506.661 73.853C506.661 73.8644 506.661 73.8758 506.661 73.8872C506.661 73.8985 506.661 73.9099 506.661 73.9213C506.661 73.9327 506.661 73.9441 506.661 73.9555C506.661 73.9669 506.661 73.9784 506.661 73.9898C506.661 74.0012 506.661 74.0126 506.661 74.0241C506.661 74.0355 506.661 74.047 506.661 74.0585C506.661 74.0699 506.661 74.0814 506.661 74.0929C506.661 74.1043 506.661 74.1158 506.661 74.1273C506.661 74.1388 506.661 74.1503 506.661 74.1618C506.661 74.1733 506.661 74.1849 506.661 74.1964C506.661 74.2079 506.661 74.2194 506.661 74.231C506.661 74.2425 506.661 74.2541 506.661 74.2656C506.661 74.2772 506.661 74.2888 506.661 74.3003C506.661 74.3119 506.661 74.3235 506.661 74.3351C506.661 74.3467 506.661 74.3583 506.661 74.3699C506.661 74.3815 506.661 74.3931 506.661 74.4047C506.661 74.4163 506.661 74.4279 506.661 74.4396C506.661 74.4512 506.661 74.4628 506.661 74.4745C506.661 74.4861 506.661 74.4978 506.661 74.5095C506.661 74.5211 506.661 74.5328 506.661 74.5445C506.661 74.5561 506.661 74.5678 506.661 74.5795C506.661 74.5912 506.661 74.6029 506.661 74.6146C506.661 74.6263 506.661 74.638 506.661 74.6497C506.661 74.6614 506.661 74.6732 506.661 74.6849C506.661 74.6966 506.661 74.7084 506.661 74.7201C506.661 74.7318 506.661 74.7436 506.661 74.7554C506.661 74.7671 506.661 74.7789 506.661 74.7906C506.661 74.8024 506.661 74.8142 506.661 74.826C506.661 74.8378 506.661 74.8495 506.661 74.8613C506.661 74.8731 506.661 74.8849 506.661 74.8967C506.661 74.9085 506.661 74.9204 506.661 74.9322C506.661 74.944 506.661 74.9558 506.661 74.9677C506.661 74.9795 506.661 74.9913 506.661 75.0032C506.661 75.015 506.661 75.0269 506.661 75.0387C506.661 75.0506 506.661 75.0624 506.661 75.0743C506.661 75.0862 506.661 75.098 506.661 75.1099C506.661 75.1218 506.661 75.1337 506.661 75.1456C506.661 75.1575 506.661 75.1693 506.661 75.1813C506.661 75.1932 506.661 75.2051 506.661 75.217C506.661 75.2289 506.661 75.2408 506.661 75.2527C506.661 75.2646 506.661 75.2766 506.661 75.2885C506.661 75.3004 506.661 75.3124 506.661 75.3243C506.661 75.3363 506.661 75.3482 506.661 75.3602C506.661 75.3721 506.661 75.3841 506.661 75.396C506.661 75.408 506.661 75.42 506.661 75.4319C506.661 75.4439 506.661 75.4559 506.661 75.4679C506.661 75.4798 506.661 75.4918 506.661 75.5038C506.661 75.5158 506.661 75.5278 506.661 75.5398C506.661 75.5518 506.661 75.5638 506.661 75.5758C506.661 75.5878 506.661 75.5998 506.661 75.6119C506.661 75.6239 506.661 75.6359 506.661 75.6479C506.661 75.66 506.661 75.672 506.661 75.684C506.661 75.6961 506.661 75.7081 506.661 75.7202C506.661 75.7322 506.661 75.7442 506.661 75.7563C506.661 75.7684 506.661 75.7804 506.661 75.7925C506.661 75.8045 506.661 75.8166 506.661 75.8287C506.661 75.8407 506.661 75.8528 506.661 75.8649C506.661 75.877 506.661 75.889 506.661 75.9011C506.661 75.9132 506.661 75.9253 506.661 75.9374C506.661 75.9495 506.661 75.9616 506.661 75.9737C506.661 75.9858 506.661 75.9979 506.661 76.01C506.661 76.0221 506.661 76.0342 506.661 76.0463C506.661 76.0584 506.661 76.0705 506.661 76.0827C506.661 76.0948 506.661 76.1069 506.661 76.119C506.661 76.1312 506.661 76.1433 506.661 76.1554C506.661 76.1675 506.661 76.1797 506.661 76.1918C506.661 76.204 506.661 76.2161 506.661 76.2282C506.661 76.2404 506.661 76.2525 506.661 76.2647C506.661 76.2768 506.661 76.289 506.661 76.3011C506.661 76.3133 506.661 76.3255 506.661 76.3376C506.661 76.3498 506.661 76.362 506.661 76.3741C506.661 76.3863 506.661 76.3985 506.661 76.4106C506.661 76.4228 506.661 76.435 506.661 76.4471C506.661 76.4593 506.661 76.4715 506.661 76.4837C506.661 76.4959 506.661 76.5081 506.661 76.5202C506.661 76.5324 506.661 76.5446 506.661 76.5568C506.661 76.569 506.661 76.5812 506.661 76.5934C506.661 76.6056 506.661 76.6178 506.661 76.63C506.661 76.6422 506.661 76.6544 506.661 76.6666C506.661 76.6788 506.661 76.691 506.661 76.7032C506.661 76.7154 506.661 76.7276 506.661 76.7398C506.661 76.752 506.661 76.7642 506.661 76.7765C506.661 76.7887 506.661 76.8009 506.661 76.8131C506.661 76.8253 506.661 76.8375 506.661 76.8498C506.661 76.862 506.661 76.8742 506.661 76.8864C506.661 76.8987 506.661 76.9109 506.661 76.9231C506.661 76.9353 506.661 76.9476 506.661 76.9598C506.661 76.972 506.661 76.9842 506.661 76.9965C506.661 77.0087 506.661 77.0209 506.661 77.0332C506.661 77.0454 506.661 77.0576 506.661 77.0699C506.661 77.0821 506.661 77.0943 506.661 77.1066C506.661 77.1188 506.661 77.1311 506.661 77.1433C506.661 77.1555 506.661 77.1678 506.661 77.18C506.661 77.1923 506.661 77.2045 506.661 77.2167C506.661 77.229 506.661 77.2412 506.661 77.2535C506.661 77.2657 506.661 77.2779 506.661 77.2902C506.661 77.3024 506.661 77.3147 506.661 77.3269C506.661 77.3392 506.661 77.3514 506.661 77.3637C506.661 77.3759 506.661 77.3881 506.661 77.4004C506.661 77.4126 506.661 77.4249 506.661 77.4371C506.661 77.4494 506.661 77.4616 506.661 77.4739C506.661 77.4861 506.661 77.4984 506.661 77.5106C506.661 77.5229 506.661 77.5351 506.661 77.5473C506.661 77.5596 506.661 77.5718 506.661 77.5841C506.661 77.5963 506.661 77.6086 506.661 77.6208C506.661 77.6331 506.661 77.6453 506.661 77.6576C506.661 77.6698 506.661 77.682 506.661 77.6943C506.661 77.7065 506.661 77.7188 506.661 77.731C506.661 77.7433 506.661 77.7555 506.661 77.7677C506.661 77.78 506.661 77.7922 506.661 77.8045C506.661 77.8167 506.661 77.8289 506.661 77.8412C506.661 77.8534 506.661 77.8657 506.661 77.8779C506.661 77.8901 506.661 77.9024 506.661 77.9146C506.661 77.9268 506.661 77.9391 506.661 77.9513C506.661 77.9635 506.661 77.9758 506.661 77.988C506.661 78.0002 506.661 78.0124 506.661 78.0247C506.661 78.0369 506.661 78.0491 506.661 78.0614C506.661 78.0736 506.661 78.0858 506.661 78.098C506.661 78.1102 506.661 78.1225 506.661 78.1347C506.661 78.1469 506.661 78.1591 506.661 78.1713C506.661 78.1836 506.661 78.1958 506.661 78.208C506.661 78.2202 506.661 78.2324 506.661 78.2446C506.661 78.2568 506.661 78.269 506.661 78.2812C506.661 78.2934 506.661 78.3057 506.661 78.3179C506.661 78.3301 506.661 78.3423 506.661 78.3545C506.661 78.3666 506.661 78.3788 506.661 78.391C506.661 78.4032 506.661 78.4154 506.661 78.4276C506.661 78.4398 506.661 78.452 506.661 78.4642C506.661 78.4764 506.661 78.4885 506.661 78.5007C506.661 78.5129 506.661 78.5251 506.661 78.5373C506.661 78.5494 506.661 78.5616 506.661 78.5738C506.661 78.5859 506.661 78.5981 506.661 78.6103C506.661 78.6224 506.661 78.6346 506.661 78.6468C506.661 78.6589 506.661 78.6711 506.661 78.6832C506.661 78.6954 506.661 78.7075 506.661 78.7197C506.661 78.7318 506.661 78.744 506.661 78.7561C506.661 78.7683 506.661 78.7804 506.661 78.7925C506.661 78.8047 506.661 78.8168 506.661 78.8289C506.661 78.8411 506.661 78.8532 506.661 78.8653C506.661 78.8774 506.661 78.8896 506.661 78.9017C506.661 78.9138 506.661 78.9259 506.661 78.938C506.661 78.9501 506.661 78.9622 506.661 78.9743C506.661 78.9864 506.661 78.9985 506.661 79.0106C506.661 79.0227 506.661 79.0348 506.661 79.0469C506.661 79.059 506.661 79.0711 506.661 79.0832C506.661 79.0953 506.661 79.1073 506.661 79.1194C506.661 79.1315 506.661 79.1436 506.661 79.1556C506.661 79.1677 506.661 79.1797 506.661 79.1918C506.661 79.2039 506.661 79.2159 506.661 79.228C506.661 79.24 506.661 79.2521 506.661 79.2641C506.661 79.2761 506.661 79.2882 506.661 79.3002C506.661 79.3123 506.661 79.3243 506.661 79.3363C506.661 79.3483 506.661 79.3604 506.661 79.3724C506.661 79.3844 506.661 79.3964 506.661 79.4084C506.661 79.4204 506.661 79.4324 506.661 79.4444C506.661 79.4564 506.661 79.4684 506.661 79.4804C506.661 79.4924 506.661 79.5044 506.661 79.5163C506.661 79.5283 506.661 79.5403 506.661 79.5523C506.661 79.5642 506.661 79.5762 506.661 79.5881C506.661 79.6001 506.661 79.6121 506.661 79.624C506.661 79.636 506.661 79.6479 506.661 79.6598C506.661 79.6718 506.661 79.6837 506.661 79.6956C506.661 79.7076 506.661 79.7195 506.661 79.7314C506.661 79.7433 506.661 79.7552 506.661 79.7671C506.661 79.7791 506.661 79.791 506.661 79.8029C506.661 79.8148 506.661 79.8266 506.661 79.8385C506.661 79.8504 506.661 79.8623 506.661 79.8742C506.661 79.886 506.661 79.8979 506.661 79.9098C506.661 79.9216 506.661 79.9335 506.661 79.9453C506.661 79.9572 506.661 79.969 506.661 79.9809C506.661 79.9927 506.661 80.0045 506.661 80.0164C506.661 80.0282 506.661 80.04 506.661 80.0518C506.661 80.0637 506.661 80.0755 506.661 80.0873C506.661 80.0991 506.661 80.1109 506.661 80.1227C506.661 80.1344 506.661 80.1462 506.661 80.158C506.661 80.1698 506.661 80.1816 506.661 80.1933C506.661 80.2051 506.661 80.2168 506.661 80.2286C506.661 80.2403 506.661 80.2521 506.661 80.2638C506.661 80.2756 506.661 80.2873 506.661 80.299C506.661 80.3108 506.661 80.3225 506.661 80.3342C506.661 80.3459 506.661 80.3576 506.661 80.3693C506.661 80.381 506.661 80.3927 506.661 80.4044C506.661 80.4161 506.661 80.4277 506.661 80.4394C506.661 80.4511 506.661 80.4627 506.661 80.4744C506.661 80.4861 506.661 80.4977 506.661 80.5093C506.661 80.521 506.661 80.5326 506.661 80.5442C506.661 80.5559 506.661 80.5675 506.661 80.5791C506.661 80.5907 506.661 80.6023 506.661 80.6139C506.661 80.6255 506.661 80.6371 506.661 80.6487C506.661 80.6603 506.661 80.6718 506.661 80.6834C506.661 80.695 506.661 80.7065 506.661 80.7181C506.661 80.7296 506.661 80.7412 506.661 80.7527C506.661 80.7643 506.661 80.7758 506.661 80.7873C506.661 80.7988 506.661 80.8103 506.661 80.8219C506.661 80.8334 506.661 80.8449 506.661 80.8563C506.661 80.8678 506.661 80.8793 506.661 80.8908C506.661 80.9023 506.661 80.9137 506.661 80.9252C506.661 80.9366 506.661 80.9481 506.661 80.9595C506.661 80.971 506.661 80.9824 506.661 80.9938C506.661 81.0052 506.661 81.0167 506.661 81.0281C506.661 81.0395 506.661 81.0509 506.661 81.0623C506.661 81.0736 506.661 81.085 506.661 81.0964C506.661 81.1078 506.661 81.1191 506.661 81.1305C506.661 81.1418 506.661 81.1532 506.661 81.1645C506.661 81.1758 506.661 81.1872 506.661 81.1985C506.661 81.2098 506.661 81.2211 506.661 81.2324C506.661 81.2437 506.661 81.255 506.661 81.2663C506.661 81.2776 506.661 81.2889 506.661 81.3001C506.661 81.3114 506.661 81.3226 506.661 81.3339C506.661 81.3451 506.661 81.3564 506.661 81.3676C506.661 81.3788 506.661 81.39 506.661 81.4012C506.661 81.4125 506.661 81.4236 506.661 81.4348C506.661 81.446 506.661 81.4572 506.661 81.4684C506.661 81.4795 506.661 81.4907 506.661 81.5019C506.661 81.513 506.661 81.5241 506.661 81.5353C506.661 81.5464 506.661 81.5575 506.661 81.5686C506.661 81.5798 506.661 81.5909 506.661 81.6019C506.661 81.613 506.661 81.6241 506.661 81.6352C506.661 81.6463 506.661 81.6573 506.661 81.6684C506.661 81.6794 506.661 81.6905 506.661 81.7015C506.661 81.7125 506.661 81.7235 506.661 81.7346C506.661 81.7456 506.661 81.7566 506.661 81.7676C506.661 81.7785 506.661 81.7895 506.661 81.8005C506.661 81.8115 506.661 81.8224 506.661 81.8334C506.661 81.8443 506.661 81.8552 506.661 81.8662C506.661 81.8771 506.661 81.888 506.661 81.8989C506.661 81.9098 506.661 81.9207 506.661 81.9316C506.661 81.9425 506.661 81.9534 506.661 81.9642C506.661 81.9751 506.661 81.9859 506.661 81.9968C506.661 82.0076 506.661 82.0184 506.661 82.0293C506.661 82.0401 506.661 82.0509 506.661 82.0617C506.661 82.0725 506.661 82.0832 506.661 82.094C506.661 82.1048 506.661 82.1156 506.661 82.1263C506.661 82.1371 506.661 82.1478 506.661 82.1585C506.661 82.1692 506.661 82.18 506.661 82.1907C506.661 82.2014 506.661 82.2121 506.661 82.2227C506.661 82.2334 506.661 82.2441 506.661 82.2547C506.661 82.2654 506.661 82.276 506.661 82.2867C506.661 82.2973 506.661 82.3079 506.661 82.3185C506.661 82.3292 506.661 82.3398 506.661 82.3503C506.661 82.3609 506.661 82.3715 506.661 82.3821C506.661 82.3926 506.661 82.4032 506.661 82.4137C506.661 82.4243 506.661 82.4348 506.661 82.4453C506.661 82.4558 506.661 82.4663 506.661 82.4768C506.661 82.4873 506.661 82.4978 506.661 82.5082C506.661 82.5187 506.661 82.5291 506.661 82.5396C506.661 82.55 506.661 82.5605 506.661 82.5709C506.661 82.5813 506.661 82.5917 506.661 82.6021C506.661 82.6125 506.661 82.6228 506.661 82.6332C506.661 82.6436 506.661 82.6539 506.661 82.6643C506.661 82.6746 506.661 82.6849 506.661 82.6952C506.661 82.7055 506.661 82.7158 506.661 82.7261C506.661 82.7364 506.661 82.7467 506.661 82.757C506.661 82.7672 506.661 82.7775 506.661 82.7877C506.661 82.7979 506.661 82.8081 506.661 82.8184C506.661 82.8286 506.661 82.8388 506.661 82.8489C506.661 82.8591 506.661 82.8693 506.661 82.8794C506.661 82.8896 506.661 82.8997 506.661 82.9099C506.661 82.92 506.661 82.9301 506.661 82.9402C506.661 82.9503 506.661 82.9604 506.661 82.9705C506.661 82.9805 506.661 82.9906 506.661 83.0006C506.661 83.0107 506.661 83.0207 506.661 83.0307C506.661 83.0408 506.661 83.0508 506.661 83.0608C506.661 83.0707 506.661 83.0807 506.661 83.0907C506.661 83.1006 506.661 83.1106 506.661 83.1205C506.661 83.1305 506.661 83.1404 506.661 83.1503C506.661 83.1602 506.661 83.1701 506.661 83.18C506.661 83.1898 506.661 83.1997 506.661 83.2095C506.661 83.2194 506.661 83.2292 506.661 83.239C506.661 83.2489 506.661 83.2587 506.661 83.2685C506.661 83.2783 506.661 83.288 506.661 83.2978C506.661 83.3076 506.661 83.3173 506.661 83.327C506.661 83.3368 506.661 83.3465 506.661 83.3562C506.661 83.3659 506.661 83.3756 506.661 83.3852C506.661 83.3949 506.661 83.4046 506.661 83.4142C506.661 83.4239 506.661 83.4335 506.661 83.4431C506.661 83.4527 506.661 83.4623 506.661 83.4719C506.661 83.4815 506.661 83.491 506.661 83.5006C506.661 83.5101 506.661 83.5197 506.661 83.5292C506.661 83.5387 506.661 83.5482 506.661 83.5577C506.661 83.5672 506.661 83.5767 506.661 83.5861C506.661 83.5956 506.661 83.6051 506.661 83.6145C506.661 83.6239 506.661 83.6333 506.661 83.6427C506.661 83.6521 506.661 83.6615 506.661 83.6709C506.661 83.6802 506.661 83.6896 506.661 83.6989C506.661 83.7083 506.661 83.7176 506.661 83.7269C506.661 83.7362 506.661 83.7455 506.661 83.7547C506.661 83.764 506.661 83.7733 506.661 83.7825C506.661 83.7917 506.661 83.801 506.661 83.8102C506.661 83.8194 506.661 83.8286 506.661 83.8377C506.661 83.8469 506.661 83.8561 506.661 83.8652C506.661 83.8743 506.661 83.8835 506.661 83.8926C506.661 83.9017 506.661 83.9108 506.661 83.9199C506.661 83.9289 506.661 83.938 506.661 83.947C506.661 83.9561 506.661 83.9651 506.661 83.9741C506.661 83.9831 506.661 83.9921 506.661 84.0011C506.661 84.0101 506.661 84.019 506.661 84.028C506.661 84.0369 506.661 84.0458 506.661 84.0547C506.661 84.0636 506.661 84.0725 506.661 84.0814C506.661 84.0903 506.661 84.0991 506.661 84.108C506.661 84.1168 506.661 84.1256 506.661 84.1344C506.661 84.1432 506.661 84.152 506.661 84.1608C506.661 84.1696 506.661 84.1783 506.661 84.1871C506.661 84.1958 506.661 84.2045 506.661 84.2132C506.661 84.2219 506.661 84.2306 506.661 84.2393C506.661 84.2479 506.661 84.2566 506.661 84.2652C506.661 84.2738 506.661 84.2824 506.661 84.291C506.661 84.2996 506.661 84.3082 506.661 84.3168C506.661 84.3253 506.661 84.3339 506.661 84.3424C506.661 84.3509 506.661 84.3594 506.661 84.3679C506.661 84.3764 506.661 84.3849 506.661 84.3933C506.661 84.4018 506.661 84.4102 506.661 84.4186C506.661 84.427 506.661 84.4354 506.661 84.4438C506.661 84.4522 506.661 84.4606 506.661 84.4689C506.661 84.4772 506.661 84.4856 506.661 84.4939C506.661 84.5022 506.661 84.5105 506.661 84.5187C506.661 84.527 506.661 84.5352 506.661 84.5435C506.661 84.5517 506.661 84.5599 506.661 84.5681C506.661 84.5763 506.661 84.5845 506.661 84.5926C506.661 84.6008 506.661 84.6089 506.661 84.6171C506.661 84.6252 506.661 84.6333 506.661 84.6414C506.661 84.6494 506.661 84.6575 506.661 84.6655C506.661 84.6736 506.661 84.6816 506.661 84.6896C506.661 84.6976 506.661 84.7056 506.661 84.7136C506.661 84.7215 506.661 84.7295 506.661 84.7374C506.661 84.7453 506.661 84.7532 506.661 84.7611C506.661 84.769 506.661 84.7769 506.661 84.7847C506.661 84.7926 506.661 84.8004 506.661 84.8082C506.661 84.8161 506.661 84.8238 506.661 84.8316C506.661 84.8394 506.661 84.8471 506.661 84.8549C506.661 84.8626 506.661 84.8703 506.661 84.878C506.661 84.8857 506.661 84.8934 506.661 84.901C506.661 84.9087 506.661 84.9163 506.661 84.9239C506.661 84.9315 506.661 84.9391 506.661 84.9467C506.661 84.9543 506.661 84.9618 506.661 84.9694C506.661 84.9769 506.661 84.9844 506.661 84.9919C506.661 84.9994 506.661 85.0069 506.661 85.0143C506.661 85.0218 506.661 85.0292 506.661 85.0366C506.661 85.044 506.661 85.0514 506.661 85.0588C506.661 85.0662 506.661 85.0735 506.661 85.0808C506.661 85.0882 506.661 85.0955 506.661 85.1028C506.661 85.1101 506.661 85.1173 506.661 85.1246C506.661 85.1318 506.661 85.139 506.661 85.1463C506.661 85.1535 506.661 85.1606 506.661 85.1678C506.661 85.175 506.661 85.1821 506.661 85.1892C506.661 85.1964 506.661 85.2035 506.661 85.2105C506.661 85.2176 506.661 85.2247 506.661 85.2317C506.661 85.2387 506.661 85.2458 506.661 85.2528C506.661 85.2597 506.661 85.2667 506.661 85.2737C506.661 85.2806 506.661 85.2876 506.661 85.2945C506.661 85.3014 506.661 85.3083 506.661 85.3151C506.661 85.322 506.661 85.3288 506.661 85.3357C506.661 85.3425 506.661 85.3493 506.661 85.3561C506.661 85.3628 506.661 85.3696 506.661 85.3763C506.661 85.3831 506.661 85.3898 506.661 85.3965C506.661 85.4032 506.661 85.4098 506.661 85.4165C506.661 85.4231 506.661 85.4298 506.661 85.4364C506.661 85.443 506.661 85.4495 506.661 85.4561C506.661 85.4627 506.661 85.4692 506.661 85.4757C506.661 85.4822 506.661 85.4887 506.661 85.4952C506.661 85.5017 506.661 85.5081 506.661 85.5145C506.661 85.521 506.661 85.5274 506.661 85.5338C506.661 85.5401 506.661 85.5465 506.661 85.5528C506.661 85.5592 506.661 85.5655 506.661 85.5718C506.661 85.5781 506.661 85.5843 506.661 85.5906C506.661 85.5968 506.661 85.603 506.661 85.6092C506.661 85.6154 506.661 85.6216 506.661 85.6278C506.661 85.6339 506.661 85.6401 506.661 85.6462C506.661 85.6523 506.661 85.6584 506.661 85.6644C506.661 85.6705 506.661 85.6765 506.661 85.6825C506.661 85.6886 506.661 85.6945 506.661 85.7005C506.661 85.7065 506.661 85.7124 506.661 85.7184C506.661 85.7243 506.661 85.7302 506.661 85.736C506.661 85.7419 506.661 85.7478 506.661 85.7536C506.661 85.7594 506.661 85.7652 506.661 85.771C506.661 85.7768 506.661 85.7826 506.661 85.7883C506.661 85.794 506.661 85.7997 506.661 85.8054C506.661 85.8111 506.661 85.8168 506.661 85.8224C506.661 85.8281 506.661 85.8337 506.661 85.8393C506.661 85.8449 506.661 85.8504 506.661 85.856C506.661 85.8615 506.661 85.867 506.661 85.8725C506.661 85.878 506.661 85.8835 506.661 85.8889C506.661 85.8944 506.661 85.8998 506.661 85.9052C506.661 85.9106 506.661 85.916 506.661 85.9213C506.661 85.9267 506.661 85.932 506.661 85.9373C506.661 85.9426 506.661 85.9479 506.661 85.9531C506.661 85.9584 506.661 85.9636 506.661 85.9688C506.661 85.974 506.661 85.9792 506.661 85.9843C506.661 85.9895 506.661 85.9946 506.661 85.9997C506.661 86.0048 506.661 86.0099 506.661 86.015C506.661 86.02 506.661 86.025 506.661 86.03C506.661 86.035 506.661 86.04 506.661 86.045C506.661 86.0499 506.661 86.0549 506.661 86.0598C506.661 86.0647 506.661 86.0695 506.661 86.0744C506.661 86.0793 506.661 86.0841 506.661 86.0889C506.661 86.0937 506.661 86.0985 506.661 86.1032C506.661 86.108 506.661 86.1127 506.661 86.1174C506.661 86.1221 506.661 86.1268 506.661 86.1314C506.661 86.1361 506.661 86.1407 506.661 86.1453C506.661 86.1499 506.661 86.1545 506.661 86.159C506.661 86.1635 506.661 86.1681 506.661 86.1726C506.661 86.1771 506.661 86.1815 506.661 86.186C506.661 86.1904 506.661 86.1948 506.661 86.1992C506.661 86.2036 506.661 86.208 506.661 86.2123C506.661 86.2167 506.661 86.221 506.661 86.2253C506.661 86.2295 506.661 86.2338 506.661 86.238C506.661 86.2423 506.661 86.2465 506.661 86.2507C506.661 86.2548 506.661 86.259 506.661 86.2631C506.661 86.2673 506.661 86.2714 506.661 86.2754C506.661 86.2795 506.661 86.2836 506.661 86.2876C506.661 86.2916 506.661 86.2956 506.661 86.2996C506.661 86.3035 506.661 86.3075 506.661 86.3114C506.661 86.3153 506.661 86.3192 506.661 86.3231C506.661 86.3269 506.661 86.3308 506.661 86.3346C506.661 86.3384 506.661 86.3422 506.661 86.3459C506.661 86.3497 506.661 86.3534 506.661 86.3571C506.661 86.3608 506.661 86.3645 506.661 86.3681C506.661 86.3718 506.661 86.3754 506.661 86.379C506.661 86.3825 506.661 86.3861 506.661 86.3896C506.661 86.3932 506.661 86.3967 506.661 86.4002C506.661 86.4037 506.661 86.4071 506.661 86.4105C506.661 86.414 506.661 86.4174 506.661 86.4207C506.661 86.4241 506.661 86.4274 506.661 86.4308C506.661 86.4341 506.661 86.4374 506.661 86.4406C506.661 86.4439 506.661 86.4471 506.661 86.4503C506.661 86.4535 506.661 86.4567 506.661 86.4598C506.661 86.463 506.661 86.4661 506.661 86.4692C506.661 86.4723 506.661 86.4754 506.661 86.4784C506.661 86.4814 506.661 86.4844 506.661 86.4874C506.661 86.4904 506.661 86.4933 506.661 86.4963C506.661 86.4992 506.661 86.5021 506.661 86.5049C506.661 86.5078 506.661 86.5106 506.661 86.5135C506.661 86.5163 506.661 86.519 506.661 86.5218C506.661 86.5245 506.661 86.5273 506.661 86.53C506.661 86.5327 506.661 86.5353 506.661 86.538C506.661 86.5406 506.661 86.5432 506.661 86.5458C506.661 86.5484 506.661 86.5509 506.661 86.5534C506.661 86.556 506.661 86.5584 506.661 86.5609C506.661 86.5634 506.661 86.5658 506.661 86.5682C506.661 86.5706 506.661 86.573 506.661 86.5753C506.661 86.5777 506.661 86.58 506.661 86.5823C506.661 86.5846 506.661 86.5868 506.661 86.5891C506.661 86.5913 506.661 86.5935 506.661 86.5957C506.661 86.5978 506.661 86.6 506.661 86.6021C506.661 86.6042 506.661 86.6063 506.661 86.6083C506.661 86.6104 506.661 86.6124 506.661 86.6144C506.661 86.6164 506.661 86.6183 506.661 86.6203C506.661 86.6222 506.661 86.6241 506.661 86.626C506.661 86.6279 506.661 86.6297 506.661 86.6315C506.661 86.6333 506.661 86.6351 506.661 86.6369C506.661 86.6386 506.661 86.6403 506.661 86.642C506.661 86.6437 506.661 86.6454 506.661 86.647C506.661 86.6487 506.661 86.6503 506.661 86.6518C506.661 86.6534 506.661 86.6549 506.661 86.6564C506.661 86.658 506.661 86.6594 506.661 86.6609C506.661 86.6623 506.661 86.6638 506.661 86.6651C506.661 86.6665 506.661 86.6679 506.661 86.6692C506.661 86.6705 506.661 86.6718 506.661 86.6731C506.661 86.6744 506.661 86.6756 506.661 86.6768C506.661 86.678 506.661 86.6792 506.661 86.6803C506.661 86.6815 506.661 86.6826 506.661 86.6837C506.661 86.6848 506.661 86.6858 506.661 86.6868C506.661 86.6878 506.661 86.6888 506.661 86.6898C506.661 86.6907 506.661 86.6917 506.661 86.6926C506.661 86.6934 506.661 86.6943 506.661 86.6951C506.661 86.696 506.661 86.6968 506.661 86.6975C506.661 86.6983 506.661 86.699 506.661 86.6997C506.661 86.7005 506.661 86.7011 506.661 86.7018C506.661 86.7024 506.661 86.703 506.661 86.7036C506.661 86.7042 506.661 86.7047 506.661 86.7052C506.661 86.7058 506.661 86.7062 506.661 86.7067C506.661 86.7071 506.661 86.7076 506.661 86.7079C506.661 86.7083 506.661 86.7087 506.661 86.709C506.661 86.7093 506.661 86.7096 506.661 86.7099C506.661 86.7101 506.661 86.7104 506.661 86.7106C506.661 86.7108 506.661 86.7109 506.661 86.711C506.661 86.7112 506.661 86.7113 506.661 86.7113C506.661 86.7114 506.661 86.7114 511.661 86.7114C516.661 86.7114 516.661 86.7114 516.661 86.7113C516.661 86.7113 516.661 86.7112 516.661 86.711C516.661 86.7109 516.661 86.7108 516.661 86.7106C516.661 86.7104 516.661 86.7101 516.661 86.7099C516.661 86.7096 516.661 86.7093 516.661 86.709C516.661 86.7087 516.661 86.7083 516.661 86.7079C516.661 86.7076 516.661 86.7071 516.661 86.7067C516.661 86.7062 516.661 86.7058 516.661 86.7052C516.661 86.7047 516.661 86.7042 516.661 86.7036C516.661 86.703 516.661 86.7024 516.661 86.7018C516.661 86.7011 516.661 86.7005 516.661 86.6997C516.661 86.699 516.661 86.6983 516.661 86.6975C516.661 86.6968 516.661 86.696 516.661 86.6951C516.661 86.6943 516.661 86.6934 516.661 86.6926C516.661 86.6917 516.661 86.6907 516.661 86.6898C516.661 86.6888 516.661 86.6878 516.661 86.6868C516.661 86.6858 516.661 86.6848 516.661 86.6837C516.661 86.6826 516.661 86.6815 516.661 86.6803C516.661 86.6792 516.661 86.678 516.661 86.6768C516.661 86.6756 516.661 86.6744 516.661 86.6731C516.661 86.6718 516.661 86.6705 516.661 86.6692C516.661 86.6679 516.661 86.6665 516.661 86.6651C516.661 86.6638 516.661 86.6623 516.661 86.6609C516.661 86.6594 516.661 86.658 516.661 86.6564C516.661 86.6549 516.661 86.6534 516.661 86.6518C516.661 86.6503 516.661 86.6487 516.661 86.647C516.661 86.6454 516.661 86.6437 516.661 86.642C516.661 86.6403 516.661 86.6386 516.661 86.6369C516.661 86.6351 516.661 86.6333 516.661 86.6315C516.661 86.6297 516.661 86.6279 516.661 86.626C516.661 86.6241 516.661 86.6222 516.661 86.6203C516.661 86.6183 516.661 86.6164 516.661 86.6144C516.661 86.6124 516.661 86.6104 516.661 86.6083C516.661 86.6063 516.661 86.6042 516.661 86.6021C516.661 86.6 516.661 86.5978 516.661 86.5957C516.661 86.5935 516.661 86.5913 516.661 86.5891C516.661 86.5868 516.661 86.5846 516.661 86.5823C516.661 86.58 516.661 86.5777 516.661 86.5753C516.661 86.573 516.661 86.5706 516.661 86.5682C516.661 86.5658 516.661 86.5634 516.661 86.5609C516.661 86.5584 516.661 86.556 516.661 86.5534C516.661 86.5509 516.661 86.5484 516.661 86.5458C516.661 86.5432 516.661 86.5406 516.661 86.538C516.661 86.5353 516.661 86.5327 516.661 86.53C516.661 86.5273 516.661 86.5245 516.661 86.5218C516.661 86.519 516.661 86.5163 516.661 86.5135C516.661 86.5106 516.661 86.5078 516.661 86.5049C516.661 86.5021 516.661 86.4992 516.661 86.4963C516.661 86.4933 516.661 86.4904 516.661 86.4874C516.661 86.4844 516.661 86.4814 516.661 86.4784C516.661 86.4754 516.661 86.4723 516.661 86.4692C516.661 86.4661 516.661 86.463 516.661 86.4598C516.661 86.4567 516.661 86.4535 516.661 86.4503C516.661 86.4471 516.661 86.4439 516.661 86.4406C516.661 86.4374 516.661 86.4341 516.661 86.4308C516.661 86.4274 516.661 86.4241 516.661 86.4207C516.661 86.4174 516.661 86.414 516.661 86.4105C516.661 86.4071 516.661 86.4037 516.661 86.4002C516.661 86.3967 516.661 86.3932 516.661 86.3896C516.661 86.3861 516.661 86.3825 516.661 86.379C516.661 86.3754 516.661 86.3718 516.661 86.3681C516.661 86.3645 516.661 86.3608 516.661 86.3571C516.661 86.3534 516.661 86.3497 516.661 86.3459C516.661 86.3422 516.661 86.3384 516.661 86.3346C516.661 86.3308 516.661 86.3269 516.661 86.3231C516.661 86.3192 516.661 86.3153 516.661 86.3114C516.661 86.3075 516.661 86.3035 516.661 86.2996C516.661 86.2956 516.661 86.2916 516.661 86.2876C516.661 86.2836 516.661 86.2795 516.661 86.2754C516.661 86.2714 516.661 86.2673 516.661 86.2631C516.661 86.259 516.661 86.2548 516.661 86.2507C516.661 86.2465 516.661 86.2423 516.661 86.238C516.661 86.2338 516.661 86.2295 516.661 86.2253C516.661 86.221 516.661 86.2167 516.661 86.2123C516.661 86.208 516.661 86.2036 516.661 86.1992C516.661 86.1948 516.661 86.1904 516.661 86.186C516.661 86.1815 516.661 86.1771 516.661 86.1726C516.661 86.1681 516.661 86.1635 516.661 86.159C516.661 86.1545 516.661 86.1499 516.661 86.1453C516.661 86.1407 516.661 86.1361 516.661 86.1314C516.661 86.1268 516.661 86.1221 516.661 86.1174C516.661 86.1127 516.661 86.108 516.661 86.1032C516.661 86.0985 516.661 86.0937 516.661 86.0889C516.661 86.0841 516.661 86.0793 516.661 86.0744C516.661 86.0695 516.661 86.0647 516.661 86.0598C516.661 86.0549 516.661 86.0499 516.661 86.045C516.661 86.04 516.661 86.035 516.661 86.03C516.661 86.025 516.661 86.02 516.661 86.015C516.661 86.0099 516.661 86.0048 516.661 85.9997C516.661 85.9946 516.661 85.9895 516.661 85.9843C516.661 85.9792 516.661 85.974 516.661 85.9688C516.661 85.9636 516.661 85.9584 516.661 85.9531C516.661 85.9479 516.661 85.9426 516.661 85.9373C516.661 85.932 516.661 85.9267 516.661 85.9213C516.661 85.916 516.661 85.9106 516.661 85.9052C516.661 85.8998 516.661 85.8944 516.661 85.8889C516.661 85.8835 516.661 85.878 516.661 85.8725C516.661 85.867 516.661 85.8615 516.661 85.856C516.661 85.8504 516.661 85.8449 516.661 85.8393C516.661 85.8337 516.661 85.8281 516.661 85.8224C516.661 85.8168 516.661 85.8111 516.661 85.8054C516.661 85.7997 516.661 85.794 516.661 85.7883C516.661 85.7826 516.661 85.7768 516.661 85.771C516.661 85.7652 516.661 85.7594 516.661 85.7536C516.661 85.7478 516.661 85.7419 516.661 85.736C516.661 85.7302 516.661 85.7243 516.661 85.7184C516.661 85.7124 516.661 85.7065 516.661 85.7005C516.661 85.6945 516.661 85.6886 516.661 85.6825C516.661 85.6765 516.661 85.6705 516.661 85.6644C516.661 85.6584 516.661 85.6523 516.661 85.6462C516.661 85.6401 516.661 85.6339 516.661 85.6278C516.661 85.6216 516.661 85.6154 516.661 85.6092C516.661 85.603 516.661 85.5968 516.661 85.5906C516.661 85.5843 516.661 85.5781 516.661 85.5718C516.661 85.5655 516.661 85.5592 516.661 85.5528C516.661 85.5465 516.661 85.5401 516.661 85.5338C516.661 85.5274 516.661 85.521 516.661 85.5145C516.661 85.5081 516.661 85.5017 516.661 85.4952C516.661 85.4887 516.661 85.4822 516.661 85.4757C516.661 85.4692 516.661 85.4627 516.661 85.4561C516.661 85.4495 516.661 85.443 516.661 85.4364C516.661 85.4298 516.661 85.4231 516.661 85.4165C516.661 85.4098 516.661 85.4032 516.661 85.3965C516.661 85.3898 516.661 85.3831 516.661 85.3763C516.661 85.3696 516.661 85.3628 516.661 85.3561C516.661 85.3493 516.661 85.3425 516.661 85.3357C516.661 85.3288 516.661 85.322 516.661 85.3151C516.661 85.3083 516.661 85.3014 516.661 85.2945C516.661 85.2876 516.661 85.2806 516.661 85.2737C516.661 85.2667 516.661 85.2597 516.661 85.2528C516.661 85.2458 516.661 85.2387 516.661 85.2317C516.661 85.2247 516.661 85.2176 516.661 85.2105C516.661 85.2035 516.661 85.1964 516.661 85.1892C516.661 85.1821 516.661 85.175 516.661 85.1678C516.661 85.1606 516.661 85.1535 516.661 85.1463C516.661 85.139 516.661 85.1318 516.661 85.1246C516.661 85.1173 516.661 85.1101 516.661 85.1028C516.661 85.0955 516.661 85.0882 516.661 85.0808C516.661 85.0735 516.661 85.0662 516.661 85.0588C516.661 85.0514 516.661 85.044 516.661 85.0366C516.661 85.0292 516.661 85.0218 516.661 85.0143C516.661 85.0069 516.661 84.9994 516.661 84.9919C516.661 84.9844 516.661 84.9769 516.661 84.9694C516.661 84.9618 516.661 84.9543 516.661 84.9467C516.661 84.9391 516.661 84.9315 516.661 84.9239C516.661 84.9163 516.661 84.9087 516.661 84.901C516.661 84.8934 516.661 84.8857 516.661 84.878C516.661 84.8703 516.661 84.8626 516.661 84.8549C516.661 84.8471 516.661 84.8394 516.661 84.8316C516.661 84.8238 516.661 84.8161 516.661 84.8082C516.661 84.8004 516.661 84.7926 516.661 84.7847C516.661 84.7769 516.661 84.769 516.661 84.7611C516.661 84.7532 516.661 84.7453 516.661 84.7374C516.661 84.7295 516.661 84.7215 516.661 84.7136C516.661 84.7056 516.661 84.6976 516.661 84.6896C516.661 84.6816 516.661 84.6736 516.661 84.6655C516.661 84.6575 516.661 84.6494 516.661 84.6414C516.661 84.6333 516.661 84.6252 516.661 84.6171C516.661 84.6089 516.661 84.6008 516.661 84.5926C516.661 84.5845 516.661 84.5763 516.661 84.5681C516.661 84.5599 516.661 84.5517 516.661 84.5435C516.661 84.5352 516.661 84.527 516.661 84.5187C516.661 84.5105 516.661 84.5022 516.661 84.4939C516.661 84.4856 516.661 84.4772 516.661 84.4689C516.661 84.4606 516.661 84.4522 516.661 84.4438C516.661 84.4354 516.661 84.427 516.661 84.4186C516.661 84.4102 516.661 84.4018 516.661 84.3933C516.661 84.3849 516.661 84.3764 516.661 84.3679C516.661 84.3594 516.661 84.3509 516.661 84.3424C516.661 84.3339 516.661 84.3253 516.661 84.3168C516.661 84.3082 516.661 84.2996 516.661 84.291C516.661 84.2824 516.661 84.2738 516.661 84.2652C516.661 84.2566 516.661 84.2479 516.661 84.2393C516.661 84.2306 516.661 84.2219 516.661 84.2132C516.661 84.2045 516.661 84.1958 516.661 84.1871C516.661 84.1783 516.661 84.1696 516.661 84.1608C516.661 84.152 516.661 84.1432 516.661 84.1344C516.661 84.1256 516.661 84.1168 516.661 84.108C516.661 84.0991 516.661 84.0903 516.661 84.0814C516.661 84.0725 516.661 84.0636 516.661 84.0547C516.661 84.0458 516.661 84.0369 516.661 84.028C516.661 84.019 516.661 84.0101 516.661 84.0011C516.661 83.9921 516.661 83.9831 516.661 83.9741C516.661 83.9651 516.661 83.9561 516.661 83.947C516.661 83.938 516.661 83.9289 516.661 83.9199C516.661 83.9108 516.661 83.9017 516.661 83.8926C516.661 83.8835 516.661 83.8743 516.661 83.8652C516.661 83.8561 516.661 83.8469 516.661 83.8377C516.661 83.8286 516.661 83.8194 516.661 83.8102C516.661 83.801 516.661 83.7917 516.661 83.7825C516.661 83.7733 516.661 83.764 516.661 83.7547C516.661 83.7455 516.661 83.7362 516.661 83.7269C516.661 83.7176 516.661 83.7083 516.661 83.6989C516.661 83.6896 516.661 83.6802 516.661 83.6709C516.661 83.6615 516.661 83.6521 516.661 83.6427C516.661 83.6333 516.661 83.6239 516.661 83.6145C516.661 83.6051 516.661 83.5956 516.661 83.5861C516.661 83.5767 516.661 83.5672 516.661 83.5577C516.661 83.5482 516.661 83.5387 516.661 83.5292C516.661 83.5197 516.661 83.5101 516.661 83.5006C516.661 83.491 516.661 83.4815 516.661 83.4719C516.661 83.4623 516.661 83.4527 516.661 83.4431C516.661 83.4335 516.661 83.4239 516.661 83.4142C516.661 83.4046 516.661 83.3949 516.661 83.3852C516.661 83.3756 516.661 83.3659 516.661 83.3562C516.661 83.3465 516.661 83.3368 516.661 83.327C516.661 83.3173 516.661 83.3076 516.661 83.2978C516.661 83.288 516.661 83.2783 516.661 83.2685C516.661 83.2587 516.661 83.2489 516.661 83.239C516.661 83.2292 516.661 83.2194 516.661 83.2095C516.661 83.1997 516.661 83.1898 516.661 83.18C516.661 83.1701 516.661 83.1602 516.661 83.1503C516.661 83.1404 516.661 83.1305 516.661 83.1205C516.661 83.1106 516.661 83.1006 516.661 83.0907C516.661 83.0807 516.661 83.0707 516.661 83.0608C516.661 83.0508 516.661 83.0408 516.661 83.0307C516.661 83.0207 516.661 83.0107 516.661 83.0006C516.661 82.9906 516.661 82.9805 516.661 82.9705C516.661 82.9604 516.661 82.9503 516.661 82.9402C516.661 82.9301 516.661 82.92 516.661 82.9099C516.661 82.8997 516.661 82.8896 516.661 82.8794C516.661 82.8693 516.661 82.8591 516.661 82.8489C516.661 82.8388 516.661 82.8286 516.661 82.8184C516.661 82.8081 516.661 82.7979 516.661 82.7877C516.661 82.7775 516.661 82.7672 516.661 82.757C516.661 82.7467 516.661 82.7364 516.661 82.7261C516.661 82.7158 516.661 82.7055 516.661 82.6952C516.661 82.6849 516.661 82.6746 516.661 82.6643C516.661 82.6539 516.661 82.6436 516.661 82.6332C516.661 82.6228 516.661 82.6125 516.661 82.6021C516.661 82.5917 516.661 82.5813 516.661 82.5709C516.661 82.5605 516.661 82.55 516.661 82.5396C516.661 82.5291 516.661 82.5187 516.661 82.5082C516.661 82.4978 516.661 82.4873 516.661 82.4768C516.661 82.4663 516.661 82.4558 516.661 82.4453C516.661 82.4348 516.661 82.4243 516.661 82.4137C516.661 82.4032 516.661 82.3926 516.661 82.3821C516.661 82.3715 516.661 82.3609 516.661 82.3503C516.661 82.3398 516.661 82.3292 516.661 82.3185C516.661 82.3079 516.661 82.2973 516.661 82.2867C516.661 82.276 516.661 82.2654 516.661 82.2547C516.661 82.2441 516.661 82.2334 516.661 82.2227C516.661 82.2121 516.661 82.2014 516.661 82.1907C516.661 82.18 516.661 82.1692 516.661 82.1585C516.661 82.1478 516.661 82.1371 516.661 82.1263C516.661 82.1156 516.661 82.1048 516.661 82.094C516.661 82.0832 516.661 82.0725 516.661 82.0617C516.661 82.0509 516.661 82.0401 516.661 82.0293C516.661 82.0184 516.661 82.0076 516.661 81.9968C516.661 81.9859 516.661 81.9751 516.661 81.9642C516.661 81.9534 516.661 81.9425 516.661 81.9316C516.661 81.9207 516.661 81.9098 516.661 81.8989C516.661 81.888 516.661 81.8771 516.661 81.8662C516.661 81.8552 516.661 81.8443 516.661 81.8334C516.661 81.8224 516.661 81.8115 516.661 81.8005C516.661 81.7895 516.661 81.7785 516.661 81.7676C516.661 81.7566 516.661 81.7456 516.661 81.7346C516.661 81.7235 516.661 81.7125 516.661 81.7015C516.661 81.6905 516.661 81.6794 516.661 81.6684C516.661 81.6573 516.661 81.6463 516.661 81.6352C516.661 81.6241 516.661 81.613 516.661 81.6019C516.661 81.5909 516.661 81.5798 516.661 81.5686C516.661 81.5575 516.661 81.5464 516.661 81.5353C516.661 81.5241 516.661 81.513 516.661 81.5019C516.661 81.4907 516.661 81.4795 516.661 81.4684C516.661 81.4572 516.661 81.446 516.661 81.4348C516.661 81.4236 516.661 81.4125 516.661 81.4012C516.661 81.39 516.661 81.3788 516.661 81.3676C516.661 81.3564 516.661 81.3451 516.661 81.3339C516.661 81.3226 516.661 81.3114 516.661 81.3001C516.661 81.2889 516.661 81.2776 516.661 81.2663C516.661 81.255 516.661 81.2437 516.661 81.2324C516.661 81.2211 516.661 81.2098 516.661 81.1985C516.661 81.1872 516.661 81.1758 516.661 81.1645C516.661 81.1532 516.661 81.1418 516.661 81.1305C516.661 81.1191 516.661 81.1078 516.661 81.0964C516.661 81.085 516.661 81.0736 516.661 81.0623C516.661 81.0509 516.661 81.0395 516.661 81.0281C516.661 81.0167 516.661 81.0052 516.661 80.9938C516.661 80.9824 516.661 80.971 516.661 80.9595C516.661 80.9481 516.661 80.9366 516.661 80.9252C516.661 80.9137 516.661 80.9023 516.661 80.8908C516.661 80.8793 516.661 80.8678 516.661 80.8563C516.661 80.8449 516.661 80.8334 516.661 80.8219C516.661 80.8103 516.661 80.7988 516.661 80.7873C516.661 80.7758 516.661 80.7643 516.661 80.7527C516.661 80.7412 516.661 80.7296 516.661 80.7181C516.661 80.7065 516.661 80.695 516.661 80.6834C516.661 80.6718 516.661 80.6603 516.661 80.6487C516.661 80.6371 516.661 80.6255 516.661 80.6139C516.661 80.6023 516.661 80.5907 516.661 80.5791C516.661 80.5675 516.661 80.5559 516.661 80.5442C516.661 80.5326 516.661 80.521 516.661 80.5093C516.661 80.4977 516.661 80.4861 516.661 80.4744C516.661 80.4627 516.661 80.4511 516.661 80.4394C516.661 80.4277 516.661 80.4161 516.661 80.4044C516.661 80.3927 516.661 80.381 516.661 80.3693C516.661 80.3576 516.661 80.3459 516.661 80.3342C516.661 80.3225 516.661 80.3108 516.661 80.299C516.661 80.2873 516.661 80.2756 516.661 80.2638C516.661 80.2521 516.661 80.2403 516.661 80.2286C516.661 80.2168 516.661 80.2051 516.661 80.1933C516.661 80.1816 516.661 80.1698 516.661 80.158C516.661 80.1462 516.661 80.1344 516.661 80.1227C516.661 80.1109 516.661 80.0991 516.661 80.0873C516.661 80.0755 516.661 80.0637 516.661 80.0518C516.661 80.04 516.661 80.0282 516.661 80.0164C516.661 80.0045 516.661 79.9927 516.661 79.9809C516.661 79.969 516.661 79.9572 516.661 79.9453C516.661 79.9335 516.661 79.9216 516.661 79.9098C516.661 79.8979 516.661 79.886 516.661 79.8742C516.661 79.8623 516.661 79.8504 516.661 79.8385C516.661 79.8266 516.661 79.8148 516.661 79.8029C516.661 79.791 516.661 79.7791 516.661 79.7671C516.661 79.7552 516.661 79.7433 516.661 79.7314C516.661 79.7195 516.661 79.7076 516.661 79.6956C516.661 79.6837 516.661 79.6718 516.661 79.6598C516.661 79.6479 516.661 79.636 516.661 79.624C516.661 79.6121 516.661 79.6001 516.661 79.5881C516.661 79.5762 516.661 79.5642 516.661 79.5523C516.661 79.5403 516.661 79.5283 516.661 79.5163C516.661 79.5044 516.661 79.4924 516.661 79.4804C516.661 79.4684 516.661 79.4564 516.661 79.4444C516.661 79.4324 516.661 79.4204 516.661 79.4084C516.661 79.3964 516.661 79.3844 516.661 79.3724C516.661 79.3604 516.661 79.3483 516.661 79.3363C516.661 79.3243 516.661 79.3123 516.661 79.3002C516.661 79.2882 516.661 79.2761 516.661 79.2641C516.661 79.2521 516.661 79.24 516.661 79.228C516.661 79.2159 516.661 79.2039 516.661 79.1918C516.661 79.1797 516.661 79.1677 516.661 79.1556C516.661 79.1436 516.661 79.1315 516.661 79.1194C516.661 79.1073 516.661 79.0953 516.661 79.0832C516.661 79.0711 516.661 79.059 516.661 79.0469C516.661 79.0348 516.661 79.0227 516.661 79.0106C516.661 78.9985 516.661 78.9864 516.661 78.9743C516.661 78.9622 516.661 78.9501 516.661 78.938C516.661 78.9259 516.661 78.9138 516.661 78.9017C516.661 78.8896 516.661 78.8774 516.661 78.8653C516.661 78.8532 516.661 78.8411 516.661 78.8289C516.661 78.8168 516.661 78.8047 516.661 78.7925C516.661 78.7804 516.661 78.7683 516.661 78.7561C516.661 78.744 516.661 78.7318 516.661 78.7197C516.661 78.7075 516.661 78.6954 516.661 78.6832C516.661 78.6711 516.661 78.6589 516.661 78.6468C516.661 78.6346 516.661 78.6224 516.661 78.6103C516.661 78.5981 516.661 78.5859 516.661 78.5738C516.661 78.5616 516.661 78.5494 516.661 78.5373C516.661 78.5251 516.661 78.5129 516.661 78.5007C516.661 78.4885 516.661 78.4764 516.661 78.4642C516.661 78.452 516.661 78.4398 516.661 78.4276C516.661 78.4154 516.661 78.4032 516.661 78.391C516.661 78.3788 516.661 78.3666 516.661 78.3545C516.661 78.3423 516.661 78.3301 516.661 78.3179C516.661 78.3057 516.661 78.2934 516.661 78.2812C516.661 78.269 516.661 78.2568 516.661 78.2446C516.661 78.2324 516.661 78.2202 516.661 78.208C516.661 78.1958 516.661 78.1836 516.661 78.1713C516.661 78.1591 516.661 78.1469 516.661 78.1347C516.661 78.1225 516.661 78.1102 516.661 78.098C516.661 78.0858 516.661 78.0736 516.661 78.0614C516.661 78.0491 516.661 78.0369 516.661 78.0247C516.661 78.0124 516.661 78.0002 516.661 77.988C516.661 77.9758 516.661 77.9635 516.661 77.9513C516.661 77.9391 516.661 77.9268 516.661 77.9146C516.661 77.9024 516.661 77.8901 516.661 77.8779C516.661 77.8657 516.661 77.8534 516.661 77.8412C516.661 77.8289 516.661 77.8167 516.661 77.8045C516.661 77.7922 516.661 77.78 516.661 77.7677C516.661 77.7555 516.661 77.7433 516.661 77.731C516.661 77.7188 516.661 77.7065 516.661 77.6943C516.661 77.682 516.661 77.6698 516.661 77.6576C516.661 77.6453 516.661 77.6331 516.661 77.6208C516.661 77.6086 516.661 77.5963 516.661 77.5841C516.661 77.5718 516.661 77.5596 516.661 77.5473C516.661 77.5351 516.661 77.5229 516.661 77.5106C516.661 77.4984 516.661 77.4861 516.661 77.4739C516.661 77.4616 516.661 77.4494 516.661 77.4371C516.661 77.4249 516.661 77.4126 516.661 77.4004C516.661 77.3881 516.661 77.3759 516.661 77.3637C516.661 77.3514 516.661 77.3392 516.661 77.3269C516.661 77.3147 516.661 77.3024 516.661 77.2902C516.661 77.2779 516.661 77.2657 516.661 77.2535C516.661 77.2412 516.661 77.229 516.661 77.2167C516.661 77.2045 516.661 77.1923 516.661 77.18C516.661 77.1678 516.661 77.1555 516.661 77.1433C516.661 77.1311 516.661 77.1188 516.661 77.1066C516.661 77.0943 516.661 77.0821 516.661 77.0699C516.661 77.0576 516.661 77.0454 516.661 77.0332C516.661 77.0209 516.661 77.0087 516.661 76.9965C516.661 76.9842 516.661 76.972 516.661 76.9598C516.661 76.9476 516.661 76.9353 516.661 76.9231C516.661 76.9109 516.661 76.8987 516.661 76.8864C516.661 76.8742 516.661 76.862 516.661 76.8498C516.661 76.8375 516.661 76.8253 516.661 76.8131C516.661 76.8009 516.661 76.7887 516.661 76.7765C516.661 76.7642 516.661 76.752 516.661 76.7398C516.661 76.7276 516.661 76.7154 516.661 76.7032C516.661 76.691 516.661 76.6788 516.661 76.6666C516.661 76.6544 516.661 76.6422 516.661 76.63C516.661 76.6178 516.661 76.6056 516.661 76.5934C516.661 76.5812 516.661 76.569 516.661 76.5568C516.661 76.5446 516.661 76.5324 516.661 76.5202C516.661 76.5081 516.661 76.4959 516.661 76.4837C516.661 76.4715 516.661 76.4593 516.661 76.4471C516.661 76.435 516.661 76.4228 516.661 76.4106C516.661 76.3985 516.661 76.3863 516.661 76.3741C516.661 76.362 516.661 76.3498 516.661 76.3376C516.661 76.3255 516.661 76.3133 516.661 76.3011C516.661 76.289 516.661 76.2768 516.661 76.2647C516.661 76.2525 516.661 76.2404 516.661 76.2282C516.661 76.2161 516.661 76.204 516.661 76.1918C516.661 76.1797 516.661 76.1675 516.661 76.1554C516.661 76.1433 516.661 76.1312 516.661 76.119C516.661 76.1069 516.661 76.0948 516.661 76.0827C516.661 76.0705 516.661 76.0584 516.661 76.0463C516.661 76.0342 516.661 76.0221 516.661 76.01C516.661 75.9979 516.661 75.9858 516.661 75.9737C516.661 75.9616 516.661 75.9495 516.661 75.9374C516.661 75.9253 516.661 75.9132 516.661 75.9011C516.661 75.889 516.661 75.877 516.661 75.8649C516.661 75.8528 516.661 75.8407 516.661 75.8287C516.661 75.8166 516.661 75.8045 516.661 75.7925C516.661 75.7804 516.661 75.7684 516.661 75.7563C516.661 75.7442 516.661 75.7322 516.661 75.7202C516.661 75.7081 516.661 75.6961 516.661 75.684C516.661 75.672 516.661 75.66 516.661 75.6479C516.661 75.6359 516.661 75.6239 516.661 75.6119C516.661 75.5998 516.661 75.5878 516.661 75.5758C516.661 75.5638 516.661 75.5518 516.661 75.5398C516.661 75.5278 516.661 75.5158 516.661 75.5038C516.661 75.4918 516.661 75.4798 516.661 75.4679C516.661 75.4559 516.661 75.4439 516.661 75.4319C516.661 75.42 516.661 75.408 516.661 75.396C516.661 75.3841 516.661 75.3721 516.661 75.3602C516.661 75.3482 516.661 75.3363 516.661 75.3243C516.661 75.3124 516.661 75.3004 516.661 75.2885C516.661 75.2766 516.661 75.2646 516.661 75.2527C516.661 75.2408 516.661 75.2289 516.661 75.217C516.661 75.2051 516.661 75.1932 516.661 75.1813C516.661 75.1693 516.661 75.1575 516.661 75.1456C516.661 75.1337 516.661 75.1218 516.661 75.1099C516.661 75.098 516.661 75.0862 516.661 75.0743C516.661 75.0624 516.661 75.0506 516.661 75.0387C516.661 75.0269 516.661 75.015 516.661 75.0032C516.661 74.9913 516.661 74.9795 516.661 74.9677C516.661 74.9558 516.661 74.944 516.661 74.9322C516.661 74.9204 516.661 74.9085 516.661 74.8967C516.661 74.8849 516.661 74.8731 516.661 74.8613C516.661 74.8495 516.661 74.8378 516.661 74.826C516.661 74.8142 516.661 74.8024 516.661 74.7906C516.661 74.7789 516.661 74.7671 516.661 74.7554C516.661 74.7436 516.661 74.7318 516.661 74.7201C516.661 74.7084 516.661 74.6966 516.661 74.6849C516.661 74.6732 516.661 74.6614 516.661 74.6497C516.661 74.638 516.661 74.6263 516.661 74.6146C516.661 74.6029 516.661 74.5912 516.661 74.5795C516.661 74.5678 516.661 74.5561 516.661 74.5445C516.661 74.5328 516.661 74.5211 516.661 74.5095C516.661 74.4978 516.661 74.4861 516.661 74.4745C516.661 74.4628 516.661 74.4512 516.661 74.4396C516.661 74.4279 516.661 74.4163 516.661 74.4047C516.661 74.3931 516.661 74.3815 516.661 74.3699C516.661 74.3583 516.661 74.3467 516.661 74.3351C516.661 74.3235 516.661 74.3119 516.661 74.3003C516.661 74.2888 516.661 74.2772 516.661 74.2656C516.661 74.2541 516.661 74.2425 516.661 74.231C516.661 74.2194 516.661 74.2079 516.661 74.1964C516.661 74.1849 516.661 74.1733 516.661 74.1618C516.661 74.1503 516.661 74.1388 516.661 74.1273C516.661 74.1158 516.661 74.1043 516.661 74.0929C516.661 74.0814 516.661 74.0699 516.661 74.0585C516.661 74.047 516.661 74.0355 516.661 74.0241C516.661 74.0126 516.661 74.0012 516.661 73.9898C516.661 73.9784 516.661 73.9669 516.661 73.9555C516.661 73.9441 516.661 73.9327 516.661 73.9213C516.661 73.9099 516.661 73.8985 516.661 73.8872C516.661 73.8758 516.661 73.8644 516.661 73.853C516.661 73.8417 516.661 73.8303 516.661 73.819C516.661 73.8076 516.661 73.7963 516.661 73.785C516.661 73.7737 516.661 73.7623 516.661 73.751C516.661 73.7397 516.661 73.7284 516.661 73.7171C516.661 73.7059 516.661 73.6946 516.661 73.6833C516.661 73.672 516.661 73.6608 516.661 73.6495C516.661 73.6383 516.661 73.627 516.661 73.6158C516.661 73.6046 516.661 73.5933 516.661 73.5821C516.661 73.5709 516.661 73.5597 516.661 73.5485C516.661 73.5373 516.661 73.5261 516.661 73.5149C516.661 73.5038 516.661 73.4926 516.661 73.4814C516.661 73.4703 516.661 73.4591 516.661 73.448C516.661 73.4369 516.661 73.4257 516.661 73.4146C516.661 73.4035 516.661 73.3924 516.661 73.3813C516.661 73.3702 516.661 73.3591 516.661 73.348C516.661 73.337 516.661 73.3259 516.661 73.3148C516.661 73.3038 516.661 73.2927 516.661 73.2817C516.661 73.2706 516.661 73.2596 516.661 73.2486C516.661 73.2376 516.661 73.2266 516.661 73.2156C516.661 73.2046 516.661 73.1936 516.661 73.1826C516.661 73.1716 516.661 73.1607 516.661 73.1497C516.661 73.1388 516.661 73.1278 516.661 73.1169C516.661 73.106 516.661 73.095 516.661 73.0841C516.661 73.0732 516.661 73.0623 516.661 73.0514C516.661 73.0405 516.661 73.0296 516.661 73.0188C516.661 73.0079 516.661 72.997 516.661 72.9862C516.661 72.9754 516.661 72.9645 516.661 72.9537C516.661 72.9429 516.661 72.9321 516.661 72.9213C516.661 72.9104 516.661 72.8997 516.661 72.8889C516.661 72.8781 516.661 72.8673 516.661 72.8566C516.661 72.8458 516.661 72.8351 516.661 72.8243C516.661 72.8136 516.661 72.8029 516.661 72.7922C516.661 72.7814 516.661 72.7707 516.661 72.7601C516.661 72.7494 516.661 72.7387 516.661 72.728H506.661Z" fill="black"/>
<path d="M490.546 92.4978C498.619 87.1786 502.134 85.4989 511.66 85.265C518.378 85.1001 524.513 87.1938 528.185 89.1225C534.611 92.4978 540.578 97.9873 545.168 105.035C551.135 114.196 554.603 118.711 561.692 127.215C567.65 134.362 573.062 138.707 580.512 144.092C592.267 152.589 598.714 155.294 611.725 161.45C622.135 166.376 627.79 167.237 637.888 175.434C646.2 182.181 651.199 187.062 651.199 198.097C651.199 200.025 630.837 183.728 615.397 175.434C575.004 153.736 511.66 116.607 511.66 116.607C511.66 116.607 445.563 156.629 400.121 179.774C388.557 185.663 371.662 200.508 371.662 198.579C371.662 187.489 379.737 178.626 390.023 173.023C402.416 166.272 412.73 161.229 425.367 153.736C441.434 144.208 449.5 140.92 462.546 127.215C468.973 120.465 470.705 115.904 475.858 108.41C481.825 99.7306 483.889 96.8845 490.546 92.4978Z" fill="black"/>
<path d="M390.393 179.774L633.59 180.496" stroke="black" stroke-width="10" stroke-linecap="round"/>
<rect x="486.119" y="40.2725" width="22.0108" height="13.2065" fill="#969598"/>
<path d="M375.915 177.579C397.227 162.011 433.272 148.624 433.272 148.624H593.872C593.872 148.624 624.652 164.6 643.582 177.579C667.987 194.312 693.291 215.582 702.851 233.679C717.19 260.824 750.648 400.169 762.12 499.701C766.85 540.745 762.12 568.019 762.12 604.662C762.12 610.091 714.322 619.14 704.762 610.091C685.644 591.995 671.7 545.731 658.877 499.701C646.444 455.073 634.022 383.882 634.022 383.882C634.022 383.882 640.347 454.534 645.493 499.701C650.17 540.75 650.529 588.349 639.758 604.662C630.198 619.14 584.453 613.307 536.515 615.52C484.312 617.93 440.92 626.378 395.034 619.14C375.702 616.09 385.838 607.115 377.827 590.185C364.444 561.899 373.399 530.778 375.915 499.701C379.753 452.3 387.386 378.453 387.386 378.453C387.386 378.453 373.201 452.816 358.708 499.701C345.911 541.099 324.293 584.756 318.558 604.662C312.823 624.569 289.88 619.14 272.673 619.14C255.465 619.14 247.817 606.301 247.818 590.185C247.818 573.898 252.196 560.991 253.553 537.704C257.208 475.013 266.639 434.051 282.232 373.024C296.794 316.03 297.527 278.921 326.206 224.63C338.268 201.796 354.562 193.176 375.915 177.579Z" fill="#DF907E"/>
<path d="M383.417 644.921C383.417 625.471 378.957 595.333 383.417 595.333C392.978 595.333 421.256 602.962 467.558 602.962C522.074 602.962 610.98 606.778 643.489 591.51C646.553 590.072 643.489 625.859 643.489 637.292C643.489 653.476 603.715 648.726 588.032 648.726C552.186 648.726 488.106 652.55 452.259 652.55C402.971 652.55 383.417 652.55 383.417 644.921Z" fill="#CD7C6A"/>
<path d="M249.202 601.332L249.204 601.312C250.235 592.893 261.48 599.095 276.717 601.563C287.944 603.382 313.652 604.538 314.601 614.498C315.386 622.744 312.763 642.105 308.9 646.824C303.975 652.841 291.216 655.178 276.717 650.642C265.353 647.087 254.435 648.304 249.236 640.138C245.222 633.834 247.788 612.877 249.202 601.332Z" fill="#CD7C6A"/>
<path d="M696.851 606.046L696.847 606.026C695.144 597.7 708.189 599.719 723.95 596.833C735.564 594.707 761.186 586.99 765.33 596.097C768.761 603.636 772.429 622.87 770.156 628.663C767.259 636.048 755.482 642.634 739.779 643.309C727.471 643.838 717.14 648.733 709.4 642.782C703.425 638.188 699.186 617.463 696.851 606.046Z" fill="#CD7C6A"/>
<path d="M431.077 130.805C431.287 118.311 434.042 111.013 444.439 104.082C461.618 92.6292 480.162 97.0862 505.507 97.0862C537.561 97.0862 557.059 88.8168 579.964 100.267C590.961 105.764 595.064 118.512 595.235 130.805C595.416 143.822 593.253 156.932 581.873 163.255C564.694 172.799 542.314 169.04 513.156 168.981C484.741 168.924 463.527 175.402 444.439 163.255C433.295 156.163 430.855 144.012 431.077 130.805Z" fill="#CD7C6A"/>
<path d="M498.774 258.501L508.318 277.59L498.774 296.678L489.23 277.59L498.774 258.501Z" fill="#E8A191"/>
<path d="M525.497 258.501L535.041 277.59L525.497 296.678L515.953 277.59L525.497 258.501Z" fill="#E8A191"/>
<path d="M552.221 258.501L561.765 277.59L552.221 296.678L542.677 277.59L552.221 258.501Z" fill="#E8A191"/>
<path d="M578.872 255.853L590.682 273.629L583.547 293.742L571.738 275.966L578.872 255.853Z" fill="#E8A191"/>
<path d="M601.531 249.495L615.649 265.499L611.317 286.396L597.199 270.392L601.531 249.495Z" fill="#E8A191"/>
<path d="M628.287 241.732L642.183 257.929L637.564 278.764L623.667 262.567L628.287 241.732Z" fill="#E8A191"/>
<path d="M654.916 234.447L669.414 250.107L665.585 271.102L651.087 255.441L654.916 234.447Z" fill="#E8A191"/>
<path d="M677.678 227.261L692.936 242.183L690.153 263.342L674.896 248.42L677.678 227.261Z" fill="#E8A191"/>
<path d="M471.872 257.142L460.887 275.439L468.933 295.205L479.918 276.908L471.872 257.142Z" fill="#E8A191"/>
<path d="M445.435 253.425L431.493 269.583L436.054 290.431L449.996 274.273L445.435 253.425Z" fill="#E8A191"/>
<path d="M418.597 245.955L404.879 262.303L409.726 283.087L423.444 266.739L418.597 245.955Z" fill="#E8A191"/>
<path d="M391.889 238.961L377.563 254.779L381.622 275.731L395.948 259.912L391.889 238.961Z" fill="#E8A191"/>
<path d="M365.086 233.275L349.993 248.363L353.007 269.49L368.101 254.402L365.086 233.275Z" fill="#E8A191"/>
<path d="M339.676 223.754L323.68 237.881L325.384 259.154L341.38 245.027L339.676 223.754Z" fill="#E8A191"/>
<path d="M499.773 338.762L509.225 357.896L499.588 376.938L490.137 357.804L499.773 338.762Z" fill="#E8A191"/>
<path d="M526.497 338.893L535.948 358.027L526.312 377.069L516.86 357.935L526.497 338.893Z" fill="#E8A191"/>
<path d="M553.22 339.021L562.672 358.155L553.035 377.197L543.584 358.063L553.22 339.021Z" fill="#E8A191"/>
<path d="M579.883 336.502L591.606 354.334L584.374 374.413L572.651 356.58L579.883 336.502Z" fill="#E8A191"/>
<path d="M602.572 330.254L616.612 346.326L612.179 367.202L598.139 351.13L602.572 330.254Z" fill="#E8A191"/>
<path d="M629.367 322.622L643.184 338.886L638.464 359.698L624.646 343.434L629.367 322.622Z" fill="#E8A191"/>
<path d="M656.029 315.462L670.451 331.192L666.52 352.168L652.098 336.438L656.029 315.462Z" fill="#E8A191"/>
<path d="M681.608 307.379L696.793 322.374L693.908 343.519L678.723 328.524L681.608 307.379Z" fill="#E8A191"/>
<path d="M705.75 297.02L722.968 309.628L723.213 330.968L705.994 318.36L705.75 297.02Z" fill="#E8A191"/>
<path d="M472.877 337.274L461.803 355.517L469.753 375.322L480.827 357.079L472.877 337.274Z" fill="#E8A191"/>
<path d="M446.459 333.428L432.439 349.518L436.899 370.388L450.919 354.298L446.459 333.428Z" fill="#E8A191"/>
<path d="M419.655 325.829L405.858 342.11L410.605 362.917L424.402 346.635L419.655 325.829Z" fill="#E8A191"/>
<path d="M392.983 318.704L378.581 334.453L382.539 355.424L396.941 339.675L392.983 318.704Z" fill="#E8A191"/>
<path d="M366.208 312.891L351.042 327.905L353.955 349.047L369.121 334.032L366.208 312.891Z" fill="#E8A191"/>
<path d="M340.845 303.246L324.781 317.295L326.382 338.576L342.446 324.527L340.845 303.246Z" fill="#E8A191"/>
<path d="M315.06 293.071L298.252 306.222L298.687 327.558L315.495 314.408L315.06 293.071Z" fill="#E8A191"/>
<path d="M500.041 188.984L509.832 207.947L500.537 227.157L490.746 208.195L500.041 188.984Z" fill="#E8A191"/>
<path d="M526.762 188.636L536.554 207.598L527.259 226.809L517.467 207.847L526.762 188.636Z" fill="#E8A191"/>
<path d="M553.484 188.289L563.275 207.252L553.98 226.462L544.189 207.5L553.484 188.289Z" fill="#E8A191"/>
<path d="M580.098 185.294L592.138 202.914L585.265 223.118L573.225 205.498L580.098 185.294Z" fill="#E8A191"/>
<path d="M602.671 178.641L616.996 194.46L612.936 215.411L598.611 199.592L602.671 178.641Z" fill="#E8A191"/>
<path d="M629.324 170.532L643.43 186.547L639.082 207.441L624.976 191.426L629.324 170.532Z" fill="#E8A191"/>
<path d="M473.122 187.975L462.375 206.413L470.678 226.073L481.424 207.635L473.122 187.975Z" fill="#E8A191"/>
<path d="M446.64 184.602L432.909 200.94L437.741 221.727L451.471 205.389L446.64 184.602Z" fill="#E8A191"/>
<path d="M419.706 177.483L406.202 194.009L411.319 214.727L424.823 198.202L419.706 177.483Z" fill="#E8A191"/>
<path d="M392.91 170.836L378.791 186.84L383.122 207.737L397.241 191.733L392.91 170.836Z" fill="#E8A191"/>
</g>
<defs>
<clipPath id="clip0_1_2082">
<rect width="1366" height="1024" fill="white" transform="translate(0 1366) rotate(-90)"/>
</clipPath>
</defs>
</svg>
