<svg width="1024" height="1366" viewBox="0 0 1024 1366" fill="none" xmlns="http://www.w3.org/2000/svg">
<g clip-path="url(#clip0_1_1639)">
<rect width="1366" height="1024" transform="translate(0 1366) rotate(-90)" fill="#54545A"/>
<rect x="-340" y="40" width="1546" height="14.05" fill="#969598"/>
<path d="M487.225 52.3202C487.058 55.0766 489.157 57.4464 491.914 57.6134C494.67 57.7804 497.04 55.6813 497.207 52.925L487.225 52.3202ZM512.168 33.6206L512.227 38.6203L512.168 33.6206ZM532.595 52.6226L537.589 52.379L532.595 52.6226ZM507.168 85.876C507.168 88.6375 509.407 90.876 512.168 90.876C514.93 90.876 517.168 88.6375 517.168 85.876H507.168ZM497.207 52.925C497.699 44.8012 504.089 38.7158 512.227 38.6203L512.109 28.621C498.729 28.7781 488.034 38.9633 487.225 52.3202L497.207 52.925ZM512.227 38.6203C520.508 38.523 527.205 44.7456 527.601 52.8662L537.589 52.379C536.924 38.7351 525.617 28.4623 512.109 28.621L512.227 38.6203ZM527.601 52.8662C527.792 56.7679 526.866 59.1878 525.731 60.7827C524.549 62.4435 522.823 63.6475 520.756 64.5402C518.672 65.44 516.478 65.9241 514.576 66.2788C513.761 66.4309 512.677 66.6138 511.953 66.7823C511.611 66.8617 510.955 67.0217 510.302 67.3251C509.983 67.4734 509.346 67.7978 508.726 68.4063C508.05 69.0704 507.168 70.3213 507.168 72.0996H517.168C517.168 73.7888 516.328 74.9562 515.733 75.541C515.194 76.07 514.677 76.3192 514.514 76.3948C514.173 76.553 513.976 76.5785 514.217 76.5225C514.658 76.42 515.236 76.3283 516.41 76.1092C518.488 75.7216 521.578 75.0775 524.72 73.7208C527.878 72.3571 531.319 70.1764 533.878 66.582C536.483 62.9216 537.874 58.2157 537.589 52.379L527.601 52.8662ZM507.168 72.0996C507.168 72.1101 507.168 72.1206 507.168 72.1312C507.168 72.1417 507.168 72.1522 507.168 72.1628C507.168 72.1733 507.168 72.1839 507.168 72.1945C507.168 72.2051 507.168 72.2156 507.168 72.2262C507.168 72.2368 507.168 72.2474 507.168 72.2581C507.168 72.2687 507.168 72.2793 507.168 72.29C507.168 72.3006 507.168 72.3113 507.168 72.3219C507.168 72.3326 507.168 72.3433 507.168 72.354C507.168 72.3646 507.168 72.3753 507.168 72.386C507.168 72.3968 507.168 72.4075 507.168 72.4182C507.168 72.4289 507.168 72.4397 507.168 72.4504C507.168 72.4612 507.168 72.4719 507.168 72.4827C507.168 72.4935 507.168 72.5043 507.168 72.5151C507.168 72.5258 507.168 72.5366 507.168 72.5475C507.168 72.5583 507.168 72.5691 507.168 72.5799C507.168 72.5908 507.168 72.6016 507.168 72.6125C507.168 72.6233 507.168 72.6342 507.168 72.6451C507.168 72.6559 507.168 72.6668 507.168 72.6777C507.168 72.6886 507.168 72.6995 507.168 72.7104C507.168 72.7213 507.168 72.7323 507.168 72.7432C507.168 72.7541 507.168 72.7651 507.168 72.776C507.168 72.787 507.168 72.7979 507.168 72.8089C507.168 72.8199 507.168 72.8309 507.168 72.8419C507.168 72.8529 507.168 72.8639 507.168 72.8749C507.168 72.8859 507.168 72.8969 507.168 72.9079C507.168 72.919 507.168 72.93 507.168 72.9411C507.168 72.9521 507.168 72.9632 507.168 72.9742C507.168 72.9853 507.168 72.9964 507.168 73.0075C507.168 73.0185 507.168 73.0296 507.168 73.0407C507.168 73.0518 507.168 73.063 507.168 73.0741C507.168 73.0852 507.168 73.0963 507.168 73.1075C507.168 73.1186 507.168 73.1298 507.168 73.1409C507.168 73.1521 507.168 73.1632 507.168 73.1744C507.168 73.1856 507.168 73.1968 507.168 73.208C507.168 73.2192 507.168 73.2304 507.168 73.2416C507.168 73.2528 507.168 73.264 507.168 73.2752C507.168 73.2864 507.168 73.2977 507.168 73.3089C507.168 73.3202 507.168 73.3314 507.168 73.3427C507.168 73.3539 507.168 73.3652 507.168 73.3765C507.168 73.3878 507.168 73.399 507.168 73.4103C507.168 73.4216 507.168 73.4329 507.168 73.4442C507.168 73.4555 507.168 73.4669 507.168 73.4782C507.168 73.4895 507.168 73.5008 507.168 73.5122C507.168 73.5235 507.168 73.5349 507.168 73.5462C507.168 73.5576 507.168 73.5689 507.168 73.5803C507.168 73.5917 507.168 73.6031 507.168 73.6145C507.168 73.6258 507.168 73.6372 507.168 73.6486C507.168 73.66 507.168 73.6714 507.168 73.6829C507.168 73.6943 507.168 73.7057 507.168 73.7171C507.168 73.7286 507.168 73.74 507.168 73.7514C507.168 73.7629 507.168 73.7743 507.168 73.7858C507.168 73.7973 507.168 73.8087 507.168 73.8202C507.168 73.8317 507.168 73.8432 507.168 73.8547C507.168 73.8661 507.168 73.8776 507.168 73.8891C507.168 73.9006 507.168 73.9122 507.168 73.9237C507.168 73.9352 507.168 73.9467 507.168 73.9582C507.168 73.9698 507.168 73.9813 507.168 73.9929C507.168 74.0044 507.168 74.0159 507.168 74.0275C507.168 74.0391 507.168 74.0506 507.168 74.0622C507.168 74.0738 507.168 74.0853 507.168 74.0969C507.168 74.1085 507.168 74.1201 507.168 74.1317C507.168 74.1433 507.168 74.1549 507.168 74.1665C507.168 74.1781 507.168 74.1897 507.168 74.2013C507.168 74.213 507.168 74.2246 507.168 74.2362C507.168 74.2478 507.168 74.2595 507.168 74.2711C507.168 74.2828 507.168 74.2944 507.168 74.3061C507.168 74.3177 507.168 74.3294 507.168 74.3411C507.168 74.3527 507.168 74.3644 507.168 74.3761C507.168 74.3878 507.168 74.3994 507.168 74.4111C507.168 74.4228 507.168 74.4345 507.168 74.4462C507.168 74.4579 507.168 74.4696 507.168 74.4814C507.168 74.4931 507.168 74.5048 507.168 74.5165C507.168 74.5282 507.168 74.54 507.168 74.5517C507.168 74.5634 507.168 74.5752 507.168 74.5869C507.168 74.5987 507.168 74.6104 507.168 74.6222C507.168 74.6339 507.168 74.6457 507.168 74.6575C507.168 74.6692 507.168 74.681 507.168 74.6928C507.168 74.7045 507.168 74.7163 507.168 74.7281C507.168 74.7399 507.168 74.7517 507.168 74.7635C507.168 74.7753 507.168 74.7871 507.168 74.7989C507.168 74.8107 507.168 74.8225 507.168 74.8343C507.168 74.8461 507.168 74.8579 507.168 74.8698C507.168 74.8816 507.168 74.8934 507.168 74.9052C507.168 74.9171 507.168 74.9289 507.168 74.9408C507.168 74.9526 507.168 74.9644 507.168 74.9763C507.168 74.9881 507.168 75 507.168 75.0119C507.168 75.0237 507.168 75.0356 507.168 75.0474C507.168 75.0593 507.168 75.0712 507.168 75.083C507.168 75.0949 507.168 75.1068 507.168 75.1187C507.168 75.1306 507.168 75.1425 507.168 75.1543C507.168 75.1662 507.168 75.1781 507.168 75.19C507.168 75.2019 507.168 75.2138 507.168 75.2257C507.168 75.2376 507.168 75.2495 507.168 75.2615C507.168 75.2734 507.168 75.2853 507.168 75.2972C507.168 75.3091 507.168 75.321 507.168 75.333C507.168 75.3449 507.168 75.3568 507.168 75.3688C507.168 75.3807 507.168 75.3926 507.168 75.4046C507.168 75.4165 507.168 75.4285 507.168 75.4404C507.168 75.4524 507.168 75.4643 507.168 75.4763C507.168 75.4882 507.168 75.5002 507.168 75.5121C507.168 75.5241 507.168 75.536 507.168 75.548C507.168 75.56 507.168 75.5719 507.168 75.5839C507.168 75.5959 507.168 75.6079 507.168 75.6198C507.168 75.6318 507.168 75.6438 507.168 75.6558C507.168 75.6677 507.168 75.6797 507.168 75.6917C507.168 75.7037 507.168 75.7157 507.168 75.7277C507.168 75.7397 507.168 75.7517 507.168 75.7637C507.168 75.7757 507.168 75.7877 507.168 75.7997C507.168 75.8117 507.168 75.8237 507.168 75.8357C507.168 75.8477 507.168 75.8597 507.168 75.8717C507.168 75.8837 507.168 75.8957 507.168 75.9077C507.168 75.9198 507.168 75.9318 507.168 75.9438C507.168 75.9558 507.168 75.9678 507.168 75.9799C507.168 75.9919 507.168 76.0039 507.168 76.0159C507.168 76.028 507.168 76.04 507.168 76.052C507.168 76.064 507.168 76.0761 507.168 76.0881C507.168 76.1001 507.168 76.1122 507.168 76.1242C507.168 76.1362 507.168 76.1483 507.168 76.1603C507.168 76.1724 507.168 76.1844 507.168 76.1964C507.168 76.2085 507.168 76.2205 507.168 76.2326C507.168 76.2446 507.168 76.2567 507.168 76.2687C507.168 76.2808 507.168 76.2928 507.168 76.3049C507.168 76.3169 507.168 76.329 507.168 76.341C507.168 76.3531 507.168 76.3651 507.168 76.3772C507.168 76.3892 507.168 76.4013 507.168 76.4133C507.168 76.4254 507.168 76.4375 507.168 76.4495C507.168 76.4616 507.168 76.4736 507.168 76.4857C507.168 76.4977 507.168 76.5098 507.168 76.5219C507.168 76.5339 507.168 76.546 507.168 76.558C507.168 76.5701 507.168 76.5822 507.168 76.5942C507.168 76.6063 507.168 76.6184 507.168 76.6304C507.168 76.6425 507.168 76.6545 507.168 76.6666C507.168 76.6787 507.168 76.6907 507.168 76.7028C507.168 76.7149 507.168 76.7269 507.168 76.739C507.168 76.7511 507.168 76.7631 507.168 76.7752C507.168 76.7873 507.168 76.7993 507.168 76.8114C507.168 76.8235 507.168 76.8355 507.168 76.8476C507.168 76.8596 507.168 76.8717 507.168 76.8838C507.168 76.8958 507.168 76.9079 507.168 76.92C507.168 76.932 507.168 76.9441 507.168 76.9562C507.168 76.9682 507.168 76.9803 507.168 76.9923C507.168 77.0044 507.168 77.0165 507.168 77.0285C507.168 77.0406 507.168 77.0527 507.168 77.0647C507.168 77.0768 507.168 77.0888 507.168 77.1009C507.168 77.113 507.168 77.125 507.168 77.1371C507.168 77.1491 507.168 77.1612 507.168 77.1732C507.168 77.1853 507.168 77.1973 507.168 77.2094C507.168 77.2215 507.168 77.2335 507.168 77.2456C507.168 77.2576 507.168 77.2697 507.168 77.2817C507.168 77.2938 507.168 77.3058 507.168 77.3178C507.168 77.3299 507.168 77.3419 507.168 77.354C507.168 77.366 507.168 77.3781 507.168 77.3901C507.168 77.4022 507.168 77.4142 507.168 77.4262C507.168 77.4383 507.168 77.4503 507.168 77.4623C507.168 77.4744 507.168 77.4864 507.168 77.4984C507.168 77.5105 507.168 77.5225 507.168 77.5345C507.168 77.5466 507.168 77.5586 507.168 77.5706C507.168 77.5826 507.168 77.5947 507.168 77.6067C507.168 77.6187 507.168 77.6307 507.168 77.6427C507.168 77.6548 507.168 77.6668 507.168 77.6788C507.168 77.6908 507.168 77.7028 507.168 77.7148C507.168 77.7268 507.168 77.7388 507.168 77.7508C507.168 77.7628 507.168 77.7748 507.168 77.7868C507.168 77.7988 507.168 77.8108 507.168 77.8228C507.168 77.8348 507.168 77.8468 507.168 77.8588C507.168 77.8708 507.168 77.8828 507.168 77.8948C507.168 77.9068 507.168 77.9187 507.168 77.9307C507.168 77.9427 507.168 77.9547 507.168 77.9667C507.168 77.9786 507.168 77.9906 507.168 78.0026C507.168 78.0145 507.168 78.0265 507.168 78.0385C507.168 78.0504 507.168 78.0624 507.168 78.0743C507.168 78.0863 507.168 78.0983 507.168 78.1102C507.168 78.1222 507.168 78.1341 507.168 78.146C507.168 78.158 507.168 78.1699 507.168 78.1819C507.168 78.1938 507.168 78.2057 507.168 78.2177C507.168 78.2296 507.168 78.2415 507.168 78.2535C507.168 78.2654 507.168 78.2773 507.168 78.2892C507.168 78.3011 507.168 78.3131 507.168 78.325C507.168 78.3369 507.168 78.3488 507.168 78.3607C507.168 78.3726 507.168 78.3845 507.168 78.3964C507.168 78.4083 507.168 78.4202 507.168 78.4321C507.168 78.4439 507.168 78.4558 507.168 78.4677C507.168 78.4796 507.168 78.4915 507.168 78.5033C507.168 78.5152 507.168 78.5271 507.168 78.5389C507.168 78.5508 507.168 78.5627 507.168 78.5745C507.168 78.5864 507.168 78.5982 507.168 78.6101C507.168 78.6219 507.168 78.6338 507.168 78.6456C507.168 78.6574 507.168 78.6693 507.168 78.6811C507.168 78.6929 507.168 78.7047 507.168 78.7166C507.168 78.7284 507.168 78.7402 507.168 78.752C507.168 78.7638 507.168 78.7756 507.168 78.7874C507.168 78.7992 507.168 78.811 507.168 78.8228C507.168 78.8346 507.168 78.8464 507.168 78.8582C507.168 78.87 507.168 78.8817 507.168 78.8935C507.168 78.9053 507.168 78.917 507.168 78.9288C507.168 78.9406 507.168 78.9523 507.168 78.9641C507.168 78.9758 507.168 78.9876 507.168 78.9993C507.168 79.0111 507.168 79.0228 507.168 79.0345C507.168 79.0463 507.168 79.058 507.168 79.0697C507.168 79.0814 507.168 79.0931 507.168 79.1049C507.168 79.1166 507.168 79.1283 507.168 79.14C507.168 79.1517 507.168 79.1634 507.168 79.175C507.168 79.1867 507.168 79.1984 507.168 79.2101C507.168 79.2218 507.168 79.2334 507.168 79.2451C507.168 79.2568 507.168 79.2684 507.168 79.2801C507.168 79.2917 507.168 79.3034 507.168 79.315C507.168 79.3266 507.168 79.3383 507.168 79.3499C507.168 79.3615 507.168 79.3732 507.168 79.3848C507.168 79.3964 507.168 79.408 507.168 79.4196C507.168 79.4312 507.168 79.4428 507.168 79.4544C507.168 79.466 507.168 79.4776 507.168 79.4891C507.168 79.5007 507.168 79.5123 507.168 79.5239C507.168 79.5354 507.168 79.547 507.168 79.5585C507.168 79.5701 507.168 79.5816 507.168 79.5932C507.168 79.6047 507.168 79.6162 507.168 79.6278C507.168 79.6393 507.168 79.6508 507.168 79.6623C507.168 79.6738 507.168 79.6853 507.168 79.6968C507.168 79.7083 507.168 79.7198 507.168 79.7313C507.168 79.7428 507.168 79.7543 507.168 79.7657C507.168 79.7772 507.168 79.7887 507.168 79.8001C507.168 79.8116 507.168 79.823 507.168 79.8345C507.168 79.8459 507.168 79.8573 507.168 79.8688C507.168 79.8802 507.168 79.8916 507.168 79.903C507.168 79.9144 507.168 79.9258 507.168 79.9372C507.168 79.9486 507.168 79.96 507.168 79.9714C507.168 79.9828 507.168 79.9942 507.168 80.0055C507.168 80.0169 507.168 80.0282 507.168 80.0396C507.168 80.0509 507.168 80.0623 507.168 80.0736C507.168 80.085 507.168 80.0963 507.168 80.1076C507.168 80.1189 507.168 80.1302 507.168 80.1415C507.168 80.1528 507.168 80.1641 507.168 80.1754C507.168 80.1867 507.168 80.198 507.168 80.2093C507.168 80.2205 507.168 80.2318 507.168 80.243C507.168 80.2543 507.168 80.2655 507.168 80.2768C507.168 80.288 507.168 80.2992 507.168 80.3105C507.168 80.3217 507.168 80.3329 507.168 80.3441C507.168 80.3553 507.168 80.3665 507.168 80.3777C507.168 80.3889 507.168 80.4 507.168 80.4112C507.168 80.4224 507.168 80.4335 507.168 80.4447C507.168 80.4558 507.168 80.467 507.168 80.4781C507.168 80.4892 507.168 80.5004 507.168 80.5115C507.168 80.5226 507.168 80.5337 507.168 80.5448C507.168 80.5559 507.168 80.567 507.168 80.5781C507.168 80.5891 507.168 80.6002 507.168 80.6113C507.168 80.6223 507.168 80.6334 507.168 80.6444C507.168 80.6555 507.168 80.6665 507.168 80.6775C507.168 80.6886 507.168 80.6996 507.168 80.7106C507.168 80.7216 507.168 80.7326 507.168 80.7436C507.168 80.7545 507.168 80.7655 507.168 80.7765C507.168 80.7875 507.168 80.7984 507.168 80.8094C507.168 80.8203 507.168 80.8312 507.168 80.8422C507.168 80.8531 507.168 80.864 507.168 80.8749C507.168 80.8858 507.168 80.8967 507.168 80.9076C507.168 80.9185 507.168 80.9294 507.168 80.9402C507.168 80.9511 507.168 80.962 507.168 80.9728C507.168 80.9837 507.168 80.9945 507.168 81.0053C507.168 81.0161 507.168 81.027 507.168 81.0378C507.168 81.0486 507.168 81.0594 507.168 81.0702C507.168 81.0809 507.168 81.0917 507.168 81.1025C507.168 81.1132 507.168 81.124 507.168 81.1347C507.168 81.1455 507.168 81.1562 507.168 81.1669C507.168 81.1777 507.168 81.1884 507.168 81.1991C507.168 81.2098 507.168 81.2205 507.168 81.2311C507.168 81.2418 507.168 81.2525 507.168 81.2631C507.168 81.2738 507.168 81.2845 507.168 81.2951C507.168 81.3057 507.168 81.3163 507.168 81.327C507.168 81.3376 507.168 81.3482 507.168 81.3588C507.168 81.3694 507.168 81.3799 507.168 81.3905C507.168 81.4011 507.168 81.4116 507.168 81.4222C507.168 81.4327 507.168 81.4432 507.168 81.4538C507.168 81.4643 507.168 81.4748 507.168 81.4853C507.168 81.4958 507.168 81.5063 507.168 81.5168C507.168 81.5272 507.168 81.5377 507.168 81.5482C507.168 81.5586 507.168 81.5691 507.168 81.5795C507.168 81.5899 507.168 81.6003 507.168 81.6107C507.168 81.6211 507.168 81.6315 507.168 81.6419C507.168 81.6523 507.168 81.6627 507.168 81.673C507.168 81.6834 507.168 81.6937 507.168 81.7041C507.168 81.7144 507.168 81.7247 507.168 81.735C507.168 81.7453 507.168 81.7556 507.168 81.7659C507.168 81.7762 507.168 81.7865 507.168 81.7967C507.168 81.807 507.168 81.8173 507.168 81.8275C507.168 81.8377 507.168 81.8479 507.168 81.8582C507.168 81.8684 507.168 81.8786 507.168 81.8888C507.168 81.8989 507.168 81.9091 507.168 81.9193C507.168 81.9294 507.168 81.9396 507.168 81.9497C507.168 81.9598 507.168 81.97 507.168 81.9801C507.168 81.9902 507.168 82.0003 507.168 82.0104C507.168 82.0204 507.168 82.0305 507.168 82.0406C507.168 82.0506 507.168 82.0607 507.168 82.0707C507.168 82.0807 507.168 82.0908 507.168 82.1008C507.168 82.1108 507.168 82.1208 507.168 82.1307C507.168 82.1407 507.168 82.1507 507.168 82.1606C507.168 82.1706 507.168 82.1805 507.168 82.1904C507.168 82.2004 507.168 82.2103 507.168 82.2202C507.168 82.2301 507.168 82.2399 507.168 82.2498C507.168 82.2597 507.168 82.2695 507.168 82.2794C507.168 82.2892 507.168 82.2991 507.168 82.3089C507.168 82.3187 507.168 82.3285 507.168 82.3383C507.168 82.3481 507.168 82.3578 507.168 82.3676C507.168 82.3773 507.168 82.3871 507.168 82.3968C507.168 82.4066 507.168 82.4163 507.168 82.426C507.168 82.4357 507.168 82.4454 507.168 82.455C507.168 82.4647 507.168 82.4744 507.168 82.484C507.168 82.4937 507.168 82.5033 507.168 82.5129C507.168 82.5225 507.168 82.5321 507.168 82.5417C507.168 82.5513 507.168 82.5609 507.168 82.5704C507.168 82.58 507.168 82.5895 507.168 82.5991C507.168 82.6086 507.168 82.6181 507.168 82.6276C507.168 82.6371 507.168 82.6466 507.168 82.6561C507.168 82.6655 507.168 82.675 507.168 82.6844C507.168 82.6939 507.168 82.7033 507.168 82.7127C507.168 82.7221 507.168 82.7315 507.168 82.7409C507.168 82.7503 507.168 82.7596 507.168 82.769C507.168 82.7783 507.168 82.7877 507.168 82.797C507.168 82.8063 507.168 82.8156 507.168 82.8249C507.168 82.8342 507.168 82.8435 507.168 82.8527C507.168 82.862 507.168 82.8712 507.168 82.8805C507.168 82.8897 507.168 82.8989 507.168 82.9081C507.168 82.9173 507.168 82.9265 507.168 82.9356C507.168 82.9448 507.168 82.954 507.168 82.9631C507.168 82.9722 507.168 82.9813 507.168 82.9904C507.168 82.9995 507.168 83.0086 507.168 83.0177C507.168 83.0268 507.168 83.0358 507.168 83.0449C507.168 83.0539 507.168 83.0629 507.168 83.0719C507.168 83.0809 507.168 83.0899 507.168 83.0989C507.168 83.1079 507.168 83.1168 507.168 83.1258C507.168 83.1347 507.168 83.1436 507.168 83.1525C507.168 83.1614 507.168 83.1703 507.168 83.1792C507.168 83.1881 507.168 83.1969 507.168 83.2058C507.168 83.2146 507.168 83.2235 507.168 83.2323C507.168 83.2411 507.168 83.2499 507.168 83.2586C507.168 83.2674 507.168 83.2762 507.168 83.2849C507.168 83.2937 507.168 83.3024 507.168 83.3111C507.168 83.3198 507.168 83.3285 507.168 83.3372C507.168 83.3458 507.168 83.3545 507.168 83.3631C507.168 83.3718 507.168 83.3804 507.168 83.389C507.168 83.3976 507.168 83.4062 507.168 83.4148C507.168 83.4234 507.168 83.4319 507.168 83.4404C507.168 83.449 507.168 83.4575 507.168 83.466C507.168 83.4745 507.168 83.483 507.168 83.4915C507.168 83.4999 507.168 83.5084 507.168 83.5168C507.168 83.5252 507.168 83.5337 507.168 83.5421C507.168 83.5505 507.168 83.5588 507.168 83.5672C507.168 83.5756 507.168 83.5839 507.168 83.5922C507.168 83.6006 507.168 83.6089 507.168 83.6172C507.168 83.6254 507.168 83.6337 507.168 83.642C507.168 83.6502 507.168 83.6585 507.168 83.6667C507.168 83.6749 507.168 83.6831 507.168 83.6913C507.168 83.6995 507.168 83.7076 507.168 83.7158C507.168 83.7239 507.168 83.7321 507.168 83.7402C507.168 83.7483 507.168 83.7564 507.168 83.7644C507.168 83.7725 507.168 83.7806 507.168 83.7886C507.168 83.7966 507.168 83.8046 507.168 83.8126C507.168 83.8206 507.168 83.8286 507.168 83.8366C507.168 83.8445 507.168 83.8525 507.168 83.8604C507.168 83.8683 507.168 83.8762 507.168 83.8841C507.168 83.892 507.168 83.8999 507.168 83.9077C507.168 83.9156 507.168 83.9234 507.168 83.9312C507.168 83.939 507.168 83.9468 507.168 83.9546C507.168 83.9624 507.168 83.9701 507.168 83.9779C507.168 83.9856 507.168 83.9933 507.168 84.001C507.168 84.0087 507.168 84.0164 507.168 84.024C507.168 84.0317 507.168 84.0393 507.168 84.0469C507.168 84.0546 507.168 84.0622 507.168 84.0697C507.168 84.0773 507.168 84.0849 507.168 84.0924C507.168 84.1 507.168 84.1075 507.168 84.115C507.168 84.1225 507.168 84.13 507.168 84.1374C507.168 84.1449 507.168 84.1523 507.168 84.1597C507.168 84.1672 507.168 84.1746 507.168 84.182C507.168 84.1893 507.168 84.1967 507.168 84.204C507.168 84.2114 507.168 84.2187 507.168 84.226C507.168 84.2333 507.168 84.2406 507.168 84.2479C507.168 84.2551 507.168 84.2624 507.168 84.2696C507.168 84.2768 507.168 84.284 507.168 84.2912C507.168 84.2984 507.168 84.3055 507.168 84.3127C507.168 84.3198 507.168 84.3269 507.168 84.334C507.168 84.3411 507.168 84.3482 507.168 84.3552C507.168 84.3623 507.168 84.3693 507.168 84.3764C507.168 84.3834 507.168 84.3904 507.168 84.3973C507.168 84.4043 507.168 84.4113 507.168 84.4182C507.168 84.4251 507.168 84.432 507.168 84.4389C507.168 84.4458 507.168 84.4527 507.168 84.4595C507.168 84.4664 507.168 84.4732 507.168 84.48C507.168 84.4868 507.168 84.4936 507.168 84.5004C507.168 84.5071 507.168 84.5139 507.168 84.5206C507.168 84.5273 507.168 84.534 507.168 84.5407C507.168 84.5474 507.168 84.554 507.168 84.5607C507.168 84.5673 507.168 84.5739 507.168 84.5805C507.168 84.5871 507.168 84.5937 507.168 84.6002C507.168 84.6068 507.168 84.6133 507.168 84.6198C507.168 84.6263 507.168 84.6328 507.168 84.6393C507.168 84.6457 507.168 84.6522 507.168 84.6586C507.168 84.665 507.168 84.6714 507.168 84.6778C507.168 84.6842 507.168 84.6905 507.168 84.6968C507.168 84.7032 507.168 84.7095 507.168 84.7158C507.168 84.7221 507.168 84.7283 507.168 84.7346C507.168 84.7408 507.168 84.747 507.168 84.7532C507.168 84.7594 507.168 84.7656 507.168 84.7718C507.168 84.7779 507.168 84.784 507.168 84.7901C507.168 84.7963 507.168 84.8023 507.168 84.8084C507.168 84.8145 507.168 84.8205 507.168 84.8265C507.168 84.8325 507.168 84.8385 507.168 84.8445C507.168 84.8505 507.168 84.8564 507.168 84.8624C507.168 84.8683 507.168 84.8742 507.168 84.8801C507.168 84.886 507.168 84.8918 507.168 84.8976C507.168 84.9035 507.168 84.9093 507.168 84.9151C507.168 84.9209 507.168 84.9266 507.168 84.9324C507.168 84.9381 507.168 84.9438 507.168 84.9495C507.168 84.9552 507.168 84.9609 507.168 84.9666C507.168 84.9722 507.168 84.9778 507.168 84.9834C507.168 84.989 507.168 84.9946 507.168 85.0002C507.168 85.0057 507.168 85.0113 507.168 85.0168C507.168 85.0223 507.168 85.0278 507.168 85.0332C507.168 85.0387 507.168 85.0441 507.168 85.0495C507.168 85.0549 507.168 85.0603 507.168 85.0657C507.168 85.0711 507.168 85.0764 507.168 85.0817C507.168 85.087 507.168 85.0923 507.168 85.0976C507.168 85.1029 507.168 85.1081 507.168 85.1133C507.168 85.1186 507.168 85.1238 507.168 85.1289C507.168 85.1341 507.168 85.1393 507.168 85.1444C507.168 85.1495 507.168 85.1546 507.168 85.1597C507.168 85.1648 507.168 85.1698 507.168 85.1748C507.168 85.1799 507.168 85.1849 507.168 85.1899C507.168 85.1948 507.168 85.1998 507.168 85.2047C507.168 85.2097 507.168 85.2146 507.168 85.2194C507.168 85.2243 507.168 85.2292 507.168 85.234C507.168 85.2388 507.168 85.2436 507.168 85.2484C507.168 85.2532 507.168 85.258 507.168 85.2627C507.168 85.2674 507.168 85.2721 507.168 85.2768C507.168 85.2815 507.168 85.2861 507.168 85.2908C507.168 85.2954 507.168 85.3 507.168 85.3046C507.168 85.3092 507.168 85.3137 507.168 85.3183C507.168 85.3228 507.168 85.3273 507.168 85.3318C507.168 85.3363 507.168 85.3407 507.168 85.3451C507.168 85.3496 507.168 85.354 507.168 85.3583C507.168 85.3627 507.168 85.3671 507.168 85.3714C507.168 85.3757 507.168 85.38 507.168 85.3843C507.168 85.3886 507.168 85.3928 507.168 85.397C507.168 85.4013 507.168 85.4055 507.168 85.4096C507.168 85.4138 507.168 85.418 507.168 85.4221C507.168 85.4262 507.168 85.4303 507.168 85.4344C507.168 85.4384 507.168 85.4425 507.168 85.4465C507.168 85.4505 507.168 85.4545 507.168 85.4584C507.168 85.4624 507.168 85.4663 507.168 85.4703C507.168 85.4742 507.168 85.4781 507.168 85.4819C507.168 85.4858 507.168 85.4896 507.168 85.4934C507.168 85.4972 507.168 85.501 507.168 85.5047C507.168 85.5085 507.168 85.5122 507.168 85.5159C507.168 85.5196 507.168 85.5233 507.168 85.5269C507.168 85.5306 507.168 85.5342 507.168 85.5378C507.168 85.5414 507.168 85.5449 507.168 85.5485C507.168 85.552 507.168 85.5555 507.168 85.559C507.168 85.5625 507.168 85.5659 507.168 85.5694C507.168 85.5728 507.168 85.5762 507.168 85.5796C507.168 85.583 507.168 85.5863 507.168 85.5896C507.168 85.5929 507.168 85.5962 507.168 85.5995C507.168 85.6028 507.168 85.606 507.168 85.6092C507.168 85.6124 507.168 85.6156 507.168 85.6188C507.168 85.6219 507.168 85.6251 507.168 85.6282C507.168 85.6313 507.168 85.6343 507.168 85.6374C507.168 85.6404 507.168 85.6434 507.168 85.6464C507.168 85.6494 507.168 85.6524 507.168 85.6553C507.168 85.6583 507.168 85.6612 507.168 85.664C507.168 85.6669 507.168 85.6698 507.168 85.6726C507.168 85.6754 507.168 85.6782 507.168 85.681C507.168 85.6837 507.168 85.6865 507.168 85.6892C507.168 85.6919 507.168 85.6946 507.168 85.6972C507.168 85.6999 507.168 85.7025 507.168 85.7051C507.168 85.7077 507.168 85.7103 507.168 85.7128C507.168 85.7154 507.168 85.7179 507.168 85.7204C507.168 85.7228 507.168 85.7253 507.168 85.7277C507.168 85.7302 507.168 85.7325 507.168 85.7349C507.168 85.7373 507.168 85.7396 507.168 85.7419C507.168 85.7443 507.168 85.7465 507.168 85.7488C507.168 85.751 507.168 85.7533 507.168 85.7555C507.168 85.7577 507.168 85.7598 507.168 85.762C507.168 85.7641 507.168 85.7662 507.168 85.7683C507.168 85.7704 507.168 85.7724 507.168 85.7744C507.168 85.7765 507.168 85.7785 507.168 85.7804C507.168 85.7824 507.168 85.7843 507.168 85.7862C507.168 85.7881 507.168 85.79 507.168 85.7918C507.168 85.7937 507.168 85.7955 507.168 85.7973C507.168 85.7991 507.168 85.8008 507.168 85.8026C507.168 85.8043 507.168 85.806 507.168 85.8077C507.168 85.8093 507.168 85.811 507.168 85.8126C507.168 85.8142 507.168 85.8158 507.168 85.8173C507.168 85.8188 507.168 85.8204 507.168 85.8219C507.168 85.8233 507.168 85.8248 507.168 85.8262C507.168 85.8277 507.168 85.8291 507.168 85.8304C507.168 85.8318 507.168 85.8331 507.168 85.8344C507.168 85.8357 507.168 85.837 507.168 85.8383C507.168 85.8395 507.168 85.8407 507.168 85.8419C507.168 85.8431 507.168 85.8443 507.168 85.8454C507.168 85.8465 507.168 85.8476 507.168 85.8487C507.168 85.8497 507.168 85.8508 507.168 85.8518C507.168 85.8528 507.168 85.8538 507.168 85.8547C507.168 85.8556 507.168 85.8565 507.168 85.8574C507.168 85.8583 507.168 85.8592 507.168 85.86C507.168 85.8608 507.168 85.8616 507.168 85.8623C507.168 85.8631 507.168 85.8638 507.168 85.8645C507.168 85.8652 507.168 85.8659 507.168 85.8665C507.168 85.8671 507.168 85.8677 507.168 85.8683C507.168 85.8689 507.168 85.8694 507.168 85.8699C507.168 85.8704 507.168 85.8709 507.168 85.8713C507.168 85.8718 507.168 85.8722 507.168 85.8726C507.168 85.873 507.168 85.8733 507.168 85.8736C507.168 85.874 507.168 85.8742 507.168 85.8745C507.168 85.8747 507.168 85.875 507.168 85.8752C507.168 85.8754 507.168 85.8755 507.168 85.8756C507.168 85.8758 507.168 85.8759 507.168 85.8759C507.168 85.876 507.168 85.876 512.168 85.876C517.168 85.876 517.168 85.876 517.168 85.8759C517.168 85.8759 517.168 85.8758 517.168 85.8756C517.168 85.8755 517.168 85.8754 517.168 85.8752C517.168 85.875 517.168 85.8747 517.168 85.8745C517.168 85.8742 517.168 85.874 517.168 85.8736C517.168 85.8733 517.168 85.873 517.168 85.8726C517.168 85.8722 517.168 85.8718 517.168 85.8713C517.168 85.8709 517.168 85.8704 517.168 85.8699C517.168 85.8694 517.168 85.8689 517.168 85.8683C517.168 85.8677 517.168 85.8671 517.168 85.8665C517.168 85.8659 517.168 85.8652 517.168 85.8645C517.168 85.8638 517.168 85.8631 517.168 85.8623C517.168 85.8616 517.168 85.8608 517.168 85.86C517.168 85.8592 517.168 85.8583 517.168 85.8574C517.168 85.8565 517.168 85.8556 517.168 85.8547C517.168 85.8538 517.168 85.8528 517.168 85.8518C517.168 85.8508 517.168 85.8497 517.168 85.8487C517.168 85.8476 517.168 85.8465 517.168 85.8454C517.168 85.8443 517.168 85.8431 517.168 85.8419C517.168 85.8407 517.168 85.8395 517.168 85.8383C517.168 85.837 517.168 85.8357 517.168 85.8344C517.168 85.8331 517.168 85.8318 517.168 85.8304C517.168 85.8291 517.168 85.8277 517.168 85.8262C517.168 85.8248 517.168 85.8233 517.168 85.8219C517.168 85.8204 517.168 85.8188 517.168 85.8173C517.168 85.8158 517.168 85.8142 517.168 85.8126C517.168 85.811 517.168 85.8093 517.168 85.8077C517.168 85.806 517.168 85.8043 517.168 85.8026C517.168 85.8008 517.168 85.7991 517.168 85.7973C517.168 85.7955 517.168 85.7937 517.168 85.7918C517.168 85.79 517.168 85.7881 517.168 85.7862C517.168 85.7843 517.168 85.7824 517.168 85.7804C517.168 85.7785 517.168 85.7765 517.168 85.7744C517.168 85.7724 517.168 85.7704 517.168 85.7683C517.168 85.7662 517.168 85.7641 517.168 85.762C517.168 85.7598 517.168 85.7577 517.168 85.7555C517.168 85.7533 517.168 85.751 517.168 85.7488C517.168 85.7465 517.168 85.7443 517.168 85.7419C517.168 85.7396 517.168 85.7373 517.168 85.7349C517.168 85.7325 517.168 85.7302 517.168 85.7277C517.168 85.7253 517.168 85.7228 517.168 85.7204C517.168 85.7179 517.168 85.7154 517.168 85.7128C517.168 85.7103 517.168 85.7077 517.168 85.7051C517.168 85.7025 517.168 85.6999 517.168 85.6972C517.168 85.6946 517.168 85.6919 517.168 85.6892C517.168 85.6865 517.168 85.6837 517.168 85.681C517.168 85.6782 517.168 85.6754 517.168 85.6726C517.168 85.6698 517.168 85.6669 517.168 85.664C517.168 85.6612 517.168 85.6583 517.168 85.6553C517.168 85.6524 517.168 85.6494 517.168 85.6464C517.168 85.6434 517.168 85.6404 517.168 85.6374C517.168 85.6343 517.168 85.6313 517.168 85.6282C517.168 85.6251 517.168 85.6219 517.168 85.6188C517.168 85.6156 517.168 85.6124 517.168 85.6092C517.168 85.606 517.168 85.6028 517.168 85.5995C517.168 85.5962 517.168 85.5929 517.168 85.5896C517.168 85.5863 517.168 85.583 517.168 85.5796C517.168 85.5762 517.168 85.5728 517.168 85.5694C517.168 85.5659 517.168 85.5625 517.168 85.559C517.168 85.5555 517.168 85.552 517.168 85.5485C517.168 85.5449 517.168 85.5414 517.168 85.5378C517.168 85.5342 517.168 85.5306 517.168 85.5269C517.168 85.5233 517.168 85.5196 517.168 85.5159C517.168 85.5122 517.168 85.5085 517.168 85.5047C517.168 85.501 517.168 85.4972 517.168 85.4934C517.168 85.4896 517.168 85.4858 517.168 85.4819C517.168 85.4781 517.168 85.4742 517.168 85.4703C517.168 85.4663 517.168 85.4624 517.168 85.4584C517.168 85.4545 517.168 85.4505 517.168 85.4465C517.168 85.4425 517.168 85.4384 517.168 85.4344C517.168 85.4303 517.168 85.4262 517.168 85.4221C517.168 85.418 517.168 85.4138 517.168 85.4096C517.168 85.4055 517.168 85.4013 517.168 85.397C517.168 85.3928 517.168 85.3886 517.168 85.3843C517.168 85.38 517.168 85.3757 517.168 85.3714C517.168 85.3671 517.168 85.3627 517.168 85.3583C517.168 85.354 517.168 85.3496 517.168 85.3451C517.168 85.3407 517.168 85.3363 517.168 85.3318C517.168 85.3273 517.168 85.3228 517.168 85.3183C517.168 85.3137 517.168 85.3092 517.168 85.3046C517.168 85.3 517.168 85.2954 517.168 85.2908C517.168 85.2861 517.168 85.2815 517.168 85.2768C517.168 85.2721 517.168 85.2674 517.168 85.2627C517.168 85.258 517.168 85.2532 517.168 85.2484C517.168 85.2436 517.168 85.2388 517.168 85.234C517.168 85.2292 517.168 85.2243 517.168 85.2194C517.168 85.2146 517.168 85.2097 517.168 85.2047C517.168 85.1998 517.168 85.1948 517.168 85.1899C517.168 85.1849 517.168 85.1799 517.168 85.1748C517.168 85.1698 517.168 85.1648 517.168 85.1597C517.168 85.1546 517.168 85.1495 517.168 85.1444C517.168 85.1393 517.168 85.1341 517.168 85.1289C517.168 85.1238 517.168 85.1186 517.168 85.1133C517.168 85.1081 517.168 85.1029 517.168 85.0976C517.168 85.0923 517.168 85.087 517.168 85.0817C517.168 85.0764 517.168 85.0711 517.168 85.0657C517.168 85.0603 517.168 85.0549 517.168 85.0495C517.168 85.0441 517.168 85.0387 517.168 85.0332C517.168 85.0278 517.168 85.0223 517.168 85.0168C517.168 85.0113 517.168 85.0057 517.168 85.0002C517.168 84.9946 517.168 84.989 517.168 84.9834C517.168 84.9778 517.168 84.9722 517.168 84.9666C517.168 84.9609 517.168 84.9552 517.168 84.9495C517.168 84.9438 517.168 84.9381 517.168 84.9324C517.168 84.9266 517.168 84.9209 517.168 84.9151C517.168 84.9093 517.168 84.9035 517.168 84.8976C517.168 84.8918 517.168 84.886 517.168 84.8801C517.168 84.8742 517.168 84.8683 517.168 84.8624C517.168 84.8564 517.168 84.8505 517.168 84.8445C517.168 84.8385 517.168 84.8325 517.168 84.8265C517.168 84.8205 517.168 84.8145 517.168 84.8084C517.168 84.8023 517.168 84.7963 517.168 84.7901C517.168 84.784 517.168 84.7779 517.168 84.7718C517.168 84.7656 517.168 84.7594 517.168 84.7532C517.168 84.747 517.168 84.7408 517.168 84.7346C517.168 84.7283 517.168 84.7221 517.168 84.7158C517.168 84.7095 517.168 84.7032 517.168 84.6968C517.168 84.6905 517.168 84.6842 517.168 84.6778C517.168 84.6714 517.168 84.665 517.168 84.6586C517.168 84.6522 517.168 84.6457 517.168 84.6393C517.168 84.6328 517.168 84.6263 517.168 84.6198C517.168 84.6133 517.168 84.6068 517.168 84.6002C517.168 84.5937 517.168 84.5871 517.168 84.5805C517.168 84.5739 517.168 84.5673 517.168 84.5607C517.168 84.554 517.168 84.5474 517.168 84.5407C517.168 84.534 517.168 84.5273 517.168 84.5206C517.168 84.5139 517.168 84.5071 517.168 84.5004C517.168 84.4936 517.168 84.4868 517.168 84.48C517.168 84.4732 517.168 84.4664 517.168 84.4595C517.168 84.4527 517.168 84.4458 517.168 84.4389C517.168 84.432 517.168 84.4251 517.168 84.4182C517.168 84.4113 517.168 84.4043 517.168 84.3973C517.168 84.3904 517.168 84.3834 517.168 84.3764C517.168 84.3693 517.168 84.3623 517.168 84.3552C517.168 84.3482 517.168 84.3411 517.168 84.334C517.168 84.3269 517.168 84.3198 517.168 84.3127C517.168 84.3055 517.168 84.2984 517.168 84.2912C517.168 84.284 517.168 84.2768 517.168 84.2696C517.168 84.2624 517.168 84.2551 517.168 84.2479C517.168 84.2406 517.168 84.2333 517.168 84.226C517.168 84.2187 517.168 84.2114 517.168 84.204C517.168 84.1967 517.168 84.1893 517.168 84.182C517.168 84.1746 517.168 84.1672 517.168 84.1597C517.168 84.1523 517.168 84.1449 517.168 84.1374C517.168 84.13 517.168 84.1225 517.168 84.115C517.168 84.1075 517.168 84.1 517.168 84.0924C517.168 84.0849 517.168 84.0773 517.168 84.0697C517.168 84.0622 517.168 84.0546 517.168 84.0469C517.168 84.0393 517.168 84.0317 517.168 84.024C517.168 84.0164 517.168 84.0087 517.168 84.001C517.168 83.9933 517.168 83.9856 517.168 83.9779C517.168 83.9701 517.168 83.9624 517.168 83.9546C517.168 83.9468 517.168 83.939 517.168 83.9312C517.168 83.9234 517.168 83.9156 517.168 83.9077C517.168 83.8999 517.168 83.892 517.168 83.8841C517.168 83.8762 517.168 83.8683 517.168 83.8604C517.168 83.8525 517.168 83.8445 517.168 83.8366C517.168 83.8286 517.168 83.8206 517.168 83.8126C517.168 83.8046 517.168 83.7966 517.168 83.7886C517.168 83.7806 517.168 83.7725 517.168 83.7644C517.168 83.7564 517.168 83.7483 517.168 83.7402C517.168 83.7321 517.168 83.7239 517.168 83.7158C517.168 83.7076 517.168 83.6995 517.168 83.6913C517.168 83.6831 517.168 83.6749 517.168 83.6667C517.168 83.6585 517.168 83.6502 517.168 83.642C517.168 83.6337 517.168 83.6254 517.168 83.6172C517.168 83.6089 517.168 83.6006 517.168 83.5922C517.168 83.5839 517.168 83.5756 517.168 83.5672C517.168 83.5588 517.168 83.5505 517.168 83.5421C517.168 83.5337 517.168 83.5252 517.168 83.5168C517.168 83.5084 517.168 83.4999 517.168 83.4915C517.168 83.483 517.168 83.4745 517.168 83.466C517.168 83.4575 517.168 83.449 517.168 83.4404C517.168 83.4319 517.168 83.4234 517.168 83.4148C517.168 83.4062 517.168 83.3976 517.168 83.389C517.168 83.3804 517.168 83.3718 517.168 83.3631C517.168 83.3545 517.168 83.3458 517.168 83.3372C517.168 83.3285 517.168 83.3198 517.168 83.3111C517.168 83.3024 517.168 83.2937 517.168 83.2849C517.168 83.2762 517.168 83.2674 517.168 83.2586C517.168 83.2499 517.168 83.2411 517.168 83.2323C517.168 83.2235 517.168 83.2146 517.168 83.2058C517.168 83.1969 517.168 83.1881 517.168 83.1792C517.168 83.1703 517.168 83.1614 517.168 83.1525C517.168 83.1436 517.168 83.1347 517.168 83.1258C517.168 83.1168 517.168 83.1079 517.168 83.0989C517.168 83.0899 517.168 83.0809 517.168 83.0719C517.168 83.0629 517.168 83.0539 517.168 83.0449C517.168 83.0358 517.168 83.0268 517.168 83.0177C517.168 83.0086 517.168 82.9995 517.168 82.9904C517.168 82.9813 517.168 82.9722 517.168 82.9631C517.168 82.954 517.168 82.9448 517.168 82.9356C517.168 82.9265 517.168 82.9173 517.168 82.9081C517.168 82.8989 517.168 82.8897 517.168 82.8805C517.168 82.8712 517.168 82.862 517.168 82.8527C517.168 82.8435 517.168 82.8342 517.168 82.8249C517.168 82.8156 517.168 82.8063 517.168 82.797C517.168 82.7877 517.168 82.7783 517.168 82.769C517.168 82.7596 517.168 82.7503 517.168 82.7409C517.168 82.7315 517.168 82.7221 517.168 82.7127C517.168 82.7033 517.168 82.6939 517.168 82.6844C517.168 82.675 517.168 82.6655 517.168 82.6561C517.168 82.6466 517.168 82.6371 517.168 82.6276C517.168 82.6181 517.168 82.6086 517.168 82.5991C517.168 82.5895 517.168 82.58 517.168 82.5704C517.168 82.5609 517.168 82.5513 517.168 82.5417C517.168 82.5321 517.168 82.5225 517.168 82.5129C517.168 82.5033 517.168 82.4937 517.168 82.484C517.168 82.4744 517.168 82.4647 517.168 82.455C517.168 82.4454 517.168 82.4357 517.168 82.426C517.168 82.4163 517.168 82.4066 517.168 82.3968C517.168 82.3871 517.168 82.3773 517.168 82.3676C517.168 82.3578 517.168 82.3481 517.168 82.3383C517.168 82.3285 517.168 82.3187 517.168 82.3089C517.168 82.2991 517.168 82.2892 517.168 82.2794C517.168 82.2695 517.168 82.2597 517.168 82.2498C517.168 82.2399 517.168 82.2301 517.168 82.2202C517.168 82.2103 517.168 82.2004 517.168 82.1904C517.168 82.1805 517.168 82.1706 517.168 82.1606C517.168 82.1507 517.168 82.1407 517.168 82.1307C517.168 82.1208 517.168 82.1108 517.168 82.1008C517.168 82.0908 517.168 82.0807 517.168 82.0707C517.168 82.0607 517.168 82.0506 517.168 82.0406C517.168 82.0305 517.168 82.0204 517.168 82.0104C517.168 82.0003 517.168 81.9902 517.168 81.9801C517.168 81.97 517.168 81.9598 517.168 81.9497C517.168 81.9396 517.168 81.9294 517.168 81.9193C517.168 81.9091 517.168 81.8989 517.168 81.8888C517.168 81.8786 517.168 81.8684 517.168 81.8582C517.168 81.8479 517.168 81.8377 517.168 81.8275C517.168 81.8173 517.168 81.807 517.168 81.7967C517.168 81.7865 517.168 81.7762 517.168 81.7659C517.168 81.7556 517.168 81.7453 517.168 81.735C517.168 81.7247 517.168 81.7144 517.168 81.7041C517.168 81.6937 517.168 81.6834 517.168 81.673C517.168 81.6627 517.168 81.6523 517.168 81.6419C517.168 81.6315 517.168 81.6211 517.168 81.6107C517.168 81.6003 517.168 81.5899 517.168 81.5795C517.168 81.5691 517.168 81.5586 517.168 81.5482C517.168 81.5377 517.168 81.5272 517.168 81.5168C517.168 81.5063 517.168 81.4958 517.168 81.4853C517.168 81.4748 517.168 81.4643 517.168 81.4538C517.168 81.4432 517.168 81.4327 517.168 81.4222C517.168 81.4116 517.168 81.4011 517.168 81.3905C517.168 81.3799 517.168 81.3694 517.168 81.3588C517.168 81.3482 517.168 81.3376 517.168 81.327C517.168 81.3163 517.168 81.3057 517.168 81.2951C517.168 81.2845 517.168 81.2738 517.168 81.2631C517.168 81.2525 517.168 81.2418 517.168 81.2311C517.168 81.2205 517.168 81.2098 517.168 81.1991C517.168 81.1884 517.168 81.1777 517.168 81.1669C517.168 81.1562 517.168 81.1455 517.168 81.1347C517.168 81.124 517.168 81.1132 517.168 81.1025C517.168 81.0917 517.168 81.0809 517.168 81.0702C517.168 81.0594 517.168 81.0486 517.168 81.0378C517.168 81.027 517.168 81.0161 517.168 81.0053C517.168 80.9945 517.168 80.9837 517.168 80.9728C517.168 80.962 517.168 80.9511 517.168 80.9402C517.168 80.9294 517.168 80.9185 517.168 80.9076C517.168 80.8967 517.168 80.8858 517.168 80.8749C517.168 80.864 517.168 80.8531 517.168 80.8422C517.168 80.8312 517.168 80.8203 517.168 80.8094C517.168 80.7984 517.168 80.7875 517.168 80.7765C517.168 80.7655 517.168 80.7545 517.168 80.7436C517.168 80.7326 517.168 80.7216 517.168 80.7106C517.168 80.6996 517.168 80.6886 517.168 80.6775C517.168 80.6665 517.168 80.6555 517.168 80.6444C517.168 80.6334 517.168 80.6223 517.168 80.6113C517.168 80.6002 517.168 80.5891 517.168 80.5781C517.168 80.567 517.168 80.5559 517.168 80.5448C517.168 80.5337 517.168 80.5226 517.168 80.5115C517.168 80.5004 517.168 80.4892 517.168 80.4781C517.168 80.467 517.168 80.4558 517.168 80.4447C517.168 80.4335 517.168 80.4224 517.168 80.4112C517.168 80.4 517.168 80.3889 517.168 80.3777C517.168 80.3665 517.168 80.3553 517.168 80.3441C517.168 80.3329 517.168 80.3217 517.168 80.3105C517.168 80.2992 517.168 80.288 517.168 80.2768C517.168 80.2655 517.168 80.2543 517.168 80.243C517.168 80.2318 517.168 80.2205 517.168 80.2093C517.168 80.198 517.168 80.1867 517.168 80.1754C517.168 80.1641 517.168 80.1528 517.168 80.1415C517.168 80.1302 517.168 80.1189 517.168 80.1076C517.168 80.0963 517.168 80.085 517.168 80.0736C517.168 80.0623 517.168 80.0509 517.168 80.0396C517.168 80.0282 517.168 80.0169 517.168 80.0055C517.168 79.9942 517.168 79.9828 517.168 79.9714C517.168 79.96 517.168 79.9486 517.168 79.9372C517.168 79.9258 517.168 79.9144 517.168 79.903C517.168 79.8916 517.168 79.8802 517.168 79.8688C517.168 79.8573 517.168 79.8459 517.168 79.8345C517.168 79.823 517.168 79.8116 517.168 79.8001C517.168 79.7887 517.168 79.7772 517.168 79.7657C517.168 79.7543 517.168 79.7428 517.168 79.7313C517.168 79.7198 517.168 79.7083 517.168 79.6968C517.168 79.6853 517.168 79.6738 517.168 79.6623C517.168 79.6508 517.168 79.6393 517.168 79.6278C517.168 79.6162 517.168 79.6047 517.168 79.5932C517.168 79.5816 517.168 79.5701 517.168 79.5585C517.168 79.547 517.168 79.5354 517.168 79.5239C517.168 79.5123 517.168 79.5007 517.168 79.4891C517.168 79.4776 517.168 79.466 517.168 79.4544C517.168 79.4428 517.168 79.4312 517.168 79.4196C517.168 79.408 517.168 79.3964 517.168 79.3848C517.168 79.3732 517.168 79.3615 517.168 79.3499C517.168 79.3383 517.168 79.3266 517.168 79.315C517.168 79.3034 517.168 79.2917 517.168 79.2801C517.168 79.2684 517.168 79.2568 517.168 79.2451C517.168 79.2334 517.168 79.2218 517.168 79.2101C517.168 79.1984 517.168 79.1867 517.168 79.175C517.168 79.1634 517.168 79.1517 517.168 79.14C517.168 79.1283 517.168 79.1166 517.168 79.1049C517.168 79.0931 517.168 79.0814 517.168 79.0697C517.168 79.058 517.168 79.0463 517.168 79.0345C517.168 79.0228 517.168 79.0111 517.168 78.9993C517.168 78.9876 517.168 78.9758 517.168 78.9641C517.168 78.9523 517.168 78.9406 517.168 78.9288C517.168 78.917 517.168 78.9053 517.168 78.8935C517.168 78.8817 517.168 78.87 517.168 78.8582C517.168 78.8464 517.168 78.8346 517.168 78.8228C517.168 78.811 517.168 78.7992 517.168 78.7874C517.168 78.7756 517.168 78.7638 517.168 78.752C517.168 78.7402 517.168 78.7284 517.168 78.7166C517.168 78.7047 517.168 78.6929 517.168 78.6811C517.168 78.6693 517.168 78.6574 517.168 78.6456C517.168 78.6338 517.168 78.6219 517.168 78.6101C517.168 78.5982 517.168 78.5864 517.168 78.5745C517.168 78.5627 517.168 78.5508 517.168 78.5389C517.168 78.5271 517.168 78.5152 517.168 78.5033C517.168 78.4915 517.168 78.4796 517.168 78.4677C517.168 78.4558 517.168 78.4439 517.168 78.4321C517.168 78.4202 517.168 78.4083 517.168 78.3964C517.168 78.3845 517.168 78.3726 517.168 78.3607C517.168 78.3488 517.168 78.3369 517.168 78.325C517.168 78.3131 517.168 78.3011 517.168 78.2892C517.168 78.2773 517.168 78.2654 517.168 78.2535C517.168 78.2415 517.168 78.2296 517.168 78.2177C517.168 78.2057 517.168 78.1938 517.168 78.1819C517.168 78.1699 517.168 78.158 517.168 78.146C517.168 78.1341 517.168 78.1222 517.168 78.1102C517.168 78.0983 517.168 78.0863 517.168 78.0743C517.168 78.0624 517.168 78.0504 517.168 78.0385C517.168 78.0265 517.168 78.0145 517.168 78.0026C517.168 77.9906 517.168 77.9786 517.168 77.9667C517.168 77.9547 517.168 77.9427 517.168 77.9307C517.168 77.9187 517.168 77.9068 517.168 77.8948C517.168 77.8828 517.168 77.8708 517.168 77.8588C517.168 77.8468 517.168 77.8348 517.168 77.8228C517.168 77.8108 517.168 77.7988 517.168 77.7868C517.168 77.7748 517.168 77.7628 517.168 77.7508C517.168 77.7388 517.168 77.7268 517.168 77.7148C517.168 77.7028 517.168 77.6908 517.168 77.6788C517.168 77.6668 517.168 77.6548 517.168 77.6427C517.168 77.6307 517.168 77.6187 517.168 77.6067C517.168 77.5947 517.168 77.5826 517.168 77.5706C517.168 77.5586 517.168 77.5466 517.168 77.5345C517.168 77.5225 517.168 77.5105 517.168 77.4984C517.168 77.4864 517.168 77.4744 517.168 77.4623C517.168 77.4503 517.168 77.4383 517.168 77.4262C517.168 77.4142 517.168 77.4022 517.168 77.3901C517.168 77.3781 517.168 77.366 517.168 77.354C517.168 77.3419 517.168 77.3299 517.168 77.3178C517.168 77.3058 517.168 77.2938 517.168 77.2817C517.168 77.2697 517.168 77.2576 517.168 77.2456C517.168 77.2335 517.168 77.2215 517.168 77.2094C517.168 77.1973 517.168 77.1853 517.168 77.1732C517.168 77.1612 517.168 77.1491 517.168 77.1371C517.168 77.125 517.168 77.113 517.168 77.1009C517.168 77.0888 517.168 77.0768 517.168 77.0647C517.168 77.0527 517.168 77.0406 517.168 77.0285C517.168 77.0165 517.168 77.0044 517.168 76.9923C517.168 76.9803 517.168 76.9682 517.168 76.9562C517.168 76.9441 517.168 76.932 517.168 76.92C517.168 76.9079 517.168 76.8958 517.168 76.8838C517.168 76.8717 517.168 76.8596 517.168 76.8476C517.168 76.8355 517.168 76.8235 517.168 76.8114C517.168 76.7993 517.168 76.7873 517.168 76.7752C517.168 76.7631 517.168 76.7511 517.168 76.739C517.168 76.7269 517.168 76.7149 517.168 76.7028C517.168 76.6907 517.168 76.6787 517.168 76.6666C517.168 76.6545 517.168 76.6425 517.168 76.6304C517.168 76.6184 517.168 76.6063 517.168 76.5942C517.168 76.5822 517.168 76.5701 517.168 76.558C517.168 76.546 517.168 76.5339 517.168 76.5219C517.168 76.5098 517.168 76.4977 517.168 76.4857C517.168 76.4736 517.168 76.4616 517.168 76.4495C517.168 76.4375 517.168 76.4254 517.168 76.4133C517.168 76.4013 517.168 76.3892 517.168 76.3772C517.168 76.3651 517.168 76.3531 517.168 76.341C517.168 76.329 517.168 76.3169 517.168 76.3049C517.168 76.2928 517.168 76.2808 517.168 76.2687C517.168 76.2567 517.168 76.2446 517.168 76.2326C517.168 76.2205 517.168 76.2085 517.168 76.1964C517.168 76.1844 517.168 76.1724 517.168 76.1603C517.168 76.1483 517.168 76.1362 517.168 76.1242C517.168 76.1122 517.168 76.1001 517.168 76.0881C517.168 76.0761 517.168 76.064 517.168 76.052C517.168 76.04 517.168 76.028 517.168 76.0159C517.168 76.0039 517.168 75.9919 517.168 75.9799C517.168 75.9678 517.168 75.9558 517.168 75.9438C517.168 75.9318 517.168 75.9198 517.168 75.9077C517.168 75.8957 517.168 75.8837 517.168 75.8717C517.168 75.8597 517.168 75.8477 517.168 75.8357C517.168 75.8237 517.168 75.8117 517.168 75.7997C517.168 75.7877 517.168 75.7757 517.168 75.7637C517.168 75.7517 517.168 75.7397 517.168 75.7277C517.168 75.7157 517.168 75.7037 517.168 75.6917C517.168 75.6797 517.168 75.6677 517.168 75.6558C517.168 75.6438 517.168 75.6318 517.168 75.6198C517.168 75.6079 517.168 75.5959 517.168 75.5839C517.168 75.5719 517.168 75.56 517.168 75.548C517.168 75.536 517.168 75.5241 517.168 75.5121C517.168 75.5002 517.168 75.4882 517.168 75.4763C517.168 75.4643 517.168 75.4524 517.168 75.4404C517.168 75.4285 517.168 75.4165 517.168 75.4046C517.168 75.3926 517.168 75.3807 517.168 75.3688C517.168 75.3568 517.168 75.3449 517.168 75.333C517.168 75.321 517.168 75.3091 517.168 75.2972C517.168 75.2853 517.168 75.2734 517.168 75.2615C517.168 75.2495 517.168 75.2376 517.168 75.2257C517.168 75.2138 517.168 75.2019 517.168 75.19C517.168 75.1781 517.168 75.1662 517.168 75.1543C517.168 75.1425 517.168 75.1306 517.168 75.1187C517.168 75.1068 517.168 75.0949 517.168 75.083C517.168 75.0712 517.168 75.0593 517.168 75.0474C517.168 75.0356 517.168 75.0237 517.168 75.0119C517.168 75 517.168 74.9881 517.168 74.9763C517.168 74.9644 517.168 74.9526 517.168 74.9408C517.168 74.9289 517.168 74.9171 517.168 74.9052C517.168 74.8934 517.168 74.8816 517.168 74.8698C517.168 74.8579 517.168 74.8461 517.168 74.8343C517.168 74.8225 517.168 74.8107 517.168 74.7989C517.168 74.7871 517.168 74.7753 517.168 74.7635C517.168 74.7517 517.168 74.7399 517.168 74.7281C517.168 74.7163 517.168 74.7045 517.168 74.6928C517.168 74.681 517.168 74.6692 517.168 74.6575C517.168 74.6457 517.168 74.6339 517.168 74.6222C517.168 74.6104 517.168 74.5987 517.168 74.5869C517.168 74.5752 517.168 74.5634 517.168 74.5517C517.168 74.54 517.168 74.5282 517.168 74.5165C517.168 74.5048 517.168 74.4931 517.168 74.4814C517.168 74.4696 517.168 74.4579 517.168 74.4462C517.168 74.4345 517.168 74.4228 517.168 74.4111C517.168 74.3994 517.168 74.3878 517.168 74.3761C517.168 74.3644 517.168 74.3527 517.168 74.3411C517.168 74.3294 517.168 74.3177 517.168 74.3061C517.168 74.2944 517.168 74.2828 517.168 74.2711C517.168 74.2595 517.168 74.2478 517.168 74.2362C517.168 74.2246 517.168 74.213 517.168 74.2013C517.168 74.1897 517.168 74.1781 517.168 74.1665C517.168 74.1549 517.168 74.1433 517.168 74.1317C517.168 74.1201 517.168 74.1085 517.168 74.0969C517.168 74.0853 517.168 74.0738 517.168 74.0622C517.168 74.0506 517.168 74.0391 517.168 74.0275C517.168 74.0159 517.168 74.0044 517.168 73.9929C517.168 73.9813 517.168 73.9698 517.168 73.9582C517.168 73.9467 517.168 73.9352 517.168 73.9237C517.168 73.9122 517.168 73.9006 517.168 73.8891C517.168 73.8776 517.168 73.8661 517.168 73.8547C517.168 73.8432 517.168 73.8317 517.168 73.8202C517.168 73.8087 517.168 73.7973 517.168 73.7858C517.168 73.7743 517.168 73.7629 517.168 73.7514C517.168 73.74 517.168 73.7286 517.168 73.7171C517.168 73.7057 517.168 73.6943 517.168 73.6829C517.168 73.6714 517.168 73.66 517.168 73.6486C517.168 73.6372 517.168 73.6258 517.168 73.6145C517.168 73.6031 517.168 73.5917 517.168 73.5803C517.168 73.5689 517.168 73.5576 517.168 73.5462C517.168 73.5349 517.168 73.5235 517.168 73.5122C517.168 73.5008 517.168 73.4895 517.168 73.4782C517.168 73.4669 517.168 73.4555 517.168 73.4442C517.168 73.4329 517.168 73.4216 517.168 73.4103C517.168 73.399 517.168 73.3878 517.168 73.3765C517.168 73.3652 517.168 73.3539 517.168 73.3427C517.168 73.3314 517.168 73.3202 517.168 73.3089C517.168 73.2977 517.168 73.2864 517.168 73.2752C517.168 73.264 517.168 73.2528 517.168 73.2416C517.168 73.2304 517.168 73.2192 517.168 73.208C517.168 73.1968 517.168 73.1856 517.168 73.1744C517.168 73.1632 517.168 73.1521 517.168 73.1409C517.168 73.1298 517.168 73.1186 517.168 73.1075C517.168 73.0963 517.168 73.0852 517.168 73.0741C517.168 73.063 517.168 73.0518 517.168 73.0407C517.168 73.0296 517.168 73.0185 517.168 73.0075C517.168 72.9964 517.168 72.9853 517.168 72.9742C517.168 72.9632 517.168 72.9521 517.168 72.9411C517.168 72.93 517.168 72.919 517.168 72.9079C517.168 72.8969 517.168 72.8859 517.168 72.8749C517.168 72.8639 517.168 72.8529 517.168 72.8419C517.168 72.8309 517.168 72.8199 517.168 72.8089C517.168 72.7979 517.168 72.787 517.168 72.776C517.168 72.7651 517.168 72.7541 517.168 72.7432C517.168 72.7323 517.168 72.7213 517.168 72.7104C517.168 72.6995 517.168 72.6886 517.168 72.6777C517.168 72.6668 517.168 72.6559 517.168 72.6451C517.168 72.6342 517.168 72.6233 517.168 72.6125C517.168 72.6016 517.168 72.5908 517.168 72.5799C517.168 72.5691 517.168 72.5583 517.168 72.5475C517.168 72.5366 517.168 72.5258 517.168 72.5151C517.168 72.5043 517.168 72.4935 517.168 72.4827C517.168 72.4719 517.168 72.4612 517.168 72.4504C517.168 72.4397 517.168 72.4289 517.168 72.4182C517.168 72.4075 517.168 72.3968 517.168 72.386C517.168 72.3753 517.168 72.3646 517.168 72.354C517.168 72.3433 517.168 72.3326 517.168 72.3219C517.168 72.3113 517.168 72.3006 517.168 72.29C517.168 72.2793 517.168 72.2687 517.168 72.2581C517.168 72.2474 517.168 72.2368 517.168 72.2262C517.168 72.2156 517.168 72.2051 517.168 72.1945C517.168 72.1839 517.168 72.1733 517.168 72.1628C517.168 72.1522 517.168 72.1417 517.168 72.1312C517.168 72.1206 517.168 72.1101 517.168 72.0996H507.168Z" fill="black"/>
<path d="M490.316 91.5762C498.67 86.3357 502.309 84.6809 512.168 84.4504C519.12 84.2879 525.469 86.3506 529.27 88.2508C535.921 91.5762 542.096 96.9844 546.847 103.927C553.022 112.953 556.611 117.401 563.948 125.78C570.115 132.82 575.715 137.101 583.426 142.406C595.592 150.778 602.263 153.443 615.729 159.508C626.503 164.361 632.356 165.209 642.807 173.285C651.409 179.932 656.583 184.741 656.583 195.612C656.583 197.512 635.509 181.456 619.529 173.285C577.725 151.907 512.168 115.329 512.168 115.329C512.168 115.329 443.761 154.758 396.731 177.56C384.763 183.363 367.278 197.987 367.278 196.087C367.278 185.161 375.635 176.429 386.28 170.909C399.106 164.259 409.781 159.29 422.859 151.907C439.487 142.521 447.836 139.282 461.338 125.78C467.988 119.129 469.782 114.636 475.114 107.253C481.29 98.7019 483.426 95.8979 490.316 91.5762Z" fill="black"/>
<path d="M386.663 177.561L638.358 178.272" stroke="black" stroke-width="10" stroke-linecap="round"/>
<rect x="484.595" y="40.4531" width="23.9189" height="13.668" fill="#969598"/>
<path d="M514.526 238.893C483.994 237.734 473.005 238.891 447.329 238.893C437.922 238.894 441.954 306.091 441.954 351.783C441.954 376.871 438.247 398.215 429.858 417.638C421.47 437.061 415.586 441.3 407.011 460.642C390.03 498.944 384.932 531.872 380.133 565.468C375.333 599.065 374.757 670.251 374.757 734.806C374.757 799.361 367.6 853.372 365.35 932.361C364.244 971.183 365.349 1026.44 374.757 1041.22C379.032 1047.94 408.355 1051.97 424.482 1051.97C450.724 1051.97 479.199 1053.32 480.928 1047.94C493.023 1010.31 498.503 955.369 499.743 896.075C502.204 778.308 514.526 595.037 514.526 595.037C514.526 595.037 521.169 778.837 530.653 896.075C535.437 955.211 540.061 1025.1 545.436 1043.91C547.24 1050.22 646.698 1047.57 648.919 1041.22C658.327 1014.35 655.993 977.586 658.327 932.361C662.384 853.74 658.096 809.459 655.639 730.772C653.621 666.144 653.611 629.845 647.575 565.468C643.543 522.464 639.741 498.744 622.04 460.642C613.015 441.213 604.955 431.127 597.85 410.918C589.795 388.008 589.203 375.976 587.098 351.783C583.319 308.335 591.13 242.926 581.723 240.237C561.008 234.314 538.651 239.809 514.526 238.893Z" fill="#76A5DB" stroke="#76A5DB" stroke-width="2" stroke-linecap="round"/>
<path d="M542.748 1045.25C537.373 1043.1 536.029 1022.41 540.061 1021.06C548.124 1018.38 574.209 1023.75 597.85 1023.75C621.491 1023.75 650.263 1017.03 654.295 1021.06C657.72 1024.49 657.985 1040.72 648.919 1045.25C640.855 1049.29 614.616 1049.51 592.474 1049.29C572.421 1049.09 556.188 1050.63 542.748 1045.25Z" fill="#A7C0DE" stroke="#A7C0DE" stroke-width="2" stroke-linecap="round"/>
<path d="M484.538 1048.26C490.09 1046.02 491.127 1025.3 486.912 1024.03C478.481 1021.49 451.451 1027.33 426.869 1027.76C402.287 1028.19 372.252 1021.99 368.13 1026.09C364.628 1029.58 364.634 1045.81 374.14 1050.18C382.595 1054.07 409.883 1053.81 432.903 1053.19C453.751 1052.63 470.657 1053.88 484.538 1048.26Z" fill="#A7C0DE" stroke="#A7C0DE" stroke-width="2" stroke-linecap="round"/>
<path d="M468.055 350.339C468.055 331.445 464.733 299.269 470.743 299.269C478.807 299.269 495.904 301.957 513.749 301.957C530.019 301.957 548.691 296.17 555.411 301.957C562.13 307.744 556.755 331.445 556.755 350.339C556.755 365.559 558.099 361.09 555.411 373.185C553.619 381.249 518.209 394.688 513.749 394.688C506.113 394.688 468.055 381.791 468.055 373.185L468.055 350.339Z" fill="#A7C0DE" stroke="#A7C0DE" stroke-width="2" stroke-linecap="round"/>
<path d="M515.472 485.244C515.472 521.911 509.533 589.605 515.472 586.785C528.157 580.76 535.264 563.8 535.264 552.937C535.264 537.423 539.222 524.732 535.264 485.244C534.982 482.423 515.472 479.737 515.472 485.244Z" fill="#6799D2"/>
<path d="M615.757 530.886C597.583 518.758 589.437 502.203 588.134 482.234C588.034 480.7 629.102 481.004 634.132 483.218C639.162 485.432 647.81 528.931 647.81 541.31C647.81 545.209 626.705 538.193 615.757 530.886Z" fill="#6799D2"/>
<path d="M415.843 522.794C434.684 511.732 443.77 495.674 446.222 475.813C446.41 474.287 405.392 472.227 400.243 474.147C395.094 476.067 383.956 518.996 383.243 531.355C383.018 535.247 404.492 529.458 415.843 522.794Z" fill="#6799D2"/>
<path d="M404.27 461.885C406.926 455.869 408.302 449.79 410.989 449.79C435.217 449.79 473.149 456.24 513.128 457.853C555.081 459.547 596.452 457.853 621.987 457.853C624.675 457.853 627.135 464.676 628.706 468.605C631.394 475.324 634.936 483.298 634.082 483.388C608.548 486.076 562.806 484.947 517.16 483.388C470.954 481.81 416.365 476.669 400.238 475.325C398.894 475.213 402.459 465.988 404.27 461.885Z" fill="#6799D2"/>
<path d="M570.622 185.579C576.098 167.419 580.029 154.668 582.717 141.229C583.255 138.541 608.4 146.613 608.252 147.948C606.908 160.044 601.778 174.179 597.5 190.954C593.883 205.139 592.125 217.833 588.093 227.24C586.94 229.928 581.188 226.515 574.654 224.553C568.119 222.59 563.902 221.865 563.902 219.177C563.902 212.325 566.788 198.291 570.622 185.579Z" fill="#76A5DB"/>
<path d="M562.558 229.391L555.838 227.241L559.87 213.801L593.468 225.897L589.437 237.992L580.029 234.982M562.558 229.391L563.902 246.856L570.622 248.2L580.029 234.982M562.558 229.391L580.029 234.982" stroke="black" stroke-width="3.5" stroke-linejoin="round"/>
<path d="M580.029 234.76L562.558 229.384L563.902 246.855L570.622 248.199L580.029 234.76Z" fill="black"/>
<circle cx="566.59" cy="250.887" r="8.06359" fill="#D5D7DF"/>
<circle cx="566.59" cy="250.887" r="4.83816" fill="black"/>
<path d="M453.7 185.579C448.224 167.419 444.292 154.668 441.605 141.229C441.067 138.541 415.922 146.613 416.07 147.948C417.414 160.044 422.544 174.179 426.821 190.954C430.439 205.139 432.197 217.833 436.229 227.24C437.381 229.928 443.134 226.515 449.668 224.553C456.203 222.59 460.42 221.865 460.42 219.177C460.42 212.325 457.534 198.291 453.7 185.579Z" fill="#76A5DB"/>
<path d="M461.764 229.391L468.483 227.241L464.452 213.801L430.853 225.897L434.885 237.992L444.293 234.982M461.764 229.391L460.42 246.856L453.7 248.2L444.293 234.982M461.764 229.391L444.293 234.982" stroke="black" stroke-width="3.5" stroke-linejoin="round"/>
<path d="M444.293 234.76L461.764 229.384L460.42 246.855L453.7 248.199L444.293 234.76Z" fill="black"/>
<circle r="8.06359" transform="matrix(-1 0 0 1 457.732 250.887)" fill="#D5D7DF"/>
<circle r="4.83816" transform="matrix(-1 0 0 1 457.732 250.887)" fill="black"/>
</g>
<defs>
<clipPath id="clip0_1_1639">
<rect width="1366" height="1024" fill="white" transform="translate(0 1366) rotate(-90)"/>
</clipPath>
</defs>
</svg>
