<svg width="1024" height="1366" viewBox="0 0 1024 1366" fill="none" xmlns="http://www.w3.org/2000/svg">
<g clip-path="url(#clip0_4_3247)">
<rect width="1366" height="1024" transform="translate(0 1366) rotate(-90)" fill="#54545A"/>
<rect x="-340" y="40" width="1546" height="14.05" fill="#969598"/>
<path d="M387.51 497.681C391.674 482.404 393.018 473.259 400.333 459.214C441.454 380.26 584.174 381.029 624.011 460.64C632.048 476.701 639.791 503.99 641.108 521.902C648.231 618.782 652.873 653.596 649.656 749.855C648.017 798.903 642.923 826.187 641.108 875.229C638.947 933.609 643.234 966.442 641.108 1024.82C639.302 1074.42 641.114 1102.73 632.56 1151.62C630.604 1162.8 632.56 1171.57 628.286 1181.54C626.094 1186.65 623.876 1191.51 618.313 1191.51H548.502C538.529 1191.51 535.68 1185.82 532.83 1177.27C528.556 1164.44 528.556 1147.68 528.556 1125.98C528.556 1069.78 531.337 1042.48 528.556 986.356C526.372 942.284 524.657 912.195 522.857 868.105C521.314 830.303 524.331 809.031 522.857 771.225C520.636 714.245 508.61 625.905 508.61 625.905C508.61 625.905 504.45 717.088 501.487 775.499C496.912 865.656 490.598 916.05 488.664 1006.3C487.449 1063.04 488.663 1098.91 487.239 1153.05C486.937 1164.51 485.814 1170.14 482.965 1181.54C481.53 1187.28 477.471 1191.14 471.568 1191.51C448.772 1192.94 430.251 1191.51 400.333 1191.51C396.058 1191.51 394.423 1187.7 391.784 1181.54L391.784 1181.54C387.509 1171.57 388.488 1162.71 387.51 1151.62C383.237 1103.18 380.387 1074.37 380.387 1024.82C380.387 942.19 373.702 898.217 371.839 816.816C369.852 730.014 366.084 680.958 374.688 594.562C378.469 556.585 377.475 534.502 387.51 497.681Z" fill="#7E8763" stroke="#7E8763"/>
<path d="M551.405 110.829L473.046 115.103L457.374 207.709L511.513 303.165L559.953 239.053L589.872 157.844L551.405 110.829Z" fill="#474D36" stroke="black"/>
<path d="M495.841 85.1835C483.442 86.1986 464.498 90.8823 464.498 90.8823L468.772 116.527C468.772 116.527 500.002 113.41 520.061 113.678C536.233 113.894 561.378 116.527 561.378 116.527L564.227 93.7317C564.227 93.7317 546.191 88.3603 534.308 86.6082C519.437 84.4151 510.824 83.9569 495.841 85.1835Z" fill="#5C6348" stroke="#5C6348" stroke-width="5"/>
<path d="M494.458 51.6386C494.291 54.3949 496.39 56.7648 499.146 56.9318C501.903 57.0988 504.273 54.9997 504.44 52.2433L494.458 51.6386ZM518.914 33.4028L518.973 38.4025L518.914 33.4028ZM538.842 51.941L543.837 51.6973L538.842 51.941ZM513.914 84.3827C513.914 87.1442 516.152 89.3827 518.914 89.3827C521.675 89.3827 523.914 87.1442 523.914 84.3827H513.914ZM504.44 52.2433C504.916 44.3817 511.097 38.4949 518.973 38.4025L518.855 28.4031C505.737 28.5572 495.251 38.5438 494.458 51.6386L504.44 52.2433ZM518.973 38.4025C526.988 38.3083 533.465 44.3296 533.848 52.1846L543.837 51.6973C543.184 38.3191 532.097 28.2476 518.855 28.4031L518.973 38.4025ZM533.848 52.1846C534.033 55.9675 533.136 58.3004 532.046 59.8311C530.91 61.4278 529.247 62.5905 527.244 63.4557C525.224 64.3279 523.094 64.7983 521.241 65.1439C520.45 65.2914 519.386 65.471 518.676 65.6362C518.342 65.7139 517.691 65.8723 517.042 66.174C516.725 66.3213 516.089 66.6448 515.47 67.2523C514.795 67.9155 513.914 69.1654 513.914 70.9426H523.914C523.914 72.6328 523.074 73.8013 522.477 74.387C521.937 74.9171 521.419 75.1671 521.254 75.2437C520.909 75.4036 520.707 75.4308 520.94 75.3764C521.367 75.2772 521.925 75.1888 523.075 74.9743C525.104 74.5958 528.13 73.9655 531.208 72.6363C534.302 71.3 537.68 69.1607 540.193 65.6304C542.753 62.0342 544.115 57.4153 543.837 51.6973L533.848 52.1846ZM513.914 70.9426C513.914 70.9528 513.914 70.9631 513.914 70.9734C513.914 70.9836 513.914 70.9939 513.914 71.0042C513.914 71.0145 513.914 71.0248 513.914 71.0351C513.914 71.0455 513.914 71.0558 513.914 71.0661C513.914 71.0765 513.914 71.0868 513.914 71.0972C513.914 71.1075 513.914 71.1179 513.914 71.1283C513.914 71.1387 513.914 71.1491 513.914 71.1595C513.914 71.1699 513.914 71.1803 513.914 71.1907C513.914 71.2011 513.914 71.2116 513.914 71.222C513.914 71.2325 513.914 71.2429 513.914 71.2534C513.914 71.2639 513.914 71.2743 513.914 71.2848C513.914 71.2953 513.914 71.3058 513.914 71.3163C513.914 71.3268 513.914 71.3374 513.914 71.3479C513.914 71.3584 513.914 71.369 513.914 71.3795C513.914 71.3901 513.914 71.4006 513.914 71.4112C513.914 71.4218 513.914 71.4323 513.914 71.4429C513.914 71.4535 513.914 71.4641 513.914 71.4747C513.914 71.4853 513.914 71.4959 513.914 71.5066C513.914 71.5172 513.914 71.5278 513.914 71.5385C513.914 71.5491 513.914 71.5598 513.914 71.5705C513.914 71.5811 513.914 71.5918 513.914 71.6025C513.914 71.6132 513.914 71.6239 513.914 71.6346C513.914 71.6453 513.914 71.656 513.914 71.6667C513.914 71.6774 513.914 71.6882 513.914 71.6989C513.914 71.7097 513.914 71.7204 513.914 71.7312C513.914 71.7419 513.914 71.7527 513.914 71.7635C513.914 71.7743 513.914 71.7851 513.914 71.7959C513.914 71.8067 513.914 71.8175 513.914 71.8283C513.914 71.8391 513.914 71.8499 513.914 71.8607C513.914 71.8716 513.914 71.8824 513.914 71.8933C513.914 71.9041 513.914 71.915 513.914 71.9258C513.914 71.9367 513.914 71.9476 513.914 71.9585C513.914 71.9694 513.914 71.9803 513.914 71.9912C513.914 72.0021 513.914 72.013 513.914 72.0239C513.914 72.0348 513.914 72.0457 513.914 72.0567C513.914 72.0676 513.914 72.0785 513.914 72.0895C513.914 72.1005 513.914 72.1114 513.914 72.1224C513.914 72.1333 513.914 72.1443 513.914 72.1553C513.914 72.1663 513.914 72.1773 513.914 72.1883C513.914 72.1993 513.914 72.2103 513.914 72.2213C513.914 72.2323 513.914 72.2434 513.914 72.2544C513.914 72.2654 513.914 72.2765 513.914 72.2875C513.914 72.2986 513.914 72.3096 513.914 72.3207C513.914 72.3317 513.914 72.3428 513.914 72.3539C513.914 72.365 513.914 72.3761 513.914 72.3871C513.914 72.3982 513.914 72.4093 513.914 72.4205C513.914 72.4316 513.914 72.4427 513.914 72.4538C513.914 72.4649 513.914 72.4761 513.914 72.4872C513.914 72.4983 513.914 72.5095 513.914 72.5206C513.914 72.5318 513.914 72.5429 513.914 72.5541C513.914 72.5653 513.914 72.5764 513.914 72.5876C513.914 72.5988 513.914 72.61 513.914 72.6212C513.914 72.6324 513.914 72.6436 513.914 72.6548C513.914 72.666 513.914 72.6772 513.914 72.6884C513.914 72.6997 513.914 72.7109 513.914 72.7221C513.914 72.7334 513.914 72.7446 513.914 72.7558C513.914 72.7671 513.914 72.7784 513.914 72.7896C513.914 72.8009 513.914 72.8121 513.914 72.8234C513.914 72.8347 513.914 72.846 513.914 72.8573C513.914 72.8685 513.914 72.8798 513.914 72.8911C513.914 72.9024 513.914 72.9137 513.914 72.9251C513.914 72.9364 513.914 72.9477 513.914 72.959C513.914 72.9703 513.914 72.9817 513.914 72.993C513.914 73.0043 513.914 73.0157 513.914 73.027C513.914 73.0384 513.914 73.0497 513.914 73.0611C513.914 73.0725 513.914 73.0838 513.914 73.0952C513.914 73.1066 513.914 73.1179 513.914 73.1293C513.914 73.1407 513.914 73.1521 513.914 73.1635C513.914 73.1749 513.914 73.1863 513.914 73.1977C513.914 73.2091 513.914 73.2205 513.914 73.2319C513.914 73.2433 513.914 73.2548 513.914 73.2662C513.914 73.2776 513.914 73.2891 513.914 73.3005C513.914 73.3119 513.914 73.3234 513.914 73.3348C513.914 73.3463 513.914 73.3577 513.914 73.3692C513.914 73.3806 513.914 73.3921 513.914 73.4036C513.914 73.415 513.914 73.4265 513.914 73.438C513.914 73.4495 513.914 73.461 513.914 73.4724C513.914 73.4839 513.914 73.4954 513.914 73.5069C513.914 73.5184 513.914 73.5299 513.914 73.5414C513.914 73.5529 513.914 73.5644 513.914 73.576C513.914 73.5875 513.914 73.599 513.914 73.6105C513.914 73.6221 513.914 73.6336 513.914 73.6451C513.914 73.6567 513.914 73.6682 513.914 73.6797C513.914 73.6913 513.914 73.7028 513.914 73.7144C513.914 73.7259 513.914 73.7375 513.914 73.749C513.914 73.7606 513.914 73.7722 513.914 73.7837C513.914 73.7953 513.914 73.8069 513.914 73.8185C513.914 73.83 513.914 73.8416 513.914 73.8532C513.914 73.8648 513.914 73.8764 513.914 73.888C513.914 73.8996 513.914 73.9112 513.914 73.9228C513.914 73.9344 513.914 73.946 513.914 73.9576C513.914 73.9692 513.914 73.9808 513.914 73.9924C513.914 74.004 513.914 74.0156 513.914 74.0273C513.914 74.0389 513.914 74.0505 513.914 74.0621C513.914 74.0738 513.914 74.0854 513.914 74.097C513.914 74.1087 513.914 74.1203 513.914 74.1319C513.914 74.1436 513.914 74.1552 513.914 74.1669C513.914 74.1785 513.914 74.1902 513.914 74.2018C513.914 74.2135 513.914 74.2252 513.914 74.2368C513.914 74.2485 513.914 74.2601 513.914 74.2718C513.914 74.2835 513.914 74.2951 513.914 74.3068C513.914 74.3185 513.914 74.3302 513.914 74.3418C513.914 74.3535 513.914 74.3652 513.914 74.3769C513.914 74.3886 513.914 74.4003 513.914 74.4119C513.914 74.4236 513.914 74.4353 513.914 74.447C513.914 74.4587 513.914 74.4704 513.914 74.4821C513.914 74.4938 513.914 74.5055 513.914 74.5172C513.914 74.5289 513.914 74.5406 513.914 74.5523C513.914 74.564 513.914 74.5758 513.914 74.5875C513.914 74.5992 513.914 74.6109 513.914 74.6226C513.914 74.6343 513.914 74.646 513.914 74.6578C513.914 74.6695 513.914 74.6812 513.914 74.6929C513.914 74.7047 513.914 74.7164 513.914 74.7281C513.914 74.7398 513.914 74.7516 513.914 74.7633C513.914 74.775 513.914 74.7868 513.914 74.7985C513.914 74.8103 513.914 74.822 513.914 74.8337C513.914 74.8455 513.914 74.8572 513.914 74.869C513.914 74.8807 513.914 74.8924 513.914 74.9042C513.914 74.9159 513.914 74.9277 513.914 74.9394C513.914 74.9512 513.914 74.9629 513.914 74.9747C513.914 74.9864 513.914 74.9982 513.914 75.0099C513.914 75.0217 513.914 75.0334 513.914 75.0452C513.914 75.057 513.914 75.0687 513.914 75.0805C513.914 75.0922 513.914 75.104 513.914 75.1157C513.914 75.1275 513.914 75.1393 513.914 75.151C513.914 75.1628 513.914 75.1745 513.914 75.1863C513.914 75.1981 513.914 75.2098 513.914 75.2216C513.914 75.2334 513.914 75.2451 513.914 75.2569C513.914 75.2687 513.914 75.2804 513.914 75.2922C513.914 75.304 513.914 75.3157 513.914 75.3275C513.914 75.3393 513.914 75.351 513.914 75.3628C513.914 75.3746 513.914 75.3863 513.914 75.3981C513.914 75.4099 513.914 75.4217 513.914 75.4334C513.914 75.4452 513.914 75.457 513.914 75.4687C513.914 75.4805 513.914 75.4923 513.914 75.504C513.914 75.5158 513.914 75.5276 513.914 75.5394C513.914 75.5511 513.914 75.5629 513.914 75.5747C513.914 75.5864 513.914 75.5982 513.914 75.61C513.914 75.6217 513.914 75.6335 513.914 75.6453C513.914 75.6571 513.914 75.6688 513.914 75.6806C513.914 75.6924 513.914 75.7041 513.914 75.7159C513.914 75.7277 513.914 75.7394 513.914 75.7512C513.914 75.763 513.914 75.7747 513.914 75.7865C513.914 75.7983 513.914 75.81 513.914 75.8218C513.914 75.8336 513.914 75.8453 513.914 75.8571C513.914 75.8688 513.914 75.8806 513.914 75.8924C513.914 75.9041 513.914 75.9159 513.914 75.9277C513.914 75.9394 513.914 75.9512 513.914 75.9629C513.914 75.9747 513.914 75.9864 513.914 75.9982C513.914 76.0099 513.914 76.0217 513.914 76.0335C513.914 76.0452 513.914 76.057 513.914 76.0687C513.914 76.0805 513.914 76.0922 513.914 76.104C513.914 76.1157 513.914 76.1274 513.914 76.1392C513.914 76.1509 513.914 76.1627 513.914 76.1744C513.914 76.1862 513.914 76.1979 513.914 76.2096C513.914 76.2214 513.914 76.2331 513.914 76.2449C513.914 76.2566 513.914 76.2683 513.914 76.2801C513.914 76.2918 513.914 76.3035 513.914 76.3152C513.914 76.327 513.914 76.3387 513.914 76.3504C513.914 76.3621 513.914 76.3739 513.914 76.3856C513.914 76.3973 513.914 76.409 513.914 76.4207C513.914 76.4325 513.914 76.4442 513.914 76.4559C513.914 76.4676 513.914 76.4793 513.914 76.491C513.914 76.5027 513.914 76.5144 513.914 76.5261C513.914 76.5378 513.914 76.5495 513.914 76.5612C513.914 76.5729 513.914 76.5846 513.914 76.5963C513.914 76.608 513.914 76.6197 513.914 76.6314C513.914 76.6431 513.914 76.6547 513.914 76.6664C513.914 76.6781 513.914 76.6898 513.914 76.7015C513.914 76.7131 513.914 76.7248 513.914 76.7365C513.914 76.7482 513.914 76.7598 513.914 76.7715C513.914 76.7832 513.914 76.7948 513.914 76.8065C513.914 76.8181 513.914 76.8298 513.914 76.8414C513.914 76.8531 513.914 76.8647 513.914 76.8764C513.914 76.888 513.914 76.8997 513.914 76.9113C513.914 76.923 513.914 76.9346 513.914 76.9462C513.914 76.9579 513.914 76.9695 513.914 76.9811C513.914 76.9927 513.914 77.0044 513.914 77.016C513.914 77.0276 513.914 77.0392 513.914 77.0508C513.914 77.0624 513.914 77.0741 513.914 77.0857C513.914 77.0973 513.914 77.1089 513.914 77.1205C513.914 77.1321 513.914 77.1437 513.914 77.1552C513.914 77.1668 513.914 77.1784 513.914 77.19C513.914 77.2016 513.914 77.2132 513.914 77.2247C513.914 77.2363 513.914 77.2479 513.914 77.2594C513.914 77.271 513.914 77.2826 513.914 77.2941C513.914 77.3057 513.914 77.3172 513.914 77.3288C513.914 77.3403 513.914 77.3519 513.914 77.3634C513.914 77.375 513.914 77.3865 513.914 77.398C513.914 77.4096 513.914 77.4211 513.914 77.4326C513.914 77.4441 513.914 77.4556 513.914 77.4672C513.914 77.4787 513.914 77.4902 513.914 77.5017C513.914 77.5132 513.914 77.5247 513.914 77.5362C513.914 77.5477 513.914 77.5592 513.914 77.5707C513.914 77.5821 513.914 77.5936 513.914 77.6051C513.914 77.6166 513.914 77.628 513.914 77.6395C513.914 77.651 513.914 77.6624 513.914 77.6739C513.914 77.6853 513.914 77.6968 513.914 77.7082C513.914 77.7197 513.914 77.7311 513.914 77.7426C513.914 77.754 513.914 77.7654 513.914 77.7768C513.914 77.7883 513.914 77.7997 513.914 77.8111C513.914 77.8225 513.914 77.8339 513.914 77.8453C513.914 77.8567 513.914 77.8681 513.914 77.8795C513.914 77.8909 513.914 77.9023 513.914 77.9137C513.914 77.925 513.914 77.9364 513.914 77.9478C513.914 77.9591 513.914 77.9705 513.914 77.9819C513.914 77.9932 513.914 78.0046 513.914 78.0159C513.914 78.0273 513.914 78.0386 513.914 78.0499C513.914 78.0613 513.914 78.0726 513.914 78.0839C513.914 78.0952 513.914 78.1065 513.914 78.1178C513.914 78.1292 513.914 78.1405 513.914 78.1518C513.914 78.163 513.914 78.1743 513.914 78.1856C513.914 78.1969 513.914 78.2082 513.914 78.2194C513.914 78.2307 513.914 78.242 513.914 78.2532C513.914 78.2645 513.914 78.2757 513.914 78.287C513.914 78.2982 513.914 78.3095 513.914 78.3207C513.914 78.3319 513.914 78.3432 513.914 78.3544C513.914 78.3656 513.914 78.3768 513.914 78.388C513.914 78.3992 513.914 78.4104 513.914 78.4216C513.914 78.4328 513.914 78.444 513.914 78.4551C513.914 78.4663 513.914 78.4775 513.914 78.4886C513.914 78.4998 513.914 78.511 513.914 78.5221C513.914 78.5333 513.914 78.5444 513.914 78.5555C513.914 78.5667 513.914 78.5778 513.914 78.5889C513.914 78.6 513.914 78.6111 513.914 78.6222C513.914 78.6333 513.914 78.6444 513.914 78.6555C513.914 78.6666 513.914 78.6777 513.914 78.6888C513.914 78.6998 513.914 78.7109 513.914 78.722C513.914 78.733 513.914 78.7441 513.914 78.7551C513.914 78.7662 513.914 78.7772 513.914 78.7882C513.914 78.7992 513.914 78.8103 513.914 78.8213C513.914 78.8323 513.914 78.8433 513.914 78.8543C513.914 78.8653 513.914 78.8763 513.914 78.8872C513.914 78.8982 513.914 78.9092 513.914 78.9202C513.914 78.9311 513.914 78.9421 513.914 78.953C513.914 78.964 513.914 78.9749 513.914 78.9858C513.914 78.9968 513.914 79.0077 513.914 79.0186C513.914 79.0295 513.914 79.0404 513.914 79.0513C513.914 79.0622 513.914 79.0731 513.914 79.084C513.914 79.0949 513.914 79.1057 513.914 79.1166C513.914 79.1274 513.914 79.1383 513.914 79.1491C513.914 79.16 513.914 79.1708 513.914 79.1816C513.914 79.1925 513.914 79.2033 513.914 79.2141C513.914 79.2249 513.914 79.2357 513.914 79.2465C513.914 79.2573 513.914 79.2681 513.914 79.2788C513.914 79.2896 513.914 79.3004 513.914 79.3111C513.914 79.3219 513.914 79.3326 513.914 79.3434C513.914 79.3541 513.914 79.3648 513.914 79.3755C513.914 79.3863 513.914 79.397 513.914 79.4077C513.914 79.4184 513.914 79.4291 513.914 79.4397C513.914 79.4504 513.914 79.4611 513.914 79.4717C513.914 79.4824 513.914 79.4931 513.914 79.5037C513.914 79.5143 513.914 79.525 513.914 79.5356C513.914 79.5462 513.914 79.5568 513.914 79.5674C513.914 79.578 513.914 79.5886 513.914 79.5992C513.914 79.6098 513.914 79.6204 513.914 79.6309C513.914 79.6415 513.914 79.652 513.914 79.6626C513.914 79.6731 513.914 79.6837 513.914 79.6942C513.914 79.7047 513.914 79.7152 513.914 79.7257C513.914 79.7362 513.914 79.7467 513.914 79.7572C513.914 79.7677 513.914 79.7781 513.914 79.7886C513.914 79.7991 513.914 79.8095 513.914 79.8199C513.914 79.8304 513.914 79.8408 513.914 79.8512C513.914 79.8616 513.914 79.8721 513.914 79.8825C513.914 79.8929 513.914 79.9032 513.914 79.9136C513.914 79.924 513.914 79.9344 513.914 79.9447C513.914 79.9551 513.914 79.9654 513.914 79.9757C513.914 79.9861 513.914 79.9964 513.914 80.0067C513.914 80.017 513.914 80.0273 513.914 80.0376C513.914 80.0479 513.914 80.0582 513.914 80.0684C513.914 80.0787 513.914 80.0889 513.914 80.0992C513.914 80.1094 513.914 80.1197 513.914 80.1299C513.914 80.1401 513.914 80.1503 513.914 80.1605C513.914 80.1707 513.914 80.1809 513.914 80.1911C513.914 80.2012 513.914 80.2114 513.914 80.2216C513.914 80.2317 513.914 80.2419 513.914 80.252C513.914 80.2621 513.914 80.2722 513.914 80.2823C513.914 80.2924 513.914 80.3025 513.914 80.3126C513.914 80.3227 513.914 80.3328 513.914 80.3428C513.914 80.3529 513.914 80.3629 513.914 80.373C513.914 80.383 513.914 80.393 513.914 80.403C513.914 80.413 513.914 80.423 513.914 80.433C513.914 80.443 513.914 80.453 513.914 80.4629C513.914 80.4729 513.914 80.4829 513.914 80.4928C513.914 80.5027 513.914 80.5127 513.914 80.5226C513.914 80.5325 513.914 80.5424 513.914 80.5523C513.914 80.5621 513.914 80.572 513.914 80.5819C513.914 80.5917 513.914 80.6016 513.914 80.6114C513.914 80.6213 513.914 80.6311 513.914 80.6409C513.914 80.6507 513.914 80.6605 513.914 80.6703C513.914 80.6801 513.914 80.6899 513.914 80.6996C513.914 80.7094 513.914 80.7191 513.914 80.7289C513.914 80.7386 513.914 80.7483 513.914 80.758C513.914 80.7677 513.914 80.7774 513.914 80.7871C513.914 80.7968 513.914 80.8065 513.914 80.8161C513.914 80.8258 513.914 80.8354 513.914 80.845C513.914 80.8547 513.914 80.8643 513.914 80.8739C513.914 80.8835 513.914 80.8931 513.914 80.9027C513.914 80.9122 513.914 80.9218 513.914 80.9313C513.914 80.9409 513.914 80.9504 513.914 80.9599C513.914 80.9695 513.914 80.979 513.914 80.9885C513.914 80.998 513.914 81.0074 513.914 81.0169C513.914 81.0264 513.914 81.0358 513.914 81.0453C513.914 81.0547 513.914 81.0641 513.914 81.0735C513.914 81.0829 513.914 81.0923 513.914 81.1017C513.914 81.1111 513.914 81.1205 513.914 81.1298C513.914 81.1392 513.914 81.1485 513.914 81.1578C513.914 81.1672 513.914 81.1765 513.914 81.1858C513.914 81.1951 513.914 81.2043 513.914 81.2136C513.914 81.2229 513.914 81.2321 513.914 81.2414C513.914 81.2506 513.914 81.2598 513.914 81.2691C513.914 81.2783 513.914 81.2875 513.914 81.2966C513.914 81.3058 513.914 81.315 513.914 81.3241C513.914 81.3333 513.914 81.3424 513.914 81.3515C513.914 81.3607 513.914 81.3698 513.914 81.3789C513.914 81.388 513.914 81.397 513.914 81.4061C513.914 81.4152 513.914 81.4242 513.914 81.4332C513.914 81.4423 513.914 81.4513 513.914 81.4603C513.914 81.4693 513.914 81.4783 513.914 81.4873C513.914 81.4962 513.914 81.5052 513.914 81.5141C513.914 81.5231 513.914 81.532 513.914 81.5409C513.914 81.5498 513.914 81.5587 513.914 81.5676C513.914 81.5765 513.914 81.5853 513.914 81.5942C513.914 81.603 513.914 81.6119 513.914 81.6207C513.914 81.6295 513.914 81.6383 513.914 81.6471C513.914 81.6559 513.914 81.6646 513.914 81.6734C513.914 81.6821 513.914 81.6909 513.914 81.6996C513.914 81.7083 513.914 81.717 513.914 81.7257C513.914 81.7344 513.914 81.7431 513.914 81.7518C513.914 81.7604 513.914 81.7691 513.914 81.7777C513.914 81.7863 513.914 81.7949 513.914 81.8035C513.914 81.8121 513.914 81.8207 513.914 81.8292C513.914 81.8378 513.914 81.8463 513.914 81.8549C513.914 81.8634 513.914 81.8719 513.914 81.8804C513.914 81.8889 513.914 81.8974 513.914 81.9059C513.914 81.9143 513.914 81.9228 513.914 81.9312C513.914 81.9396 513.914 81.948 513.914 81.9564C513.914 81.9648 513.914 81.9732 513.914 81.9816C513.914 81.9899 513.914 81.9983 513.914 82.0066C513.914 82.0149 513.914 82.0232 513.914 82.0315C513.914 82.0398 513.914 82.0481 513.914 82.0564C513.914 82.0646 513.914 82.0729 513.914 82.0811C513.914 82.0893 513.914 82.0975 513.914 82.1057C513.914 82.1139 513.914 82.1221 513.914 82.1303C513.914 82.1384 513.914 82.1466 513.914 82.1547C513.914 82.1628 513.914 82.1709 513.914 82.179C513.914 82.1871 513.914 82.1952 513.914 82.2032C513.914 82.2113 513.914 82.2193 513.914 82.2273C513.914 82.2353 513.914 82.2433 513.914 82.2513C513.914 82.2593 513.914 82.2673 513.914 82.2752C513.914 82.2832 513.914 82.2911 513.914 82.299C513.914 82.3069 513.914 82.3148 513.914 82.3227C513.914 82.3306 513.914 82.3384 513.914 82.3463C513.914 82.3541 513.914 82.3619 513.914 82.3697C513.914 82.3775 513.914 82.3853 513.914 82.3931C513.914 82.4008 513.914 82.4086 513.914 82.4163C513.914 82.4241 513.914 82.4318 513.914 82.4395C513.914 82.4472 513.914 82.4548 513.914 82.4625C513.914 82.4701 513.914 82.4778 513.914 82.4854C513.914 82.493 513.914 82.5006 513.914 82.5082C513.914 82.5158 513.914 82.5234 513.914 82.5309C513.914 82.5384 513.914 82.546 513.914 82.5535C513.914 82.561 513.914 82.5685 513.914 82.5759C513.914 82.5834 513.914 82.5909 513.914 82.5983C513.914 82.6057 513.914 82.6131 513.914 82.6205C513.914 82.6279 513.914 82.6353 513.914 82.6427C513.914 82.65 513.914 82.6574 513.914 82.6647C513.914 82.672 513.914 82.6793 513.914 82.6866C513.914 82.6939 513.914 82.7011 513.914 82.7084C513.914 82.7156 513.914 82.7228 513.914 82.73C513.914 82.7372 513.914 82.7444 513.914 82.7516C513.914 82.7587 513.914 82.7659 513.914 82.773C513.914 82.7801 513.914 82.7872 513.914 82.7943C513.914 82.8014 513.914 82.8085 513.914 82.8155C513.914 82.8225 513.914 82.8296 513.914 82.8366C513.914 82.8436 513.914 82.8506 513.914 82.8575C513.914 82.8645 513.914 82.8714 513.914 82.8784C513.914 82.8853 513.914 82.8922 513.914 82.8991C513.914 82.906 513.914 82.9128 513.914 82.9197C513.914 82.9265 513.914 82.9333 513.914 82.9401C513.914 82.9469 513.914 82.9537 513.914 82.9605C513.914 82.9673 513.914 82.974 513.914 82.9807C513.914 82.9874 513.914 82.9941 513.914 83.0008C513.914 83.0075 513.914 83.0142 513.914 83.0208C513.914 83.0275 513.914 83.0341 513.914 83.0407C513.914 83.0473 513.914 83.0539 513.914 83.0604C513.914 83.067 513.914 83.0735 513.914 83.08C513.914 83.0865 513.914 83.093 513.914 83.0995C513.914 83.106 513.914 83.1124 513.914 83.1189C513.914 83.1253 513.914 83.1317 513.914 83.1381C513.914 83.1445 513.914 83.1509 513.914 83.1572C513.914 83.1635 513.914 83.1699 513.914 83.1762C513.914 83.1825 513.914 83.1888 513.914 83.195C513.914 83.2013 513.914 83.2075 513.914 83.2138C513.914 83.22 513.914 83.2262 513.914 83.2323C513.914 83.2385 513.914 83.2447 513.914 83.2508C513.914 83.2569 513.914 83.2631 513.914 83.2691C513.914 83.2752 513.914 83.2813 513.914 83.2873C513.914 83.2934 513.914 83.2994 513.914 83.3054C513.914 83.3114 513.914 83.3174 513.914 83.3234C513.914 83.3293 513.914 83.3353 513.914 83.3412C513.914 83.3471 513.914 83.353 513.914 83.3589C513.914 83.3647 513.914 83.3706 513.914 83.3764C513.914 83.3822 513.914 83.388 513.914 83.3938C513.914 83.3996 513.914 83.4054 513.914 83.4111C513.914 83.4168 513.914 83.4225 513.914 83.4282C513.914 83.4339 513.914 83.4396 513.914 83.4452C513.914 83.4509 513.914 83.4565 513.914 83.4621C513.914 83.4677 513.914 83.4733 513.914 83.4789C513.914 83.4844 513.914 83.49 513.914 83.4955C513.914 83.501 513.914 83.5065 513.914 83.5119C513.914 83.5174 513.914 83.5228 513.914 83.5283C513.914 83.5337 513.914 83.5391 513.914 83.5444C513.914 83.5498 513.914 83.5552 513.914 83.5605C513.914 83.5658 513.914 83.5711 513.914 83.5764C513.914 83.5817 513.914 83.587 513.914 83.5922C513.914 83.5974 513.914 83.6026 513.914 83.6078C513.914 83.613 513.914 83.6182 513.914 83.6233C513.914 83.6285 513.914 83.6336 513.914 83.6387C513.914 83.6438 513.914 83.6488 513.914 83.6539C513.914 83.6589 513.914 83.664 513.914 83.669C513.914 83.674 513.914 83.6789 513.914 83.6839C513.914 83.6888 513.914 83.6938 513.914 83.6987C513.914 83.7036 513.914 83.7085 513.914 83.7133C513.914 83.7182 513.914 83.723 513.914 83.7278C513.914 83.7326 513.914 83.7374 513.914 83.7422C513.914 83.7469 513.914 83.7517 513.914 83.7564C513.914 83.7611 513.914 83.7658 513.914 83.7705C513.914 83.7751 513.914 83.7798 513.914 83.7844C513.914 83.789 513.914 83.7936 513.914 83.7981C513.914 83.8027 513.914 83.8073 513.914 83.8118C513.914 83.8163 513.914 83.8208 513.914 83.8253C513.914 83.8297 513.914 83.8342 513.914 83.8386C513.914 83.843 513.914 83.8474 513.914 83.8518C513.914 83.8561 513.914 83.8605 513.914 83.8648C513.914 83.8691 513.914 83.8734 513.914 83.8777C513.914 83.882 513.914 83.8862 513.914 83.8904C513.914 83.8946 513.914 83.8988 513.914 83.903C513.914 83.9072 513.914 83.9113 513.914 83.9155C513.914 83.9196 513.914 83.9237 513.914 83.9277C513.914 83.9318 513.914 83.9358 513.914 83.9399C513.914 83.9439 513.914 83.9479 513.914 83.9518C513.914 83.9558 513.914 83.9598 513.914 83.9637C513.914 83.9676 513.914 83.9715 513.914 83.9754C513.914 83.9792 513.914 83.9831 513.914 83.9869C513.914 83.9907 513.914 83.9945 513.914 83.9982C513.914 84.002 513.914 84.0057 513.914 84.0095C513.914 84.0132 513.914 84.0169 513.914 84.0205C513.914 84.0242 513.914 84.0278 513.914 84.0314C513.914 84.035 513.914 84.0386 513.914 84.0422C513.914 84.0457 513.914 84.0492 513.914 84.0527C513.914 84.0563 513.914 84.0597 513.914 84.0632C513.914 84.0666 513.914 84.0701 513.914 84.0735C513.914 84.0769 513.914 84.0802 513.914 84.0836C513.914 84.0869 513.914 84.0902 513.914 84.0935C513.914 84.0968 513.914 84.1001 513.914 84.1033C513.914 84.1066 513.914 84.1098 513.914 84.113C513.914 84.1162 513.914 84.1193 513.914 84.1224C513.914 84.1256 513.914 84.1287 513.914 84.1318C513.914 84.1348 513.914 84.1379 513.914 84.1409C513.914 84.1439 513.914 84.1469 513.914 84.1499C513.914 84.1529 513.914 84.1558 513.914 84.1587C513.914 84.1617 513.914 84.1646 513.914 84.1674C513.914 84.1703 513.914 84.1731 513.914 84.1759C513.914 84.1787 513.914 84.1815 513.914 84.1843C513.914 84.187 513.914 84.1898 513.914 84.1925C513.914 84.1952 513.914 84.1978 513.914 84.2005C513.914 84.2031 513.914 84.2057 513.914 84.2083C513.914 84.2109 513.914 84.2135 513.914 84.216C513.914 84.2185 513.914 84.221 513.914 84.2235C513.914 84.226 513.914 84.2285 513.914 84.2309C513.914 84.2333 513.914 84.2357 513.914 84.2381C513.914 84.2404 513.914 84.2428 513.914 84.2451C513.914 84.2474 513.914 84.2497 513.914 84.2519C513.914 84.2542 513.914 84.2564 513.914 84.2586C513.914 84.2608 513.914 84.263 513.914 84.2651C513.914 84.2673 513.914 84.2694 513.914 84.2715C513.914 84.2735 513.914 84.2756 513.914 84.2776C513.914 84.2797 513.914 84.2817 513.914 84.2836C513.914 84.2856 513.914 84.2875 513.914 84.2895C513.914 84.2914 513.914 84.2933 513.914 84.2951C513.914 84.297 513.914 84.2988 513.914 84.3006C513.914 84.3024 513.914 84.3042 513.914 84.3059C513.914 84.3077 513.914 84.3094 513.914 84.3111C513.914 84.3128 513.914 84.3144 513.914 84.316C513.914 84.3177 513.914 84.3193 513.914 84.3208C513.914 84.3224 513.914 84.3239 513.914 84.3254C513.914 84.327 513.914 84.3284 513.914 84.3299C513.914 84.3313 513.914 84.3328 513.914 84.3342C513.914 84.3356 513.914 84.3369 513.914 84.3383C513.914 84.3396 513.914 84.3409 513.914 84.3422C513.914 84.3434 513.914 84.3447 513.914 84.3459C513.914 84.3471 513.914 84.3483 513.914 84.3495C513.914 84.3506 513.914 84.3518 513.914 84.3529C513.914 84.3539 513.914 84.355 513.914 84.3561C513.914 84.3571 513.914 84.3581 513.914 84.3591C513.914 84.3601 513.914 84.361 513.914 84.3619C513.914 84.3628 513.914 84.3637 513.914 84.3646C513.914 84.3655 513.914 84.3663 513.914 84.3671C513.914 84.3679 513.914 84.3686 513.914 84.3694C513.914 84.3701 513.914 84.3708 513.914 84.3715C513.914 84.3722 513.914 84.3728 513.914 84.3734C513.914 84.3741 513.914 84.3747 513.914 84.3752C513.914 84.3758 513.914 84.3763 513.914 84.3768C513.914 84.3773 513.914 84.3777 513.914 84.3782C513.914 84.3786 513.914 84.379 513.914 84.3794C513.914 84.3798 513.914 84.3801 513.914 84.3804C513.914 84.3807 513.914 84.381 513.914 84.3812C513.914 84.3815 513.914 84.3817 513.914 84.3819C513.914 84.3821 513.914 84.3822 513.914 84.3824C513.914 84.3825 513.914 84.3826 513.914 84.3826C513.914 84.3827 513.914 84.3827 518.914 84.3827C523.914 84.3827 523.914 84.3827 523.914 84.3826C523.914 84.3826 523.914 84.3825 523.914 84.3824C523.914 84.3822 523.914 84.3821 523.914 84.3819C523.914 84.3817 523.914 84.3815 523.914 84.3812C523.914 84.381 523.914 84.3807 523.914 84.3804C523.914 84.3801 523.914 84.3798 523.914 84.3794C523.914 84.379 523.914 84.3786 523.914 84.3782C523.914 84.3777 523.914 84.3773 523.914 84.3768C523.914 84.3763 523.914 84.3758 523.914 84.3752C523.914 84.3747 523.914 84.3741 523.914 84.3734C523.914 84.3728 523.914 84.3722 523.914 84.3715C523.914 84.3708 523.914 84.3701 523.914 84.3694C523.914 84.3686 523.914 84.3679 523.914 84.3671C523.914 84.3663 523.914 84.3655 523.914 84.3646C523.914 84.3637 523.914 84.3628 523.914 84.3619C523.914 84.361 523.914 84.3601 523.914 84.3591C523.914 84.3581 523.914 84.3571 523.914 84.3561C523.914 84.355 523.914 84.3539 523.914 84.3529C523.914 84.3518 523.914 84.3506 523.914 84.3495C523.914 84.3483 523.914 84.3471 523.914 84.3459C523.914 84.3447 523.914 84.3434 523.914 84.3422C523.914 84.3409 523.914 84.3396 523.914 84.3383C523.914 84.3369 523.914 84.3356 523.914 84.3342C523.914 84.3328 523.914 84.3313 523.914 84.3299C523.914 84.3284 523.914 84.327 523.914 84.3254C523.914 84.3239 523.914 84.3224 523.914 84.3208C523.914 84.3193 523.914 84.3177 523.914 84.316C523.914 84.3144 523.914 84.3128 523.914 84.3111C523.914 84.3094 523.914 84.3077 523.914 84.3059C523.914 84.3042 523.914 84.3024 523.914 84.3006C523.914 84.2988 523.914 84.297 523.914 84.2951C523.914 84.2933 523.914 84.2914 523.914 84.2895C523.914 84.2875 523.914 84.2856 523.914 84.2836C523.914 84.2817 523.914 84.2797 523.914 84.2776C523.914 84.2756 523.914 84.2735 523.914 84.2715C523.914 84.2694 523.914 84.2673 523.914 84.2651C523.914 84.263 523.914 84.2608 523.914 84.2586C523.914 84.2564 523.914 84.2542 523.914 84.2519C523.914 84.2497 523.914 84.2474 523.914 84.2451C523.914 84.2428 523.914 84.2404 523.914 84.2381C523.914 84.2357 523.914 84.2333 523.914 84.2309C523.914 84.2285 523.914 84.226 523.914 84.2235C523.914 84.221 523.914 84.2185 523.914 84.216C523.914 84.2135 523.914 84.2109 523.914 84.2083C523.914 84.2057 523.914 84.2031 523.914 84.2005C523.914 84.1978 523.914 84.1952 523.914 84.1925C523.914 84.1898 523.914 84.187 523.914 84.1843C523.914 84.1815 523.914 84.1787 523.914 84.1759C523.914 84.1731 523.914 84.1703 523.914 84.1674C523.914 84.1646 523.914 84.1617 523.914 84.1587C523.914 84.1558 523.914 84.1529 523.914 84.1499C523.914 84.1469 523.914 84.1439 523.914 84.1409C523.914 84.1379 523.914 84.1348 523.914 84.1318C523.914 84.1287 523.914 84.1256 523.914 84.1224C523.914 84.1193 523.914 84.1162 523.914 84.113C523.914 84.1098 523.914 84.1066 523.914 84.1033C523.914 84.1001 523.914 84.0968 523.914 84.0935C523.914 84.0902 523.914 84.0869 523.914 84.0836C523.914 84.0802 523.914 84.0769 523.914 84.0735C523.914 84.0701 523.914 84.0666 523.914 84.0632C523.914 84.0597 523.914 84.0563 523.914 84.0527C523.914 84.0492 523.914 84.0457 523.914 84.0422C523.914 84.0386 523.914 84.035 523.914 84.0314C523.914 84.0278 523.914 84.0242 523.914 84.0205C523.914 84.0169 523.914 84.0132 523.914 84.0095C523.914 84.0057 523.914 84.002 523.914 83.9982C523.914 83.9945 523.914 83.9907 523.914 83.9869C523.914 83.9831 523.914 83.9792 523.914 83.9754C523.914 83.9715 523.914 83.9676 523.914 83.9637C523.914 83.9598 523.914 83.9558 523.914 83.9518C523.914 83.9479 523.914 83.9439 523.914 83.9399C523.914 83.9358 523.914 83.9318 523.914 83.9277C523.914 83.9237 523.914 83.9196 523.914 83.9155C523.914 83.9113 523.914 83.9072 523.914 83.903C523.914 83.8988 523.914 83.8946 523.914 83.8904C523.914 83.8862 523.914 83.882 523.914 83.8777C523.914 83.8734 523.914 83.8691 523.914 83.8648C523.914 83.8605 523.914 83.8561 523.914 83.8518C523.914 83.8474 523.914 83.843 523.914 83.8386C523.914 83.8342 523.914 83.8297 523.914 83.8253C523.914 83.8208 523.914 83.8163 523.914 83.8118C523.914 83.8073 523.914 83.8027 523.914 83.7981C523.914 83.7936 523.914 83.789 523.914 83.7844C523.914 83.7798 523.914 83.7751 523.914 83.7705C523.914 83.7658 523.914 83.7611 523.914 83.7564C523.914 83.7517 523.914 83.7469 523.914 83.7422C523.914 83.7374 523.914 83.7326 523.914 83.7278C523.914 83.723 523.914 83.7182 523.914 83.7133C523.914 83.7085 523.914 83.7036 523.914 83.6987C523.914 83.6938 523.914 83.6888 523.914 83.6839C523.914 83.6789 523.914 83.674 523.914 83.669C523.914 83.664 523.914 83.6589 523.914 83.6539C523.914 83.6488 523.914 83.6438 523.914 83.6387C523.914 83.6336 523.914 83.6285 523.914 83.6233C523.914 83.6182 523.914 83.613 523.914 83.6078C523.914 83.6026 523.914 83.5974 523.914 83.5922C523.914 83.587 523.914 83.5817 523.914 83.5764C523.914 83.5711 523.914 83.5658 523.914 83.5605C523.914 83.5552 523.914 83.5498 523.914 83.5444C523.914 83.5391 523.914 83.5337 523.914 83.5283C523.914 83.5228 523.914 83.5174 523.914 83.5119C523.914 83.5065 523.914 83.501 523.914 83.4955C523.914 83.49 523.914 83.4844 523.914 83.4789C523.914 83.4733 523.914 83.4677 523.914 83.4621C523.914 83.4565 523.914 83.4509 523.914 83.4452C523.914 83.4396 523.914 83.4339 523.914 83.4282C523.914 83.4225 523.914 83.4168 523.914 83.4111C523.914 83.4054 523.914 83.3996 523.914 83.3938C523.914 83.388 523.914 83.3822 523.914 83.3764C523.914 83.3706 523.914 83.3647 523.914 83.3589C523.914 83.353 523.914 83.3471 523.914 83.3412C523.914 83.3353 523.914 83.3293 523.914 83.3234C523.914 83.3174 523.914 83.3114 523.914 83.3054C523.914 83.2994 523.914 83.2934 523.914 83.2873C523.914 83.2813 523.914 83.2752 523.914 83.2691C523.914 83.2631 523.914 83.2569 523.914 83.2508C523.914 83.2447 523.914 83.2385 523.914 83.2323C523.914 83.2262 523.914 83.22 523.914 83.2138C523.914 83.2075 523.914 83.2013 523.914 83.195C523.914 83.1888 523.914 83.1825 523.914 83.1762C523.914 83.1699 523.914 83.1635 523.914 83.1572C523.914 83.1509 523.914 83.1445 523.914 83.1381C523.914 83.1317 523.914 83.1253 523.914 83.1189C523.914 83.1124 523.914 83.106 523.914 83.0995C523.914 83.093 523.914 83.0865 523.914 83.08C523.914 83.0735 523.914 83.067 523.914 83.0604C523.914 83.0539 523.914 83.0473 523.914 83.0407C523.914 83.0341 523.914 83.0275 523.914 83.0208C523.914 83.0142 523.914 83.0075 523.914 83.0008C523.914 82.9941 523.914 82.9874 523.914 82.9807C523.914 82.974 523.914 82.9673 523.914 82.9605C523.914 82.9537 523.914 82.9469 523.914 82.9401C523.914 82.9333 523.914 82.9265 523.914 82.9197C523.914 82.9128 523.914 82.906 523.914 82.8991C523.914 82.8922 523.914 82.8853 523.914 82.8784C523.914 82.8714 523.914 82.8645 523.914 82.8575C523.914 82.8506 523.914 82.8436 523.914 82.8366C523.914 82.8296 523.914 82.8225 523.914 82.8155C523.914 82.8085 523.914 82.8014 523.914 82.7943C523.914 82.7872 523.914 82.7801 523.914 82.773C523.914 82.7659 523.914 82.7587 523.914 82.7516C523.914 82.7444 523.914 82.7372 523.914 82.73C523.914 82.7228 523.914 82.7156 523.914 82.7084C523.914 82.7011 523.914 82.6939 523.914 82.6866C523.914 82.6793 523.914 82.672 523.914 82.6647C523.914 82.6574 523.914 82.65 523.914 82.6427C523.914 82.6353 523.914 82.6279 523.914 82.6205C523.914 82.6131 523.914 82.6057 523.914 82.5983C523.914 82.5909 523.914 82.5834 523.914 82.5759C523.914 82.5685 523.914 82.561 523.914 82.5535C523.914 82.546 523.914 82.5384 523.914 82.5309C523.914 82.5234 523.914 82.5158 523.914 82.5082C523.914 82.5006 523.914 82.493 523.914 82.4854C523.914 82.4778 523.914 82.4701 523.914 82.4625C523.914 82.4548 523.914 82.4472 523.914 82.4395C523.914 82.4318 523.914 82.4241 523.914 82.4163C523.914 82.4086 523.914 82.4008 523.914 82.3931C523.914 82.3853 523.914 82.3775 523.914 82.3697C523.914 82.3619 523.914 82.3541 523.914 82.3463C523.914 82.3384 523.914 82.3306 523.914 82.3227C523.914 82.3148 523.914 82.3069 523.914 82.299C523.914 82.2911 523.914 82.2832 523.914 82.2752C523.914 82.2673 523.914 82.2593 523.914 82.2513C523.914 82.2433 523.914 82.2353 523.914 82.2273C523.914 82.2193 523.914 82.2113 523.914 82.2032C523.914 82.1952 523.914 82.1871 523.914 82.179C523.914 82.1709 523.914 82.1628 523.914 82.1547C523.914 82.1466 523.914 82.1384 523.914 82.1303C523.914 82.1221 523.914 82.1139 523.914 82.1057C523.914 82.0975 523.914 82.0893 523.914 82.0811C523.914 82.0729 523.914 82.0646 523.914 82.0564C523.914 82.0481 523.914 82.0398 523.914 82.0315C523.914 82.0232 523.914 82.0149 523.914 82.0066C523.914 81.9983 523.914 81.9899 523.914 81.9816C523.914 81.9732 523.914 81.9648 523.914 81.9564C523.914 81.948 523.914 81.9396 523.914 81.9312C523.914 81.9228 523.914 81.9143 523.914 81.9059C523.914 81.8974 523.914 81.8889 523.914 81.8804C523.914 81.8719 523.914 81.8634 523.914 81.8549C523.914 81.8463 523.914 81.8378 523.914 81.8292C523.914 81.8207 523.914 81.8121 523.914 81.8035C523.914 81.7949 523.914 81.7863 523.914 81.7777C523.914 81.7691 523.914 81.7604 523.914 81.7518C523.914 81.7431 523.914 81.7344 523.914 81.7257C523.914 81.717 523.914 81.7083 523.914 81.6996C523.914 81.6909 523.914 81.6821 523.914 81.6734C523.914 81.6646 523.914 81.6559 523.914 81.6471C523.914 81.6383 523.914 81.6295 523.914 81.6207C523.914 81.6119 523.914 81.603 523.914 81.5942C523.914 81.5853 523.914 81.5765 523.914 81.5676C523.914 81.5587 523.914 81.5498 523.914 81.5409C523.914 81.532 523.914 81.5231 523.914 81.5141C523.914 81.5052 523.914 81.4962 523.914 81.4873C523.914 81.4783 523.914 81.4693 523.914 81.4603C523.914 81.4513 523.914 81.4423 523.914 81.4332C523.914 81.4242 523.914 81.4152 523.914 81.4061C523.914 81.397 523.914 81.388 523.914 81.3789C523.914 81.3698 523.914 81.3607 523.914 81.3515C523.914 81.3424 523.914 81.3333 523.914 81.3241C523.914 81.315 523.914 81.3058 523.914 81.2966C523.914 81.2875 523.914 81.2783 523.914 81.2691C523.914 81.2598 523.914 81.2506 523.914 81.2414C523.914 81.2321 523.914 81.2229 523.914 81.2136C523.914 81.2043 523.914 81.1951 523.914 81.1858C523.914 81.1765 523.914 81.1672 523.914 81.1578C523.914 81.1485 523.914 81.1392 523.914 81.1298C523.914 81.1205 523.914 81.1111 523.914 81.1017C523.914 81.0923 523.914 81.0829 523.914 81.0735C523.914 81.0641 523.914 81.0547 523.914 81.0453C523.914 81.0358 523.914 81.0264 523.914 81.0169C523.914 81.0074 523.914 80.998 523.914 80.9885C523.914 80.979 523.914 80.9695 523.914 80.9599C523.914 80.9504 523.914 80.9409 523.914 80.9313C523.914 80.9218 523.914 80.9122 523.914 80.9027C523.914 80.8931 523.914 80.8835 523.914 80.8739C523.914 80.8643 523.914 80.8547 523.914 80.845C523.914 80.8354 523.914 80.8258 523.914 80.8161C523.914 80.8065 523.914 80.7968 523.914 80.7871C523.914 80.7774 523.914 80.7677 523.914 80.758C523.914 80.7483 523.914 80.7386 523.914 80.7289C523.914 80.7191 523.914 80.7094 523.914 80.6996C523.914 80.6899 523.914 80.6801 523.914 80.6703C523.914 80.6605 523.914 80.6507 523.914 80.6409C523.914 80.6311 523.914 80.6213 523.914 80.6114C523.914 80.6016 523.914 80.5917 523.914 80.5819C523.914 80.572 523.914 80.5621 523.914 80.5523C523.914 80.5424 523.914 80.5325 523.914 80.5226C523.914 80.5127 523.914 80.5027 523.914 80.4928C523.914 80.4829 523.914 80.4729 523.914 80.4629C523.914 80.453 523.914 80.443 523.914 80.433C523.914 80.423 523.914 80.413 523.914 80.403C523.914 80.393 523.914 80.383 523.914 80.373C523.914 80.3629 523.914 80.3529 523.914 80.3428C523.914 80.3328 523.914 80.3227 523.914 80.3126C523.914 80.3025 523.914 80.2924 523.914 80.2823C523.914 80.2722 523.914 80.2621 523.914 80.252C523.914 80.2419 523.914 80.2317 523.914 80.2216C523.914 80.2114 523.914 80.2012 523.914 80.1911C523.914 80.1809 523.914 80.1707 523.914 80.1605C523.914 80.1503 523.914 80.1401 523.914 80.1299C523.914 80.1197 523.914 80.1094 523.914 80.0992C523.914 80.0889 523.914 80.0787 523.914 80.0684C523.914 80.0582 523.914 80.0479 523.914 80.0376C523.914 80.0273 523.914 80.017 523.914 80.0067C523.914 79.9964 523.914 79.9861 523.914 79.9757C523.914 79.9654 523.914 79.9551 523.914 79.9447C523.914 79.9344 523.914 79.924 523.914 79.9136C523.914 79.9032 523.914 79.8929 523.914 79.8825C523.914 79.8721 523.914 79.8616 523.914 79.8512C523.914 79.8408 523.914 79.8304 523.914 79.8199C523.914 79.8095 523.914 79.7991 523.914 79.7886C523.914 79.7781 523.914 79.7677 523.914 79.7572C523.914 79.7467 523.914 79.7362 523.914 79.7257C523.914 79.7152 523.914 79.7047 523.914 79.6942C523.914 79.6837 523.914 79.6731 523.914 79.6626C523.914 79.652 523.914 79.6415 523.914 79.6309C523.914 79.6204 523.914 79.6098 523.914 79.5992C523.914 79.5886 523.914 79.578 523.914 79.5674C523.914 79.5568 523.914 79.5462 523.914 79.5356C523.914 79.525 523.914 79.5143 523.914 79.5037C523.914 79.4931 523.914 79.4824 523.914 79.4717C523.914 79.4611 523.914 79.4504 523.914 79.4397C523.914 79.4291 523.914 79.4184 523.914 79.4077C523.914 79.397 523.914 79.3863 523.914 79.3755C523.914 79.3648 523.914 79.3541 523.914 79.3434C523.914 79.3326 523.914 79.3219 523.914 79.3111C523.914 79.3004 523.914 79.2896 523.914 79.2788C523.914 79.2681 523.914 79.2573 523.914 79.2465C523.914 79.2357 523.914 79.2249 523.914 79.2141C523.914 79.2033 523.914 79.1925 523.914 79.1816C523.914 79.1708 523.914 79.16 523.914 79.1491C523.914 79.1383 523.914 79.1274 523.914 79.1166C523.914 79.1057 523.914 79.0949 523.914 79.084C523.914 79.0731 523.914 79.0622 523.914 79.0513C523.914 79.0404 523.914 79.0295 523.914 79.0186C523.914 79.0077 523.914 78.9968 523.914 78.9858C523.914 78.9749 523.914 78.964 523.914 78.953C523.914 78.9421 523.914 78.9311 523.914 78.9202C523.914 78.9092 523.914 78.8982 523.914 78.8872C523.914 78.8763 523.914 78.8653 523.914 78.8543C523.914 78.8433 523.914 78.8323 523.914 78.8213C523.914 78.8103 523.914 78.7992 523.914 78.7882C523.914 78.7772 523.914 78.7662 523.914 78.7551C523.914 78.7441 523.914 78.733 523.914 78.722C523.914 78.7109 523.914 78.6998 523.914 78.6888C523.914 78.6777 523.914 78.6666 523.914 78.6555C523.914 78.6444 523.914 78.6333 523.914 78.6222C523.914 78.6111 523.914 78.6 523.914 78.5889C523.914 78.5778 523.914 78.5667 523.914 78.5555C523.914 78.5444 523.914 78.5333 523.914 78.5221C523.914 78.511 523.914 78.4998 523.914 78.4886C523.914 78.4775 523.914 78.4663 523.914 78.4551C523.914 78.444 523.914 78.4328 523.914 78.4216C523.914 78.4104 523.914 78.3992 523.914 78.388C523.914 78.3768 523.914 78.3656 523.914 78.3544C523.914 78.3432 523.914 78.3319 523.914 78.3207C523.914 78.3095 523.914 78.2982 523.914 78.287C523.914 78.2757 523.914 78.2645 523.914 78.2532C523.914 78.242 523.914 78.2307 523.914 78.2194C523.914 78.2082 523.914 78.1969 523.914 78.1856C523.914 78.1743 523.914 78.163 523.914 78.1518C523.914 78.1405 523.914 78.1292 523.914 78.1178C523.914 78.1065 523.914 78.0952 523.914 78.0839C523.914 78.0726 523.914 78.0613 523.914 78.0499C523.914 78.0386 523.914 78.0273 523.914 78.0159C523.914 78.0046 523.914 77.9932 523.914 77.9819C523.914 77.9705 523.914 77.9591 523.914 77.9478C523.914 77.9364 523.914 77.925 523.914 77.9137C523.914 77.9023 523.914 77.8909 523.914 77.8795C523.914 77.8681 523.914 77.8567 523.914 77.8453C523.914 77.8339 523.914 77.8225 523.914 77.8111C523.914 77.7997 523.914 77.7883 523.914 77.7768C523.914 77.7654 523.914 77.754 523.914 77.7426C523.914 77.7311 523.914 77.7197 523.914 77.7082C523.914 77.6968 523.914 77.6853 523.914 77.6739C523.914 77.6624 523.914 77.651 523.914 77.6395C523.914 77.628 523.914 77.6166 523.914 77.6051C523.914 77.5936 523.914 77.5821 523.914 77.5707C523.914 77.5592 523.914 77.5477 523.914 77.5362C523.914 77.5247 523.914 77.5132 523.914 77.5017C523.914 77.4902 523.914 77.4787 523.914 77.4672C523.914 77.4556 523.914 77.4441 523.914 77.4326C523.914 77.4211 523.914 77.4096 523.914 77.398C523.914 77.3865 523.914 77.375 523.914 77.3634C523.914 77.3519 523.914 77.3403 523.914 77.3288C523.914 77.3172 523.914 77.3057 523.914 77.2941C523.914 77.2826 523.914 77.271 523.914 77.2594C523.914 77.2479 523.914 77.2363 523.914 77.2247C523.914 77.2132 523.914 77.2016 523.914 77.19C523.914 77.1784 523.914 77.1668 523.914 77.1552C523.914 77.1437 523.914 77.1321 523.914 77.1205C523.914 77.1089 523.914 77.0973 523.914 77.0857C523.914 77.0741 523.914 77.0624 523.914 77.0508C523.914 77.0392 523.914 77.0276 523.914 77.016C523.914 77.0044 523.914 76.9927 523.914 76.9811C523.914 76.9695 523.914 76.9579 523.914 76.9462C523.914 76.9346 523.914 76.923 523.914 76.9113C523.914 76.8997 523.914 76.888 523.914 76.8764C523.914 76.8647 523.914 76.8531 523.914 76.8414C523.914 76.8298 523.914 76.8181 523.914 76.8065C523.914 76.7948 523.914 76.7832 523.914 76.7715C523.914 76.7598 523.914 76.7482 523.914 76.7365C523.914 76.7248 523.914 76.7131 523.914 76.7015C523.914 76.6898 523.914 76.6781 523.914 76.6664C523.914 76.6547 523.914 76.6431 523.914 76.6314C523.914 76.6197 523.914 76.608 523.914 76.5963C523.914 76.5846 523.914 76.5729 523.914 76.5612C523.914 76.5495 523.914 76.5378 523.914 76.5261C523.914 76.5144 523.914 76.5027 523.914 76.491C523.914 76.4793 523.914 76.4676 523.914 76.4559C523.914 76.4442 523.914 76.4325 523.914 76.4207C523.914 76.409 523.914 76.3973 523.914 76.3856C523.914 76.3739 523.914 76.3621 523.914 76.3504C523.914 76.3387 523.914 76.327 523.914 76.3152C523.914 76.3035 523.914 76.2918 523.914 76.2801C523.914 76.2683 523.914 76.2566 523.914 76.2449C523.914 76.2331 523.914 76.2214 523.914 76.2096C523.914 76.1979 523.914 76.1862 523.914 76.1744C523.914 76.1627 523.914 76.1509 523.914 76.1392C523.914 76.1274 523.914 76.1157 523.914 76.104C523.914 76.0922 523.914 76.0805 523.914 76.0687C523.914 76.057 523.914 76.0452 523.914 76.0335C523.914 76.0217 523.914 76.0099 523.914 75.9982C523.914 75.9864 523.914 75.9747 523.914 75.9629C523.914 75.9512 523.914 75.9394 523.914 75.9277C523.914 75.9159 523.914 75.9041 523.914 75.8924C523.914 75.8806 523.914 75.8688 523.914 75.8571C523.914 75.8453 523.914 75.8336 523.914 75.8218C523.914 75.81 523.914 75.7983 523.914 75.7865C523.914 75.7747 523.914 75.763 523.914 75.7512C523.914 75.7394 523.914 75.7277 523.914 75.7159C523.914 75.7041 523.914 75.6924 523.914 75.6806C523.914 75.6688 523.914 75.6571 523.914 75.6453C523.914 75.6335 523.914 75.6217 523.914 75.61C523.914 75.5982 523.914 75.5864 523.914 75.5747C523.914 75.5629 523.914 75.5511 523.914 75.5394C523.914 75.5276 523.914 75.5158 523.914 75.504C523.914 75.4923 523.914 75.4805 523.914 75.4687C523.914 75.457 523.914 75.4452 523.914 75.4334C523.914 75.4217 523.914 75.4099 523.914 75.3981C523.914 75.3863 523.914 75.3746 523.914 75.3628C523.914 75.351 523.914 75.3393 523.914 75.3275C523.914 75.3157 523.914 75.304 523.914 75.2922C523.914 75.2804 523.914 75.2687 523.914 75.2569C523.914 75.2451 523.914 75.2334 523.914 75.2216C523.914 75.2098 523.914 75.1981 523.914 75.1863C523.914 75.1745 523.914 75.1628 523.914 75.151C523.914 75.1393 523.914 75.1275 523.914 75.1157C523.914 75.104 523.914 75.0922 523.914 75.0805C523.914 75.0687 523.914 75.057 523.914 75.0452C523.914 75.0334 523.914 75.0217 523.914 75.0099C523.914 74.9982 523.914 74.9864 523.914 74.9747C523.914 74.9629 523.914 74.9512 523.914 74.9394C523.914 74.9277 523.914 74.9159 523.914 74.9042C523.914 74.8924 523.914 74.8807 523.914 74.869C523.914 74.8572 523.914 74.8455 523.914 74.8337C523.914 74.822 523.914 74.8103 523.914 74.7985C523.914 74.7868 523.914 74.775 523.914 74.7633C523.914 74.7516 523.914 74.7398 523.914 74.7281C523.914 74.7164 523.914 74.7047 523.914 74.6929C523.914 74.6812 523.914 74.6695 523.914 74.6578C523.914 74.646 523.914 74.6343 523.914 74.6226C523.914 74.6109 523.914 74.5992 523.914 74.5875C523.914 74.5758 523.914 74.564 523.914 74.5523C523.914 74.5406 523.914 74.5289 523.914 74.5172C523.914 74.5055 523.914 74.4938 523.914 74.4821C523.914 74.4704 523.914 74.4587 523.914 74.447C523.914 74.4353 523.914 74.4236 523.914 74.4119C523.914 74.4003 523.914 74.3886 523.914 74.3769C523.914 74.3652 523.914 74.3535 523.914 74.3418C523.914 74.3302 523.914 74.3185 523.914 74.3068C523.914 74.2951 523.914 74.2835 523.914 74.2718C523.914 74.2601 523.914 74.2485 523.914 74.2368C523.914 74.2252 523.914 74.2135 523.914 74.2018C523.914 74.1902 523.914 74.1785 523.914 74.1669C523.914 74.1552 523.914 74.1436 523.914 74.1319C523.914 74.1203 523.914 74.1087 523.914 74.097C523.914 74.0854 523.914 74.0738 523.914 74.0621C523.914 74.0505 523.914 74.0389 523.914 74.0273C523.914 74.0156 523.914 74.004 523.914 73.9924C523.914 73.9808 523.914 73.9692 523.914 73.9576C523.914 73.946 523.914 73.9344 523.914 73.9228C523.914 73.9112 523.914 73.8996 523.914 73.888C523.914 73.8764 523.914 73.8648 523.914 73.8532C523.914 73.8416 523.914 73.83 523.914 73.8185C523.914 73.8069 523.914 73.7953 523.914 73.7837C523.914 73.7722 523.914 73.7606 523.914 73.749C523.914 73.7375 523.914 73.7259 523.914 73.7144C523.914 73.7028 523.914 73.6913 523.914 73.6797C523.914 73.6682 523.914 73.6567 523.914 73.6451C523.914 73.6336 523.914 73.6221 523.914 73.6105C523.914 73.599 523.914 73.5875 523.914 73.576C523.914 73.5644 523.914 73.5529 523.914 73.5414C523.914 73.5299 523.914 73.5184 523.914 73.5069C523.914 73.4954 523.914 73.4839 523.914 73.4724C523.914 73.461 523.914 73.4495 523.914 73.438C523.914 73.4265 523.914 73.415 523.914 73.4036C523.914 73.3921 523.914 73.3806 523.914 73.3692C523.914 73.3577 523.914 73.3463 523.914 73.3348C523.914 73.3234 523.914 73.3119 523.914 73.3005C523.914 73.2891 523.914 73.2776 523.914 73.2662C523.914 73.2548 523.914 73.2433 523.914 73.2319C523.914 73.2205 523.914 73.2091 523.914 73.1977C523.914 73.1863 523.914 73.1749 523.914 73.1635C523.914 73.1521 523.914 73.1407 523.914 73.1293C523.914 73.1179 523.914 73.1066 523.914 73.0952C523.914 73.0838 523.914 73.0725 523.914 73.0611C523.914 73.0497 523.914 73.0384 523.914 73.027C523.914 73.0157 523.914 73.0043 523.914 72.993C523.914 72.9817 523.914 72.9703 523.914 72.959C523.914 72.9477 523.914 72.9364 523.914 72.9251C523.914 72.9137 523.914 72.9024 523.914 72.8911C523.914 72.8798 523.914 72.8685 523.914 72.8573C523.914 72.846 523.914 72.8347 523.914 72.8234C523.914 72.8121 523.914 72.8009 523.914 72.7896C523.914 72.7784 523.914 72.7671 523.914 72.7558C523.914 72.7446 523.914 72.7334 523.914 72.7221C523.914 72.7109 523.914 72.6997 523.914 72.6884C523.914 72.6772 523.914 72.666 523.914 72.6548C523.914 72.6436 523.914 72.6324 523.914 72.6212C523.914 72.61 523.914 72.5988 523.914 72.5876C523.914 72.5764 523.914 72.5653 523.914 72.5541C523.914 72.5429 523.914 72.5318 523.914 72.5206C523.914 72.5095 523.914 72.4983 523.914 72.4872C523.914 72.4761 523.914 72.4649 523.914 72.4538C523.914 72.4427 523.914 72.4316 523.914 72.4205C523.914 72.4093 523.914 72.3982 523.914 72.3871C523.914 72.3761 523.914 72.365 523.914 72.3539C523.914 72.3428 523.914 72.3317 523.914 72.3207C523.914 72.3096 523.914 72.2986 523.914 72.2875C523.914 72.2765 523.914 72.2654 523.914 72.2544C523.914 72.2434 523.914 72.2323 523.914 72.2213C523.914 72.2103 523.914 72.1993 523.914 72.1883C523.914 72.1773 523.914 72.1663 523.914 72.1553C523.914 72.1443 523.914 72.1333 523.914 72.1224C523.914 72.1114 523.914 72.1005 523.914 72.0895C523.914 72.0785 523.914 72.0676 523.914 72.0567C523.914 72.0457 523.914 72.0348 523.914 72.0239C523.914 72.013 523.914 72.0021 523.914 71.9912C523.914 71.9803 523.914 71.9694 523.914 71.9585C523.914 71.9476 523.914 71.9367 523.914 71.9258C523.914 71.915 523.914 71.9041 523.914 71.8933C523.914 71.8824 523.914 71.8716 523.914 71.8607C523.914 71.8499 523.914 71.8391 523.914 71.8283C523.914 71.8175 523.914 71.8067 523.914 71.7959C523.914 71.7851 523.914 71.7743 523.914 71.7635C523.914 71.7527 523.914 71.7419 523.914 71.7312C523.914 71.7204 523.914 71.7097 523.914 71.6989C523.914 71.6882 523.914 71.6774 523.914 71.6667C523.914 71.656 523.914 71.6453 523.914 71.6346C523.914 71.6239 523.914 71.6132 523.914 71.6025C523.914 71.5918 523.914 71.5811 523.914 71.5705C523.914 71.5598 523.914 71.5491 523.914 71.5385C523.914 71.5278 523.914 71.5172 523.914 71.5066C523.914 71.4959 523.914 71.4853 523.914 71.4747C523.914 71.4641 523.914 71.4535 523.914 71.4429C523.914 71.4323 523.914 71.4218 523.914 71.4112C523.914 71.4006 523.914 71.3901 523.914 71.3795C523.914 71.369 523.914 71.3584 523.914 71.3479C523.914 71.3374 523.914 71.3268 523.914 71.3163C523.914 71.3058 523.914 71.2953 523.914 71.2848C523.914 71.2743 523.914 71.2639 523.914 71.2534C523.914 71.2429 523.914 71.2325 523.914 71.222C523.914 71.2116 523.914 71.2011 523.914 71.1907C523.914 71.1803 523.914 71.1699 523.914 71.1595C523.914 71.1491 523.914 71.1387 523.914 71.1283C523.914 71.1179 523.914 71.1075 523.914 71.0972C523.914 71.0868 523.914 71.0765 523.914 71.0661C523.914 71.0558 523.914 71.0455 523.914 71.0351C523.914 71.0248 523.914 71.0145 523.914 71.0042C523.914 70.9939 523.914 70.9836 523.914 70.9734C523.914 70.9631 523.914 70.9528 523.914 70.9426H513.914Z" fill="black"/>
<path d="M497.595 89.944C505.746 84.8314 509.295 83.217 518.914 82.9922C525.696 82.8337 531.891 84.846 535.598 86.6999C542.087 89.944 548.112 95.2203 552.746 101.994C558.771 110.799 562.272 115.139 569.43 123.313C575.446 130.181 580.91 134.358 588.432 139.534C600.301 147.701 606.81 150.301 619.947 156.218C630.458 160.952 636.168 161.779 646.364 169.658C654.756 176.143 659.804 180.834 659.804 191.44C659.804 193.294 639.245 177.63 623.655 169.658C582.871 148.803 518.914 113.117 518.914 113.117C518.914 113.117 452.177 151.583 406.295 173.829C394.619 179.49 377.56 193.758 377.56 191.904C377.56 181.244 385.713 172.726 396.099 167.341C408.612 160.852 419.026 156.005 431.785 148.803C448.007 139.645 456.152 136.485 469.324 123.313C475.813 116.824 477.562 112.441 482.765 105.238C488.789 96.8958 490.873 94.1603 497.595 89.944Z" fill="black"/>
<path d="M396.473 173.829L642.024 174.523" stroke="black" stroke-width="10" stroke-linecap="round"/>
<rect x="492.014" y="40.0684" width="20.0015" height="13.3343" fill="#969598"/>
<path d="M313.48 640.819C313.968 632.965 309.028 622.298 314.906 622.298C324.877 622.298 353.268 623.722 363.343 623.722C366.193 623.722 363.211 634.358 363.344 639.394C363.579 648.363 363.017 651.773 361.919 655.066C360.494 659.34 349.763 656.491 341.974 656.491C331.402 656.491 321.766 659.919 314.904 656.491C312.053 655.066 313.1 646.927 313.48 640.819Z" fill="#6E7655" stroke="#6E7655"/>
<path d="M353.367 182.064C355.71 173.694 363.197 154.994 371.888 154.994C390.409 154.994 410.359 236.202 410.359 236.202C410.359 236.202 398.931 313.043 396.108 334.507C388.988 388.646 387.412 410.918 381.861 459.881C374.607 523.863 363.34 623.723 363.34 623.723H314.9C314.9 623.723 311.056 544.336 313.479 492.65C315.571 448.018 320.494 421.714 324.873 377.248C329.37 331.572 329.794 305.635 337.695 260.422C343.783 225.586 343.394 217.681 353.367 182.064Z" fill="#78815F"/>
<path d="M673.708 174.961C671.37 166.543 659.643 150.6 650.975 150.6C632.501 150.6 612.602 232.281 612.602 232.281C612.602 232.281 624.001 309.568 626.817 331.157C633.918 385.611 635.49 408.013 641.027 457.26C648.263 521.614 659.501 622.054 659.501 622.054H710.655C710.655 622.054 713.071 543.64 710.655 491.652C708.568 446.761 706.496 420.304 702.129 375.58C697.643 329.638 692.961 302.117 685.08 256.642C679.007 221.603 683.655 210.786 673.708 174.961Z" fill="#78815F"/>
<path d="M504.39 197.736C503.481 186.521 503.466 179.984 500.116 169.242C496.188 156.65 484.444 139.323 484.444 139.323L455.95 116.528C455.95 116.528 426.623 130.851 407.51 139.323C393.15 145.688 370.467 154.995 370.467 154.995C370.467 154.995 392.084 194.282 397.537 221.956C403.13 250.342 397.537 267.109 397.537 296.041V343.056C397.537 363.642 396.112 375.184 396.112 395.77C396.112 406.342 394.687 412.269 394.687 422.84C394.687 427.114 396.217 431.587 400.386 432.813C424.606 439.936 439.713 440.413 463.073 442.786C480.233 444.529 507.239 444.21 507.239 444.21C507.239 444.21 507.295 419.585 507.239 402.894C507.017 336.119 504.575 324.349 504.39 257.574C504.353 244.221 506.351 221.956 504.39 197.736Z" fill="#7E8764"/>
<path d="M517.212 192.037C518.421 180.85 519.274 173.592 524.336 163.543C529.758 152.779 544.282 137.898 544.282 137.898L573.026 112.206C573.026 112.206 601.958 127.31 620.837 136.292C635.021 143.04 657.446 152.952 657.446 152.952C657.446 152.952 634.783 191.646 628.59 219.163C622.237 247.389 627.378 264.3 626.602 293.221C626.109 311.575 624.558 323.277 624.065 341.631C623.513 362.21 625.49 372.975 626.602 392.921C627.19 403.476 628.623 410.847 628.339 421.415C628.225 425.687 626.841 433.123 622.64 434.237C598.238 440.708 580.519 441.04 557.104 442.785C539.904 444.067 514.072 444.21 514.072 444.21C514.072 444.21 513.569 413.776 514.072 397.092C516.086 330.348 512.095 320.045 514.072 253.299C514.467 239.952 514.601 216.196 517.212 192.037Z" fill="#7E8764"/>
<path d="M442.447 117.846C447.119 103.92 462.704 88.9492 462.704 88.9492C462.704 88.9492 464.435 105.171 466.667 114.997C468.616 123.576 473.793 136.367 473.793 136.367C462.109 146.939 450.996 156.313 446.722 164.862C442.448 173.41 436.95 134.233 442.447 117.846Z" fill="#67704F"/>
<path d="M584.919 120.696C579.812 106.557 566.263 92.1728 566.263 92.1728C566.263 92.1728 561.779 108.94 560.698 117.846C559.616 126.752 554.999 139.217 554.999 139.217C554.999 139.217 576.37 146.34 586.343 164.862C590.179 171.985 590.21 135.348 584.919 120.696Z" fill="#67704F"/>
<path d="M442.447 117.846C447.119 103.92 462.704 88.9492 462.704 88.9492C462.704 88.9492 464.435 105.171 466.667 114.997C468.616 123.576 473.793 136.367 473.793 136.367C462.109 146.939 450.996 156.313 446.722 164.862C442.448 173.41 436.95 134.233 442.447 117.846Z" stroke="#67704F"/>
<path d="M584.919 120.696C579.812 106.557 566.263 92.1728 566.263 92.1728C566.263 92.1728 561.779 108.94 560.698 117.846C559.616 126.752 554.999 139.217 554.999 139.217C554.999 139.217 576.37 146.34 586.343 164.862C590.179 171.985 590.21 135.348 584.919 120.696Z" stroke="#67704F"/>
<path d="M488.718 150.72C483.921 144.483 474.471 136.473 474.471 136.473C474.471 136.473 469.24 127.252 467.348 120.801C464.211 110.11 465.923 92.3071 465.923 92.3071C465.923 92.3071 469.284 101.037 471.622 106.554C476.67 118.47 480.631 124.639 485.869 136.473C491.221 148.567 498.691 167.817 498.691 167.817C498.691 167.817 493.43 156.847 488.718 150.72Z" fill="#5C6348"/>
<path d="M551.405 127.925C557.52 118.221 562.803 100.855 562.803 100.855L555.679 136.473C555.679 136.473 546.778 143.16 541.432 147.871C534.348 154.113 524.336 164.967 524.336 164.967C524.336 164.967 529.909 154.225 534.309 147.871C540.149 139.436 545.936 136.604 551.405 127.925Z" fill="#5C6348"/>
<path d="M488.718 150.72C483.921 144.483 474.471 136.473 474.471 136.473C474.471 136.473 469.24 127.252 467.348 120.801C464.211 110.11 465.923 92.3071 465.923 92.3071C465.923 92.3071 469.284 101.037 471.622 106.554C476.67 118.47 480.631 124.639 485.869 136.473C491.221 148.567 498.691 167.817 498.691 167.817C498.691 167.817 493.43 156.847 488.718 150.72Z" stroke="#5C6348" stroke-width="4" stroke-linecap="round"/>
<path d="M551.405 127.925C557.52 118.221 562.803 100.855 562.803 100.855L555.679 136.473C555.679 136.473 546.778 143.16 541.432 147.871C534.348 154.113 524.336 164.967 524.336 164.967C524.336 164.967 529.909 154.225 534.309 147.871C540.149 139.436 545.936 136.604 551.405 127.925Z" stroke="#5C6348" stroke-width="4" stroke-linecap="round"/>
<path d="M412.138 295.779C412.138 285.764 409.288 270.399 412.138 270.134C427.807 268.679 474.825 268.713 484.798 270.134C489.072 270.744 486.222 287.501 486.222 298.628C486.222 309.756 488.668 317.955 484.798 325.703C481.948 331.407 461.353 327.123 446.331 327.123H412.138C407.866 327.123 412.138 308.019 412.138 295.779Z" fill="#6F7853"/>
<path d="M407.865 253.042C407.865 247.478 406.441 238.795 409.292 237.37C417.35 233.341 431.868 234.755 446.332 234.519C462.475 234.256 478.372 231.306 487.65 235.945C490.498 237.369 489.281 247.215 489.075 254.466C488.9 260.627 489.606 271.284 487.649 271.563C477.676 272.988 462.298 269.816 446.334 270.138C431.86 270.43 417.837 274.413 409.292 271.563C407.136 270.844 407.865 260.831 407.865 253.042Z" fill="#67704F"/>
<path d="M537.512 295.779C537.512 285.764 534.663 270.399 537.512 270.134C553.181 268.679 600.199 268.713 610.172 270.134C614.446 270.744 611.597 287.501 611.597 298.628C611.597 309.756 614.043 317.955 610.172 325.703C607.322 331.407 586.728 327.123 571.705 327.123H537.512C533.24 327.123 537.512 308.019 537.512 295.779Z" fill="#6F7853"/>
<path d="M533.239 253.042C533.239 247.478 531.815 238.795 534.666 237.37C542.724 233.341 557.243 234.755 571.707 234.519C587.849 234.256 603.746 231.306 613.025 235.945C615.873 237.369 614.656 247.215 614.449 254.466C614.274 260.627 614.98 271.284 613.023 271.563C603.05 272.988 587.672 269.816 571.708 270.138C557.234 270.43 543.212 274.413 534.666 271.563C532.51 270.844 533.239 260.831 533.239 253.042Z" fill="#67704F"/>
<path d="M498.691 167.817C504.39 186.339 505.814 196.472 505.814 214.833C505.814 233.193 505.814 243.487 505.814 261.848C505.814 280.209 506.223 290.425 506.223 290.425" stroke="black" stroke-width="4"/>
<path d="M524.336 164.968C524.336 164.968 520.412 174.374 518.637 180.64C515.719 190.937 514.925 197.022 514.363 207.709C512.938 234.779 512.67 277.934 512.67 277.934" stroke="black" stroke-width="4"/>
<path d="M396.109 445.635C396.109 440.505 396.127 432.498 398.958 432.813C411.783 434.237 457.171 442.053 492.985 442.789C501.329 442.961 506.01 442.909 514.355 442.789C557.923 442.163 601.263 438.514 622.633 432.816C626.401 431.811 627.778 442.292 628.332 448.488C628.877 454.584 628.332 459.885 625.482 461.31C610.568 468.769 555.655 473.773 508.664 472.704C465.398 471.72 426.031 469.855 398.954 461.31C395.918 460.352 396.109 452.758 396.109 445.635Z" fill="#67704F"/>
<path d="M510.089 472.705L509.447 276.322" stroke="black" stroke-width="10"/>
<path d="M507.239 261.848H511.513V276.807C511.513 277.987 510.556 278.944 509.376 278.944V278.944C508.196 278.944 507.239 277.987 507.239 276.807V261.848Z" fill="#969598"/>
<path d="M636.833 491.987C636.056 489.657 631.136 467.76 625.436 462.063C624.011 460.639 622.586 463.603 608.339 466.343C594.092 469.083 584.119 470.612 584.119 470.612C584.119 470.612 592.415 502.613 604.065 523.331C615.456 543.59 646.806 580.315 646.806 580.315C646.806 580.315 648.231 526.18 636.833 491.987Z" fill="#78805F"/>
<path d="M386.402 490.933C386.979 488.545 392.1 466.706 397.8 461.009C399.224 459.585 400.649 462.548 414.896 465.288C429.143 468.028 441.648 469.187 441.648 469.187C441.648 469.187 429.078 505.458 417.428 526.176C406.037 546.435 374.687 578.89 374.687 578.89C374.687 578.89 377.537 527.6 386.402 490.933Z" fill="#78805F"/>
<path d="M502.988 477.538C505.109 526.33 502.857 616.676 508.863 612.655C521.691 604.066 528.093 581.176 527.464 566.721C526.567 546.077 529.943 529.01 523.548 476.644C523.091 472.903 502.669 470.21 502.988 477.538Z" fill="#78805F"/>
<path d="M395.978 1202.75C395.978 1195.77 392.952 1187.84 395.978 1184.86C399.003 1181.88 474.913 1179.18 480.672 1184.86C483.696 1187.84 481.916 1195.75 482.184 1202.75C482.407 1208.57 485.045 1217.18 479.159 1217.67C461.01 1219.16 451.743 1218.59 432.275 1217.67C418.067 1216.99 409.589 1220.65 399.002 1216.17C395.471 1214.68 395.978 1209.74 395.978 1202.75Z" fill="#6F7756" stroke="#6F7756"/>
<path d="M535.686 1202.75C535.686 1195.77 532.465 1187.84 535.686 1184.86C538.906 1181.88 619.714 1179.18 625.844 1184.86C629.063 1187.84 627.169 1195.75 627.454 1202.75C627.691 1208.57 630.499 1217.18 624.234 1217.67C604.914 1219.16 595.049 1218.59 574.325 1217.67C559.201 1216.99 550.175 1220.65 538.905 1216.17C535.147 1214.68 535.686 1209.74 535.686 1202.75Z" fill="#6F7756" stroke="#6F7756"/>
<path d="M660.019 637.352C660.507 629.499 655.568 618.831 661.445 618.831C671.416 618.831 699.808 620.256 709.882 620.256C712.732 620.256 709.75 630.891 709.883 635.928C710.119 644.896 709.556 648.306 708.458 651.599C707.033 655.873 696.302 653.024 688.513 653.024C677.942 653.024 668.305 656.452 661.444 653.024C658.592 651.599 659.639 643.46 660.019 637.352Z" fill="#6E7655" stroke="#6E7655"/>
</g>
<defs>
<clipPath id="clip0_4_3247">
<rect width="1366" height="1024" fill="white" transform="translate(0 1366) rotate(-90)"/>
</clipPath>
</defs>
</svg>
