<svg width="1024" height="1366" viewBox="0 0 1024 1366" fill="none" xmlns="http://www.w3.org/2000/svg">
<g clip-path="url(#clip0_2_2150)">
<rect width="1366" height="1024" transform="translate(0 1366) rotate(-90)" fill="#54545A"/>
<rect x="-340" y="40" width="1546" height="14.05" fill="#969598"/>
<path d="M385.504 323.249C396.394 290.577 424.806 241.369 424.806 241.369H634.419C634.419 241.369 665.515 317.445 673.721 346.126C693.372 414.806 703.198 490.235 703.198 536.088C703.198 634.344 698.099 641.981 693.373 739.15C687.21 865.858 680.272 935.662 673.721 1056.84C671.374 1100.27 663.896 1178.08 663.896 1178.08H545.989C545.989 1178.08 550.764 1016.67 545.989 912.786C538.91 758.801 519.787 516.436 519.787 516.436C519.787 516.436 490.31 771.902 477.209 912.786C468.42 1007.31 464.109 1178.08 464.109 1178.08H349.476C349.476 1178.08 336.376 1077.25 336.376 1027.37C336.376 955.263 320 801.379 320 758.801C320 716.223 326.625 559.014 336.376 516.436C352.183 447.412 352.752 421.505 385.504 323.249Z" fill="#F24920"/>
<path d="M423.996 242.64C417.412 241.141 416.586 201.847 423.169 203.346C462.669 212.343 477.125 209.408 518.336 211.173C561.783 213.033 613.024 209.181 632.942 208.762C642.766 208.556 641.771 244.011 636.974 244.713C610.847 248.538 565.846 246.209 522.368 247.123C481.447 247.984 450.329 248.638 423.996 242.64Z" fill="#DE401A"/>
<path d="M519.371 249.193C519.371 301.892 512.939 399.183 519.371 395.13C533.111 386.471 540.808 362.095 540.808 346.483C540.808 324.186 545.095 305.946 540.808 249.193C540.502 245.139 519.371 241.278 519.371 249.193Z" fill="#E74119"/>
<path d="M588.766 325.235C590.917 318.178 598.066 307.979 600.575 310.485C609.432 319.335 618.29 328.185 630.099 337.034C641.909 345.883 650.766 348.834 659.623 357.683C664.377 362.433 650.766 377.595 647.813 375.383C636.004 366.533 627.963 362.596 615.337 351.784C602.323 340.638 586.614 332.291 588.766 325.235Z" fill="#DE401A"/>
<path d="M413.056 356.901C407.016 352.665 399.539 342.702 402.701 341.096C413.864 335.423 425.026 329.751 437.104 321.272C449.182 312.793 454.736 305.29 465.898 299.617C471.889 296.573 482.076 314.218 479.057 316.338C466.978 324.817 460.739 331.239 446.542 339.884C431.907 348.795 419.096 361.136 413.056 356.901Z" fill="#DE401A"/>
<circle cx="532.888" cy="228.217" r="9.82561" fill="#C43918"/>
<path d="M342.927 1174.75C342.927 1167.08 341.803 1158.38 349.477 1158.38C359.303 1158.38 370.873 1158.38 388.78 1158.38C419.477 1158.38 451.008 1158.38 464.109 1161.65C468.846 1162.83 470.659 1170.35 470.659 1178.03C470.659 1183.14 469.174 1190.4 464.109 1191.13C441.182 1194.4 427.461 1191.13 401.88 1191.13C378.857 1191.13 356.027 1194.4 349.477 1191.13C344.901 1188.84 342.927 1179.87 342.927 1174.75Z" fill="#DE401A"/>
<path d="M668.65 1178.86C669.104 1171.2 670.718 1162.58 663.215 1162.13C653.609 1161.56 642.298 1160.89 624.791 1159.85C594.779 1158.07 563.952 1156.24 550.95 1158.75C546.248 1159.66 544.031 1167.06 543.576 1174.72C543.273 1179.82 544.295 1187.16 549.204 1188.17C571.425 1192.77 585.034 1190.3 610.043 1191.78C632.552 1193.12 654.678 1197.71 661.276 1194.82C665.885 1192.81 668.347 1183.97 668.65 1178.86Z" fill="#DE401A"/>
<path d="M501.543 53.3146C501.384 56.0714 503.49 58.4352 506.247 58.5942C509.003 58.7532 511.367 56.6472 511.526 53.8904L501.543 53.3146ZM527.125 33.0021L527.187 38.0017L527.125 33.0021ZM548.206 53.6025L553.201 53.3705L548.206 53.6025ZM522.125 89.6532C522.125 92.4146 524.364 94.6532 527.125 94.6532C529.887 94.6532 532.125 92.4146 532.125 89.6532H522.125ZM511.526 53.8904C512.059 44.6573 518.915 38.1038 527.187 38.0017L527.064 28.0025C513.128 28.1744 502.353 39.26 501.543 53.3146L511.526 53.8904ZM527.187 38.0017C535.592 37.898 542.782 44.584 543.212 53.8344L553.201 53.3705C552.535 39.0257 541.144 27.8287 527.064 28.0025L527.187 38.0017ZM543.212 53.8344C543.414 58.2019 542.424 60.9613 541.187 62.7877C539.917 64.6617 538.094 65.9814 535.968 66.9456C533.817 67.9215 531.554 68.4456 529.595 68.8295C528.757 68.9939 527.634 69.1928 526.885 69.3758C526.53 69.4626 525.852 69.6365 525.181 69.9643C524.848 70.1268 524.21 70.4707 523.598 71.1013C522.926 71.7947 522.125 73.0241 522.125 74.7179H532.125C532.125 76.3151 531.367 77.454 530.779 78.0613C530.251 78.6058 529.737 78.8681 529.565 78.9519C529.216 79.1222 529.011 79.1504 529.258 79.0903C529.711 78.9795 530.305 78.8807 531.519 78.6428C533.666 78.222 536.857 77.5229 540.099 76.0525C543.366 74.5704 546.874 72.2207 549.465 68.3974C552.088 64.5265 553.488 59.5608 553.201 53.3705L543.212 53.8344ZM522.125 74.7179C522.125 74.7293 522.125 74.7407 522.125 74.7521C522.125 74.7635 522.125 74.7749 522.125 74.7864C522.125 74.7978 522.125 74.8093 522.125 74.8207C522.125 74.8322 522.125 74.8437 522.125 74.8552C522.125 74.8667 522.125 74.8782 522.125 74.8897C522.125 74.9012 522.125 74.9127 522.125 74.9243C522.125 74.9358 522.125 74.9473 522.125 74.9589C522.125 74.9705 522.125 74.982 522.125 74.9936C522.125 75.0052 522.125 75.0168 522.125 75.0284C522.125 75.04 522.125 75.0516 522.125 75.0633C522.125 75.0749 522.125 75.0866 522.125 75.0982C522.125 75.1099 522.125 75.1215 522.125 75.1332C522.125 75.1449 522.125 75.1566 522.125 75.1683C522.125 75.18 522.125 75.1917 522.125 75.2034C522.125 75.2151 522.125 75.2269 522.125 75.2386C522.125 75.2504 522.125 75.2621 522.125 75.2739C522.125 75.2856 522.125 75.2974 522.125 75.3092C522.125 75.321 522.125 75.3328 522.125 75.3446C522.125 75.3564 522.125 75.3682 522.125 75.3801C522.125 75.3919 522.125 75.4038 522.125 75.4156C522.125 75.4275 522.125 75.4393 522.125 75.4512C522.125 75.4631 522.125 75.475 522.125 75.4869C522.125 75.4988 522.125 75.5107 522.125 75.5226C522.125 75.5345 522.125 75.5464 522.125 75.5584C522.125 75.5703 522.125 75.5822 522.125 75.5942C522.125 75.6062 522.125 75.6181 522.125 75.6301C522.125 75.6421 522.125 75.6541 522.125 75.6661C522.125 75.6781 522.125 75.6901 522.125 75.7021C522.125 75.7141 522.125 75.7261 522.125 75.7382C522.125 75.7502 522.125 75.7623 522.125 75.7743C522.125 75.7864 522.125 75.7984 522.125 75.8105C522.125 75.8226 522.125 75.8347 522.125 75.8468C522.125 75.8589 522.125 75.871 522.125 75.8831C522.125 75.8952 522.125 75.9073 522.125 75.9195C522.125 75.9316 522.125 75.9437 522.125 75.9559C522.125 75.9681 522.125 75.9802 522.125 75.9924C522.125 76.0046 522.125 76.0167 522.125 76.0289C522.125 76.0411 522.125 76.0533 522.125 76.0655C522.125 76.0777 522.125 76.0899 522.125 76.1022C522.125 76.1144 522.125 76.1266 522.125 76.1389C522.125 76.1511 522.125 76.1634 522.125 76.1756C522.125 76.1879 522.125 76.2001 522.125 76.2124C522.125 76.2247 522.125 76.237 522.125 76.2493C522.125 76.2616 522.125 76.2739 522.125 76.2862C522.125 76.2985 522.125 76.3108 522.125 76.3231C522.125 76.3355 522.125 76.3478 522.125 76.3602C522.125 76.3725 522.125 76.3848 522.125 76.3972C522.125 76.4096 522.125 76.4219 522.125 76.4343C522.125 76.4467 522.125 76.4591 522.125 76.4715C522.125 76.4839 522.125 76.4963 522.125 76.5087C522.125 76.5211 522.125 76.5335 522.125 76.5459C522.125 76.5583 522.125 76.5708 522.125 76.5832C522.125 76.5957 522.125 76.6081 522.125 76.6206C522.125 76.633 522.125 76.6455 522.125 76.658C522.125 76.6704 522.125 76.6829 522.125 76.6954C522.125 76.7079 522.125 76.7204 522.125 76.7329C522.125 76.7454 522.125 76.7579 522.125 76.7704C522.125 76.7829 522.125 76.7954 522.125 76.8079C522.125 76.8205 522.125 76.833 522.125 76.8456C522.125 76.8581 522.125 76.8706 522.125 76.8832C522.125 76.8958 522.125 76.9083 522.125 76.9209C522.125 76.9335 522.125 76.946 522.125 76.9586C522.125 76.9712 522.125 76.9838 522.125 76.9964C522.125 77.009 522.125 77.0216 522.125 77.0342C522.125 77.0468 522.125 77.0594 522.125 77.0721C522.125 77.0847 522.125 77.0973 522.125 77.11C522.125 77.1226 522.125 77.1352 522.125 77.1479C522.125 77.1605 522.125 77.1732 522.125 77.1859C522.125 77.1985 522.125 77.2112 522.125 77.2239C522.125 77.2365 522.125 77.2492 522.125 77.2619C522.125 77.2746 522.125 77.2873 522.125 77.3C522.125 77.3127 522.125 77.3254 522.125 77.3381C522.125 77.3508 522.125 77.3635 522.125 77.3762C522.125 77.389 522.125 77.4017 522.125 77.4144C522.125 77.4272 522.125 77.4399 522.125 77.4526C522.125 77.4654 522.125 77.4781 522.125 77.4909C522.125 77.5036 522.125 77.5164 522.125 77.5292C522.125 77.5419 522.125 77.5547 522.125 77.5675C522.125 77.5803 522.125 77.593 522.125 77.6058C522.125 77.6186 522.125 77.6314 522.125 77.6442C522.125 77.657 522.125 77.6698 522.125 77.6826C522.125 77.6954 522.125 77.7082 522.125 77.7211C522.125 77.7339 522.125 77.7467 522.125 77.7595C522.125 77.7724 522.125 77.7852 522.125 77.798C522.125 77.8109 522.125 77.8237 522.125 77.8365C522.125 77.8494 522.125 77.8622 522.125 77.8751C522.125 77.888 522.125 77.9008 522.125 77.9137C522.125 77.9265 522.125 77.9394 522.125 77.9523C522.125 77.9652 522.125 77.978 522.125 77.9909C522.125 78.0038 522.125 78.0167 522.125 78.0296C522.125 78.0425 522.125 78.0554 522.125 78.0683C522.125 78.0812 522.125 78.0941 522.125 78.107C522.125 78.1199 522.125 78.1328 522.125 78.1457C522.125 78.1586 522.125 78.1715 522.125 78.1845C522.125 78.1974 522.125 78.2103 522.125 78.2232C522.125 78.2362 522.125 78.2491 522.125 78.262C522.125 78.275 522.125 78.2879 522.125 78.3009C522.125 78.3138 522.125 78.3268 522.125 78.3397C522.125 78.3527 522.125 78.3656 522.125 78.3786C522.125 78.3915 522.125 78.4045 522.125 78.4175C522.125 78.4304 522.125 78.4434 522.125 78.4564C522.125 78.4693 522.125 78.4823 522.125 78.4953C522.125 78.5083 522.125 78.5212 522.125 78.5342C522.125 78.5472 522.125 78.5602 522.125 78.5732C522.125 78.5862 522.125 78.5992 522.125 78.6122C522.125 78.6252 522.125 78.6382 522.125 78.6512C522.125 78.6642 522.125 78.6772 522.125 78.6902C522.125 78.7032 522.125 78.7162 522.125 78.7292C522.125 78.7422 522.125 78.7552 522.125 78.7682C522.125 78.7812 522.125 78.7943 522.125 78.8073C522.125 78.8203 522.125 78.8333 522.125 78.8464C522.125 78.8594 522.125 78.8724 522.125 78.8854C522.125 78.8985 522.125 78.9115 522.125 78.9245C522.125 78.9376 522.125 78.9506 522.125 78.9636C522.125 78.9767 522.125 78.9897 522.125 79.0028C522.125 79.0158 522.125 79.0288 522.125 79.0419C522.125 79.0549 522.125 79.068 522.125 79.081C522.125 79.0941 522.125 79.1071 522.125 79.1202C522.125 79.1332 522.125 79.1463 522.125 79.1593C522.125 79.1724 522.125 79.1855 522.125 79.1985C522.125 79.2116 522.125 79.2246 522.125 79.2377C522.125 79.2508 522.125 79.2638 522.125 79.2769C522.125 79.2899 522.125 79.303 522.125 79.3161C522.125 79.3291 522.125 79.3422 522.125 79.3553C522.125 79.3683 522.125 79.3814 522.125 79.3945C522.125 79.4076 522.125 79.4206 522.125 79.4337C522.125 79.4468 522.125 79.4598 522.125 79.4729C522.125 79.486 522.125 79.4991 522.125 79.5121C522.125 79.5252 522.125 79.5383 522.125 79.5514C522.125 79.5644 522.125 79.5775 522.125 79.5906C522.125 79.6037 522.125 79.6167 522.125 79.6298C522.125 79.6429 522.125 79.656 522.125 79.6691C522.125 79.6821 522.125 79.6952 522.125 79.7083C522.125 79.7214 522.125 79.7345 522.125 79.7475C522.125 79.7606 522.125 79.7737 522.125 79.7868C522.125 79.7999 522.125 79.8129 522.125 79.826C522.125 79.8391 522.125 79.8522 522.125 79.8653C522.125 79.8783 522.125 79.8914 522.125 79.9045C522.125 79.9176 522.125 79.9306 522.125 79.9437C522.125 79.9568 522.125 79.9699 522.125 79.983C522.125 79.996 522.125 80.0091 522.125 80.0222C522.125 80.0353 522.125 80.0483 522.125 80.0614C522.125 80.0745 522.125 80.0876 522.125 80.1006C522.125 80.1137 522.125 80.1268 522.125 80.1399C522.125 80.1529 522.125 80.166 522.125 80.1791C522.125 80.1922 522.125 80.2052 522.125 80.2183C522.125 80.2314 522.125 80.2444 522.125 80.2575C522.125 80.2706 522.125 80.2836 522.125 80.2967C522.125 80.3098 522.125 80.3228 522.125 80.3359C522.125 80.349 522.125 80.362 522.125 80.3751C522.125 80.3881 522.125 80.4012 522.125 80.4143C522.125 80.4273 522.125 80.4404 522.125 80.4534C522.125 80.4665 522.125 80.4795 522.125 80.4926C522.125 80.5056 522.125 80.5187 522.125 80.5317C522.125 80.5448 522.125 80.5578 522.125 80.5709C522.125 80.5839 522.125 80.5969 522.125 80.61C522.125 80.623 522.125 80.6361 522.125 80.6491C522.125 80.6621 522.125 80.6752 522.125 80.6882C522.125 80.7012 522.125 80.7143 522.125 80.7273C522.125 80.7403 522.125 80.7534 522.125 80.7664C522.125 80.7794 522.125 80.7924 522.125 80.8054C522.125 80.8185 522.125 80.8315 522.125 80.8445C522.125 80.8575 522.125 80.8705 522.125 80.8835C522.125 80.8965 522.125 80.9095 522.125 80.9225C522.125 80.9355 522.125 80.9486 522.125 80.9615C522.125 80.9745 522.125 80.9875 522.125 81.0005C522.125 81.0135 522.125 81.0265 522.125 81.0395C522.125 81.0525 522.125 81.0655 522.125 81.0785C522.125 81.0914 522.125 81.1044 522.125 81.1174C522.125 81.1304 522.125 81.1433 522.125 81.1563C522.125 81.1693 522.125 81.1822 522.125 81.1952C522.125 81.2082 522.125 81.2211 522.125 81.2341C522.125 81.247 522.125 81.26 522.125 81.2729C522.125 81.2859 522.125 81.2988 522.125 81.3118C522.125 81.3247 522.125 81.3377 522.125 81.3506C522.125 81.3635 522.125 81.3765 522.125 81.3894C522.125 81.4023 522.125 81.4152 522.125 81.4282C522.125 81.4411 522.125 81.454 522.125 81.4669C522.125 81.4798 522.125 81.4927 522.125 81.5056C522.125 81.5185 522.125 81.5314 522.125 81.5443C522.125 81.5572 522.125 81.5701 522.125 81.583C522.125 81.5959 522.125 81.6088 522.125 81.6217C522.125 81.6345 522.125 81.6474 522.125 81.6603C522.125 81.6731 522.125 81.686 522.125 81.6989C522.125 81.7117 522.125 81.7246 522.125 81.7374C522.125 81.7503 522.125 81.7631 522.125 81.776C522.125 81.7888 522.125 81.8017 522.125 81.8145C522.125 81.8273 522.125 81.8402 522.125 81.853C522.125 81.8658 522.125 81.8786 522.125 81.8914C522.125 81.9043 522.125 81.9171 522.125 81.9299C522.125 81.9427 522.125 81.9555 522.125 81.9683C522.125 81.9811 522.125 81.9939 522.125 82.0066C522.125 82.0194 522.125 82.0322 522.125 82.045C522.125 82.0577 522.125 82.0705 522.125 82.0833C522.125 82.096 522.125 82.1088 522.125 82.1215C522.125 82.1343 522.125 82.147 522.125 82.1598C522.125 82.1725 522.125 82.1853 522.125 82.198C522.125 82.2107 522.125 82.2234 522.125 82.2362C522.125 82.2489 522.125 82.2616 522.125 82.2743C522.125 82.287 522.125 82.2997 522.125 82.3124C522.125 82.3251 522.125 82.3378 522.125 82.3505C522.125 82.3631 522.125 82.3758 522.125 82.3885C522.125 82.4012 522.125 82.4138 522.125 82.4265C522.125 82.4391 522.125 82.4518 522.125 82.4644C522.125 82.4771 522.125 82.4897 522.125 82.5024C522.125 82.515 522.125 82.5276 522.125 82.5402C522.125 82.5528 522.125 82.5655 522.125 82.5781C522.125 82.5907 522.125 82.6033 522.125 82.6159C522.125 82.6285 522.125 82.641 522.125 82.6536C522.125 82.6662 522.125 82.6788 522.125 82.6913C522.125 82.7039 522.125 82.7165 522.125 82.729C522.125 82.7416 522.125 82.7541 522.125 82.7667C522.125 82.7792 522.125 82.7917 522.125 82.8042C522.125 82.8168 522.125 82.8293 522.125 82.8418C522.125 82.8543 522.125 82.8668 522.125 82.8793C522.125 82.8918 522.125 82.9043 522.125 82.9168C522.125 82.9292 522.125 82.9417 522.125 82.9542C522.125 82.9666 522.125 82.9791 522.125 82.9915C522.125 83.004 522.125 83.0164 522.125 83.0289C522.125 83.0413 522.125 83.0537 522.125 83.0662C522.125 83.0786 522.125 83.091 522.125 83.1034C522.125 83.1158 522.125 83.1282 522.125 83.1406C522.125 83.153 522.125 83.1653 522.125 83.1777C522.125 83.1901 522.125 83.2024 522.125 83.2148C522.125 83.2272 522.125 83.2395 522.125 83.2518C522.125 83.2642 522.125 83.2765 522.125 83.2888C522.125 83.3012 522.125 83.3135 522.125 83.3258C522.125 83.3381 522.125 83.3504 522.125 83.3627C522.125 83.3749 522.125 83.3872 522.125 83.3995C522.125 83.4118 522.125 83.424 522.125 83.4363C522.125 83.4485 522.125 83.4608 522.125 83.473C522.125 83.4853 522.125 83.4975 522.125 83.5097C522.125 83.5219 522.125 83.5341 522.125 83.5463C522.125 83.5585 522.125 83.5707 522.125 83.5829C522.125 83.5951 522.125 83.6073 522.125 83.6194C522.125 83.6316 522.125 83.6437 522.125 83.6559C522.125 83.668 522.125 83.6802 522.125 83.6923C522.125 83.7044 522.125 83.7165 522.125 83.7286C522.125 83.7408 522.125 83.7529 522.125 83.7649C522.125 83.777 522.125 83.7891 522.125 83.8012C522.125 83.8132 522.125 83.8253 522.125 83.8374C522.125 83.8494 522.125 83.8614 522.125 83.8735C522.125 83.8855 522.125 83.8975 522.125 83.9095C522.125 83.9216 522.125 83.9336 522.125 83.9455C522.125 83.9575 522.125 83.9695 522.125 83.9815C522.125 83.9935 522.125 84.0054 522.125 84.0174C522.125 84.0293 522.125 84.0413 522.125 84.0532C522.125 84.0651 522.125 84.077 522.125 84.089C522.125 84.1009 522.125 84.1128 522.125 84.1246C522.125 84.1365 522.125 84.1484 522.125 84.1603C522.125 84.1722 522.125 84.184 522.125 84.1959C522.125 84.2077 522.125 84.2195 522.125 84.2314C522.125 84.2432 522.125 84.255 522.125 84.2668C522.125 84.2786 522.125 84.2904 522.125 84.3022C522.125 84.314 522.125 84.3257 522.125 84.3375C522.125 84.3492 522.125 84.361 522.125 84.3727C522.125 84.3845 522.125 84.3962 522.125 84.4079C522.125 84.4196 522.125 84.4313 522.125 84.443C522.125 84.4547 522.125 84.4664 522.125 84.4781C522.125 84.4897 522.125 84.5014 522.125 84.513C522.125 84.5247 522.125 84.5363 522.125 84.5479C522.125 84.5596 522.125 84.5712 522.125 84.5828C522.125 84.5944 522.125 84.606 522.125 84.6176C522.125 84.6291 522.125 84.6407 522.125 84.6522C522.125 84.6638 522.125 84.6753 522.125 84.6869C522.125 84.6984 522.125 84.7099 522.125 84.7214C522.125 84.7329 522.125 84.7444 522.125 84.7559C522.125 84.7674 522.125 84.7789 522.125 84.7903C522.125 84.8018 522.125 84.8132 522.125 84.8246C522.125 84.8361 522.125 84.8475 522.125 84.8589C522.125 84.8703 522.125 84.8817 522.125 84.8931C522.125 84.9045 522.125 84.9158 522.125 84.9272C522.125 84.9386 522.125 84.9499 522.125 84.9612C522.125 84.9726 522.125 84.9839 522.125 84.9952C522.125 85.0065 522.125 85.0178 522.125 85.0291C522.125 85.0404 522.125 85.0516 522.125 85.0629C522.125 85.0741 522.125 85.0854 522.125 85.0966C522.125 85.1078 522.125 85.1191 522.125 85.1303C522.125 85.1415 522.125 85.1527 522.125 85.1638C522.125 85.175 522.125 85.1862 522.125 85.1973C522.125 85.2085 522.125 85.2196 522.125 85.2307C522.125 85.2419 522.125 85.253 522.125 85.2641C522.125 85.2752 522.125 85.2862 522.125 85.2973C522.125 85.3084 522.125 85.3194 522.125 85.3305C522.125 85.3415 522.125 85.3525 522.125 85.3636C522.125 85.3746 522.125 85.3856 522.125 85.3966C522.125 85.4076 522.125 85.4185 522.125 85.4295C522.125 85.4404 522.125 85.4514 522.125 85.4623C522.125 85.4733 522.125 85.4842 522.125 85.4951C522.125 85.506 522.125 85.5169 522.125 85.5277C522.125 85.5386 522.125 85.5495 522.125 85.5603C522.125 85.5712 522.125 85.582 522.125 85.5928C522.125 85.6036 522.125 85.6144 522.125 85.6252C522.125 85.636 522.125 85.6468 522.125 85.6575C522.125 85.6683 522.125 85.679 522.125 85.6898C522.125 85.7005 522.125 85.7112 522.125 85.7219C522.125 85.7326 522.125 85.7433 522.125 85.754C522.125 85.7646 522.125 85.7753 522.125 85.7859C522.125 85.7966 522.125 85.8072 522.125 85.8178C522.125 85.8284 522.125 85.839 522.125 85.8496C522.125 85.8602 522.125 85.8707 522.125 85.8813C522.125 85.8918 522.125 85.9024 522.125 85.9129C522.125 85.9234 522.125 85.9339 522.125 85.9444C522.125 85.9549 522.125 85.9654 522.125 85.9758C522.125 85.9863 522.125 85.9967 522.125 86.0071C522.125 86.0176 522.125 86.028 522.125 86.0384C522.125 86.0488 522.125 86.0591 522.125 86.0695C522.125 86.0799 522.125 86.0902 522.125 86.1005C522.125 86.1109 522.125 86.1212 522.125 86.1315C522.125 86.1418 522.125 86.1521 522.125 86.1623C522.125 86.1726 522.125 86.1829 522.125 86.1931C522.125 86.2033 522.125 86.2135 522.125 86.2237C522.125 86.234 522.125 86.2441 522.125 86.2543C522.125 86.2645 522.125 86.2746 522.125 86.2848C522.125 86.2949 522.125 86.305 522.125 86.3151C522.125 86.3252 522.125 86.3353 522.125 86.3454C522.125 86.3555 522.125 86.3655 522.125 86.3756C522.125 86.3856 522.125 86.3956 522.125 86.4056C522.125 86.4156 522.125 86.4256 522.125 86.4356C522.125 86.4455 522.125 86.4555 522.125 86.4654C522.125 86.4754 522.125 86.4853 522.125 86.4952C522.125 86.5051 522.125 86.515 522.125 86.5248C522.125 86.5347 522.125 86.5446 522.125 86.5544C522.125 86.5642 522.125 86.574 522.125 86.5838C522.125 86.5936 522.125 86.6034 522.125 86.6132C522.125 86.6229 522.125 86.6327 522.125 86.6424C522.125 86.6521 522.125 86.6619 522.125 86.6715C522.125 86.6812 522.125 86.6909 522.125 86.7006C522.125 86.7102 522.125 86.7199 522.125 86.7295C522.125 86.7391 522.125 86.7487 522.125 86.7583C522.125 86.7679 522.125 86.7775 522.125 86.787C522.125 86.7966 522.125 86.8061 522.125 86.8156C522.125 86.8251 522.125 86.8346 522.125 86.8441C522.125 86.8536 522.125 86.863 522.125 86.8725C522.125 86.8819 522.125 86.8913 522.125 86.9007C522.125 86.9101 522.125 86.9195 522.125 86.9289C522.125 86.9383 522.125 86.9476 522.125 86.9569C522.125 86.9663 522.125 86.9756 522.125 86.9849C522.125 86.9942 522.125 87.0034 522.125 87.0127C522.125 87.022 522.125 87.0312 522.125 87.0404C522.125 87.0496 522.125 87.0588 522.125 87.068C522.125 87.0772 522.125 87.0863 522.125 87.0955C522.125 87.1046 522.125 87.1138 522.125 87.1229C522.125 87.132 522.125 87.141 522.125 87.1501C522.125 87.1592 522.125 87.1682 522.125 87.1772C522.125 87.1863 522.125 87.1953 522.125 87.2043C522.125 87.2133 522.125 87.2222 522.125 87.2312C522.125 87.2401 522.125 87.2491 522.125 87.258C522.125 87.2669 522.125 87.2758 522.125 87.2846C522.125 87.2935 522.125 87.3024 522.125 87.3112C522.125 87.32 522.125 87.3288 522.125 87.3376C522.125 87.3464 522.125 87.3552 522.125 87.3639C522.125 87.3727 522.125 87.3814 522.125 87.3901C522.125 87.3988 522.125 87.4075 522.125 87.4162C522.125 87.4249 522.125 87.4335 522.125 87.4422C522.125 87.4508 522.125 87.4594 522.125 87.468C522.125 87.4766 522.125 87.4852 522.125 87.4937C522.125 87.5023 522.125 87.5108 522.125 87.5193C522.125 87.5278 522.125 87.5363 522.125 87.5448C522.125 87.5532 522.125 87.5617 522.125 87.5701C522.125 87.5785 522.125 87.5869 522.125 87.5953C522.125 87.6037 522.125 87.6121 522.125 87.6204C522.125 87.6288 522.125 87.6371 522.125 87.6454C522.125 87.6537 522.125 87.662 522.125 87.6702C522.125 87.6785 522.125 87.6867 522.125 87.6949C522.125 87.7031 522.125 87.7113 522.125 87.7195C522.125 87.7277 522.125 87.7358 522.125 87.744C522.125 87.7521 522.125 87.7602 522.125 87.7683C522.125 87.7764 522.125 87.7845 522.125 87.7925C522.125 87.8006 522.125 87.8086 522.125 87.8166C522.125 87.8246 522.125 87.8326 522.125 87.8405C522.125 87.8485 522.125 87.8564 522.125 87.8643C522.125 87.8723 522.125 87.8801 522.125 87.888C522.125 87.8959 522.125 87.9037 522.125 87.9116C522.125 87.9194 522.125 87.9272 522.125 87.935C522.125 87.9428 522.125 87.9505 522.125 87.9583C522.125 87.966 522.125 87.9737 522.125 87.9814C522.125 87.9891 522.125 87.9968 522.125 88.0044C522.125 88.0121 522.125 88.0197 522.125 88.0273C522.125 88.0349 522.125 88.0425 522.125 88.0501C522.125 88.0576 522.125 88.0652 522.125 88.0727C522.125 88.0802 522.125 88.0877 522.125 88.0952C522.125 88.1026 522.125 88.1101 522.125 88.1175C522.125 88.1249 522.125 88.1323 522.125 88.1397C522.125 88.1471 522.125 88.1545 522.125 88.1618C522.125 88.1691 522.125 88.1764 522.125 88.1837C522.125 88.191 522.125 88.1983 522.125 88.2055C522.125 88.2128 522.125 88.22 522.125 88.2272C522.125 88.2344 522.125 88.2415 522.125 88.2487C522.125 88.2558 522.125 88.263 522.125 88.2701C522.125 88.2772 522.125 88.2842 522.125 88.2913C522.125 88.2983 522.125 88.3054 522.125 88.3124C522.125 88.3194 522.125 88.3264 522.125 88.3333C522.125 88.3403 522.125 88.3472 522.125 88.3541C522.125 88.361 522.125 88.3679 522.125 88.3748C522.125 88.3817 522.125 88.3885 522.125 88.3953C522.125 88.4021 522.125 88.4089 522.125 88.4157C522.125 88.4224 522.125 88.4292 522.125 88.4359C522.125 88.4426 522.125 88.4493 522.125 88.456C522.125 88.4627 522.125 88.4693 522.125 88.4759C522.125 88.4826 522.125 88.4892 522.125 88.4957C522.125 88.5023 522.125 88.5088 522.125 88.5154C522.125 88.5219 522.125 88.5284 522.125 88.5349C522.125 88.5413 522.125 88.5478 522.125 88.5542C522.125 88.5606 522.125 88.567 522.125 88.5734C522.125 88.5798 522.125 88.5861 522.125 88.5925C522.125 88.5988 522.125 88.6051 522.125 88.6114C522.125 88.6176 522.125 88.6239 522.125 88.6301C522.125 88.6364 522.125 88.6426 522.125 88.6487C522.125 88.6549 522.125 88.6611 522.125 88.6672C522.125 88.6733 522.125 88.6794 522.125 88.6855C522.125 88.6915 522.125 88.6976 522.125 88.7036C522.125 88.7096 522.125 88.7156 522.125 88.7216C522.125 88.7276 522.125 88.7335 522.125 88.7395C522.125 88.7454 522.125 88.7513 522.125 88.7571C522.125 88.763 522.125 88.7688 522.125 88.7747C522.125 88.7805 522.125 88.7863 522.125 88.792C522.125 88.7978 522.125 88.8035 522.125 88.8093C522.125 88.815 522.125 88.8207 522.125 88.8263C522.125 88.832 522.125 88.8376 522.125 88.8432C522.125 88.8488 522.125 88.8544 522.125 88.86C522.125 88.8655 522.125 88.8711 522.125 88.8766C522.125 88.8821 522.125 88.8875 522.125 88.893C522.125 88.8984 522.125 88.9039 522.125 88.9093C522.125 88.9147 522.125 88.92 522.125 88.9254C522.125 88.9307 522.125 88.936 522.125 88.9413C522.125 88.9466 522.125 88.9519 522.125 88.9571C522.125 88.9624 522.125 88.9676 522.125 88.9728C522.125 88.9779 522.125 88.9831 522.125 88.9882C522.125 88.9934 522.125 88.9985 522.125 89.0035C522.125 89.0086 522.125 89.0137 522.125 89.0187C522.125 89.0237 522.125 89.0287 522.125 89.0337C522.125 89.0386 522.125 89.0436 522.125 89.0485C522.125 89.0534 522.125 89.0583 522.125 89.0631C522.125 89.068 522.125 89.0728 522.125 89.0776C522.125 89.0824 522.125 89.0872 522.125 89.0919C522.125 89.0967 522.125 89.1014 522.125 89.1061C522.125 89.1108 522.125 89.1154 522.125 89.1201C522.125 89.1247 522.125 89.1293 522.125 89.1339C522.125 89.1385 522.125 89.143 522.125 89.1475C522.125 89.1521 522.125 89.1566 522.125 89.161C522.125 89.1655 522.125 89.1699 522.125 89.1743C522.125 89.1787 522.125 89.1831 522.125 89.1875C522.125 89.1918 522.125 89.1962 522.125 89.2005C522.125 89.2047 522.125 89.209 522.125 89.2133C522.125 89.2175 522.125 89.2217 522.125 89.2259C522.125 89.2301 522.125 89.2342 522.125 89.2383C522.125 89.2425 522.125 89.2466 522.125 89.2506C522.125 89.2547 522.125 89.2587 522.125 89.2627C522.125 89.2668 522.125 89.2707 522.125 89.2747C522.125 89.2786 522.125 89.2826 522.125 89.2865C522.125 89.2903 522.125 89.2942 522.125 89.298C522.125 89.3019 522.125 89.3057 522.125 89.3095C522.125 89.3132 522.125 89.317 522.125 89.3207C522.125 89.3244 522.125 89.3281 522.125 89.3318C522.125 89.3354 522.125 89.3391 522.125 89.3427C522.125 89.3463 522.125 89.3498 522.125 89.3534C522.125 89.3569 522.125 89.3604 522.125 89.3639C522.125 89.3674 522.125 89.3708 522.125 89.3743C522.125 89.3777 522.125 89.3811 522.125 89.3844C522.125 89.3878 522.125 89.3911 522.125 89.3944C522.125 89.3977 522.125 89.401 522.125 89.4042C522.125 89.4075 522.125 89.4107 522.125 89.4139C522.125 89.4171 522.125 89.4202 522.125 89.4233C522.125 89.4265 522.125 89.4296 522.125 89.4326C522.125 89.4357 522.125 89.4387 522.125 89.4417C522.125 89.4447 522.125 89.4477 522.125 89.4506C522.125 89.4535 522.125 89.4565 522.125 89.4593C522.125 89.4622 522.125 89.4651 522.125 89.4679C522.125 89.4707 522.125 89.4735 522.125 89.4762C522.125 89.479 522.125 89.4817 522.125 89.4844C522.125 89.4871 522.125 89.4898 522.125 89.4924C522.125 89.495 522.125 89.4976 522.125 89.5002C522.125 89.5027 522.125 89.5053 522.125 89.5078C522.125 89.5103 522.125 89.5128 522.125 89.5152C522.125 89.5177 522.125 89.5201 522.125 89.5224C522.125 89.5248 522.125 89.5272 522.125 89.5295C522.125 89.5318 522.125 89.5341 522.125 89.5364C522.125 89.5386 522.125 89.5408 522.125 89.543C522.125 89.5452 522.125 89.5474 522.125 89.5495C522.125 89.5516 522.125 89.5537 522.125 89.5558C522.125 89.5579 522.125 89.5599 522.125 89.5619C522.125 89.5639 522.125 89.5659 522.125 89.5678C522.125 89.5697 522.125 89.5716 522.125 89.5735C522.125 89.5754 522.125 89.5772 522.125 89.579C522.125 89.5808 522.125 89.5826 522.125 89.5844C522.125 89.5861 522.125 89.5878 522.125 89.5895C522.125 89.5912 522.125 89.5928 522.125 89.5944C522.125 89.596 522.125 89.5976 522.125 89.5992C522.125 89.6007 522.125 89.6022 522.125 89.6037C522.125 89.6052 522.125 89.6067 522.125 89.6081C522.125 89.6095 522.125 89.6109 522.125 89.6122C522.125 89.6136 522.125 89.6149 522.125 89.6162C522.125 89.6175 522.125 89.6187 522.125 89.6199C522.125 89.6212 522.125 89.6223 522.125 89.6235C522.125 89.6247 522.125 89.6258 522.125 89.6269C522.125 89.628 522.125 89.629 522.125 89.63C522.125 89.631 522.125 89.632 522.125 89.633C522.125 89.6339 522.125 89.6349 522.125 89.6358C522.125 89.6366 522.125 89.6375 522.125 89.6383C522.125 89.6391 522.125 89.6399 522.125 89.6407C522.125 89.6414 522.125 89.6421 522.125 89.6428C522.125 89.6435 522.125 89.6442 522.125 89.6448C522.125 89.6454 522.125 89.646 522.125 89.6465C522.125 89.6471 522.125 89.6476 522.125 89.6481C522.125 89.6486 522.125 89.649 522.125 89.6494C522.125 89.6498 522.125 89.6502 522.125 89.6506C522.125 89.6509 522.125 89.6512 522.125 89.6515C522.125 89.6518 522.125 89.652 522.125 89.6522C522.125 89.6524 522.125 89.6526 522.125 89.6527C522.125 89.6529 522.125 89.653 522.125 89.6531C522.125 89.6531 522.125 89.6532 527.125 89.6532C532.125 89.6532 532.125 89.6531 532.125 89.6531C532.125 89.653 532.125 89.6529 532.125 89.6527C532.125 89.6526 532.125 89.6524 532.125 89.6522C532.125 89.652 532.125 89.6518 532.125 89.6515C532.125 89.6512 532.125 89.6509 532.125 89.6506C532.125 89.6502 532.125 89.6498 532.125 89.6494C532.125 89.649 532.125 89.6486 532.125 89.6481C532.125 89.6476 532.125 89.6471 532.125 89.6465C532.125 89.646 532.125 89.6454 532.125 89.6448C532.125 89.6442 532.125 89.6435 532.125 89.6428C532.125 89.6421 532.125 89.6414 532.125 89.6407C532.125 89.6399 532.125 89.6391 532.125 89.6383C532.125 89.6375 532.125 89.6366 532.125 89.6358C532.125 89.6349 532.125 89.6339 532.125 89.633C532.125 89.632 532.125 89.631 532.125 89.63C532.125 89.629 532.125 89.628 532.125 89.6269C532.125 89.6258 532.125 89.6247 532.125 89.6235C532.125 89.6223 532.125 89.6212 532.125 89.6199C532.125 89.6187 532.125 89.6175 532.125 89.6162C532.125 89.6149 532.125 89.6136 532.125 89.6122C532.125 89.6109 532.125 89.6095 532.125 89.6081C532.125 89.6067 532.125 89.6052 532.125 89.6037C532.125 89.6022 532.125 89.6007 532.125 89.5992C532.125 89.5976 532.125 89.596 532.125 89.5944C532.125 89.5928 532.125 89.5912 532.125 89.5895C532.125 89.5878 532.125 89.5861 532.125 89.5844C532.125 89.5826 532.125 89.5808 532.125 89.579C532.125 89.5772 532.125 89.5754 532.125 89.5735C532.125 89.5716 532.125 89.5697 532.125 89.5678C532.125 89.5659 532.125 89.5639 532.125 89.5619C532.125 89.5599 532.125 89.5579 532.125 89.5558C532.125 89.5537 532.125 89.5516 532.125 89.5495C532.125 89.5474 532.125 89.5452 532.125 89.543C532.125 89.5408 532.125 89.5386 532.125 89.5364C532.125 89.5341 532.125 89.5318 532.125 89.5295C532.125 89.5272 532.125 89.5248 532.125 89.5224C532.125 89.5201 532.125 89.5177 532.125 89.5152C532.125 89.5128 532.125 89.5103 532.125 89.5078C532.125 89.5053 532.125 89.5027 532.125 89.5002C532.125 89.4976 532.125 89.495 532.125 89.4924C532.125 89.4898 532.125 89.4871 532.125 89.4844C532.125 89.4817 532.125 89.479 532.125 89.4762C532.125 89.4735 532.125 89.4707 532.125 89.4679C532.125 89.4651 532.125 89.4622 532.125 89.4593C532.125 89.4565 532.125 89.4535 532.125 89.4506C532.125 89.4477 532.125 89.4447 532.125 89.4417C532.125 89.4387 532.125 89.4357 532.125 89.4326C532.125 89.4296 532.125 89.4265 532.125 89.4233C532.125 89.4202 532.125 89.4171 532.125 89.4139C532.125 89.4107 532.125 89.4075 532.125 89.4042C532.125 89.401 532.125 89.3977 532.125 89.3944C532.125 89.3911 532.125 89.3878 532.125 89.3844C532.125 89.3811 532.125 89.3777 532.125 89.3743C532.125 89.3708 532.125 89.3674 532.125 89.3639C532.125 89.3604 532.125 89.3569 532.125 89.3534C532.125 89.3498 532.125 89.3463 532.125 89.3427C532.125 89.3391 532.125 89.3354 532.125 89.3318C532.125 89.3281 532.125 89.3244 532.125 89.3207C532.125 89.317 532.125 89.3132 532.125 89.3095C532.125 89.3057 532.125 89.3019 532.125 89.298C532.125 89.2942 532.125 89.2903 532.125 89.2865C532.125 89.2826 532.125 89.2786 532.125 89.2747C532.125 89.2707 532.125 89.2668 532.125 89.2627C532.125 89.2587 532.125 89.2547 532.125 89.2506C532.125 89.2466 532.125 89.2425 532.125 89.2383C532.125 89.2342 532.125 89.2301 532.125 89.2259C532.125 89.2217 532.125 89.2175 532.125 89.2133C532.125 89.209 532.125 89.2047 532.125 89.2005C532.125 89.1962 532.125 89.1918 532.125 89.1875C532.125 89.1831 532.125 89.1787 532.125 89.1743C532.125 89.1699 532.125 89.1655 532.125 89.161C532.125 89.1566 532.125 89.1521 532.125 89.1475C532.125 89.143 532.125 89.1385 532.125 89.1339C532.125 89.1293 532.125 89.1247 532.125 89.1201C532.125 89.1154 532.125 89.1108 532.125 89.1061C532.125 89.1014 532.125 89.0967 532.125 89.0919C532.125 89.0872 532.125 89.0824 532.125 89.0776C532.125 89.0728 532.125 89.068 532.125 89.0631C532.125 89.0583 532.125 89.0534 532.125 89.0485C532.125 89.0436 532.125 89.0386 532.125 89.0337C532.125 89.0287 532.125 89.0237 532.125 89.0187C532.125 89.0137 532.125 89.0086 532.125 89.0035C532.125 88.9985 532.125 88.9934 532.125 88.9882C532.125 88.9831 532.125 88.9779 532.125 88.9728C532.125 88.9676 532.125 88.9624 532.125 88.9571C532.125 88.9519 532.125 88.9466 532.125 88.9413C532.125 88.936 532.125 88.9307 532.125 88.9254C532.125 88.92 532.125 88.9147 532.125 88.9093C532.125 88.9039 532.125 88.8984 532.125 88.893C532.125 88.8875 532.125 88.8821 532.125 88.8766C532.125 88.8711 532.125 88.8655 532.125 88.86C532.125 88.8544 532.125 88.8488 532.125 88.8432C532.125 88.8376 532.125 88.832 532.125 88.8263C532.125 88.8207 532.125 88.815 532.125 88.8093C532.125 88.8035 532.125 88.7978 532.125 88.792C532.125 88.7863 532.125 88.7805 532.125 88.7747C532.125 88.7688 532.125 88.763 532.125 88.7571C532.125 88.7513 532.125 88.7454 532.125 88.7395C532.125 88.7335 532.125 88.7276 532.125 88.7216C532.125 88.7156 532.125 88.7096 532.125 88.7036C532.125 88.6976 532.125 88.6915 532.125 88.6855C532.125 88.6794 532.125 88.6733 532.125 88.6672C532.125 88.6611 532.125 88.6549 532.125 88.6487C532.125 88.6426 532.125 88.6364 532.125 88.6301C532.125 88.6239 532.125 88.6176 532.125 88.6114C532.125 88.6051 532.125 88.5988 532.125 88.5925C532.125 88.5861 532.125 88.5798 532.125 88.5734C532.125 88.567 532.125 88.5606 532.125 88.5542C532.125 88.5478 532.125 88.5413 532.125 88.5349C532.125 88.5284 532.125 88.5219 532.125 88.5154C532.125 88.5088 532.125 88.5023 532.125 88.4957C532.125 88.4892 532.125 88.4826 532.125 88.4759C532.125 88.4693 532.125 88.4627 532.125 88.456C532.125 88.4493 532.125 88.4426 532.125 88.4359C532.125 88.4292 532.125 88.4224 532.125 88.4157C532.125 88.4089 532.125 88.4021 532.125 88.3953C532.125 88.3885 532.125 88.3817 532.125 88.3748C532.125 88.3679 532.125 88.361 532.125 88.3541C532.125 88.3472 532.125 88.3403 532.125 88.3333C532.125 88.3264 532.125 88.3194 532.125 88.3124C532.125 88.3054 532.125 88.2983 532.125 88.2913C532.125 88.2842 532.125 88.2772 532.125 88.2701C532.125 88.263 532.125 88.2558 532.125 88.2487C532.125 88.2415 532.125 88.2344 532.125 88.2272C532.125 88.22 532.125 88.2128 532.125 88.2055C532.125 88.1983 532.125 88.191 532.125 88.1837C532.125 88.1764 532.125 88.1691 532.125 88.1618C532.125 88.1545 532.125 88.1471 532.125 88.1397C532.125 88.1323 532.125 88.1249 532.125 88.1175C532.125 88.1101 532.125 88.1026 532.125 88.0952C532.125 88.0877 532.125 88.0802 532.125 88.0727C532.125 88.0652 532.125 88.0576 532.125 88.0501C532.125 88.0425 532.125 88.0349 532.125 88.0273C532.125 88.0197 532.125 88.0121 532.125 88.0044C532.125 87.9968 532.125 87.9891 532.125 87.9814C532.125 87.9737 532.125 87.966 532.125 87.9583C532.125 87.9505 532.125 87.9428 532.125 87.935C532.125 87.9272 532.125 87.9194 532.125 87.9116C532.125 87.9037 532.125 87.8959 532.125 87.888C532.125 87.8801 532.125 87.8723 532.125 87.8643C532.125 87.8564 532.125 87.8485 532.125 87.8405C532.125 87.8326 532.125 87.8246 532.125 87.8166C532.125 87.8086 532.125 87.8006 532.125 87.7925C532.125 87.7845 532.125 87.7764 532.125 87.7683C532.125 87.7602 532.125 87.7521 532.125 87.744C532.125 87.7358 532.125 87.7277 532.125 87.7195C532.125 87.7113 532.125 87.7031 532.125 87.6949C532.125 87.6867 532.125 87.6785 532.125 87.6702C532.125 87.662 532.125 87.6537 532.125 87.6454C532.125 87.6371 532.125 87.6288 532.125 87.6204C532.125 87.6121 532.125 87.6037 532.125 87.5953C532.125 87.5869 532.125 87.5785 532.125 87.5701C532.125 87.5617 532.125 87.5532 532.125 87.5448C532.125 87.5363 532.125 87.5278 532.125 87.5193C532.125 87.5108 532.125 87.5023 532.125 87.4937C532.125 87.4852 532.125 87.4766 532.125 87.468C532.125 87.4594 532.125 87.4508 532.125 87.4422C532.125 87.4335 532.125 87.4249 532.125 87.4162C532.125 87.4075 532.125 87.3988 532.125 87.3901C532.125 87.3814 532.125 87.3727 532.125 87.3639C532.125 87.3552 532.125 87.3464 532.125 87.3376C532.125 87.3288 532.125 87.32 532.125 87.3112C532.125 87.3024 532.125 87.2935 532.125 87.2846C532.125 87.2758 532.125 87.2669 532.125 87.258C532.125 87.2491 532.125 87.2401 532.125 87.2312C532.125 87.2222 532.125 87.2133 532.125 87.2043C532.125 87.1953 532.125 87.1863 532.125 87.1772C532.125 87.1682 532.125 87.1592 532.125 87.1501C532.125 87.141 532.125 87.132 532.125 87.1229C532.125 87.1138 532.125 87.1046 532.125 87.0955C532.125 87.0863 532.125 87.0772 532.125 87.068C532.125 87.0588 532.125 87.0496 532.125 87.0404C532.125 87.0312 532.125 87.022 532.125 87.0127C532.125 87.0034 532.125 86.9942 532.125 86.9849C532.125 86.9756 532.125 86.9663 532.125 86.9569C532.125 86.9476 532.125 86.9383 532.125 86.9289C532.125 86.9195 532.125 86.9101 532.125 86.9007C532.125 86.8913 532.125 86.8819 532.125 86.8725C532.125 86.863 532.125 86.8536 532.125 86.8441C532.125 86.8346 532.125 86.8251 532.125 86.8156C532.125 86.8061 532.125 86.7966 532.125 86.787C532.125 86.7775 532.125 86.7679 532.125 86.7583C532.125 86.7487 532.125 86.7391 532.125 86.7295C532.125 86.7199 532.125 86.7102 532.125 86.7006C532.125 86.6909 532.125 86.6812 532.125 86.6715C532.125 86.6619 532.125 86.6521 532.125 86.6424C532.125 86.6327 532.125 86.6229 532.125 86.6132C532.125 86.6034 532.125 86.5936 532.125 86.5838C532.125 86.574 532.125 86.5642 532.125 86.5544C532.125 86.5446 532.125 86.5347 532.125 86.5248C532.125 86.515 532.125 86.5051 532.125 86.4952C532.125 86.4853 532.125 86.4754 532.125 86.4654C532.125 86.4555 532.125 86.4455 532.125 86.4356C532.125 86.4256 532.125 86.4156 532.125 86.4056C532.125 86.3956 532.125 86.3856 532.125 86.3756C532.125 86.3655 532.125 86.3555 532.125 86.3454C532.125 86.3353 532.125 86.3252 532.125 86.3151C532.125 86.305 532.125 86.2949 532.125 86.2848C532.125 86.2746 532.125 86.2645 532.125 86.2543C532.125 86.2441 532.125 86.234 532.125 86.2237C532.125 86.2135 532.125 86.2033 532.125 86.1931C532.125 86.1829 532.125 86.1726 532.125 86.1623C532.125 86.1521 532.125 86.1418 532.125 86.1315C532.125 86.1212 532.125 86.1109 532.125 86.1005C532.125 86.0902 532.125 86.0799 532.125 86.0695C532.125 86.0591 532.125 86.0488 532.125 86.0384C532.125 86.028 532.125 86.0176 532.125 86.0071C532.125 85.9967 532.125 85.9863 532.125 85.9758C532.125 85.9654 532.125 85.9549 532.125 85.9444C532.125 85.9339 532.125 85.9234 532.125 85.9129C532.125 85.9024 532.125 85.8918 532.125 85.8813C532.125 85.8707 532.125 85.8602 532.125 85.8496C532.125 85.839 532.125 85.8284 532.125 85.8178C532.125 85.8072 532.125 85.7966 532.125 85.7859C532.125 85.7753 532.125 85.7646 532.125 85.754C532.125 85.7433 532.125 85.7326 532.125 85.7219C532.125 85.7112 532.125 85.7005 532.125 85.6898C532.125 85.679 532.125 85.6683 532.125 85.6575C532.125 85.6468 532.125 85.636 532.125 85.6252C532.125 85.6144 532.125 85.6036 532.125 85.5928C532.125 85.582 532.125 85.5712 532.125 85.5603C532.125 85.5495 532.125 85.5386 532.125 85.5277C532.125 85.5169 532.125 85.506 532.125 85.4951C532.125 85.4842 532.125 85.4733 532.125 85.4623C532.125 85.4514 532.125 85.4404 532.125 85.4295C532.125 85.4185 532.125 85.4076 532.125 85.3966C532.125 85.3856 532.125 85.3746 532.125 85.3636C532.125 85.3525 532.125 85.3415 532.125 85.3305C532.125 85.3194 532.125 85.3084 532.125 85.2973C532.125 85.2862 532.125 85.2752 532.125 85.2641C532.125 85.253 532.125 85.2419 532.125 85.2307C532.125 85.2196 532.125 85.2085 532.125 85.1973C532.125 85.1862 532.125 85.175 532.125 85.1638C532.125 85.1527 532.125 85.1415 532.125 85.1303C532.125 85.1191 532.125 85.1078 532.125 85.0966C532.125 85.0854 532.125 85.0741 532.125 85.0629C532.125 85.0516 532.125 85.0404 532.125 85.0291C532.125 85.0178 532.125 85.0065 532.125 84.9952C532.125 84.9839 532.125 84.9726 532.125 84.9612C532.125 84.9499 532.125 84.9386 532.125 84.9272C532.125 84.9158 532.125 84.9045 532.125 84.8931C532.125 84.8817 532.125 84.8703 532.125 84.8589C532.125 84.8475 532.125 84.8361 532.125 84.8246C532.125 84.8132 532.125 84.8018 532.125 84.7903C532.125 84.7789 532.125 84.7674 532.125 84.7559C532.125 84.7444 532.125 84.7329 532.125 84.7214C532.125 84.7099 532.125 84.6984 532.125 84.6869C532.125 84.6753 532.125 84.6638 532.125 84.6522C532.125 84.6407 532.125 84.6291 532.125 84.6176C532.125 84.606 532.125 84.5944 532.125 84.5828C532.125 84.5712 532.125 84.5596 532.125 84.5479C532.125 84.5363 532.125 84.5247 532.125 84.513C532.125 84.5014 532.125 84.4897 532.125 84.4781C532.125 84.4664 532.125 84.4547 532.125 84.443C532.125 84.4313 532.125 84.4196 532.125 84.4079C532.125 84.3962 532.125 84.3845 532.125 84.3727C532.125 84.361 532.125 84.3492 532.125 84.3375C532.125 84.3257 532.125 84.314 532.125 84.3022C532.125 84.2904 532.125 84.2786 532.125 84.2668C532.125 84.255 532.125 84.2432 532.125 84.2314C532.125 84.2195 532.125 84.2077 532.125 84.1959C532.125 84.184 532.125 84.1722 532.125 84.1603C532.125 84.1484 532.125 84.1365 532.125 84.1246C532.125 84.1128 532.125 84.1009 532.125 84.089C532.125 84.077 532.125 84.0651 532.125 84.0532C532.125 84.0413 532.125 84.0293 532.125 84.0174C532.125 84.0054 532.125 83.9935 532.125 83.9815C532.125 83.9695 532.125 83.9575 532.125 83.9455C532.125 83.9336 532.125 83.9216 532.125 83.9095C532.125 83.8975 532.125 83.8855 532.125 83.8735C532.125 83.8614 532.125 83.8494 532.125 83.8374C532.125 83.8253 532.125 83.8132 532.125 83.8012C532.125 83.7891 532.125 83.777 532.125 83.7649C532.125 83.7529 532.125 83.7408 532.125 83.7286C532.125 83.7165 532.125 83.7044 532.125 83.6923C532.125 83.6802 532.125 83.668 532.125 83.6559C532.125 83.6437 532.125 83.6316 532.125 83.6194C532.125 83.6073 532.125 83.5951 532.125 83.5829C532.125 83.5707 532.125 83.5585 532.125 83.5463C532.125 83.5341 532.125 83.5219 532.125 83.5097C532.125 83.4975 532.125 83.4853 532.125 83.473C532.125 83.4608 532.125 83.4485 532.125 83.4363C532.125 83.424 532.125 83.4118 532.125 83.3995C532.125 83.3872 532.125 83.3749 532.125 83.3627C532.125 83.3504 532.125 83.3381 532.125 83.3258C532.125 83.3135 532.125 83.3012 532.125 83.2888C532.125 83.2765 532.125 83.2642 532.125 83.2518C532.125 83.2395 532.125 83.2272 532.125 83.2148C532.125 83.2024 532.125 83.1901 532.125 83.1777C532.125 83.1653 532.125 83.153 532.125 83.1406C532.125 83.1282 532.125 83.1158 532.125 83.1034C532.125 83.091 532.125 83.0786 532.125 83.0662C532.125 83.0537 532.125 83.0413 532.125 83.0289C532.125 83.0164 532.125 83.004 532.125 82.9915C532.125 82.9791 532.125 82.9666 532.125 82.9542C532.125 82.9417 532.125 82.9292 532.125 82.9168C532.125 82.9043 532.125 82.8918 532.125 82.8793C532.125 82.8668 532.125 82.8543 532.125 82.8418C532.125 82.8293 532.125 82.8168 532.125 82.8042C532.125 82.7917 532.125 82.7792 532.125 82.7667C532.125 82.7541 532.125 82.7416 532.125 82.729C532.125 82.7165 532.125 82.7039 532.125 82.6913C532.125 82.6788 532.125 82.6662 532.125 82.6536C532.125 82.641 532.125 82.6285 532.125 82.6159C532.125 82.6033 532.125 82.5907 532.125 82.5781C532.125 82.5655 532.125 82.5528 532.125 82.5402C532.125 82.5276 532.125 82.515 532.125 82.5024C532.125 82.4897 532.125 82.4771 532.125 82.4644C532.125 82.4518 532.125 82.4391 532.125 82.4265C532.125 82.4138 532.125 82.4012 532.125 82.3885C532.125 82.3758 532.125 82.3631 532.125 82.3505C532.125 82.3378 532.125 82.3251 532.125 82.3124C532.125 82.2997 532.125 82.287 532.125 82.2743C532.125 82.2616 532.125 82.2489 532.125 82.2362C532.125 82.2234 532.125 82.2107 532.125 82.198C532.125 82.1853 532.125 82.1725 532.125 82.1598C532.125 82.147 532.125 82.1343 532.125 82.1215C532.125 82.1088 532.125 82.096 532.125 82.0833C532.125 82.0705 532.125 82.0577 532.125 82.045C532.125 82.0322 532.125 82.0194 532.125 82.0066C532.125 81.9939 532.125 81.9811 532.125 81.9683C532.125 81.9555 532.125 81.9427 532.125 81.9299C532.125 81.9171 532.125 81.9043 532.125 81.8914C532.125 81.8786 532.125 81.8658 532.125 81.853C532.125 81.8402 532.125 81.8273 532.125 81.8145C532.125 81.8017 532.125 81.7888 532.125 81.776C532.125 81.7631 532.125 81.7503 532.125 81.7374C532.125 81.7246 532.125 81.7117 532.125 81.6989C532.125 81.686 532.125 81.6731 532.125 81.6603C532.125 81.6474 532.125 81.6345 532.125 81.6217C532.125 81.6088 532.125 81.5959 532.125 81.583C532.125 81.5701 532.125 81.5572 532.125 81.5443C532.125 81.5314 532.125 81.5185 532.125 81.5056C532.125 81.4927 532.125 81.4798 532.125 81.4669C532.125 81.454 532.125 81.4411 532.125 81.4282C532.125 81.4152 532.125 81.4023 532.125 81.3894C532.125 81.3765 532.125 81.3635 532.125 81.3506C532.125 81.3377 532.125 81.3247 532.125 81.3118C532.125 81.2988 532.125 81.2859 532.125 81.2729C532.125 81.26 532.125 81.247 532.125 81.2341C532.125 81.2211 532.125 81.2082 532.125 81.1952C532.125 81.1822 532.125 81.1693 532.125 81.1563C532.125 81.1433 532.125 81.1304 532.125 81.1174C532.125 81.1044 532.125 81.0914 532.125 81.0785C532.125 81.0655 532.125 81.0525 532.125 81.0395C532.125 81.0265 532.125 81.0135 532.125 81.0005C532.125 80.9875 532.125 80.9745 532.125 80.9615C532.125 80.9486 532.125 80.9355 532.125 80.9225C532.125 80.9095 532.125 80.8965 532.125 80.8835C532.125 80.8705 532.125 80.8575 532.125 80.8445C532.125 80.8315 532.125 80.8185 532.125 80.8054C532.125 80.7924 532.125 80.7794 532.125 80.7664C532.125 80.7534 532.125 80.7403 532.125 80.7273C532.125 80.7143 532.125 80.7012 532.125 80.6882C532.125 80.6752 532.125 80.6621 532.125 80.6491C532.125 80.6361 532.125 80.623 532.125 80.61C532.125 80.5969 532.125 80.5839 532.125 80.5709C532.125 80.5578 532.125 80.5448 532.125 80.5317C532.125 80.5187 532.125 80.5056 532.125 80.4926C532.125 80.4795 532.125 80.4665 532.125 80.4534C532.125 80.4404 532.125 80.4273 532.125 80.4143C532.125 80.4012 532.125 80.3881 532.125 80.3751C532.125 80.362 532.125 80.349 532.125 80.3359C532.125 80.3228 532.125 80.3098 532.125 80.2967C532.125 80.2836 532.125 80.2706 532.125 80.2575C532.125 80.2444 532.125 80.2314 532.125 80.2183C532.125 80.2052 532.125 80.1922 532.125 80.1791C532.125 80.166 532.125 80.1529 532.125 80.1399C532.125 80.1268 532.125 80.1137 532.125 80.1006C532.125 80.0876 532.125 80.0745 532.125 80.0614C532.125 80.0483 532.125 80.0353 532.125 80.0222C532.125 80.0091 532.125 79.996 532.125 79.983C532.125 79.9699 532.125 79.9568 532.125 79.9437C532.125 79.9306 532.125 79.9176 532.125 79.9045C532.125 79.8914 532.125 79.8783 532.125 79.8653C532.125 79.8522 532.125 79.8391 532.125 79.826C532.125 79.8129 532.125 79.7999 532.125 79.7868C532.125 79.7737 532.125 79.7606 532.125 79.7475C532.125 79.7345 532.125 79.7214 532.125 79.7083C532.125 79.6952 532.125 79.6821 532.125 79.6691C532.125 79.656 532.125 79.6429 532.125 79.6298C532.125 79.6167 532.125 79.6037 532.125 79.5906C532.125 79.5775 532.125 79.5644 532.125 79.5514C532.125 79.5383 532.125 79.5252 532.125 79.5121C532.125 79.4991 532.125 79.486 532.125 79.4729C532.125 79.4598 532.125 79.4468 532.125 79.4337C532.125 79.4206 532.125 79.4076 532.125 79.3945C532.125 79.3814 532.125 79.3683 532.125 79.3553C532.125 79.3422 532.125 79.3291 532.125 79.3161C532.125 79.303 532.125 79.2899 532.125 79.2769C532.125 79.2638 532.125 79.2508 532.125 79.2377C532.125 79.2246 532.125 79.2116 532.125 79.1985C532.125 79.1855 532.125 79.1724 532.125 79.1593C532.125 79.1463 532.125 79.1332 532.125 79.1202C532.125 79.1071 532.125 79.0941 532.125 79.081C532.125 79.068 532.125 79.0549 532.125 79.0419C532.125 79.0288 532.125 79.0158 532.125 79.0028C532.125 78.9897 532.125 78.9767 532.125 78.9636C532.125 78.9506 532.125 78.9376 532.125 78.9245C532.125 78.9115 532.125 78.8985 532.125 78.8854C532.125 78.8724 532.125 78.8594 532.125 78.8464C532.125 78.8333 532.125 78.8203 532.125 78.8073C532.125 78.7943 532.125 78.7812 532.125 78.7682C532.125 78.7552 532.125 78.7422 532.125 78.7292C532.125 78.7162 532.125 78.7032 532.125 78.6902C532.125 78.6772 532.125 78.6642 532.125 78.6512C532.125 78.6382 532.125 78.6252 532.125 78.6122C532.125 78.5992 532.125 78.5862 532.125 78.5732C532.125 78.5602 532.125 78.5472 532.125 78.5342C532.125 78.5212 532.125 78.5083 532.125 78.4953C532.125 78.4823 532.125 78.4693 532.125 78.4564C532.125 78.4434 532.125 78.4304 532.125 78.4175C532.125 78.4045 532.125 78.3915 532.125 78.3786C532.125 78.3656 532.125 78.3527 532.125 78.3397C532.125 78.3268 532.125 78.3138 532.125 78.3009C532.125 78.2879 532.125 78.275 532.125 78.262C532.125 78.2491 532.125 78.2362 532.125 78.2232C532.125 78.2103 532.125 78.1974 532.125 78.1845C532.125 78.1715 532.125 78.1586 532.125 78.1457C532.125 78.1328 532.125 78.1199 532.125 78.107C532.125 78.0941 532.125 78.0812 532.125 78.0683C532.125 78.0554 532.125 78.0425 532.125 78.0296C532.125 78.0167 532.125 78.0038 532.125 77.9909C532.125 77.978 532.125 77.9652 532.125 77.9523C532.125 77.9394 532.125 77.9265 532.125 77.9137C532.125 77.9008 532.125 77.888 532.125 77.8751C532.125 77.8622 532.125 77.8494 532.125 77.8365C532.125 77.8237 532.125 77.8109 532.125 77.798C532.125 77.7852 532.125 77.7724 532.125 77.7595C532.125 77.7467 532.125 77.7339 532.125 77.7211C532.125 77.7082 532.125 77.6954 532.125 77.6826C532.125 77.6698 532.125 77.657 532.125 77.6442C532.125 77.6314 532.125 77.6186 532.125 77.6058C532.125 77.593 532.125 77.5803 532.125 77.5675C532.125 77.5547 532.125 77.5419 532.125 77.5292C532.125 77.5164 532.125 77.5036 532.125 77.4909C532.125 77.4781 532.125 77.4654 532.125 77.4526C532.125 77.4399 532.125 77.4272 532.125 77.4144C532.125 77.4017 532.125 77.389 532.125 77.3762C532.125 77.3635 532.125 77.3508 532.125 77.3381C532.125 77.3254 532.125 77.3127 532.125 77.3C532.125 77.2873 532.125 77.2746 532.125 77.2619C532.125 77.2492 532.125 77.2365 532.125 77.2239C532.125 77.2112 532.125 77.1985 532.125 77.1859C532.125 77.1732 532.125 77.1605 532.125 77.1479C532.125 77.1352 532.125 77.1226 532.125 77.11C532.125 77.0973 532.125 77.0847 532.125 77.0721C532.125 77.0594 532.125 77.0468 532.125 77.0342C532.125 77.0216 532.125 77.009 532.125 76.9964C532.125 76.9838 532.125 76.9712 532.125 76.9586C532.125 76.946 532.125 76.9335 532.125 76.9209C532.125 76.9083 532.125 76.8958 532.125 76.8832C532.125 76.8706 532.125 76.8581 532.125 76.8456C532.125 76.833 532.125 76.8205 532.125 76.8079C532.125 76.7954 532.125 76.7829 532.125 76.7704C532.125 76.7579 532.125 76.7454 532.125 76.7329C532.125 76.7204 532.125 76.7079 532.125 76.6954C532.125 76.6829 532.125 76.6704 532.125 76.658C532.125 76.6455 532.125 76.633 532.125 76.6206C532.125 76.6081 532.125 76.5957 532.125 76.5832C532.125 76.5708 532.125 76.5583 532.125 76.5459C532.125 76.5335 532.125 76.5211 532.125 76.5087C532.125 76.4963 532.125 76.4839 532.125 76.4715C532.125 76.4591 532.125 76.4467 532.125 76.4343C532.125 76.4219 532.125 76.4096 532.125 76.3972C532.125 76.3848 532.125 76.3725 532.125 76.3602C532.125 76.3478 532.125 76.3355 532.125 76.3231C532.125 76.3108 532.125 76.2985 532.125 76.2862C532.125 76.2739 532.125 76.2616 532.125 76.2493C532.125 76.237 532.125 76.2247 532.125 76.2124C532.125 76.2001 532.125 76.1879 532.125 76.1756C532.125 76.1634 532.125 76.1511 532.125 76.1389C532.125 76.1266 532.125 76.1144 532.125 76.1022C532.125 76.0899 532.125 76.0777 532.125 76.0655C532.125 76.0533 532.125 76.0411 532.125 76.0289C532.125 76.0167 532.125 76.0046 532.125 75.9924C532.125 75.9802 532.125 75.9681 532.125 75.9559C532.125 75.9437 532.125 75.9316 532.125 75.9195C532.125 75.9073 532.125 75.8952 532.125 75.8831C532.125 75.871 532.125 75.8589 532.125 75.8468C532.125 75.8347 532.125 75.8226 532.125 75.8105C532.125 75.7984 532.125 75.7864 532.125 75.7743C532.125 75.7623 532.125 75.7502 532.125 75.7382C532.125 75.7261 532.125 75.7141 532.125 75.7021C532.125 75.6901 532.125 75.6781 532.125 75.6661C532.125 75.6541 532.125 75.6421 532.125 75.6301C532.125 75.6181 532.125 75.6062 532.125 75.5942C532.125 75.5822 532.125 75.5703 532.125 75.5584C532.125 75.5464 532.125 75.5345 532.125 75.5226C532.125 75.5107 532.125 75.4988 532.125 75.4869C532.125 75.475 532.125 75.4631 532.125 75.4512C532.125 75.4393 532.125 75.4275 532.125 75.4156C532.125 75.4038 532.125 75.3919 532.125 75.3801C532.125 75.3682 532.125 75.3564 532.125 75.3446C532.125 75.3328 532.125 75.321 532.125 75.3092C532.125 75.2974 532.125 75.2856 532.125 75.2739C532.125 75.2621 532.125 75.2504 532.125 75.2386C532.125 75.2269 532.125 75.2151 532.125 75.2034C532.125 75.1917 532.125 75.18 532.125 75.1683C532.125 75.1566 532.125 75.1449 532.125 75.1332C532.125 75.1215 532.125 75.1099 532.125 75.0982C532.125 75.0866 532.125 75.0749 532.125 75.0633C532.125 75.0516 532.125 75.04 532.125 75.0284C532.125 75.0168 532.125 75.0052 532.125 74.9936C532.125 74.982 532.125 74.9705 532.125 74.9589C532.125 74.9473 532.125 74.9358 532.125 74.9243C532.125 74.9127 532.125 74.9012 532.125 74.8897C532.125 74.8782 532.125 74.8667 532.125 74.8552C532.125 74.8437 532.125 74.8322 532.125 74.8207C532.125 74.8093 532.125 74.7978 532.125 74.7864C532.125 74.7749 532.125 74.7635 532.125 74.7521C532.125 74.7407 532.125 74.7293 532.125 74.7179H522.125Z" fill="black"/>
<path d="M504.573 95.8331C513.195 90.1518 516.95 88.3578 527.125 88.1079C534.3 87.9318 540.852 90.168 544.774 92.228C551.638 95.8331 558.011 101.696 562.914 109.223C569.287 119.009 572.99 123.831 580.563 132.914C586.926 140.547 592.707 145.187 600.663 150.939C613.219 160.015 620.104 162.904 634.001 169.479C645.12 174.74 651.16 175.66 661.945 184.415C670.823 191.621 676.163 196.834 676.163 208.62C676.163 210.68 654.415 193.274 637.923 184.415C594.78 161.239 527.125 121.584 527.125 121.584C527.125 121.584 456.528 164.329 407.993 189.05C395.642 195.341 377.597 211.195 377.597 209.135C377.597 197.29 386.221 187.824 397.207 181.84C410.444 174.63 421.46 169.243 434.957 161.239C452.118 151.063 460.733 147.552 474.668 132.914C481.531 125.704 483.382 120.833 488.885 112.828C495.258 103.558 497.463 100.518 504.573 95.8331Z" fill="black"/>
<path d="M397.603 189.05L657.355 189.821" stroke="black" stroke-width="10" stroke-linecap="round"/>
<rect x="499.845" y="40.0532" width="23.5091" height="14.1055" fill="#969598"/>
<path d="M442.247 191.597C442.247 186.502 445.962 177.76 450.171 177.587C454.881 177.393 458.704 182.748 458.704 191.597V215.93C458.704 220.354 442.247 218.88 442.247 215.93C442.247 210.031 442.247 203.395 442.247 191.597Z" fill="black" stroke="black"/>
<path d="M593.881 191.597C593.881 186.502 597.596 177.76 601.804 177.587C606.514 177.393 610.337 182.748 610.337 191.597V215.93C610.337 220.354 593.881 218.88 593.881 215.93C593.881 210.031 593.881 203.395 593.881 191.597Z" fill="black" stroke="black"/>
</g>
<defs>
<clipPath id="clip0_2_2150">
<rect width="1366" height="1024" fill="white" transform="translate(0 1366) rotate(-90)"/>
</clipPath>
</defs>
</svg>
