<svg width="95" height="21" viewBox="0 0 95 21" fill="none" xmlns="http://www.w3.org/2000/svg">
<path d="M15.69 15.77C15.75 17.43 15.95 18.69 16.29 19.55C15.63 20.13 14.88 20.42 14.04 20.42C13.4 20.42 12.87 20.24 12.45 19.88C12.03 19.52 11.82 19.03 11.82 18.41V10.76C11.8 9.14 11.63 7.95 11.31 7.19C10.99 6.43 10.4 6.05 9.54 6.05C8.58 6.05 7.8 6.64 7.2 7.82C6.6 8.98 6.3 10.68 6.3 12.92C6.3 15.12 6.33 16.6 6.39 17.36C6.45 18.1 6.63 18.84 6.93 19.58C6.73 19.78 6.43 19.97 6.03 20.15C5.65 20.33 5.22 20.42 4.74 20.42C4.06 20.42 3.51 20.22 3.09 19.82C2.67 19.42 2.46 18.89 2.46 18.23V8.6C2.44 8.04 2.37 7.64 2.25 7.4C2.13 7.14 1.93 7.01 1.65 7.01C1.27 7.01 1.01 7.13 0.87 7.37C0.63 6.97 0.51 6.56 0.51 6.14C0.51 5.54 0.71 5.06 1.11 4.7C1.53 4.32 2.11 4.13 2.85 4.13C3.77 4.13 4.49 4.43 5.01 5.03C5.55 5.61 5.83 6.49 5.85 7.67C6.71 5.29 8.38 4.1 10.86 4.1C12.5 4.1 13.71 4.61 14.49 5.63C15.29 6.63 15.69 8.14 15.69 10.16V15.77ZM31.6181 15.68C31.9381 15.82 32.0981 16.09 32.0981 16.49C32.0981 16.75 32.0281 17.05 31.8881 17.39C31.5081 18.35 30.8181 19.1 29.8181 19.64C28.8181 20.16 27.6081 20.42 26.1881 20.42C23.8681 20.42 22.0281 19.71 20.6681 18.29C19.3081 16.85 18.6281 14.83 18.6281 12.23C18.6281 9.69 19.2881 7.7 20.6081 6.26C21.9281 4.82 23.8081 4.1 26.2481 4.1C28.0281 4.1 29.4881 4.5 30.6281 5.3C31.7681 6.08 32.3381 7.19 32.3381 8.63C32.3381 10.09 31.7481 11.22 30.5681 12.02C29.3881 12.82 27.8081 13.22 25.8281 13.22C24.5481 13.22 23.5581 13.18 22.8581 13.1C22.9981 14.84 23.4381 16.09 24.1781 16.85C24.9381 17.61 25.9781 17.99 27.2981 17.99C28.3581 17.99 29.2581 17.78 29.9981 17.36C30.7381 16.94 31.2781 16.38 31.6181 15.68ZM26.0981 5.45C25.0581 5.45 24.2481 6.01 23.6681 7.13C23.0881 8.23 22.7981 9.76 22.7981 11.72V11.75L23.8181 11.78C25.0581 11.78 26.0881 11.52 26.9081 11C27.7481 10.48 28.1681 9.48 28.1681 8C28.1681 6.3 27.4781 5.45 26.0981 5.45ZM47.4698 16.19C47.8098 16.33 48.0998 16.56 48.3398 16.88C48.5798 17.2 48.6998 17.58 48.6998 18.02C48.6998 18.66 48.4298 19.23 47.8898 19.73C47.3698 20.21 46.6698 20.45 45.7898 20.45C45.1898 20.45 44.6698 20.32 44.2298 20.06C43.8098 19.8 43.4398 19.44 43.1198 18.98C42.7998 18.5 42.4098 17.82 41.9498 16.94L40.7198 14.72L38.1098 19.28C37.6698 20.04 37.0198 20.42 36.1598 20.42C35.5798 20.42 35.0898 20.24 34.6898 19.88C34.3098 19.5 34.0798 18.9 33.9998 18.08C34.6998 17.9 35.2998 17.61 35.7998 17.21C36.2998 16.81 36.7498 16.29 37.1498 15.65L39.3998 12.35L37.2398 8.63C36.8398 7.91 36.4498 7.55 36.0698 7.55C35.8498 7.55 35.6498 7.64 35.4698 7.82C35.2898 7.98 35.1698 8.17 35.1098 8.39C34.7498 8.21 34.4598 7.97 34.2398 7.67C34.0198 7.35 33.9098 6.98 33.9098 6.56C33.9098 5.9 34.1698 5.33 34.6898 4.85C35.2098 4.35 35.9598 4.1 36.9398 4.1C37.5398 4.1 38.0298 4.21 38.4098 4.43C38.7898 4.65 39.1298 4.99 39.4298 5.45C39.7498 5.91 40.1698 6.63 40.6898 7.61L41.6798 9.53L44.1098 5.3C44.5498 4.5 45.2198 4.1 46.1198 4.1C46.7798 4.1 47.2998 4.3 47.6798 4.7C48.0598 5.08 48.2898 5.68 48.3698 6.5C47.6698 6.68 47.0798 6.97 46.5998 7.37C46.1398 7.77 45.6698 8.3 45.1898 8.96L43.0298 11.96L45.3698 15.95C45.5498 16.29 45.7498 16.55 45.9698 16.73C46.2098 16.91 46.4198 17 46.5998 17C46.7598 17 46.9298 16.92 47.1098 16.76C47.3098 16.58 47.4298 16.39 47.4698 16.19ZM55.3165 4.55C55.7365 4.55 56.3965 4.54 57.2965 4.52C58.2165 4.48 58.7365 4.45 58.8565 4.43L58.8265 5.36C58.8065 5.66 58.7065 5.9 58.5265 6.08C58.3465 6.24 58.1165 6.32 57.8365 6.32H55.1665V7.22V15.83C55.1665 16.89 55.6265 17.42 56.5465 17.42C56.7865 17.42 57.0265 17.39 57.2665 17.33C57.5265 17.25 57.6865 17.14 57.7465 17C58.0065 17.34 58.1365 17.75 58.1365 18.23C58.1365 18.85 57.8465 19.35 57.2665 19.73C56.6865 20.11 55.9165 20.3 54.9565 20.3C53.7965 20.3 52.8965 19.93 52.2565 19.19C51.6165 18.45 51.2965 17.44 51.2965 16.16V6.32H50.8765C50.0565 6.32 49.4565 6.35 49.0765 6.41L49.1065 5.48C49.1265 5.18 49.2265 4.95 49.4065 4.79C49.6065 4.63 49.8465 4.55 50.1265 4.55H51.2965V2.54C51.2965 1.92 51.5065 1.43 51.9265 1.07C52.3465 0.709999 52.8865 0.529999 53.5465 0.529999C54.0265 0.529999 54.4565 0.619999 54.8365 0.799999C55.2165 0.979999 55.5165 1.18 55.7365 1.4C55.4765 2.42 55.3065 3.47 55.2265 4.55H55.3165ZM68.6787 15.11C68.5387 15.17 68.3987 15.2 68.2587 15.2C68.0387 15.2 67.8487 15.1 67.6887 14.9C67.5487 14.7 67.4787 14.43 67.4787 14.09C67.4787 13.85 67.5287 13.55 67.6287 13.19L76.2687 9.47L67.6287 5.75C67.5687 5.45 67.5387 5.19 67.5387 4.97C67.5387 4.59 67.6187 4.29 67.7787 4.07C67.9387 3.85 68.1287 3.74 68.3487 3.74C68.4487 3.74 68.5587 3.77 68.6787 3.83L79.4487 9.14C79.5287 9.22 79.5687 9.33 79.5687 9.47C79.5687 9.59 79.5287 9.7 79.4487 9.8L68.6787 15.11ZM83.5908 15.11C83.4508 15.17 83.3108 15.2 83.1708 15.2C82.9508 15.2 82.7608 15.1 82.6008 14.9C82.4608 14.7 82.3908 14.43 82.3908 14.09C82.3908 13.85 82.4408 13.55 82.5408 13.19L91.1808 9.47L82.5408 5.75C82.4808 5.45 82.4508 5.19 82.4508 4.97C82.4508 4.59 82.5308 4.29 82.6908 4.07C82.8508 3.85 83.0408 3.74 83.2608 3.74C83.3608 3.74 83.4708 3.77 83.5908 3.83L94.3608 9.14C94.4408 9.22 94.4808 9.33 94.4808 9.47C94.4808 9.59 94.4408 9.7 94.3608 9.8L83.5908 15.11Z" fill="#5F1B98"/>
</svg>
