<svg width="197" height="79" viewBox="0 0 197 79" fill="none" xmlns="http://www.w3.org/2000/svg">
<g filter="url(#filter0_d_10_6140)">
<rect y="69" width="69" height="197" rx="10" transform="rotate(-90 0 69)" fill="#F9A320"/>
<path d="M17.0929 42.42C15.2129 42.42 13.7829 42.1 12.8029 41.46C11.8429 40.82 11.3629 39.97 11.3629 38.91C11.3629 38.35 11.5329 37.86 11.8729 37.44C12.2329 37.02 12.7929 36.81 13.5529 36.81C13.6929 36.81 13.9229 36.83 14.2429 36.87C14.2029 37.03 14.1829 37.26 14.1829 37.56C14.1829 37.9 14.2229 38.2 14.3029 38.46C14.4029 39.16 14.7329 39.76 15.2929 40.26C15.8529 40.74 16.6329 40.98 17.6329 40.98C18.4529 40.98 19.1129 40.83 19.6129 40.53C20.1129 40.21 20.3629 39.74 20.3629 39.12C20.3629 38.62 20.2029 38.2 19.8829 37.86C19.5829 37.5 19.2229 37.21 18.8029 36.99C18.4029 36.75 17.7329 36.41 16.7929 35.97C15.7129 35.45 14.8529 34.99 14.2129 34.59C13.5729 34.19 13.0229 33.65 12.5629 32.97C12.1029 32.29 11.8729 31.45 11.8729 30.45C11.8729 28.99 12.4329 27.9 13.5529 27.18C14.6729 26.44 16.0929 26.07 17.8129 26.07C19.4729 26.07 20.7929 26.33 21.7729 26.85C22.7729 27.35 23.2729 28.07 23.2729 29.01C23.2729 29.51 23.1229 29.93 22.8229 30.27C22.5429 30.61 22.0829 30.79 21.4429 30.81C21.3429 30.83 21.1929 30.84 20.9929 30.84C20.8729 30.84 20.6729 30.82 20.3929 30.78C20.4129 30.68 20.4229 30.51 20.4229 30.27C20.4229 29.77 20.3429 29.36 20.1829 29.04C20.0229 28.54 19.7229 28.15 19.2829 27.87C18.8429 27.59 18.3029 27.45 17.6629 27.45C17.0029 27.45 16.4529 27.59 16.0129 27.87C15.5729 28.15 15.3529 28.57 15.3529 29.13C15.3529 29.65 15.5129 30.11 15.8329 30.51C16.1529 30.89 16.5429 31.22 17.0029 31.5C17.4829 31.76 18.1529 32.1 19.0129 32.52C20.0929 33.04 20.9529 33.5 21.5929 33.9C22.2529 34.28 22.8129 34.78 23.2729 35.4C23.7529 36.02 23.9929 36.76 23.9929 37.62C23.9929 38.46 23.7529 39.25 23.2729 39.99C22.8129 40.71 22.0629 41.3 21.0229 41.76C20.0029 42.2 18.6929 42.42 17.0929 42.42ZM31.1505 26.55C31.5705 26.55 32.2305 26.54 33.1305 26.52C34.0505 26.48 34.5705 26.45 34.6905 26.43L34.6605 27.36C34.6405 27.66 34.5405 27.9 34.3605 28.08C34.1805 28.24 33.9505 28.32 33.6705 28.32H31.0005V29.22V37.83C31.0005 38.89 31.4605 39.42 32.3805 39.42C32.6205 39.42 32.8605 39.39 33.1005 39.33C33.3605 39.25 33.5205 39.14 33.5805 39C33.8405 39.34 33.9705 39.75 33.9705 40.23C33.9705 40.85 33.6805 41.35 33.1005 41.73C32.5205 42.11 31.7505 42.3 30.7905 42.3C29.6305 42.3 28.7305 41.93 28.0905 41.19C27.4505 40.45 27.1305 39.44 27.1305 38.16V28.32H26.7105C25.8905 28.32 25.2905 28.35 24.9105 28.41L24.9405 27.48C24.9605 27.18 25.0605 26.95 25.2405 26.79C25.4405 26.63 25.6805 26.55 25.9605 26.55H27.1305V24.54C27.1305 23.92 27.3405 23.43 27.7605 23.07C28.1805 22.71 28.7205 22.53 29.3805 22.53C29.8605 22.53 30.2905 22.62 30.6705 22.8C31.0505 22.98 31.3505 23.18 31.5705 23.4C31.3105 24.42 31.1405 25.47 31.0605 26.55H31.1505ZM51.6866 39C51.9466 39.38 52.0766 39.79 52.0766 40.23C52.0766 40.81 51.8266 41.3 51.3266 41.7C50.8266 42.1 50.1566 42.3 49.3166 42.3C48.3566 42.3 47.6066 41.99 47.0666 41.37C46.5266 40.73 46.2166 39.7 46.1366 38.28C45.5766 39.5 44.7966 40.48 43.7966 41.22C42.7966 41.94 41.6366 42.3 40.3166 42.3C39.1366 42.3 38.1866 41.99 37.4666 41.37C36.7466 40.75 36.3866 39.88 36.3866 38.76C36.3866 37.48 36.8766 36.43 37.8566 35.61C38.8366 34.79 40.0766 34.16 41.5766 33.72C42.8766 33.36 44.3066 33.16 45.8666 33.12V32.37C45.8666 30.67 45.6666 29.42 45.2666 28.62C44.8666 27.82 44.1766 27.42 43.1966 27.42C42.5566 27.42 42.0366 27.61 41.6366 27.99C41.2366 28.35 41.0366 28.91 41.0366 29.67C41.0366 30.73 41.3966 31.47 42.1166 31.89C41.8966 32.11 41.5966 32.28 41.2166 32.4C40.8566 32.52 40.4666 32.58 40.0466 32.58C39.1266 32.58 38.3966 32.32 37.8566 31.8C37.3366 31.28 37.0766 30.62 37.0766 29.82C37.0766 28.64 37.6466 27.73 38.7866 27.09C39.9266 26.43 41.4766 26.1 43.4366 26.1C45.6566 26.1 47.2766 26.61 48.2966 27.63C49.3366 28.65 49.8566 30.31 49.8566 32.61V37.83C49.8566 38.89 50.1866 39.42 50.8466 39.42C50.9866 39.42 51.1366 39.39 51.2966 39.33C51.4566 39.25 51.5866 39.14 51.6866 39ZM42.1166 39.78C42.6966 39.78 43.2866 39.54 43.8866 39.06C44.4866 38.58 44.9866 37.93 45.3866 37.11C45.7866 36.27 45.9866 35.36 45.9866 34.38C44.4066 34.38 43.2266 34.6 42.4466 35.04C41.8866 35.32 41.4366 35.7 41.0966 36.18C40.7766 36.66 40.6166 37.21 40.6166 37.83C40.6166 38.37 40.7366 38.83 40.9766 39.21C41.2366 39.59 41.6166 39.78 42.1166 39.78ZM62.0495 26.1C63.1895 26.1 64.1095 26.41 64.8095 27.03C65.5295 27.63 65.8895 28.46 65.8895 29.52C65.8895 30.28 65.6595 30.91 65.1995 31.41C64.7395 31.91 64.1595 32.17 63.4595 32.19C62.6595 32.19 62.0695 31.98 61.6895 31.56C61.9095 31.2 62.0595 30.87 62.1395 30.57C62.2195 30.27 62.2595 29.92 62.2595 29.52C62.2595 29 62.1495 28.61 61.9295 28.35C61.7095 28.07 61.3795 27.93 60.9395 27.93C60.1995 27.93 59.6195 28.52 59.1995 29.7C58.7795 30.86 58.5695 32.6 58.5695 34.92C58.5695 37.06 58.5995 38.51 58.6595 39.27C58.7195 40.01 58.8995 40.74 59.1995 41.46C58.9795 41.68 58.6795 41.87 58.2995 42.03C57.9195 42.21 57.4795 42.31 56.9795 42.33C56.3595 42.33 55.8295 42.13 55.3895 41.73C54.9495 41.33 54.7295 40.79 54.7295 40.11V30.6C54.7295 30.04 54.6595 29.64 54.5195 29.4C54.3995 29.14 54.1995 29.01 53.9195 29.01C53.5395 29.01 53.2795 29.13 53.1395 29.37C52.8995 28.97 52.7795 28.56 52.7795 28.14C52.7795 27.54 52.9795 27.06 53.3795 26.7C53.7995 26.32 54.3795 26.13 55.1195 26.13C55.9995 26.13 56.6995 26.4 57.2195 26.94C57.7395 27.48 58.0395 28.29 58.1195 29.37C58.7995 27.19 60.1095 26.1 62.0495 26.1ZM72.7227 26.55C73.1427 26.55 73.8027 26.54 74.7027 26.52C75.6227 26.48 76.1427 26.45 76.2627 26.43L76.2327 27.36C76.2127 27.66 76.1127 27.9 75.9327 28.08C75.7527 28.24 75.5227 28.32 75.2427 28.32H72.5727V29.22V37.83C72.5727 38.89 73.0327 39.42 73.9527 39.42C74.1927 39.42 74.4327 39.39 74.6727 39.33C74.9327 39.25 75.0927 39.14 75.1527 39C75.4127 39.34 75.5427 39.75 75.5427 40.23C75.5427 40.85 75.2527 41.35 74.6727 41.73C74.0927 42.11 73.3227 42.3 72.3627 42.3C71.2027 42.3 70.3027 41.93 69.6627 41.19C69.0227 40.45 68.7027 39.44 68.7027 38.16V28.32H68.2827C67.4627 28.32 66.8627 28.35 66.4827 28.41L66.5127 27.48C66.5327 27.18 66.6327 26.95 66.8127 26.79C67.0127 26.63 67.2527 26.55 67.5327 26.55H68.7027V24.54C68.7027 23.92 68.9127 23.43 69.3327 23.07C69.7527 22.71 70.2927 22.53 70.9527 22.53C71.4327 22.53 71.8627 22.62 72.2427 22.8C72.6227 22.98 72.9227 23.18 73.1427 23.4C72.8827 24.42 72.7127 25.47 72.6327 26.55H72.7227ZM89.7149 26.55C90.1349 26.55 90.7949 26.54 91.6949 26.52C92.6149 26.48 93.1349 26.45 93.2549 26.43L93.2249 27.36C93.2049 27.66 93.1049 27.9 92.9249 28.08C92.7449 28.24 92.5149 28.32 92.2349 28.32H89.5649V29.22V37.83C89.5649 38.89 90.0249 39.42 90.9449 39.42C91.1849 39.42 91.4249 39.39 91.6649 39.33C91.9249 39.25 92.0849 39.14 92.1449 39C92.4049 39.34 92.5349 39.75 92.5349 40.23C92.5349 40.85 92.2449 41.35 91.6649 41.73C91.0849 42.11 90.3149 42.3 89.3549 42.3C88.1949 42.3 87.2949 41.93 86.6549 41.19C86.0149 40.45 85.6949 39.44 85.6949 38.16V28.32H85.2749C84.4549 28.32 83.8549 28.35 83.4749 28.41L83.5049 27.48C83.5249 27.18 83.6249 26.95 83.8049 26.79C84.0049 26.63 84.2449 26.55 84.5249 26.55H85.6949V24.54C85.6949 23.92 85.9049 23.43 86.3249 23.07C86.7449 22.71 87.2849 22.53 87.9449 22.53C88.4249 22.53 88.8549 22.62 89.2349 22.8C89.6149 22.98 89.9149 23.18 90.1349 23.4C89.8749 24.42 89.7049 25.47 89.6249 26.55H89.7149ZM110.491 39.18C110.751 39.56 110.881 39.96 110.881 40.38C110.881 41 110.671 41.49 110.251 41.85C109.851 42.21 109.271 42.39 108.511 42.39C107.611 42.39 106.891 42.1 106.351 41.52C105.831 40.94 105.551 40.07 105.511 38.91C104.671 41.27 103.041 42.45 100.621 42.45C98.9811 42.45 97.7811 41.98 97.0211 41.04C96.2611 40.1 95.8811 38.54 95.8811 36.36V30.78C95.8811 29.26 95.6911 27.99 95.3111 26.97C96.0111 26.39 96.7511 26.1 97.5311 26.1C98.1911 26.1 98.7211 26.28 99.1211 26.64C99.5411 27 99.7511 27.5 99.7511 28.14L99.7811 35.76C99.7811 37.48 99.9311 38.72 100.231 39.48C100.531 40.24 101.091 40.62 101.911 40.62C102.871 40.62 103.641 40.02 104.221 38.82C104.801 37.62 105.091 35.88 105.091 33.6C105.091 31.4 105.061 29.93 105.001 29.19C104.941 28.43 104.751 27.68 104.431 26.94C104.651 26.74 104.951 26.55 105.331 26.37C105.731 26.19 106.171 26.1 106.651 26.1C107.291 26.1 107.821 26.3 108.241 26.7C108.681 27.1 108.901 27.64 108.901 28.32L108.931 37.95C108.931 38.51 108.991 38.91 109.111 39.15C109.231 39.39 109.431 39.51 109.711 39.51C110.051 39.51 110.311 39.4 110.491 39.18ZM117.723 26.55C118.143 26.55 118.803 26.54 119.703 26.52C120.623 26.48 121.143 26.45 121.263 26.43L121.233 27.36C121.213 27.66 121.113 27.9 120.933 28.08C120.753 28.24 120.523 28.32 120.243 28.32H117.573V29.22V37.83C117.573 38.89 118.033 39.42 118.953 39.42C119.193 39.42 119.433 39.39 119.673 39.33C119.933 39.25 120.093 39.14 120.153 39C120.413 39.34 120.543 39.75 120.543 40.23C120.543 40.85 120.253 41.35 119.673 41.73C119.093 42.11 118.323 42.3 117.363 42.3C116.203 42.3 115.303 41.93 114.663 41.19C114.023 40.45 113.703 39.44 113.703 38.16V28.32H113.283C112.463 28.32 111.863 28.35 111.483 28.41L111.513 27.48C111.533 27.18 111.633 26.95 111.813 26.79C112.013 26.63 112.253 26.55 112.533 26.55H113.703V24.54C113.703 23.92 113.913 23.43 114.333 23.07C114.753 22.71 115.293 22.53 115.953 22.53C116.433 22.53 116.863 22.62 117.243 22.8C117.623 22.98 117.923 23.18 118.143 23.4C117.883 24.42 117.713 25.47 117.633 26.55H117.723ZM130.279 42.42C127.979 42.42 126.179 41.71 124.879 40.29C123.579 38.85 122.929 36.85 122.929 34.29C122.929 31.71 123.569 29.7 124.849 28.26C126.149 26.82 127.959 26.1 130.279 26.1C132.579 26.1 134.369 26.82 135.649 28.26C136.949 29.7 137.599 31.71 137.599 34.29C137.599 36.85 136.949 38.85 135.649 40.29C134.369 41.71 132.579 42.42 130.279 42.42ZM130.279 41.07C132.379 41.07 133.429 38.81 133.429 34.29C133.429 29.73 132.379 27.45 130.279 27.45C129.199 27.45 128.399 28.02 127.879 29.16C127.359 30.3 127.099 32.01 127.099 34.29C127.099 36.55 127.359 38.25 127.879 39.39C128.399 40.51 129.199 41.07 130.279 41.07ZM148.446 26.1C149.586 26.1 150.506 26.41 151.206 27.03C151.926 27.63 152.286 28.46 152.286 29.52C152.286 30.28 152.056 30.91 151.596 31.41C151.136 31.91 150.556 32.17 149.856 32.19C149.056 32.19 148.466 31.98 148.086 31.56C148.306 31.2 148.456 30.87 148.536 30.57C148.616 30.27 148.656 29.92 148.656 29.52C148.656 29 148.546 28.61 148.326 28.35C148.106 28.07 147.776 27.93 147.336 27.93C146.596 27.93 146.016 28.52 145.596 29.7C145.176 30.86 144.966 32.6 144.966 34.92C144.966 37.06 144.996 38.51 145.056 39.27C145.116 40.01 145.296 40.74 145.596 41.46C145.376 41.68 145.076 41.87 144.696 42.03C144.316 42.21 143.876 42.31 143.376 42.33C142.756 42.33 142.226 42.13 141.786 41.73C141.346 41.33 141.126 40.79 141.126 40.11V30.6C141.126 30.04 141.056 29.64 140.916 29.4C140.796 29.14 140.596 29.01 140.316 29.01C139.936 29.01 139.676 29.13 139.536 29.37C139.296 28.97 139.176 28.56 139.176 28.14C139.176 27.54 139.376 27.06 139.776 26.7C140.196 26.32 140.776 26.13 141.516 26.13C142.396 26.13 143.096 26.4 143.616 26.94C144.136 27.48 144.436 28.29 144.516 29.37C145.196 27.19 146.506 26.1 148.446 26.1ZM156.749 24.63C156.129 24.63 155.599 24.42 155.159 24C154.719 23.56 154.499 23.03 154.499 22.41C154.499 21.77 154.719 21.24 155.159 20.82C155.599 20.38 156.129 20.16 156.749 20.16C157.369 20.16 157.889 20.38 158.309 20.82C158.729 21.24 158.939 21.77 158.939 22.41C158.939 23.03 158.729 23.56 158.309 24C157.889 24.42 157.369 24.63 156.749 24.63ZM158.819 37.77C158.819 39.35 159.009 40.61 159.389 41.55C158.749 42.13 157.999 42.42 157.139 42.42C156.519 42.42 155.999 42.24 155.579 41.88C155.179 41.52 154.979 41.03 154.979 40.41V30.75C154.979 29.23 154.789 27.96 154.409 26.94C155.029 26.38 155.749 26.1 156.569 26.1C157.229 26.1 157.759 26.28 158.159 26.64C158.579 26.98 158.789 27.47 158.789 28.11L158.819 37.77ZM177.253 39C177.513 39.38 177.643 39.79 177.643 40.23C177.643 40.81 177.393 41.3 176.893 41.7C176.393 42.1 175.723 42.3 174.883 42.3C173.923 42.3 173.173 41.99 172.633 41.37C172.093 40.73 171.783 39.7 171.703 38.28C171.143 39.5 170.363 40.48 169.363 41.22C168.363 41.94 167.203 42.3 165.883 42.3C164.703 42.3 163.753 41.99 163.033 41.37C162.313 40.75 161.953 39.88 161.953 38.76C161.953 37.48 162.443 36.43 163.423 35.61C164.403 34.79 165.643 34.16 167.143 33.72C168.443 33.36 169.873 33.16 171.433 33.12V32.37C171.433 30.67 171.233 29.42 170.833 28.62C170.433 27.82 169.743 27.42 168.763 27.42C168.123 27.42 167.603 27.61 167.203 27.99C166.803 28.35 166.603 28.91 166.603 29.67C166.603 30.73 166.963 31.47 167.683 31.89C167.463 32.11 167.163 32.28 166.783 32.4C166.423 32.52 166.033 32.58 165.613 32.58C164.693 32.58 163.963 32.32 163.423 31.8C162.903 31.28 162.643 30.62 162.643 29.82C162.643 28.64 163.213 27.73 164.353 27.09C165.493 26.43 167.043 26.1 169.003 26.1C171.223 26.1 172.843 26.61 173.863 27.63C174.903 28.65 175.423 30.31 175.423 32.61V37.83C175.423 38.89 175.753 39.42 176.413 39.42C176.553 39.42 176.703 39.39 176.863 39.33C177.023 39.25 177.153 39.14 177.253 39ZM167.683 39.78C168.263 39.78 168.853 39.54 169.453 39.06C170.053 38.58 170.553 37.93 170.953 37.11C171.353 36.27 171.553 35.36 171.553 34.38C169.973 34.38 168.793 34.6 168.013 35.04C167.453 35.32 167.003 35.7 166.663 36.18C166.343 36.66 166.183 37.21 166.183 37.83C166.183 38.37 166.303 38.83 166.543 39.21C166.803 39.59 167.183 39.78 167.683 39.78ZM183.416 42.3C182.256 42.3 181.366 41.94 180.746 41.22C180.126 40.48 179.816 39.46 179.816 38.16V22.05C179.816 21.41 180.026 20.91 180.446 20.55C180.866 20.19 181.406 20.01 182.066 20.01C182.546 20.01 182.976 20.1 183.356 20.28C183.736 20.46 184.036 20.66 184.256 20.88C184.036 21.74 183.886 22.59 183.806 23.43C183.726 24.27 183.686 25.37 183.686 26.73V37.83C183.686 38.89 184.046 39.42 184.766 39.42C184.926 39.42 185.096 39.39 185.276 39.33C185.456 39.25 185.586 39.14 185.666 39C185.926 39.38 186.056 39.79 186.056 40.23C186.056 40.83 185.796 41.33 185.276 41.73C184.776 42.11 184.156 42.3 183.416 42.3Z" fill="#5F1B98"/>
</g>
<defs>
<filter id="filter0_d_10_6140" x="0" y="0" width="197" height="79" filterUnits="userSpaceOnUse" color-interpolation-filters="sRGB">
<feFlood flood-opacity="0" result="BackgroundImageFix"/>
<feColorMatrix in="SourceAlpha" type="matrix" values="0 0 0 0 0 0 0 0 0 0 0 0 0 0 0 0 0 0 127 0" result="hardAlpha"/>
<feOffset dy="10"/>
<feComposite in2="hardAlpha" operator="out"/>
<feColorMatrix type="matrix" values="0 0 0 0 0 0 0 0 0 0 0 0 0 0 0 0 0 0 0.25 0"/>
<feBlend mode="normal" in2="BackgroundImageFix" result="effect1_dropShadow_10_6140"/>
<feBlend mode="normal" in="SourceGraphic" in2="effect1_dropShadow_10_6140" result="shape"/>
</filter>
</defs>
</svg>
