<svg width="875" height="1320" viewBox="0 0 875 1320" fill="none" xmlns="http://www.w3.org/2000/svg">
<g clip-path="url(#clip0_6_5763)">
<rect width="1320" height="875" transform="translate(0 1320) rotate(-90)" fill="#54545A"/>
<rect x="-330" y="111" width="1546" height="12" fill="#969598"/>
<path d="M578.517 784.765C588.71 754.188 615.3 708.135 615.3 708.135H811.474C811.474 708.135 840.576 779.333 848.256 806.175C866.647 870.452 875.843 941.045 875.843 983.958C875.843 1075.91 871.071 1083.06 866.648 1174C860.88 1292.59 854.387 1357.91 848.256 1471.33C846.059 1511.97 839.061 1584.79 839.061 1584.79H728.713C728.713 1584.79 733.182 1433.72 728.713 1336.5C722.088 1192.39 704.191 965.566 704.191 965.566C704.191 965.566 676.604 1204.65 664.344 1336.5C656.117 1424.97 652.083 1584.79 652.083 1584.79H544.8C544.8 1584.79 532.539 1490.42 532.539 1443.74C532.539 1376.26 517.213 1232.24 517.213 1192.39C517.213 1152.54 523.414 1005.41 532.539 965.566C547.333 900.967 547.865 876.722 578.517 784.765Z" fill="#6DA7BD"/>
<path d="M614.539 709.323C608.378 707.92 607.605 671.145 613.766 672.549C650.734 680.969 664.263 678.222 702.831 679.873C743.493 681.614 791.449 678.009 810.09 677.617C819.283 677.424 818.352 710.606 813.863 711.263C789.411 714.843 747.295 712.663 706.604 713.519C668.307 714.324 639.184 714.936 614.539 709.323Z" fill="#659FB5"/>
<path d="M703.802 715.456C703.802 764.776 697.782 855.829 703.802 852.036C716.661 843.932 723.865 821.119 723.865 806.508C723.865 785.641 727.877 768.569 723.865 715.456C723.579 711.661 703.802 708.048 703.802 715.456Z" fill="#659FB5"/>
<path d="M790.319 783.866C795.697 779.252 807.727 774.856 809.265 778.337C814.693 790.627 820.121 802.917 828.66 816.868C837.199 830.819 845.229 838.239 850.658 850.529C853.571 857.125 832.546 861.981 830.411 858.493C821.873 844.542 815.137 836.766 806.605 820.736C797.809 804.212 784.941 788.48 790.319 783.866Z" fill="#659FB5"/>
<path d="M579.346 866.909C571.809 864.506 560.833 856.285 563.447 853.291C572.673 842.724 581.9 832.157 591.067 818.12C600.235 804.082 603.195 793.62 612.421 783.053C617.373 777.381 633.746 793.109 631.454 796.618C622.286 810.655 618.262 820.177 607.025 835.207C595.442 850.701 586.884 869.312 579.346 866.909Z" fill="#659FB5"/>
<circle cx="716.455" cy="695.825" r="9.19566" fill="#246F8B"/>
<path d="M790.22 757.522C776.53 745.357 771.333 714.596 771.333 714.596L812.541 709.445L834.863 771.258C834.863 771.258 803.855 769.638 790.22 757.522Z" fill="#659FB5" stroke="#659FB5" stroke-linecap="round" stroke-linejoin="round"/>
<path d="M634.865 755.245C649.926 744.824 658.802 714.917 658.802 714.917L618.518 704.823L588.89 763.485C588.89 763.485 619.866 765.625 634.865 755.245Z" fill="#659FB5" stroke="#659FB5" stroke-linecap="round" stroke-linejoin="round"/>
<path d="M573.605 1244.5C566.899 1244.5 560.693 1248.02 554.987 1244.5C551.334 1242.24 544.873 1238.59 549.566 1235.91L561.586 1229.04C561.586 1229.04 567.752 1220.73 573.605 1218.74C578.683 1217.01 581.976 1218.74 587.341 1218.74C593.376 1218.74 597.247 1216.36 602.794 1218.74C608.024 1220.98 611.461 1222.58 616.8 1224.55C621.204 1226.17 621.41 1226.16 625.115 1229.04C631.15 1233.74 619.921 1241.05 613.096 1244.5C605.913 1248.12 600.538 1244.5 592.492 1244.5H573.605Z" fill="#ECC6A2"/>
<path d="M812.082 1117.15C804.706 1117.15 794.978 1121.24 788.11 1114.37C781.242 1107.5 787.342 1093.38 793.195 1091.39C798.273 1089.66 801.567 1091.39 806.931 1091.39C812.966 1091.39 814.699 1093.77 820.734 1093.77C825.952 1093.77 832.565 1091.8 837.904 1093.77C842.309 1095.39 840.452 1100.17 843.055 1104.07C846.489 1109.22 839.511 1113.7 832.686 1117.15C825.503 1120.77 820.128 1117.15 812.082 1117.15Z" fill="#ECC6A2"/>
<path d="M573.878 434.724C583.56 425.206 599.667 417.069 611.65 410.686C673.245 377.878 779.918 396.95 779.918 396.95C779.918 396.95 807.39 407.252 824.56 414.12C841.73 420.988 848.703 422.71 857.184 434.724C877.788 463.914 886.249 487.727 905.26 522.292C924.147 556.633 936.166 580.671 953.336 611.577C967.137 636.418 975.203 655.824 972.224 668.239C965.218 697.428 938.143 723.95 906.979 759.241C883.439 785.898 840.204 833.584 840.204 833.584C834.487 825.962 830.75 819.521 826.865 813.576C822.835 807.408 819.986 801.142 815.433 792.616C815.433 792.616 862.335 736.919 879.505 714.598C893.588 696.29 906.979 671.673 906.979 661.371C906.979 657.937 893.241 625.313 884.656 608.143C868.022 574.875 831.431 524.009 831.431 524.009C831.431 524.009 828.796 543.982 826.279 556.633C820.691 584.727 816.143 600.329 812.541 628.747C809.674 651.365 808.259 677.335 808.259 677.335C808.259 677.335 778.276 680.193 711.585 680.193C667.759 680.193 617.264 677.335 617.264 672.572L617.264 671.94C617.265 654.799 617.265 645.641 613.367 628.747C603.067 584.105 611.652 524.009 611.652 524.009C611.652 524.009 604.023 547.323 597.916 561.784C584.133 594.423 577.311 615.011 553.274 640.766C548.123 646.286 560.142 685.409 560.142 685.409L602.02 800.238C602.02 800.238 593.275 815.693 586.776 825.009C580.559 833.921 569.627 846.922 569.627 846.922L515.497 718.032C515.497 718.032 490.425 665.652 494.895 632.181C500.059 593.512 513.782 580.671 529.235 544.613C535.838 529.205 542.869 515.89 548.123 499.971C556.708 473.957 563.575 444.853 573.878 434.724Z" fill="#ECC6A2"/>
<path d="M676.851 367.912C675.388 364.822 675.134 359.327 675.134 359.327H748.966C748.966 359.327 748.652 363.077 747.249 366.195C745.874 369.252 743.815 372.204 738.664 374.78C731.796 378.214 723.211 381.648 712.909 381.648C702.607 381.648 690.521 379.931 685.436 376.497C681.507 373.843 678.881 372.197 676.851 367.912Z" fill="#DFB48B"/>
<path d="M657.965 328.421C654.612 321.716 635.351 326.643 632.21 319.836C625.508 305.313 621.908 287.213 621.908 287.213L683.72 172.172L773.305 220.185C773.305 220.185 786.674 277.198 790.175 312.968C790.637 317.687 766.067 315.095 766.137 319.836C766.269 328.781 757.552 350.742 752.401 355.893C747.519 360.775 730.704 373.063 712.91 373.063C695.739 373.063 679.775 364.439 675.135 359.327C670.496 354.215 668.267 350.742 664.833 343.874C662.415 339.039 661.399 335.289 657.965 328.421Z" fill="#ECC6A2"/>
<path d="M676.851 378.254C676.851 370.576 675.134 352.499 675.134 352.499L748.966 354.185C748.966 354.185 747.261 371.518 747.248 378.223C747.242 381.657 748.488 388.723 750.682 391.959C752.564 394.734 762.783 393.676 766.136 393.676C772.997 393.676 750.913 429.951 756.5 434.813C759.449 437.379 840.257 427.945 804.213 434.813C786.531 438.182 732.084 474.304 732.084 474.304C732.084 474.304 649.427 496.142 656.5 461C657.631 455.384 643.684 399.508 647.67 395.393C652.541 390.366 665.614 399.147 669.982 393.676C672.629 390.362 676.851 383.405 676.851 378.254Z" fill="#ECC6A2"/>
<path d="M611.649 525.725C617.283 513.555 632.253 498.252 632.253 498.252C632.253 498.252 680.386 496.897 711.236 496.535C747.442 496.11 803.955 496.535 803.955 496.535C803.955 496.535 825.576 511.219 827.994 525.725C831.714 548.046 822.843 572.084 815.975 604.707C811.821 624.436 810.824 666.52 810.824 666.52C810.824 666.52 751.892 669.061 716.388 666.52C678.118 663.782 616.801 663.086 616.801 663.086C616.801 663.086 611.524 611.966 609.932 590.971C608.004 565.555 600.941 548.855 611.649 525.725Z" fill="black"/>
<path d="M618.517 407.25L632.253 498.252M632.253 498.252C632.253 498.252 617.283 513.555 611.649 525.725C600.941 548.855 608.004 565.555 609.932 590.971C611.524 611.966 616.801 663.086 616.801 663.086C616.801 663.086 678.118 663.782 716.388 666.52C751.892 669.061 810.824 666.52 810.824 666.52C810.824 666.52 811.821 624.436 815.975 604.707C822.843 572.084 831.714 548.046 827.994 525.725C825.576 511.219 803.955 496.535 803.955 496.535M632.253 498.252C632.253 498.252 680.386 496.897 711.236 496.535C747.442 496.11 803.955 496.535 803.955 496.535M803.955 496.535L810.824 407.25" stroke="black" stroke-width="5" stroke-linecap="round" stroke-linejoin="round"/>
<path d="M666.592 403.816C671.743 410.684 683.931 419.375 695.782 422.704C709.338 426.511 724.312 427.115 736.99 420.987C745.112 417.061 754.16 410.684 757.594 403.816" stroke="#F1B415" stroke-width="3"/>
<path d="M683.721 223.682C694.857 214.781 700.891 199.644 700.891 199.644C700.891 199.644 700.891 208.229 709.477 216.814C723.213 230.55 725.471 228.729 735.232 235.701C747.251 244.286 747.793 248.632 755.836 258.022C762.127 265.367 766.138 280.344 766.138 280.344C766.138 280.344 765.407 267.315 771.289 264.891C776.586 262.708 777.215 269.542 778.157 275.193C779.875 285.495 778.157 295.797 776.44 302.665C775.191 307.662 769.572 318.119 766.138 307.816C763.805 300.819 763.89 321.14 762.704 328.42C760.678 340.854 757.849 348.958 749.264 359.26C745.4 363.896 745.018 382.582 749.264 395.32C752.699 405.625 757.334 409.33 769.572 414.207C786.343 420.892 797.34 410.771 797.34 410.771C797.34 410.771 804.208 393.601 797.044 369.562C792.222 353.382 801.588 331.531 800.476 314.684C799.107 293.943 800.886 285.319 797.044 264.891C792.602 241.268 788.756 232.201 783.605 220.182C778.454 208.163 773.006 191.062 755.836 177.323C738.666 163.584 719.421 159.316 700.891 160.086C676.257 161.11 656.544 172.106 647.664 180.691C631.678 196.144 623.919 209.946 620.485 223.682C615.441 243.859 616.059 266.373 615.044 287.146C613.666 315.346 620.193 340.373 615.044 354.109C603.399 385.175 597.024 399.332 620.485 422.79C625.636 427.941 626.579 436.593 639.079 427.941C652.149 418.894 643.105 422.724 658.262 417.639C673.419 412.554 672 405.625 675.433 391.886C678.866 378.148 677.149 360.977 673.419 357.61C669.689 354.242 668.266 349.025 664.831 342.156C660.244 332.982 655.947 304.58 654.532 309.533C651.098 321.552 644.23 307.816 642.513 304.382C639.668 298.692 633.7 275.155 639.079 271.759C643.614 268.894 647.664 275.193 647.664 275.193C647.664 275.193 646.028 269.222 649.381 259.739C655.149 243.424 670.204 234.486 683.721 223.682Z" fill="#26221F"/>
<path d="M645.99 438.156L637.405 420.986L658.923 415.022L657.279 436.71L650.703 432.373L645.99 438.156Z" fill="#26221F"/>
<path d="M773.999 425.143L764.465 410.684H797.088L795.371 420.805L790.439 415.022L783.863 425.143L777.287 420.805L773.999 425.143Z" fill="#26221F"/>
<path d="M669.521 425.474L670.545 409.574L629.122 431.155L634.182 437.208L637.068 431.44L646.256 438.48L644.083 426.659L658.067 427.58L664.725 431.593L665.703 426.176L669.521 425.474Z" fill="#26221F"/>
<path d="M700.729 310.545C701.884 301.688 702.147 277.504 705.342 275.122C708.538 272.739 710.198 301.207 714.023 309.774C717.364 317.257 699.635 318.932 700.729 310.545Z" fill="#E2B78D"/>
<path d="M773.052 305.947C774.769 304.23 776.486 305.948 776.486 309.382C776.486 311.099 774.769 311.098 773.052 309.381" stroke="#DD9F00" stroke-width="2" stroke-linecap="round"/>
<path d="M769.621 309.381C771.338 309.381 773.057 314.532 771.339 316.249C769.621 317.966 766.187 314.532 767.904 311.098" stroke="#DD9F00" stroke-width="2" stroke-linecap="round"/>
<path d="M773.992 301.608C775.892 300.097 779.924 303.473 778.77 305.609C778.319 306.444 777.616 307.746 775.479 306.591" stroke="#DD9F00" stroke-width="2" stroke-linecap="round"/>
<path d="M647.327 309.816C645.61 308.099 643.893 309.818 643.893 313.252C643.893 314.969 645.61 314.967 647.327 313.25" stroke="#DD9F00" stroke-width="2" stroke-linecap="round"/>
<path d="M650.759 313.25C649.042 313.25 647.324 318.401 649.042 320.118C650.759 321.835 654.193 318.401 652.476 314.967" stroke="#DD9F00" stroke-width="2" stroke-linecap="round"/>
<path d="M646.387 305.477C644.486 303.966 640.454 307.342 641.609 309.478C642.059 310.313 642.763 311.615 644.899 310.461" stroke="#DD9F00" stroke-width="2" stroke-linecap="round"/>
<path d="M774.769 276.757C775.243 278.179 776.242 279.128 778.203 278.474C780.163 277.821 779.92 275.04 778.203 275.04" stroke="#DD9F00" stroke-width="2" stroke-linecap="round"/>
<path d="M710.972 345.622C701.596 345.622 699.367 341.424 691 335.32C688.795 333.711 697.236 337.037 704.104 335.32C709.255 335.32 710.245 337.037 710.972 337.037C711.7 337.037 712.689 335.32 716.123 335.32C726.425 337.037 734.282 333.907 732 335.32C724.914 339.707 720.349 345.622 710.972 345.622Z" fill="#C94530"/>
<path d="M693.367 259.952C694.702 258.824 693.807 254.819 692.099 254.664C690.392 254.51 678.705 250.072 675.283 249.778C671.066 249.414 668.293 250.899 666.435 252.463C662.281 255.959 659.448 261.352 662.181 259.019C665.952 255.798 671.405 254.871 674.836 255.017C676.551 255.089 679.613 256.215 683.252 257.349C686.891 258.483 692.031 261.079 693.367 259.952Z" fill="#26221F"/>
<ellipse cx="679.226" cy="275.995" rx="5.15105" ry="8.58509" transform="rotate(2.62624 679.226 275.995)" fill="black"/>
<path d="M720.354 259.289C718.334 259.915 716.308 256.783 717.66 254.671C719.011 252.559 735.382 248.076 739.217 249.265C743.26 250.518 743.472 251.185 744.612 251.771C747.87 253.444 753.514 260.877 750.884 258.43C749.536 257.177 745.26 255.045 741.45 254.671C736.71 254.205 733.005 254.945 729.321 255.924C725.637 256.902 722.375 258.663 720.354 259.289Z" fill="#26221F"/>
<ellipse cx="732.674" cy="274.823" rx="5.15105" ry="8.58509" fill="black"/>
</g>
<defs>
<clipPath id="clip0_6_5763">
<rect width="1320" height="875" fill="white" transform="translate(0 1320) rotate(-90)"/>
</clipPath>
</defs>
</svg>
