<svg width="201" height="120" viewBox="0 0 201 120" fill="none" xmlns="http://www.w3.org/2000/svg">
<rect x="0.799316" width="200" height="120" rx="30" fill="#5F1B98" fill-opacity="0.5"/>
<g clip-path="url(#clip0_64_442)">
<path d="M27.3206 65.2149C27.2753 68.0476 27.9087 69.6948 27.3141 72.4686C26.7194 75.2423 24.1446 79.8365 20.4208 83.0219C8.47953 93.237 -22.6146 111.232 -22.6146 111.232L17.5873 133.342C17.5873 133.342 28.8376 109.762 40.763 98.6887C43.418 96.2235 44.7293 94.7368 47.5976 92.5256C51.4496 89.5559 53.4231 88.6207 57.3547 85.7584C65.6715 79.7038 70.1942 76.8214 77.4933 69.5627C83.7132 63.3772 91.8974 54.5788 93.0736 52.4475C93.6442 51.4134 91.3918 49.8073 90.2382 50.0376C86.7591 50.7323 81.6806 55.9419 75.8926 59.9025C73.8221 61.3193 71.8988 62.9521 70.9015 63.5561C68.7605 64.8529 94.2721 39.7681 94.7094 36.8336C95.1468 33.8991 90.9295 33.5228 89.1271 34.5235C83.3668 37.7215 67.2374 54.3058 66.8722 54.6473C66.0329 55.432 86.2237 31.6527 89.0707 25.6777C89.6657 24.4289 85.9977 22.3911 83.4646 24.0743C79.1174 26.963 59.6062 49.8043 59.6537 48.3908C59.6774 47.6841 69.8098 36.1878 73.7463 29.0544C74.7544 27.2276 73.843 23.6863 72.1586 24.0489C66.6016 25.2449 57.7159 39.7162 48.6636 49.0821C46.8597 50.9485 43.2548 52.6601 43.2548 52.6601C43.2548 52.6601 43.3429 48.4205 44.6 46.1426C47.4324 41.01 51.9299 35.716 49.1047 31.0438C48.5649 30.1513 47.0065 29.542 46.4992 30.4613C40.9304 40.5525 30.467 51.3535 27.9942 57.8744C27.0869 60.267 27.3693 62.1682 27.3206 65.2149Z" fill="#ECC6A2"/>
<path d="M44.8208 45.0264C44.8208 45.0264 42.8672 53.3668 43.5755 55.3408C43.9304 56.3297 46.6707 55.4724 50.1531 60.6592C53.6355 65.8461 49.6218 74.8816 49.6218 74.8816" stroke="#E6B382" stroke-linecap="round"/>
<path d="M45.5371 59.549C43.6092 65.1286 54.0371 72.049 54.0371 72.049C54.0371 72.049 67.9057 66.3155 66.5371 59.549C66.0521 57.1509 65.1495 55.855 63.5371 55.0488C60.5371 53.5488 55.5371 59.549 55.5371 59.549C55.5371 59.549 53.8339 53.6156 50.5371 54.049C47.6591 54.4274 46.4851 56.8054 45.5371 59.549Z" fill="#BB3A80" stroke="#BB3A80" stroke-width="2"/>
</g>
<path d="M119.04 42.2744C119.04 42.2744 135.518 52.6953 144.768 60.991C153.726 69.0244 172.551 79.75 172.551 79.75" stroke="#FF505B" stroke-width="12" stroke-linecap="round"/>
<path d="M170.542 34.8584C170.542 34.8584 153.815 46.4547 145.749 56.4412C136.192 68.2743 128.059 91.1408 128.059 91.1408" stroke="#FF505B" stroke-width="12" stroke-linecap="round"/>
<defs>
<clipPath id="clip0_64_442">
<rect width="75" height="86" fill="white" transform="translate(20.7993 20)"/>
</clipPath>
</defs>
</svg>
