<svg width="202" height="121" viewBox="0 0 202 121" fill="none" xmlns="http://www.w3.org/2000/svg">
<rect x="0.799316" width="200.402" height="120.026" rx="30" fill="#5F1B98" fill-opacity="0.5"/>
<path d="M50.8857 87.0264C49.9219 82.403 45.3857 76.5264 45.3857 76.5264L51.3857 75.0264C51.3857 75.0264 54.611 79.7516 55.8857 81.0264C56.3857 81.5264 58.4913 79.7301 59.8857 78.5264C61.2484 77.35 62.3857 75.0264 62.3857 75.0264L68.8857 76.5264C68.8857 76.5264 63.8132 82.2227 63.3857 87.0264C63.1581 89.5845 62.501 91.1153 63.3857 93.5264C64.0783 95.4137 66.5524 97.5264 65.8857 98.0264C63.8857 99.5264 60.4862 100.026 56.8857 100.026C53.2853 100.026 47.8857 99.0264 47.8857 98.0264C47.8857 97.5264 49.8165 96.7342 50.3857 95.0264C51.3857 92.0264 51.5233 90.0848 50.8857 87.0264Z" fill="#9C4A10"/>
<path d="M45.8857 27.0268C48.3882 22.0264 52.9651 19.7232 58.8863 20.0264C65.3422 20.357 68.4948 23.7445 71.3857 29.5264C74.3857 35.5264 71.5386 45.0549 69.3857 51.5264C66.2611 60.9191 65.7035 49.8072 55.8878 48.5269C44.3878 47.0269 50.2173 50.0259 48.3881 44.0269C46.2988 37.1746 42.6797 33.4331 45.8857 27.0268Z" fill="#4CC681"/>
<path d="M58.3857 40.5264C62.7871 36.5538 66.5506 32.2383 72.4718 32.5415C78.9277 32.8721 85.4948 37.7445 88.3857 43.5264C91.3857 49.5264 89.5386 59.0549 87.3857 65.5264C84.2611 74.9191 79.2015 63.8067 69.3858 62.5264C57.8858 61.0264 63.7152 64.0254 61.8861 58.0264C59.7967 51.1741 53.0677 45.3262 58.3857 40.5264Z" fill="#28E179"/>
<path d="M28.3854 36.5268C32.7868 32.5543 38.4642 28.2236 44.3854 28.5268C50.8413 28.8574 59.4945 32.245 62.3854 38.0268C65.3854 44.0268 69.5383 60.0549 67.3854 66.5264C64.2607 75.9191 45.2011 77.3072 35.3854 76.0268C23.8854 74.5268 23.2143 66.5264 21.3852 60.5274C19.2959 53.6751 23.0674 41.3266 28.3854 36.5268Z" fill="#4FBE64"/>
<path d="M60.8855 49.0264C65.2869 45.0539 69.4642 44.2232 75.3855 44.5264C81.8414 44.857 86.2428 46.5641 90.3855 51.5264C94.7563 56.762 96.5384 62.0549 94.3855 68.5264C91.2608 77.9192 80.5813 80.0213 70.8855 78.0264C63.5029 76.5075 57.5834 73.7361 55.3855 66.5264C53.2965 59.674 55.5675 53.8262 60.8855 49.0264Z" fill="#249A3A"/>
<path d="M118.54 39.2881C118.54 39.2881 135.018 49.709 144.268 58.0046C153.225 66.038 172.05 76.7637 172.05 76.7637" stroke="#FF505B" stroke-width="12" stroke-linecap="round"/>
<path d="M170.041 31.8721C170.041 31.8721 153.314 43.4684 145.249 53.4549C135.692 65.2879 127.559 88.1545 127.559 88.1545" stroke="#FF505B" stroke-width="12" stroke-linecap="round"/>
</svg>
