<svg width="587" height="257" viewBox="0 0 587 257" fill="none" xmlns="http://www.w3.org/2000/svg">
<rect width="587" height="257" rx="30" fill="black"/>
<path d="M35.6 31.09C35.8 31.09 35.95 31.19 36.05 31.39C36.17 31.59 36.23 31.85 36.23 32.17C36.23 32.63 36.13 33.1 35.93 33.58C35.73 34.06 35.47 34.37 35.15 34.51C33.27 33.59 31.64 32.98 30.26 32.68L30.29 47.77C30.29 49.35 30.48 50.61 30.86 51.55C30.62 51.77 30.3 51.97 29.9 52.15C29.52 52.33 29.08 52.42 28.58 52.42C27.92 52.42 27.38 52.24 26.96 51.88C26.54 51.52 26.33 51.03 26.33 50.41V32.68C25.03 32.96 23.4 33.57 21.44 34.51C21.14 34.37 20.89 34.06 20.69 33.58C20.49 33.1 20.39 32.63 20.39 32.17C20.39 31.85 20.44 31.59 20.54 31.39C20.64 31.19 20.8 31.09 21.02 31.09H35.6ZM51.792 47.77C51.792 49.29 51.982 50.55 52.362 51.55C51.702 52.13 50.972 52.42 50.172 52.42C49.532 52.42 49.002 52.24 48.582 51.88C48.162 51.52 47.952 51.03 47.952 50.41V42.76C47.952 41.1 47.782 39.88 47.442 39.1C47.122 38.32 46.532 37.93 45.672 37.93C44.692 37.93 43.902 38.53 43.302 39.73C42.702 40.93 42.402 42.66 42.402 44.92C42.402 47.12 42.432 48.6 42.492 49.36C42.552 50.1 42.742 50.84 43.062 51.58C42.862 51.78 42.562 51.97 42.162 52.15C41.782 52.33 41.352 52.42 40.872 52.42C40.212 52.42 39.672 52.22 39.252 51.82C38.832 51.42 38.622 50.89 38.622 50.23L38.592 32.05C38.592 31.39 38.782 30.89 39.162 30.55C39.542 30.21 40.042 30.04 40.662 30.04C41.142 30.04 41.602 30.13 42.042 30.31C42.482 30.49 42.822 30.68 43.062 30.88C42.802 31.72 42.632 32.66 42.552 33.7C42.472 34.74 42.422 36.12 42.402 37.84V39.16C43.242 37.12 44.762 36.1 46.962 36.1C48.602 36.1 49.812 36.61 50.592 37.63C51.392 38.63 51.792 40.14 51.792 42.16V47.77ZM57.7414 34.63C57.1214 34.63 56.5914 34.42 56.1514 34C55.7114 33.56 55.4914 33.03 55.4914 32.41C55.4914 31.77 55.7114 31.24 56.1514 30.82C56.5914 30.38 57.1214 30.16 57.7414 30.16C58.3614 30.16 58.8814 30.38 59.3014 30.82C59.7214 31.24 59.9314 31.77 59.9314 32.41C59.9314 33.03 59.7214 33.56 59.3014 34C58.8814 34.42 58.3614 34.63 57.7414 34.63ZM59.8114 47.77C59.8114 49.35 60.0014 50.61 60.3814 51.55C59.7414 52.13 58.9914 52.42 58.1314 52.42C57.5114 52.42 56.9914 52.24 56.5714 51.88C56.1714 51.52 55.9714 51.03 55.9714 50.41V40.75C55.9714 39.23 55.7814 37.96 55.4014 36.94C56.0214 36.38 56.7414 36.1 57.5614 36.1C58.2214 36.1 58.7514 36.28 59.1514 36.64C59.5714 36.98 59.7814 37.47 59.7814 38.11L59.8114 47.77ZM68.4952 52.42C66.6152 52.42 65.1852 52.1 64.2052 51.46C63.2452 50.82 62.7652 49.97 62.7652 48.91C62.7652 48.35 62.9352 47.86 63.2752 47.44C63.6352 47.02 64.1952 46.81 64.9552 46.81C65.0952 46.81 65.3252 46.83 65.6452 46.87C65.6052 47.03 65.5852 47.26 65.5852 47.56C65.5852 47.9 65.6252 48.2 65.7052 48.46C65.8052 49.16 66.1352 49.76 66.6952 50.26C67.2552 50.74 68.0352 50.98 69.0352 50.98C69.8552 50.98 70.5152 50.83 71.0152 50.53C71.5152 50.21 71.7652 49.74 71.7652 49.12C71.7652 48.62 71.6052 48.2 71.2852 47.86C70.9852 47.5 70.6252 47.21 70.2052 46.99C69.8052 46.75 69.1352 46.41 68.1952 45.97C67.1152 45.45 66.2552 44.99 65.6152 44.59C64.9752 44.19 64.4252 43.65 63.9652 42.97C63.5052 42.29 63.2752 41.45 63.2752 40.45C63.2752 38.99 63.8352 37.9 64.9552 37.18C66.0752 36.44 67.4952 36.07 69.2152 36.07C70.8752 36.07 72.1952 36.33 73.1752 36.85C74.1752 37.35 74.6752 38.07 74.6752 39.01C74.6752 39.51 74.5252 39.93 74.2252 40.27C73.9452 40.61 73.4852 40.79 72.8452 40.81C72.7452 40.83 72.5952 40.84 72.3952 40.84C72.2752 40.84 72.0752 40.82 71.7952 40.78C71.8152 40.68 71.8252 40.51 71.8252 40.27C71.8252 39.77 71.7452 39.36 71.5852 39.04C71.4252 38.54 71.1252 38.15 70.6852 37.87C70.2452 37.59 69.7052 37.45 69.0652 37.45C68.4052 37.45 67.8552 37.59 67.4152 37.87C66.9752 38.15 66.7552 38.57 66.7552 39.13C66.7552 39.65 66.9152 40.11 67.2352 40.51C67.5552 40.89 67.9452 41.22 68.4052 41.5C68.8852 41.76 69.5552 42.1 70.4152 42.52C71.4952 43.04 72.3552 43.5 72.9952 43.9C73.6552 44.28 74.2152 44.78 74.6752 45.4C75.1552 46.02 75.3952 46.76 75.3952 47.62C75.3952 48.46 75.1552 49.25 74.6752 49.99C74.2152 50.71 73.4652 51.3 72.4252 51.76C71.4052 52.2 70.0952 52.42 68.4952 52.42ZM86.5988 34.63C85.9788 34.63 85.4488 34.42 85.0088 34C84.5688 33.56 84.3488 33.03 84.3488 32.41C84.3488 31.77 84.5688 31.24 85.0088 30.82C85.4488 30.38 85.9788 30.16 86.5988 30.16C87.2188 30.16 87.7388 30.38 88.1588 30.82C88.5788 31.24 88.7888 31.77 88.7888 32.41C88.7888 33.03 88.5788 33.56 88.1588 34C87.7388 34.42 87.2188 34.63 86.5988 34.63ZM88.6688 47.77C88.6688 49.35 88.8588 50.61 89.2388 51.55C88.5988 52.13 87.8488 52.42 86.9888 52.42C86.3688 52.42 85.8488 52.24 85.4288 51.88C85.0288 51.52 84.8288 51.03 84.8288 50.41V40.75C84.8288 39.23 84.6388 37.96 84.2588 36.94C84.8788 36.38 85.5988 36.1 86.4188 36.1C87.0788 36.1 87.6088 36.28 88.0088 36.64C88.4288 36.98 88.6388 37.47 88.6388 38.11L88.6688 47.77ZM97.3527 52.42C95.4727 52.42 94.0427 52.1 93.0627 51.46C92.1027 50.82 91.6227 49.97 91.6227 48.91C91.6227 48.35 91.7927 47.86 92.1327 47.44C92.4927 47.02 93.0527 46.81 93.8127 46.81C93.9527 46.81 94.1827 46.83 94.5027 46.87C94.4627 47.03 94.4427 47.26 94.4427 47.56C94.4427 47.9 94.4827 48.2 94.5627 48.46C94.6627 49.16 94.9927 49.76 95.5527 50.26C96.1127 50.74 96.8927 50.98 97.8927 50.98C98.7127 50.98 99.3727 50.83 99.8727 50.53C100.373 50.21 100.623 49.74 100.623 49.12C100.623 48.62 100.463 48.2 100.143 47.86C99.8427 47.5 99.4827 47.21 99.0627 46.99C98.6627 46.75 97.9927 46.41 97.0527 45.97C95.9727 45.45 95.1127 44.99 94.4727 44.59C93.8327 44.19 93.2827 43.65 92.8227 42.97C92.3627 42.29 92.1327 41.45 92.1327 40.45C92.1327 38.99 92.6927 37.9 93.8127 37.18C94.9327 36.44 96.3527 36.07 98.0727 36.07C99.7327 36.07 101.053 36.33 102.033 36.85C103.033 37.35 103.533 38.07 103.533 39.01C103.533 39.51 103.383 39.93 103.083 40.27C102.803 40.61 102.343 40.79 101.703 40.81C101.603 40.83 101.453 40.84 101.253 40.84C101.133 40.84 100.933 40.82 100.653 40.78C100.673 40.68 100.683 40.51 100.683 40.27C100.683 39.77 100.603 39.36 100.443 39.04C100.283 38.54 99.9827 38.15 99.5427 37.87C99.1027 37.59 98.5627 37.45 97.9227 37.45C97.2627 37.45 96.7127 37.59 96.2727 37.87C95.8327 38.15 95.6127 38.57 95.6127 39.13C95.6127 39.65 95.7727 40.11 96.0927 40.51C96.4127 40.89 96.8027 41.22 97.2627 41.5C97.7427 41.76 98.4127 42.1 99.2727 42.52C100.353 43.04 101.213 43.5 101.853 43.9C102.513 44.28 103.073 44.78 103.533 45.4C104.013 46.02 104.253 46.76 104.253 47.62C104.253 48.46 104.013 49.25 103.533 49.99C103.073 50.71 102.323 51.3 101.283 51.76C100.263 52.2 98.9527 52.42 97.3527 52.42ZM126.466 50.44C126.466 53.36 125.776 55.47 124.396 56.77C123.016 58.09 121.126 58.75 118.726 58.75C114.946 58.75 113.056 57.7 113.056 55.6C113.056 54.96 113.296 54.43 113.776 54.01C114.276 53.61 114.926 53.41 115.726 53.41C116.566 53.41 117.156 53.63 117.496 54.07C117.216 54.27 117.006 54.5 116.866 54.76C116.726 55.04 116.656 55.31 116.656 55.57C116.656 56.17 116.846 56.65 117.226 57.01C117.606 57.37 118.136 57.55 118.816 57.55C120.116 57.55 121.106 56.96 121.786 55.78C122.486 54.62 122.836 53.02 122.836 50.98C122.836 50.58 122.916 49.76 123.076 48.52C122.256 50.98 120.596 52.21 118.096 52.21C116.496 52.21 115.316 51.74 114.556 50.8C113.796 49.86 113.416 48.31 113.416 46.15V40.78C113.416 39.26 113.226 37.99 112.846 36.97C113.546 36.39 114.286 36.1 115.066 36.1C115.726 36.1 116.256 36.28 116.656 36.64C117.076 37 117.286 37.5 117.286 38.14L117.316 45.55C117.316 47.23 117.456 48.46 117.736 49.24C118.036 50 118.586 50.38 119.386 50.38C120.366 50.38 121.146 49.8 121.726 48.64C122.326 47.46 122.626 45.76 122.626 43.54C122.626 41.36 122.596 39.9 122.536 39.16C122.476 38.42 122.286 37.68 121.966 36.94C122.186 36.74 122.486 36.55 122.866 36.37C123.266 36.19 123.706 36.1 124.186 36.1C124.826 36.1 125.356 36.3 125.776 36.7C126.216 37.1 126.436 37.64 126.436 38.32L126.466 50.44ZM136.505 52.42C134.205 52.42 132.405 51.71 131.105 50.29C129.805 48.85 129.155 46.85 129.155 44.29C129.155 41.71 129.795 39.7 131.075 38.26C132.375 36.82 134.185 36.1 136.505 36.1C138.805 36.1 140.595 36.82 141.875 38.26C143.175 39.7 143.825 41.71 143.825 44.29C143.825 46.85 143.175 48.85 141.875 50.29C140.595 51.71 138.805 52.42 136.505 52.42ZM136.505 51.07C138.605 51.07 139.655 48.81 139.655 44.29C139.655 39.73 138.605 37.45 136.505 37.45C135.425 37.45 134.625 38.02 134.105 39.16C133.585 40.3 133.325 42.01 133.325 44.29C133.325 46.55 133.585 48.25 134.105 49.39C134.625 50.51 135.425 51.07 136.505 51.07ZM161.513 49.18C161.773 49.56 161.903 49.96 161.903 50.38C161.903 51 161.693 51.49 161.273 51.85C160.873 52.21 160.293 52.39 159.533 52.39C158.633 52.39 157.913 52.1 157.373 51.52C156.853 50.94 156.573 50.07 156.533 48.91C155.693 51.27 154.063 52.45 151.643 52.45C150.003 52.45 148.803 51.98 148.043 51.04C147.283 50.1 146.903 48.54 146.903 46.36V40.78C146.903 39.26 146.713 37.99 146.333 36.97C147.033 36.39 147.773 36.1 148.553 36.1C149.213 36.1 149.743 36.28 150.143 36.64C150.563 37 150.773 37.5 150.773 38.14L150.803 45.76C150.803 47.48 150.953 48.72 151.253 49.48C151.553 50.24 152.113 50.62 152.933 50.62C153.893 50.62 154.663 50.02 155.243 48.82C155.823 47.62 156.113 45.88 156.113 43.6C156.113 41.4 156.083 39.93 156.023 39.19C155.963 38.43 155.773 37.68 155.453 36.94C155.673 36.74 155.973 36.55 156.353 36.37C156.753 36.19 157.193 36.1 157.673 36.1C158.313 36.1 158.843 36.3 159.263 36.7C159.703 37.1 159.923 37.64 159.923 38.32L159.953 47.95C159.953 48.51 160.013 48.91 160.133 49.15C160.253 49.39 160.453 49.51 160.733 49.51C161.073 49.51 161.333 49.4 161.513 49.18ZM172.104 36.1C173.244 36.1 174.164 36.41 174.864 37.03C175.584 37.63 175.944 38.46 175.944 39.52C175.944 40.28 175.714 40.91 175.254 41.41C174.794 41.91 174.214 42.17 173.514 42.19C172.714 42.19 172.124 41.98 171.744 41.56C171.964 41.2 172.114 40.87 172.194 40.57C172.274 40.27 172.314 39.92 172.314 39.52C172.314 39 172.204 38.61 171.984 38.35C171.764 38.07 171.434 37.93 170.994 37.93C170.254 37.93 169.674 38.52 169.254 39.7C168.834 40.86 168.624 42.6 168.624 44.92C168.624 47.06 168.654 48.51 168.714 49.27C168.774 50.01 168.954 50.74 169.254 51.46C169.034 51.68 168.734 51.87 168.354 52.03C167.974 52.21 167.534 52.31 167.034 52.33C166.414 52.33 165.884 52.13 165.444 51.73C165.004 51.33 164.784 50.79 164.784 50.11V40.6C164.784 40.04 164.714 39.64 164.574 39.4C164.454 39.14 164.254 39.01 163.974 39.01C163.594 39.01 163.334 39.13 163.194 39.37C162.954 38.97 162.834 38.56 162.834 38.14C162.834 37.54 163.034 37.06 163.434 36.7C163.854 36.32 164.434 36.13 165.174 36.13C166.054 36.13 166.754 36.4 167.274 36.94C167.794 37.48 168.094 38.29 168.174 39.37C168.854 37.19 170.164 36.1 172.104 36.1ZM189.403 52.42C187.523 52.42 186.093 52.1 185.113 51.46C184.153 50.82 183.673 49.97 183.673 48.91C183.673 48.35 183.843 47.86 184.183 47.44C184.543 47.02 185.103 46.81 185.863 46.81C186.003 46.81 186.233 46.83 186.553 46.87C186.513 47.03 186.493 47.26 186.493 47.56C186.493 47.9 186.533 48.2 186.613 48.46C186.713 49.16 187.043 49.76 187.603 50.26C188.163 50.74 188.943 50.98 189.943 50.98C190.763 50.98 191.423 50.83 191.923 50.53C192.423 50.21 192.673 49.74 192.673 49.12C192.673 48.62 192.513 48.2 192.193 47.86C191.893 47.5 191.533 47.21 191.113 46.99C190.713 46.75 190.043 46.41 189.103 45.97C188.023 45.45 187.163 44.99 186.523 44.59C185.883 44.19 185.333 43.65 184.873 42.97C184.413 42.29 184.183 41.45 184.183 40.45C184.183 38.99 184.743 37.9 185.863 37.18C186.983 36.44 188.403 36.07 190.123 36.07C191.783 36.07 193.103 36.33 194.083 36.85C195.083 37.35 195.583 38.07 195.583 39.01C195.583 39.51 195.433 39.93 195.133 40.27C194.853 40.61 194.393 40.79 193.753 40.81C193.653 40.83 193.503 40.84 193.303 40.84C193.183 40.84 192.983 40.82 192.703 40.78C192.723 40.68 192.733 40.51 192.733 40.27C192.733 39.77 192.653 39.36 192.493 39.04C192.333 38.54 192.033 38.15 191.593 37.87C191.153 37.59 190.613 37.45 189.973 37.45C189.313 37.45 188.763 37.59 188.323 37.87C187.883 38.15 187.663 38.57 187.663 39.13C187.663 39.65 187.823 40.11 188.143 40.51C188.463 40.89 188.853 41.22 189.313 41.5C189.793 41.76 190.463 42.1 191.323 42.52C192.403 43.04 193.263 43.5 193.903 43.9C194.563 44.28 195.123 44.78 195.583 45.4C196.063 46.02 196.303 46.76 196.303 47.62C196.303 48.46 196.063 49.25 195.583 49.99C195.123 50.71 194.373 51.3 193.333 51.76C192.313 52.2 191.003 52.42 189.403 52.42ZM205.621 52.42C203.221 52.42 201.361 51.71 200.041 50.29C198.741 48.87 198.091 46.85 198.091 44.23C198.091 41.69 198.751 39.7 200.071 38.26C201.411 36.82 203.301 36.1 205.741 36.1C207.521 36.1 208.881 36.47 209.821 37.21C210.761 37.93 211.231 38.84 211.231 39.94C211.231 40.74 210.981 41.38 210.481 41.86C209.981 42.34 209.331 42.58 208.531 42.58C208.131 42.58 207.741 42.52 207.361 42.4C207.001 42.28 206.711 42.1 206.491 41.86C207.071 41.4 207.361 40.65 207.361 39.61C207.361 38.17 206.711 37.45 205.411 37.45C204.431 37.45 203.661 37.99 203.101 39.07C202.541 40.15 202.261 41.67 202.261 43.63C202.261 47.87 203.771 49.99 206.791 49.99C207.831 49.99 208.711 49.74 209.431 49.24C210.171 48.72 210.651 48.05 210.871 47.23C211.211 47.37 211.381 47.7 211.381 48.22C211.381 48.48 211.341 48.76 211.261 49.06C210.961 50.12 210.311 50.95 209.311 51.55C208.311 52.13 207.081 52.42 205.621 52.42ZM220.793 52.42C218.493 52.42 216.693 51.71 215.393 50.29C214.093 48.85 213.443 46.85 213.443 44.29C213.443 41.71 214.083 39.7 215.363 38.26C216.663 36.82 218.473 36.1 220.793 36.1C223.093 36.1 224.883 36.82 226.163 38.26C227.463 39.7 228.113 41.71 228.113 44.29C228.113 46.85 227.463 48.85 226.163 50.29C224.883 51.71 223.093 52.42 220.793 52.42ZM220.793 51.07C222.893 51.07 223.943 48.81 223.943 44.29C223.943 39.73 222.893 37.45 220.793 37.45C219.713 37.45 218.913 38.02 218.393 39.16C217.873 40.3 217.613 42.01 217.613 44.29C217.613 46.55 217.873 48.25 218.393 49.39C218.913 50.51 219.713 51.07 220.793 51.07ZM238.96 36.1C240.1 36.1 241.02 36.41 241.72 37.03C242.44 37.63 242.8 38.46 242.8 39.52C242.8 40.28 242.57 40.91 242.11 41.41C241.65 41.91 241.07 42.17 240.37 42.19C239.57 42.19 238.98 41.98 238.6 41.56C238.82 41.2 238.97 40.87 239.05 40.57C239.13 40.27 239.17 39.92 239.17 39.52C239.17 39 239.06 38.61 238.84 38.35C238.62 38.07 238.29 37.93 237.85 37.93C237.11 37.93 236.53 38.52 236.11 39.7C235.69 40.86 235.48 42.6 235.48 44.92C235.48 47.06 235.51 48.51 235.57 49.27C235.63 50.01 235.81 50.74 236.11 51.46C235.89 51.68 235.59 51.87 235.21 52.03C234.83 52.21 234.39 52.31 233.89 52.33C233.27 52.33 232.74 52.13 232.3 51.73C231.86 51.33 231.64 50.79 231.64 50.11V40.6C231.64 40.04 231.57 39.64 231.43 39.4C231.31 39.14 231.11 39.01 230.83 39.01C230.45 39.01 230.19 39.13 230.05 39.37C229.81 38.97 229.69 38.56 229.69 38.14C229.69 37.54 229.89 37.06 230.29 36.7C230.71 36.32 231.29 36.13 232.03 36.13C232.91 36.13 233.61 36.4 234.13 36.94C234.65 37.48 234.95 38.29 235.03 39.37C235.71 37.19 237.02 36.1 238.96 36.1ZM257.253 47.68C257.573 47.82 257.733 48.09 257.733 48.49C257.733 48.75 257.663 49.05 257.523 49.39C257.143 50.35 256.453 51.1 255.453 51.64C254.453 52.16 253.243 52.42 251.823 52.42C249.503 52.42 247.663 51.71 246.303 50.29C244.943 48.85 244.263 46.83 244.263 44.23C244.263 41.69 244.923 39.7 246.243 38.26C247.563 36.82 249.443 36.1 251.883 36.1C253.663 36.1 255.123 36.5 256.263 37.3C257.403 38.08 257.973 39.19 257.973 40.63C257.973 42.09 257.383 43.22 256.203 44.02C255.023 44.82 253.443 45.22 251.463 45.22C250.183 45.22 249.193 45.18 248.493 45.1C248.633 46.84 249.073 48.09 249.813 48.85C250.573 49.61 251.613 49.99 252.933 49.99C253.993 49.99 254.893 49.78 255.633 49.36C256.373 48.94 256.913 48.38 257.253 47.68ZM251.733 37.45C250.693 37.45 249.883 38.01 249.303 39.13C248.723 40.23 248.433 41.76 248.433 43.72V43.75L249.453 43.78C250.693 43.78 251.723 43.52 252.543 43C253.383 42.48 253.803 41.48 253.803 40C253.803 38.3 253.113 37.45 251.733 37.45ZM263.625 52.42C263.005 52.42 262.475 52.21 262.035 51.79C261.595 51.35 261.375 50.82 261.375 50.2C261.375 49.58 261.585 49.06 262.005 48.64C262.445 48.2 262.985 47.98 263.625 47.98C264.245 47.98 264.765 48.2 265.185 48.64C265.605 49.06 265.815 49.58 265.815 50.2C265.815 50.82 265.605 51.35 265.185 51.79C264.765 52.21 264.245 52.42 263.625 52.42ZM272.853 52.42C272.233 52.42 271.703 52.21 271.263 51.79C270.823 51.35 270.603 50.82 270.603 50.2C270.603 49.58 270.813 49.06 271.233 48.64C271.673 48.2 272.213 47.98 272.853 47.98C273.473 47.98 273.993 48.2 274.413 48.64C274.833 49.06 275.043 49.58 275.043 50.2C275.043 50.82 274.833 51.35 274.413 51.79C273.993 52.21 273.473 52.42 272.853 52.42ZM282.082 52.42C281.462 52.42 280.932 52.21 280.492 51.79C280.052 51.35 279.832 50.82 279.832 50.2C279.832 49.58 280.042 49.06 280.462 48.64C280.902 48.2 281.442 47.98 282.082 47.98C282.702 47.98 283.222 48.2 283.642 48.64C284.062 49.06 284.272 49.58 284.272 50.2C284.272 50.82 284.062 51.35 283.642 51.79C283.222 52.21 282.702 52.42 282.082 52.42Z" fill="white"/>
</svg>
