<svg width="200" height="121" viewBox="0 0 200 121" fill="none" xmlns="http://www.w3.org/2000/svg">
<rect x="0.500488" width="198.999" height="120.026" rx="30" fill="#5F1B98" fill-opacity="0.5"/>
<path d="M50.5869 87.0264C49.6231 82.403 45.0869 76.5264 45.0869 76.5264L51.0869 75.0264C51.0869 75.0264 54.3122 79.7516 55.5869 81.0264C56.0869 81.5264 58.1925 79.7301 59.5869 78.5264C60.9496 77.35 62.0869 75.0264 62.0869 75.0264L68.5869 76.5264C68.5869 76.5264 63.5144 82.2227 63.0869 87.0264C62.8593 89.5845 62.2022 91.1153 63.0869 93.5264C63.7795 95.4137 66.2536 97.5264 65.5869 98.0264C63.5869 99.5264 60.1874 100.026 56.5869 100.026C52.9865 100.026 47.5869 99.0264 47.5869 98.0264C47.5869 97.5264 49.5176 96.7342 50.0869 95.0264C51.0869 92.0264 51.2245 90.0848 50.5869 87.0264Z" fill="#9C4A10"/>
<path d="M45.5869 27.0268C48.0894 22.0264 52.6662 19.7232 58.5875 20.0264C65.0434 20.357 68.196 23.7445 71.0869 29.5264C74.0869 35.5264 71.2398 45.0549 69.0869 51.5264C65.9622 60.9191 65.4047 49.8072 55.589 48.5269C44.089 47.0269 49.9184 50.0259 48.0893 44.0269C46 37.1746 42.3808 33.4331 45.5869 27.0268Z" fill="#4CC681"/>
<path d="M58.0869 40.5264C62.4883 36.5538 66.2517 32.2383 72.173 32.5415C78.6289 32.8721 85.196 37.7445 88.0869 43.5264C91.0869 49.5264 89.2398 59.0549 87.0869 65.5264C83.9622 74.9191 78.9027 63.8067 69.087 62.5264C57.587 61.0264 63.4164 64.0254 61.5872 58.0264C59.4979 51.1741 52.7689 45.3262 58.0869 40.5264Z" fill="#28E179"/>
<path d="M28.0866 36.5268C32.488 32.5543 38.1653 28.2236 44.0866 28.5268C50.5425 28.8574 59.1957 32.245 62.0866 38.0268C65.0866 44.0268 69.2395 60.0549 67.0866 66.5264C63.9619 75.9191 44.9023 77.3072 35.0866 76.0268C23.5866 74.5268 22.9155 66.5264 21.0864 60.5274C18.997 53.6751 22.7686 41.3266 28.0866 36.5268Z" fill="#4FBE64"/>
<path d="M60.5867 49.0264C64.9881 45.0539 69.1654 44.2232 75.0867 44.5264C81.5425 44.857 85.9439 46.5641 90.0867 51.5264C94.4575 56.762 96.2396 62.0549 94.0867 68.5264C90.962 77.9192 80.2824 80.0213 70.5867 78.0264C63.2041 76.5075 57.2846 73.7361 55.0867 66.5264C52.9977 59.674 55.2687 53.8262 60.5867 49.0264Z" fill="#249A3A"/>
<path d="M115 50.5742C115 50.5742 129.5 95.5742 135.5 81.0742C141.5 66.5742 179.5 36.0742 179.5 36.0742" stroke="#4CAF50" stroke-width="12" stroke-linecap="round"/>
</svg>
