<svg width="201" height="120" viewBox="0 0 201 120" fill="none" xmlns="http://www.w3.org/2000/svg">
<rect x="0.500488" width="200" height="120" rx="30" fill="#5F1B98" fill-opacity="0.5"/>
<g clip-path="url(#clip0_64_543)">
<path d="M27.0218 65.2149C26.9765 68.0476 27.6099 69.6948 27.0152 72.4686C26.4206 75.2423 23.8457 79.8365 20.122 83.0219C8.1807 93.237 -22.9135 111.232 -22.9135 111.232L17.2884 133.342C17.2884 133.342 28.5388 109.762 40.4641 98.6887C43.1192 96.2235 44.4305 94.7368 47.2988 92.5256C51.1508 89.5559 53.1242 88.6207 57.0559 85.7584C65.3727 79.7038 69.8954 76.8214 77.1945 69.5627C83.4144 63.3772 91.5986 54.5788 92.7747 52.4475C93.3454 51.4134 91.0929 49.8073 89.9394 50.0376C86.4602 50.7323 81.3817 55.9419 75.5937 59.9025C73.5233 61.3193 71.5999 62.9521 70.6027 63.5561C68.4617 64.8529 93.9733 39.7681 94.4106 36.8336C94.848 33.8991 90.6307 33.5228 88.8283 34.5235C83.068 37.7215 66.9386 54.3058 66.5733 54.6473C65.7341 55.432 85.9248 31.6527 88.7718 25.6777C89.3669 24.4289 85.6988 22.3911 83.1658 24.0743C78.8186 26.963 59.3073 49.8043 59.3548 48.3908C59.3786 47.6841 69.5109 36.1878 73.4475 29.0544C74.4556 27.2276 73.5442 23.6863 71.8598 24.0489C66.3028 25.2449 57.4171 39.7162 48.3647 49.0821C46.5609 50.9485 42.956 52.6601 42.956 52.6601C42.956 52.6601 43.0441 48.4205 44.3012 46.1426C47.1335 41.01 51.6311 35.716 48.8058 31.0438C48.2661 30.1513 46.7076 29.542 46.2003 30.4613C40.6316 40.5525 30.1681 51.3535 27.6953 57.8744C26.788 60.267 27.0705 62.1682 27.0218 65.2149Z" fill="#ECC6A2"/>
<path d="M44.522 45.0264C44.522 45.0264 42.5683 53.3668 43.2767 55.3408C43.6315 56.3297 46.3718 55.4724 49.8542 60.6592C53.3366 65.8461 49.323 74.8816 49.323 74.8816" stroke="#E6B382" stroke-linecap="round"/>
<path d="M45.2383 59.549C43.3104 65.1286 53.7383 72.049 53.7383 72.049C53.7383 72.049 67.6069 66.3155 66.2383 59.549C65.7532 57.1509 64.8506 55.855 63.2383 55.0488C60.2383 53.5488 55.2383 59.549 55.2383 59.549C55.2383 59.549 53.5351 53.6156 50.2383 54.049C47.3603 54.4274 46.1863 56.8054 45.2383 59.549Z" fill="#BB3A80" stroke="#BB3A80" stroke-width="2"/>
</g>
<path d="M115.5 53.5605C115.5 53.5605 130 98.5605 136 84.0605C142 69.5605 180 39.0605 180 39.0605" stroke="#4CAF50" stroke-width="12" stroke-linecap="round"/>
<defs>
<clipPath id="clip0_64_543">
<rect width="75" height="86" fill="white" transform="translate(20.5005 20)"/>
</clipPath>
</defs>
</svg>
