<svg width="257" height="115" viewBox="0 0 257 115" fill="none" xmlns="http://www.w3.org/2000/svg">
<g filter="url(#filter0_d_103_498)">
<rect x="10" width="247" height="105" rx="40" fill="#5F1B98"/>
<path d="M54.7578 49.082C54.7578 49.9674 55.0573 50.6966 55.6562 51.2695L67.6289 63.2227C68.2409 63.8477 68.9245 64.1602 69.6797 64.1602C70.5781 64.1602 71.2943 63.8867 71.8281 63.3398C72.375 62.806 72.6484 62.1419 72.6484 61.3477C72.6484 60.8789 72.5508 60.4688 72.3555 60.1172C72.1732 59.7656 71.9518 59.4596 71.6914 59.1992L67.5508 55.0586L61.7891 49.7656L60.4219 51.6797L67.9805 52.0703H88.1172C89.0547 52.0703 89.8034 51.7969 90.3633 51.25C90.9362 50.7031 91.2227 49.9805 91.2227 49.082C91.2227 48.1966 90.9362 47.4805 90.3633 46.9336C89.8034 46.3867 89.0547 46.1133 88.1172 46.1133H67.9805L60.4219 46.5039L61.7891 48.3984L67.5508 43.1055L71.6914 38.9648C71.9518 38.6914 72.1732 38.3854 72.3555 38.0469C72.5508 37.6953 72.6484 37.2917 72.6484 36.8359C72.6484 36.0286 72.375 35.3581 71.8281 34.8242C71.2943 34.2773 70.5781 34.0039 69.6797 34.0039C69.3281 34.0039 68.9701 34.0885 68.6055 34.2578C68.2539 34.4141 67.9219 34.6419 67.6094 34.9414L55.6562 46.8945C55.0573 47.4805 54.7578 48.2096 54.7578 49.082Z" fill="#F9A320"/>
<path d="M130.727 57.36C130.727 59.4667 130.98 61.1467 131.487 62.4C131.194 62.6933 130.78 62.96 130.247 63.2C129.74 63.44 129.154 63.56 128.487 63.56C127.607 63.56 126.887 63.32 126.327 62.84C125.767 62.36 125.487 61.7067 125.487 60.88V49.84H114.847V57.36C114.847 59.4667 115.1 61.1467 115.607 62.4C115.314 62.6933 114.9 62.96 114.367 63.2C113.86 63.44 113.274 63.56 112.607 63.56C111.727 63.56 111.007 63.32 110.447 62.84C109.887 62.36 109.607 61.7067 109.607 60.88V40.8C109.607 38.7733 109.354 37.0933 108.847 35.76C109.14 35.4667 109.54 35.2 110.047 34.96C110.58 34.72 111.18 34.6 111.847 34.6C112.727 34.6 113.447 34.84 114.007 35.32C114.567 35.8 114.847 36.4533 114.847 37.28V47.04H125.487V40.8C125.487 38.7733 125.234 37.0933 124.727 35.76C125.02 35.4667 125.42 35.2 125.927 34.96C126.46 34.72 127.06 34.6 127.727 34.6C128.58 34.6 129.287 34.84 129.847 35.32C130.434 35.8 130.727 36.4533 130.727 37.28V57.36ZM147.417 63.56C143.683 63.56 140.857 62.3467 138.937 59.92C137.043 57.4933 136.097 53.8667 136.097 49.04C136.097 44.24 137.043 40.6267 138.937 38.2C140.857 35.7733 143.683 34.56 147.417 34.56C151.15 34.56 153.963 35.7733 155.857 38.2C157.777 40.6267 158.737 44.24 158.737 49.04C158.737 53.8667 157.777 57.4933 155.857 59.92C153.963 62.3467 151.15 63.56 147.417 63.56ZM147.417 61.72C149.337 61.72 150.737 60.72 151.617 58.72C152.497 56.6933 152.937 53.4667 152.937 49.04C152.937 44.6133 152.497 41.4 151.617 39.4C150.737 37.3733 149.337 36.36 147.417 36.36C145.497 36.36 144.083 37.3733 143.177 39.4C142.297 41.4267 141.857 44.64 141.857 49.04C141.857 53.44 142.297 56.6533 143.177 58.68C144.083 60.7067 145.497 61.72 147.417 61.72ZM191.339 57.36C191.339 59.3867 191.593 61.0667 192.099 62.4C191.806 62.6933 191.393 62.96 190.859 63.2C190.326 63.44 189.739 63.56 189.099 63.56C188.273 63.56 187.593 63.32 187.059 62.84C186.526 62.36 186.259 61.7067 186.259 60.88L186.219 41L179.299 59.72C178.233 60.0933 177.299 60.28 176.499 60.28C175.779 60.28 175.113 60.1467 174.499 59.88C173.193 57.1867 171.859 54.1467 170.499 50.76C169.139 47.3733 167.913 44.0533 166.819 40.8L166.859 57.36C166.859 59.7067 167.113 61.56 167.619 62.92C167.193 63.3467 166.579 63.56 165.779 63.56C164.606 63.56 164.019 62.8667 164.019 61.48V40.68C164.019 38.28 163.926 36.48 163.739 35.28C164.193 34.8267 165.406 34.6 167.379 34.6C168.019 34.6 168.553 34.68 168.979 34.84C169.406 35 169.779 35.24 170.099 35.56C173.513 44.52 176.046 51.1067 177.699 55.32C180.953 46.28 183.299 39.5467 184.739 35.12C185.673 34.7733 186.779 34.6 188.059 34.6C188.833 34.6 189.539 34.72 190.179 34.96C190.846 35.1733 191.233 35.4267 191.339 35.72V57.36ZM214.123 58.32C214.443 58.5067 214.683 58.84 214.843 59.32C215.029 59.8 215.123 60.3067 215.123 60.84C215.123 61.4533 215.016 61.9733 214.803 62.4C214.589 62.8 214.269 63 213.843 63H201.123C200.243 63 199.523 62.76 198.963 62.28C198.403 61.8 198.123 61.1467 198.123 60.32V41.48C198.123 39.4533 197.869 37.7733 197.363 36.44C198.003 35.9067 198.643 35.56 199.283 35.4C199.949 35.2133 200.896 35.12 202.123 35.12H213.723C214.016 35.12 214.229 35.2533 214.363 35.52C214.496 35.7867 214.563 36.1333 214.563 36.56C214.563 37.1733 214.429 37.8 214.163 38.44C213.896 39.08 213.563 39.4933 213.163 39.68C210.016 38.4 206.736 37.72 203.323 37.64V47.12H212.003C212.136 47.6 212.203 48.0533 212.203 48.48C212.203 48.9867 212.136 49.48 212.003 49.96H203.363V60.48C205.123 60.4267 207.069 60.1867 209.203 59.76C211.336 59.3067 212.976 58.8267 214.123 58.32Z" fill="#F9A320"/>
</g>
<defs>
<filter id="filter0_d_103_498" x="0" y="0" width="257" height="115" filterUnits="userSpaceOnUse" color-interpolation-filters="sRGB">
<feFlood flood-opacity="0" result="BackgroundImageFix"/>
<feColorMatrix in="SourceAlpha" type="matrix" values="0 0 0 0 0 0 0 0 0 0 0 0 0 0 0 0 0 0 127 0" result="hardAlpha"/>
<feOffset dx="-10" dy="10"/>
<feComposite in2="hardAlpha" operator="out"/>
<feColorMatrix type="matrix" values="0 0 0 0 1 0 0 0 0 1 0 0 0 0 1 0 0 0 0.5 0"/>
<feBlend mode="normal" in2="BackgroundImageFix" result="effect1_dropShadow_103_498"/>
<feBlend mode="normal" in="SourceGraphic" in2="effect1_dropShadow_103_498" result="shape"/>
</filter>
</defs>
</svg>
