<svg width="307" height="115" viewBox="0 0 307 115" fill="none" xmlns="http://www.w3.org/2000/svg">
<g filter="url(#filter0_d_103_497)">
<rect x="10" width="297" height="105" rx="40" fill="#F9A320"/>
<path d="M59.9992 34.56C63.9992 34.56 67.0126 35.2267 69.0392 36.56C71.0926 37.8667 72.1192 39.9467 72.1192 42.8C72.1192 45.8133 71.0526 48.1333 68.9192 49.76C66.8126 51.36 63.7726 52.16 59.7992 52.16H58.8392V57.64C58.8392 59.64 59.0926 61.2267 59.5992 62.4C59.3059 62.6933 58.8926 62.96 58.3592 63.2C57.8526 63.44 57.2659 63.56 56.5992 63.56C55.7192 63.56 54.9992 63.32 54.4392 62.84C53.8792 62.36 53.5992 61.7067 53.5992 60.88V40.8C53.5992 38.7733 53.3459 37.0933 52.8392 35.76C54.4926 34.96 56.8792 34.56 59.9992 34.56ZM59.5592 50.36C61.9859 50.36 63.7192 49.7333 64.7592 48.48C65.8259 47.2267 66.3592 45.4667 66.3592 43.2C66.3592 38.6667 64.2792 36.4 60.1192 36.4C59.5059 36.4 59.0792 36.4133 58.8392 36.44V50.36H59.5592ZM82.1205 60.2C83.8538 60.1733 85.6538 59.9467 87.5205 59.52C89.4138 59.0933 90.9071 58.5867 92.0005 58C92.3205 58.2133 92.5605 58.5733 92.7205 59.08C92.9071 59.5867 93.0005 60.12 93.0005 60.68C93.0005 61.32 92.8805 61.8667 92.6405 62.32C92.4271 62.7733 92.1071 63 91.6805 63H79.8805C79.0005 63 78.2805 62.76 77.7205 62.28C77.1605 61.8 76.8805 61.1467 76.8805 60.32V40.8C76.8805 38.7733 76.6271 37.0933 76.1205 35.76C76.4138 35.4667 76.8138 35.2 77.3205 34.96C77.8538 34.72 78.4538 34.6 79.1205 34.6C80.0005 34.6 80.7071 34.84 81.2405 35.32C81.8005 35.8 82.0805 36.4533 82.0805 37.28L82.1205 60.2ZM117.117 59.88C117.437 60.9733 117.863 61.8 118.397 62.36C117.703 63.16 116.677 63.56 115.317 63.56C114.49 63.56 113.783 63.3867 113.197 63.04C112.637 62.6933 112.29 62.1867 112.157 61.52L110.357 54.8H101.317L99.9967 59.96C99.8101 60.6533 99.7167 61.24 99.7167 61.72C99.7167 62.28 99.8634 62.7067 100.157 63C99.6501 63.1867 99.1834 63.32 98.7567 63.4C98.3567 63.5067 97.8634 63.56 97.2767 63.56C96.2634 63.56 95.5167 63.3867 95.0367 63.04C94.5834 62.6933 94.3567 62.1333 94.3567 61.36C94.3567 60.72 94.5301 59.8133 94.8767 58.64L102.757 35.24C104.223 34.76 105.69 34.52 107.157 34.52C108.757 34.52 109.703 35.0933 109.997 36.24L117.117 59.88ZM109.597 51.96L105.757 37.64L102.037 51.96H109.597ZM133.039 52.52V57.36C133.039 59.3867 133.292 61.0667 133.799 62.4C133.505 62.6933 133.092 62.96 132.559 63.2C132.025 63.44 131.439 63.56 130.799 63.56C129.919 63.56 129.199 63.32 128.639 62.84C128.079 62.36 127.799 61.7067 127.799 60.88V52.52C127.505 52.1467 127.212 51.6533 126.919 51.04L120.719 39C120.132 37.9067 119.479 37.0133 118.759 36.32C119.159 35.92 119.679 35.56 120.319 35.24C120.959 34.8933 121.679 34.72 122.479 34.72C123.439 34.72 124.172 34.96 124.679 35.44C125.185 35.92 125.665 36.6533 126.119 37.64L131.439 49.08L136.279 38.36C136.572 37.7467 136.719 37.1733 136.719 36.64C136.719 36.3733 136.665 36.12 136.559 35.88C136.479 35.6133 136.359 35.4 136.199 35.24C137.025 34.8933 138.012 34.72 139.159 34.72C139.959 34.72 140.559 34.9333 140.959 35.36C141.359 35.76 141.572 36.2933 141.599 36.96C141.599 37.36 141.479 37.8533 141.239 38.44C141.025 39 140.732 39.5733 140.359 40.16L133.039 52.52ZM174.304 59.88C174.624 60.9733 175.051 61.8 175.584 62.36C174.891 63.16 173.864 63.56 172.504 63.56C171.678 63.56 170.971 63.3867 170.384 63.04C169.824 62.6933 169.478 62.1867 169.344 61.52L167.544 54.8H158.504L157.184 59.96C156.998 60.6533 156.904 61.24 156.904 61.72C156.904 62.28 157.051 62.7067 157.344 63C156.838 63.1867 156.371 63.32 155.944 63.4C155.544 63.5067 155.051 63.56 154.464 63.56C153.451 63.56 152.704 63.3867 152.224 63.04C151.771 62.6933 151.544 62.1333 151.544 61.36C151.544 60.72 151.718 59.8133 152.064 58.64L159.944 35.24C161.411 34.76 162.878 34.52 164.344 34.52C165.944 34.52 166.891 35.0933 167.184 36.24L174.304 59.88ZM166.784 51.96L162.944 37.64L159.224 51.96H166.784ZM189.546 63.56C185.786 63.56 182.866 62.3067 180.786 59.8C178.733 57.2667 177.706 53.68 177.706 49.04C177.706 44.4267 178.773 40.8667 180.906 38.36C183.039 35.8267 186.026 34.56 189.866 34.56C191.306 34.56 192.693 34.7467 194.026 35.12C195.359 35.4933 196.453 36.04 197.306 36.76C198.159 37.48 198.586 38.3067 198.586 39.24C198.586 40.0933 198.213 40.8267 197.466 41.44C196.719 42.0267 195.679 42.3067 194.346 42.28C193.946 38.3333 192.479 36.36 189.946 36.36C187.733 36.36 186.093 37.4133 185.026 39.52C183.986 41.6 183.466 44.7733 183.466 49.04C183.466 53.3067 183.973 56.4933 184.986 58.6C186.026 60.68 187.639 61.72 189.826 61.72C191.613 61.72 192.853 60.96 193.546 59.44C194.239 57.92 194.586 56.1467 194.586 54.12C194.586 52.8133 194.413 51.6933 194.066 50.76C193.719 49.8267 193.079 49.1467 192.146 48.72C192.359 48.2133 192.759 47.8267 193.346 47.56C193.933 47.2667 194.573 47.12 195.266 47.12C196.653 47.12 197.773 47.6133 198.626 48.6C199.479 49.56 199.906 50.9733 199.906 52.84C199.906 55.1333 199.439 57.0933 198.506 58.72C197.599 60.32 196.359 61.5333 194.786 62.36C193.213 63.16 191.466 63.56 189.546 63.56ZM225.32 59.88C225.64 60.9733 226.067 61.8 226.6 62.36C225.907 63.16 224.88 63.56 223.52 63.56C222.693 63.56 221.987 63.3867 221.4 63.04C220.84 62.6933 220.493 62.1867 220.36 61.52L218.56 54.8H209.52L208.2 59.96C208.013 60.6533 207.92 61.24 207.92 61.72C207.92 62.28 208.067 62.7067 208.36 63C207.853 63.1867 207.387 63.32 206.96 63.4C206.56 63.5067 206.067 63.56 205.48 63.56C204.467 63.56 203.72 63.3867 203.24 63.04C202.787 62.6933 202.56 62.1333 202.56 61.36C202.56 60.72 202.733 59.8133 203.08 58.64L210.96 35.24C212.427 34.76 213.893 34.52 215.36 34.52C216.96 34.52 217.907 35.0933 218.2 36.24L225.32 59.88ZM217.8 51.96L213.96 37.64L210.24 51.96H217.8ZM233.162 63.56C232.282 63.56 231.562 63.32 231.002 62.84C230.442 62.36 230.162 61.7067 230.162 60.88V40.8C230.162 38.7733 229.908 37.0933 229.402 35.76C229.695 35.4667 230.095 35.2 230.602 34.96C231.135 34.72 231.735 34.6 232.402 34.6C233.282 34.6 234.002 34.84 234.562 35.32C235.122 35.8 235.402 36.4533 235.402 37.28V57.36C235.402 59.4667 235.655 61.1467 236.162 62.4C235.868 62.6933 235.455 62.96 234.922 63.2C234.415 63.44 233.828 63.56 233.162 63.56ZM243.593 63.56C242.766 63.56 242.046 63.3333 241.433 62.88C241.94 61.52 242.193 59.68 242.193 57.36V40.8C242.193 38.5867 242.1 36.7467 241.913 35.28C242.073 35.0667 242.38 34.9067 242.833 34.8C243.313 34.6933 243.806 34.64 244.313 34.64C244.98 34.64 245.393 34.72 245.553 34.88C246.22 35.84 248.126 38.4133 251.273 42.6C254.126 46.4133 256.26 49.32 257.673 51.32C259.113 53.32 260.126 54.96 260.713 56.24L259.393 38.28L259.353 37.72C259.353 36.84 259.553 36.1333 259.953 35.6C260.38 35.0667 260.993 34.76 261.793 34.68C262.646 34.6267 263.366 34.8 263.953 35.2C263.606 36.24 263.433 37.88 263.433 40.12L263.393 57.44C263.393 59.8133 263.473 61.6267 263.633 62.88C263.446 63.0667 263.126 63.2133 262.673 63.32C262.246 63.4533 261.793 63.52 261.313 63.52C260.753 63.52 260.353 63.4533 260.113 63.32C252.94 54.92 247.926 48.0533 245.073 42.72L246.193 60.56C246.273 61.4133 246.033 62.1333 245.473 62.72C244.913 63.28 244.286 63.56 243.593 63.56Z" fill="#5F1B98"/>
</g>
<defs>
<filter id="filter0_d_103_497" x="0" y="0" width="307" height="115" filterUnits="userSpaceOnUse" color-interpolation-filters="sRGB">
<feFlood flood-opacity="0" result="BackgroundImageFix"/>
<feColorMatrix in="SourceAlpha" type="matrix" values="0 0 0 0 0 0 0 0 0 0 0 0 0 0 0 0 0 0 127 0" result="hardAlpha"/>
<feOffset dx="-10" dy="10"/>
<feComposite in2="hardAlpha" operator="out"/>
<feColorMatrix type="matrix" values="0 0 0 0 1 0 0 0 0 1 0 0 0 0 1 0 0 0 0.5 0"/>
<feBlend mode="normal" in2="BackgroundImageFix" result="effect1_dropShadow_103_497"/>
<feBlend mode="normal" in="SourceGraphic" in2="effect1_dropShadow_103_497" result="shape"/>
</filter>
</defs>
</svg>
