<svg width="55" height="54" viewBox="0 0 55 54" fill="none" xmlns="http://www.w3.org/2000/svg">
<path d="M21.2657 17.844L26.3975 9.43125C26.3975 9.43125 25.0224 5.70222 23.0324 4.46771C21.563 3.5562 20.4466 3.08442 18.7419 3.37405C16.9719 3.67476 15.2926 5.52771 14.9561 5.98201C13.2736 8.25346 11.4227 11.9551 11.4227 11.9551L21.2657 17.844Z" fill="#4CAF50"/>
<path d="M23.0324 49.3078V37.8664H13.1894C13.1894 37.8664 11.322 39.6475 10.8338 41.1474C10.3357 42.6783 10.3014 43.7504 10.8338 45.2697C11.2558 46.4737 11.7037 47.146 12.6847 47.9618C13.703 48.8086 15.2085 49.2141 16.3022 49.3078C18.5736 49.5025 23.0324 49.3078 23.0324 49.3078Z" fill="#4CAF50"/>
<path d="M38.8484 27.1822L48.6914 21.6298C48.6914 21.6298 50.458 24.406 51.8882 26.9298C52.393 27.8206 53.002 29.7223 52.6454 31.3045C52.338 32.668 51.9925 33.3879 50.9628 34.3331C49.879 35.3279 48.9532 35.5445 47.5136 35.8474C46.0668 36.1518 43.8119 35.9315 43.8119 35.9315L38.8484 27.1822Z" fill="#4CAF50"/>
<path d="M21.2657 17.844L26.3975 9.43125C26.3975 9.43125 25.0224 5.70222 23.0324 4.46771C21.563 3.5562 20.4466 3.08442 18.7419 3.37405C16.9719 3.67476 15.2926 5.52771 14.9561 5.98201C13.2736 8.25346 11.4227 11.9551 11.4227 11.9551L21.2657 17.844Z" stroke="#4CAF50" stroke-width="3" stroke-linejoin="round"/>
<path d="M23.0324 49.3078V37.8664H13.1894C13.1894 37.8664 11.322 39.6475 10.8338 41.1474C10.3357 42.6783 10.3014 43.7504 10.8338 45.2697C11.2558 46.4737 11.7037 47.146 12.6847 47.9618C13.703 48.8086 15.2085 49.2141 16.3022 49.3078C18.5736 49.5025 23.0324 49.3078 23.0324 49.3078Z" stroke="#4CAF50" stroke-width="3" stroke-linejoin="round"/>
<path d="M38.8484 27.1822L48.6914 21.6298C48.6914 21.6298 50.458 24.406 51.8882 26.9298C52.393 27.8206 53.002 29.7223 52.6454 31.3045C52.338 32.668 51.9925 33.3879 50.9628 34.3331C49.879 35.3279 48.9532 35.5445 47.5136 35.8474C46.0668 36.1518 43.8119 35.9315 43.8119 35.9315L38.8484 27.1822Z" stroke="#4CAF50" stroke-width="3" stroke-linejoin="round"/>
<path d="M25.1351 3.79476C23.9845 2.7402 21.8542 2.11221 21.8542 2.11221C21.8542 2.11221 30.0987 1.85974 34.7257 2.11221C36.4083 2.20401 37.7543 3.79476 38.1749 4.2154C39.0056 5.04603 39.8389 6.0846 40.4464 7.07574C42.0448 9.6837 43.475 12.1234 43.475 12.1234L45.7465 11.0298L41.0353 21.2092L30.1828 19.3584L33.2955 17.76C33.2955 17.76 29.9304 11.5345 27.659 7.49638C26.8725 6.09826 26.3178 4.87859 25.1351 3.79476Z" fill="#388E3C"/>
<path d="M33.8003 34.5014V37.9506C33.8003 37.9506 41.7925 38.2031 46.756 37.9506L46.8082 37.948C48.2831 37.8731 49.1928 37.8269 50.5417 37.1935C51.6065 36.6935 52.9814 35.4268 52.9814 35.4268C52.9814 35.4268 49.1957 42.4095 46.756 46.7C46.5168 47.1206 45.6623 47.8799 44.7369 48.3825C43.9624 48.8032 41.8027 49.1746 41.3718 49.2238C38.4273 49.5603 33.8003 49.5603 33.8003 49.5603V52L27.0701 43.2507L33.8003 34.5014Z" fill="#388E3C"/>
<path d="M10.3287 37.9506C12.4318 33.9125 16.5541 27.6871 16.5541 27.6871L19.4986 29.5379L15.4604 19.3584L4.69209 20.5362L6.71116 21.7981C6.71116 21.7981 4.01907 26.1728 2.84128 28.949C2.31224 30.196 2.00226 31.0436 2 32.3982C1.99856 33.2625 2.48076 34.7699 2.92541 35.511C5.70163 40.138 8.81435 45.3539 8.81435 45.3539C8.81435 45.3539 8.14311 42.9092 8.6461 41.484C9.15086 40.0539 9.63517 39.2821 10.3287 37.9506Z" fill="#388E3C"/>
<path d="M25.1351 3.79476C23.9845 2.7402 21.8542 2.11221 21.8542 2.11221C21.8542 2.11221 30.0987 1.85974 34.7257 2.11221C36.4083 2.20401 37.7543 3.79476 38.1749 4.2154C39.0056 5.04603 39.8389 6.0846 40.4464 7.07574C42.0448 9.6837 43.475 12.1234 43.475 12.1234L45.7465 11.0298L41.0353 21.2092L30.1828 19.3584L33.2955 17.76C33.2955 17.76 29.9304 11.5345 27.659 7.49638C26.8725 6.09826 26.3178 4.87859 25.1351 3.79476Z" stroke="#388E3C" stroke-width="3" stroke-linejoin="round"/>
<path d="M33.8003 34.5014V37.9506C33.8003 37.9506 41.7925 38.2031 46.756 37.9506L46.8082 37.948C48.2831 37.8731 49.1928 37.8269 50.5417 37.1935C51.6065 36.6935 52.9814 35.4268 52.9814 35.4268C52.9814 35.4268 49.1957 42.4095 46.756 46.7C46.5168 47.1206 45.6623 47.8799 44.7369 48.3825C43.9624 48.8032 41.8027 49.1746 41.3718 49.2238C38.4273 49.5603 33.8003 49.5603 33.8003 49.5603V52L27.0701 43.2507L33.8003 34.5014Z" stroke="#388E3C" stroke-width="3" stroke-linejoin="round"/>
<path d="M10.3287 37.9506C12.4318 33.9125 16.5541 27.6871 16.5541 27.6871L19.4986 29.5379L15.4604 19.3584L4.69209 20.5362L6.71116 21.7981C6.71116 21.7981 4.01907 26.1728 2.84128 28.949C2.31224 30.196 2.00226 31.0436 2 32.3982C1.99856 33.2625 2.48076 34.7699 2.92541 35.511C5.70163 40.138 8.81435 45.3539 8.81435 45.3539C8.81435 45.3539 8.14311 42.9092 8.6461 41.484C9.15086 40.0539 9.63517 39.2821 10.3287 37.9506Z" stroke="#388E3C" stroke-width="3" stroke-linejoin="round"/>
</svg>
