<svg width="151" height="150" viewBox="0 0 151 150" fill="none" xmlns="http://www.w3.org/2000/svg">
<circle cx="75.625" cy="75" r="75" fill="#F9A320"/>
<path d="M67.391 101.8C67.391 106.75 70.991 110.35 75.941 110.35C80.891 110.35 84.641 106.75 84.641 101.8C84.641 96.7 80.891 93.25 75.941 93.25C70.991 93.25 67.391 96.7 67.391 101.8ZM67.391 48.25C67.391 53.2 70.991 56.95 75.941 56.95C80.891 56.95 84.641 53.2 84.641 48.25C84.641 43.3 80.891 39.55 75.941 39.55C70.991 39.55 67.391 43.3 67.391 48.25ZM39.491 69.85V79.15H112.241V69.85H39.491Z" fill="white"/>
</svg>
