<svg width="56" height="46" viewBox="0 0 56 46" fill="none" xmlns="http://www.w3.org/2000/svg">
<path d="M22.6073 7.50573C22.4628 4.4716 25.0732 1.86124 28.1073 2.00573C31.0068 2.1438 32.8692 4.61273 33.1073 7.50573C33.37 10.6975 31.6074 12.506 28.1073 13.5059C27.6578 13.6343 28.1073 19.5057 28.1073 19.5057" stroke="#DBEEFF" stroke-width="3" stroke-linecap="round"/>
<path d="M2.10156 38.5C0.526976 39.6547 1.10273 44.499 1.10273 44.499C1.10273 44.499 24.1021 30 28.1021 30C32.1328 30 54.6021 44.499 54.6021 44.499C54.6021 44.499 55.8752 40.7719 54.6021 39.499C49.1021 34 40.6021 31.5 34.6021 27C31.1612 24.4193 34.1021 19.5 31.1021 19.5H24.1021C21.6021 19.5 23.6021 25 21.1021 27C18.6021 29 9.60099 33.0002 2.10156 38.5Z" fill="#FF505B" stroke="#FF505B" stroke-linecap="round"/>
</svg>
