<svg width="41" height="50" viewBox="0 0 41 50" fill="none" xmlns="http://www.w3.org/2000/svg">
<path d="M4 13.5C3.85997 13.5 3.72635 13.5587 3.63166 13.6619C3.53696 13.765 3.48987 13.9032 3.50183 14.0427L6.50183 49.0427C6.524 49.3013 6.74041 49.5 7 49.5H34C34.2542 49.5 34.4679 49.3093 34.4968 49.0568L38.4968 14.0568C38.5129 13.9152 38.468 13.7734 38.3731 13.6671C38.2782 13.5608 38.1425 13.5 38 13.5H4Z" fill="#9EBBDB" stroke="#9EBBDB" stroke-linecap="round" stroke-linejoin="round"/>
<path d="M20.9277 20.0049V44.0049" stroke="#5877A6" stroke-width="3" stroke-linecap="round"/>
<path d="M28.9424 20L27.9401 43.9841" stroke="#5877A6" stroke-width="3" stroke-linecap="round"/>
<path d="M13 20.0015L14.093 43.9825" stroke="#5877A6" stroke-width="3" stroke-linecap="round"/>
<path d="M15.0151 3.51L13.9944 2.41081L15.0151 3.51ZM27.0166 3.00928L26.2344 4.2892L26.2344 4.2892L27.0166 3.00928ZM15.5153 8.0114C15.5161 7.11972 15.4638 6.48094 15.5462 5.80459C15.6209 5.19169 15.7862 4.84093 16.0358 4.60919L13.9944 2.41081C13.0214 3.31427 12.6875 4.46341 12.5683 5.44167C12.4568 6.35651 12.5159 7.40018 12.5153 8.00885L15.5153 8.0114ZM16.0358 4.60919C17.3668 3.37323 18.7305 3.50985 21.5151 3.50985V0.509846C19.2228 0.509846 16.3836 0.192233 13.9944 2.41081L16.0358 4.60919ZM21.5151 3.50985C23.7796 3.50985 24.8312 3.43166 26.2344 4.2892L27.7988 1.72935C25.5365 0.346866 23.5463 0.509846 21.5151 0.509846V3.50985ZM26.2344 4.2892C26.5411 4.47662 26.7515 4.776 26.8771 5.40748C27.0154 6.10274 27.0008 6.92564 27 7.99886L30 8.00114C30.0007 7.07436 30.0303 5.88218 29.8195 4.82222C29.596 3.69848 29.0639 2.5025 27.7988 1.72935L26.2344 4.2892Z" fill="#9EBBDB"/>
<path d="M3.13511 8.21027C0.374922 10.4194 1.08084 15.2098 1.08084 15.2098H40.5809C40.5809 15.2098 41.1347 10 38.1348 8.21027C36.1063 7.0001 30.0677 6.88495 21.1347 7.00013C12.1695 7.11572 4.64726 7.00003 3.13511 8.21027Z" fill="#5877A6" stroke="#5877A6" stroke-width="0.5" stroke-linejoin="round"/>
</svg>
