<svg width="1024" height="1366" viewBox="0 0 1024 1366" fill="none" xmlns="http://www.w3.org/2000/svg">
<g clip-path="url(#clip0_1_1956)">
<rect width="1366" height="1024" transform="translate(0 1366) rotate(-90)" fill="#54545A"/>
<rect x="-340" y="40" width="1546" height="14.05" fill="#969598"/>
<path d="M490.728 123.065C463.816 123.065 426.812 131.475 426.812 131.475L450.36 1132.26C450.36 1132.26 473.067 1129.74 510.912 1132.26C548.756 1134.79 563.053 1137.31 563.053 1137.31L566.417 136.521C566.417 136.521 517.64 123.065 490.728 123.065Z" fill="#E2A1A7"/>
<rect x="468.995" y="153.847" width="57.0035" height="45.6028" fill="#C4C4C4"/>
<path d="M467.072 51.719C466.905 54.4753 469.004 56.8452 471.76 57.0122C474.517 57.1792 476.887 55.0801 477.054 52.3237L467.072 51.719ZM492.034 33.0015L492.092 38.0011L492.034 33.0015ZM512.48 52.0213L517.474 51.7777L512.48 52.0213ZM487.034 85.3061C487.034 88.0676 489.272 90.3061 492.034 90.3061C494.795 90.3061 497.034 88.0676 497.034 85.3061H487.034ZM477.054 52.3237C477.546 44.1898 483.944 38.0968 492.092 38.0011L491.975 28.0018C478.584 28.1591 467.882 38.3519 467.072 51.719L477.054 52.3237ZM492.092 38.0011C500.384 37.9037 507.089 44.1342 507.486 52.265L517.474 51.7777C516.808 38.1236 505.493 27.8431 491.975 28.0018L492.092 38.0011ZM507.486 52.265C507.676 56.1713 506.75 58.5945 505.613 60.1918C504.429 61.8551 502.701 63.0608 500.631 63.9545C498.545 64.8554 496.348 65.3401 494.445 65.6951C493.629 65.8473 492.544 66.0304 491.819 66.199C491.477 66.2784 490.821 66.4385 490.168 66.742C489.848 66.8903 489.211 67.2148 488.592 67.8233C487.915 68.4875 487.034 69.7384 487.034 71.5167H497.034C497.034 73.2059 496.194 74.3732 495.598 74.958C495.06 75.487 494.542 75.7361 494.38 75.8117C494.039 75.9699 493.842 75.9953 494.083 75.9392C494.525 75.8366 495.104 75.7447 496.279 75.5255C498.358 75.1376 501.451 74.4929 504.596 73.1352C507.756 71.7703 511.199 69.5881 513.76 65.9912C516.367 62.3283 517.759 57.6191 517.474 51.7777L507.486 52.265ZM487.034 71.5167C487.034 71.5272 487.034 71.5378 487.034 71.5483C487.034 71.5588 487.034 71.5694 487.034 71.58C487.034 71.5905 487.034 71.6011 487.034 71.6117C487.034 71.6223 487.034 71.6329 487.034 71.6435C487.034 71.6541 487.034 71.6647 487.034 71.6753C487.034 71.686 487.034 71.6966 487.034 71.7073C487.034 71.7179 487.034 71.7286 487.034 71.7393C487.034 71.7499 487.034 71.7606 487.034 71.7713C487.034 71.782 487.034 71.7927 487.034 71.8034C487.034 71.8142 487.034 71.8249 487.034 71.8356C487.034 71.8464 487.034 71.8571 487.034 71.8679C487.034 71.8786 487.034 71.8894 487.034 71.9002C487.034 71.911 487.034 71.9218 487.034 71.9326C487.034 71.9434 487.034 71.9542 487.034 71.965C487.034 71.9758 487.034 71.9867 487.034 71.9975C487.034 72.0083 487.034 72.0192 487.034 72.0301C487.034 72.0409 487.034 72.0518 487.034 72.0627C487.034 72.0736 487.034 72.0845 487.034 72.0954C487.034 72.1063 487.034 72.1172 487.034 72.1281C487.034 72.139 487.034 72.15 487.034 72.1609C487.034 72.1719 487.034 72.1828 487.034 72.1938C487.034 72.2048 487.034 72.2157 487.034 72.2267C487.034 72.2377 487.034 72.2487 487.034 72.2597C487.034 72.2707 487.034 72.2817 487.034 72.2927C487.034 72.3037 487.034 72.3148 487.034 72.3258C487.034 72.3369 487.034 72.3479 487.034 72.359C487.034 72.37 487.034 72.3811 487.034 72.3922C487.034 72.4032 487.034 72.4143 487.034 72.4254C487.034 72.4365 487.034 72.4476 487.034 72.4587C487.034 72.4699 487.034 72.481 487.034 72.4921C487.034 72.5032 487.034 72.5144 487.034 72.5255C487.034 72.5367 487.034 72.5478 487.034 72.559C487.034 72.5702 487.034 72.5814 487.034 72.5925C487.034 72.6037 487.034 72.6149 487.034 72.6261C487.034 72.6373 487.034 72.6485 487.034 72.6598C487.034 72.671 487.034 72.6822 487.034 72.6934C487.034 72.7047 487.034 72.7159 487.034 72.7272C487.034 72.7384 487.034 72.7497 487.034 72.761C487.034 72.7722 487.034 72.7835 487.034 72.7948C487.034 72.8061 487.034 72.8174 487.034 72.8287C487.034 72.84 487.034 72.8513 487.034 72.8626C487.034 72.8739 487.034 72.8853 487.034 72.8966C487.034 72.9079 487.034 72.9193 487.034 72.9306C487.034 72.942 487.034 72.9533 487.034 72.9647C487.034 72.9761 487.034 72.9874 487.034 72.9988C487.034 73.0102 487.034 73.0216 487.034 73.033C487.034 73.0444 487.034 73.0558 487.034 73.0672C487.034 73.0786 487.034 73.09 487.034 73.1015C487.034 73.1129 487.034 73.1243 487.034 73.1358C487.034 73.1472 487.034 73.1587 487.034 73.1701C487.034 73.1816 487.034 73.193 487.034 73.2045C487.034 73.216 487.034 73.2275 487.034 73.239C487.034 73.2504 487.034 73.2619 487.034 73.2734C487.034 73.2849 487.034 73.2964 487.034 73.3079C487.034 73.3195 487.034 73.331 487.034 73.3425C487.034 73.354 487.034 73.3656 487.034 73.3771C487.034 73.3887 487.034 73.4002 487.034 73.4118C487.034 73.4233 487.034 73.4349 487.034 73.4464C487.034 73.458 487.034 73.4696 487.034 73.4812C487.034 73.4927 487.034 73.5043 487.034 73.5159C487.034 73.5275 487.034 73.5391 487.034 73.5507C487.034 73.5623 487.034 73.5739 487.034 73.5856C487.034 73.5972 487.034 73.6088 487.034 73.6204C487.034 73.6321 487.034 73.6437 487.034 73.6553C487.034 73.667 487.034 73.6786 487.034 73.6903C487.034 73.7019 487.034 73.7136 487.034 73.7253C487.034 73.7369 487.034 73.7486 487.034 73.7603C487.034 73.772 487.034 73.7837 487.034 73.7954C487.034 73.807 487.034 73.8187 487.034 73.8304C487.034 73.8421 487.034 73.8538 487.034 73.8656C487.034 73.8773 487.034 73.889 487.034 73.9007C487.034 73.9124 487.034 73.9242 487.034 73.9359C487.034 73.9476 487.034 73.9594 487.034 73.9711C487.034 73.9829 487.034 73.9946 487.034 74.0064C487.034 74.0181 487.034 74.0299 487.034 74.0417C487.034 74.0534 487.034 74.0652 487.034 74.077C487.034 74.0888 487.034 74.1005 487.034 74.1123C487.034 74.1241 487.034 74.1359 487.034 74.1477C487.034 74.1595 487.034 74.1713 487.034 74.1831C487.034 74.1949 487.034 74.2067 487.034 74.2185C487.034 74.2304 487.034 74.2422 487.034 74.254C487.034 74.2658 487.034 74.2777 487.034 74.2895C487.034 74.3013 487.034 74.3132 487.034 74.325C487.034 74.3369 487.034 74.3487 487.034 74.3606C487.034 74.3724 487.034 74.3843 487.034 74.3961C487.034 74.408 487.034 74.4198 487.034 74.4317C487.034 74.4436 487.034 74.4555 487.034 74.4673C487.034 74.4792 487.034 74.4911 487.034 74.503C487.034 74.5149 487.034 74.5268 487.034 74.5387C487.034 74.5505 487.034 74.5624 487.034 74.5743C487.034 74.5862 487.034 74.5981 487.034 74.6101C487.034 74.622 487.034 74.6339 487.034 74.6458C487.034 74.6577 487.034 74.6696 487.034 74.6816C487.034 74.6935 487.034 74.7054 487.034 74.7173C487.034 74.7293 487.034 74.7412 487.034 74.7531C487.034 74.7651 487.034 74.777 487.034 74.789C487.034 74.8009 487.034 74.8129 487.034 74.8248C487.034 74.8368 487.034 74.8487 487.034 74.8607C487.034 74.8726 487.034 74.8846 487.034 74.8966C487.034 74.9085 487.034 74.9205 487.034 74.9325C487.034 74.9444 487.034 74.9564 487.034 74.9684C487.034 74.9804 487.034 74.9923 487.034 75.0043C487.034 75.0163 487.034 75.0283 487.034 75.0403C487.034 75.0523 487.034 75.0642 487.034 75.0762C487.034 75.0882 487.034 75.1002 487.034 75.1122C487.034 75.1242 487.034 75.1362 487.034 75.1482C487.034 75.1602 487.034 75.1722 487.034 75.1842C487.034 75.1963 487.034 75.2083 487.034 75.2203C487.034 75.2323 487.034 75.2443 487.034 75.2563C487.034 75.2683 487.034 75.2804 487.034 75.2924C487.034 75.3044 487.034 75.3164 487.034 75.3285C487.034 75.3405 487.034 75.3525 487.034 75.3645C487.034 75.3766 487.034 75.3886 487.034 75.4006C487.034 75.4127 487.034 75.4247 487.034 75.4367C487.034 75.4488 487.034 75.4608 487.034 75.4729C487.034 75.4849 487.034 75.4969 487.034 75.509C487.034 75.521 487.034 75.5331 487.034 75.5451C487.034 75.5572 487.034 75.5692 487.034 75.5813C487.034 75.5933 487.034 75.6054 487.034 75.6174C487.034 75.6295 487.034 75.6415 487.034 75.6536C487.034 75.6657 487.034 75.6777 487.034 75.6898C487.034 75.7018 487.034 75.7139 487.034 75.7259C487.034 75.738 487.034 75.7501 487.034 75.7621C487.034 75.7742 487.034 75.7863 487.034 75.7983C487.034 75.8104 487.034 75.8225 487.034 75.8345C487.034 75.8466 487.034 75.8587 487.034 75.8707C487.034 75.8828 487.034 75.8949 487.034 75.9069C487.034 75.919 487.034 75.9311 487.034 75.9432C487.034 75.9552 487.034 75.9673 487.034 75.9794C487.034 75.9914 487.034 76.0035 487.034 76.0156C487.034 76.0277 487.034 76.0397 487.034 76.0518C487.034 76.0639 487.034 76.076 487.034 76.088C487.034 76.1001 487.034 76.1122 487.034 76.1243C487.034 76.1363 487.034 76.1484 487.034 76.1605C487.034 76.1726 487.034 76.1846 487.034 76.1967C487.034 76.2088 487.034 76.2209 487.034 76.233C487.034 76.245 487.034 76.2571 487.034 76.2692C487.034 76.2813 487.034 76.2933 487.034 76.3054C487.034 76.3175 487.034 76.3296 487.034 76.3416C487.034 76.3537 487.034 76.3658 487.034 76.3779C487.034 76.3899 487.034 76.402 487.034 76.4141C487.034 76.4262 487.034 76.4382 487.034 76.4503C487.034 76.4624 487.034 76.4744 487.034 76.4865C487.034 76.4986 487.034 76.5107 487.034 76.5227C487.034 76.5348 487.034 76.5469 487.034 76.5589C487.034 76.571 487.034 76.5831 487.034 76.5951C487.034 76.6072 487.034 76.6193 487.034 76.6313C487.034 76.6434 487.034 76.6555 487.034 76.6675C487.034 76.6796 487.034 76.6916 487.034 76.7037C487.034 76.7158 487.034 76.7278 487.034 76.7399C487.034 76.7519 487.034 76.764 487.034 76.7761C487.034 76.7881 487.034 76.8002 487.034 76.8122C487.034 76.8243 487.034 76.8363 487.034 76.8484C487.034 76.8604 487.034 76.8725 487.034 76.8845C487.034 76.8966 487.034 76.9086 487.034 76.9207C487.034 76.9327 487.034 76.9447 487.034 76.9568C487.034 76.9688 487.034 76.9809 487.034 76.9929C487.034 77.0049 487.034 77.017 487.034 77.029C487.034 77.041 487.034 77.0531 487.034 77.0651C487.034 77.0771 487.034 77.0891 487.034 77.1012C487.034 77.1132 487.034 77.1252 487.034 77.1372C487.034 77.1493 487.034 77.1613 487.034 77.1733C487.034 77.1853 487.034 77.1973 487.034 77.2093C487.034 77.2213 487.034 77.2333 487.034 77.2454C487.034 77.2574 487.034 77.2694 487.034 77.2814C487.034 77.2934 487.034 77.3054 487.034 77.3174C487.034 77.3294 487.034 77.3414 487.034 77.3533C487.034 77.3653 487.034 77.3773 487.034 77.3893C487.034 77.4013 487.034 77.4133 487.034 77.4253C487.034 77.4372 487.034 77.4492 487.034 77.4612C487.034 77.4732 487.034 77.4851 487.034 77.4971C487.034 77.5091 487.034 77.521 487.034 77.533C487.034 77.545 487.034 77.5569 487.034 77.5689C487.034 77.5808 487.034 77.5928 487.034 77.6047C487.034 77.6167 487.034 77.6286 487.034 77.6406C487.034 77.6525 487.034 77.6644 487.034 77.6764C487.034 77.6883 487.034 77.7002 487.034 77.7122C487.034 77.7241 487.034 77.736 487.034 77.7479C487.034 77.7599 487.034 77.7718 487.034 77.7837C487.034 77.7956 487.034 77.8075 487.034 77.8194C487.034 77.8313 487.034 77.8432 487.034 77.8551C487.034 77.867 487.034 77.8789 487.034 77.8908C487.034 77.9027 487.034 77.9146 487.034 77.9265C487.034 77.9384 487.034 77.9502 487.034 77.9621C487.034 77.974 487.034 77.9859 487.034 77.9977C487.034 78.0096 487.034 78.0215 487.034 78.0333C487.034 78.0452 487.034 78.057 487.034 78.0689C487.034 78.0807 487.034 78.0926 487.034 78.1044C487.034 78.1163 487.034 78.1281 487.034 78.1399C487.034 78.1518 487.034 78.1636 487.034 78.1754C487.034 78.1872 487.034 78.199 487.034 78.2109C487.034 78.2227 487.034 78.2345 487.034 78.2463C487.034 78.2581 487.034 78.2699 487.034 78.2817C487.034 78.2935 487.034 78.3052 487.034 78.317C487.034 78.3288 487.034 78.3406 487.034 78.3524C487.034 78.3641 487.034 78.3759 487.034 78.3877C487.034 78.3994 487.034 78.4112 487.034 78.4229C487.034 78.4347 487.034 78.4464 487.034 78.4582C487.034 78.4699 487.034 78.4817 487.034 78.4934C487.034 78.5051 487.034 78.5169 487.034 78.5286C487.034 78.5403 487.034 78.552 487.034 78.5637C487.034 78.5754 487.034 78.5871 487.034 78.5988C487.034 78.6105 487.034 78.6222 487.034 78.6339C487.034 78.6456 487.034 78.6573 487.034 78.6689C487.034 78.6806 487.034 78.6923 487.034 78.704C487.034 78.7156 487.034 78.7273 487.034 78.7389C487.034 78.7506 487.034 78.7622 487.034 78.7739C487.034 78.7855 487.034 78.7971 487.034 78.8088C487.034 78.8204 487.034 78.832 487.034 78.8436C487.034 78.8552 487.034 78.8668 487.034 78.8784C487.034 78.89 487.034 78.9016 487.034 78.9132C487.034 78.9248 487.034 78.9364 487.034 78.948C487.034 78.9596 487.034 78.9711 487.034 78.9827C487.034 78.9942 487.034 79.0058 487.034 79.0174C487.034 79.0289 487.034 79.0404 487.034 79.052C487.034 79.0635 487.034 79.075 487.034 79.0866C487.034 79.0981 487.034 79.1096 487.034 79.1211C487.034 79.1326 487.034 79.1441 487.034 79.1556C487.034 79.1671 487.034 79.1786 487.034 79.1901C487.034 79.2016 487.034 79.213 487.034 79.2245C487.034 79.236 487.034 79.2474 487.034 79.2589C487.034 79.2703 487.034 79.2818 487.034 79.2932C487.034 79.3046 487.034 79.3161 487.034 79.3275C487.034 79.3389 487.034 79.3503 487.034 79.3617C487.034 79.3731 487.034 79.3845 487.034 79.3959C487.034 79.4073 487.034 79.4187 487.034 79.4301C487.034 79.4415 487.034 79.4528 487.034 79.4642C487.034 79.4756 487.034 79.4869 487.034 79.4983C487.034 79.5096 487.034 79.5209 487.034 79.5323C487.034 79.5436 487.034 79.5549 487.034 79.5662C487.034 79.5775 487.034 79.5889 487.034 79.6001C487.034 79.6114 487.034 79.6227 487.034 79.634C487.034 79.6453 487.034 79.6566 487.034 79.6678C487.034 79.6791 487.034 79.6904 487.034 79.7016C487.034 79.7128 487.034 79.7241 487.034 79.7353C487.034 79.7465 487.034 79.7578 487.034 79.769C487.034 79.7802 487.034 79.7914 487.034 79.8026C487.034 79.8138 487.034 79.825 487.034 79.8362C487.034 79.8473 487.034 79.8585 487.034 79.8697C487.034 79.8808 487.034 79.892 487.034 79.9031C487.034 79.9143 487.034 79.9254 487.034 79.9365C487.034 79.9477 487.034 79.9588 487.034 79.9699C487.034 79.981 487.034 79.9921 487.034 80.0032C487.034 80.0143 487.034 80.0254 487.034 80.0364C487.034 80.0475 487.034 80.0586 487.034 80.0696C487.034 80.0807 487.034 80.0917 487.034 80.1027C487.034 80.1138 487.034 80.1248 487.034 80.1358C487.034 80.1468 487.034 80.1578 487.034 80.1688C487.034 80.1798 487.034 80.1908 487.034 80.2018C487.034 80.2128 487.034 80.2237 487.034 80.2347C487.034 80.2456 487.034 80.2566 487.034 80.2675C487.034 80.2785 487.034 80.2894 487.034 80.3003C487.034 80.3112 487.034 80.3221 487.034 80.333C487.034 80.3439 487.034 80.3548 487.034 80.3657C487.034 80.3766 487.034 80.3874 487.034 80.3983C487.034 80.4092 487.034 80.42 487.034 80.4308C487.034 80.4417 487.034 80.4525 487.034 80.4633C487.034 80.4741 487.034 80.4849 487.034 80.4957C487.034 80.5065 487.034 80.5173 487.034 80.5281C487.034 80.5389 487.034 80.5496 487.034 80.5604C487.034 80.5711 487.034 80.5819 487.034 80.5926C487.034 80.6033 487.034 80.6141 487.034 80.6248C487.034 80.6355 487.034 80.6462 487.034 80.6569C487.034 80.6676 487.034 80.6782 487.034 80.6889C487.034 80.6996 487.034 80.7102 487.034 80.7209C487.034 80.7315 487.034 80.7422 487.034 80.7528C487.034 80.7634 487.034 80.774 487.034 80.7846C487.034 80.7952 487.034 80.8058 487.034 80.8164C487.034 80.827 487.034 80.8375 487.034 80.8481C487.034 80.8586 487.034 80.8692 487.034 80.8797C487.034 80.8902 487.034 80.9008 487.034 80.9113C487.034 80.9218 487.034 80.9323 487.034 80.9428C487.034 80.9533 487.034 80.9637 487.034 80.9742C487.034 80.9847 487.034 80.9951 487.034 81.0055C487.034 81.016 487.034 81.0264 487.034 81.0368C487.034 81.0472 487.034 81.0576 487.034 81.068C487.034 81.0784 487.034 81.0888 487.034 81.0992C487.034 81.1095 487.034 81.1199 487.034 81.1302C487.034 81.1406 487.034 81.1509 487.034 81.1612C487.034 81.1716 487.034 81.1819 487.034 81.1922C487.034 81.2025 487.034 81.2127 487.034 81.223C487.034 81.2333 487.034 81.2435 487.034 81.2538C487.034 81.264 487.034 81.2743 487.034 81.2845C487.034 81.2947 487.034 81.3049 487.034 81.3151C487.034 81.3253 487.034 81.3355 487.034 81.3456C487.034 81.3558 487.034 81.366 487.034 81.3761C487.034 81.3863 487.034 81.3964 487.034 81.4065C487.034 81.4166 487.034 81.4267 487.034 81.4368C487.034 81.4469 487.034 81.457 487.034 81.4671C487.034 81.4771 487.034 81.4872 487.034 81.4972C487.034 81.5073 487.034 81.5173 487.034 81.5273C487.034 81.5373 487.034 81.5473 487.034 81.5573C487.034 81.5673 487.034 81.5773 487.034 81.5872C487.034 81.5972 487.034 81.6071 487.034 81.6171C487.034 81.627 487.034 81.6369 487.034 81.6468C487.034 81.6567 487.034 81.6666 487.034 81.6765C487.034 81.6864 487.034 81.6962 487.034 81.7061C487.034 81.7159 487.034 81.7258 487.034 81.7356C487.034 81.7454 487.034 81.7552 487.034 81.765C487.034 81.7748 487.034 81.7846 487.034 81.7944C487.034 81.8042 487.034 81.8139 487.034 81.8236C487.034 81.8334 487.034 81.8431 487.034 81.8528C487.034 81.8625 487.034 81.8722 487.034 81.8819C487.034 81.8916 487.034 81.9013 487.034 81.9109C487.034 81.9206 487.034 81.9302 487.034 81.9398C487.034 81.9495 487.034 81.9591 487.034 81.9687C487.034 81.9783 487.034 81.9879 487.034 81.9974C487.034 82.007 487.034 82.0165 487.034 82.0261C487.034 82.0356 487.034 82.0451 487.034 82.0547C487.034 82.0642 487.034 82.0737 487.034 82.0831C487.034 82.0926 487.034 82.1021 487.034 82.1115C487.034 82.121 487.034 82.1304 487.034 82.1398C487.034 82.1493 487.034 82.1587 487.034 82.168C487.034 82.1774 487.034 82.1868 487.034 82.1962C487.034 82.2055 487.034 82.2149 487.034 82.2242C487.034 82.2335 487.034 82.2428 487.034 82.2521C487.034 82.2614 487.034 82.2707 487.034 82.28C487.034 82.2893 487.034 82.2985 487.034 82.3077C487.034 82.317 487.034 82.3262 487.034 82.3354C487.034 82.3446 487.034 82.3538 487.034 82.363C487.034 82.3721 487.034 82.3813 487.034 82.3904C487.034 82.3996 487.034 82.4087 487.034 82.4178C487.034 82.4269 487.034 82.436 487.034 82.4451C487.034 82.4542 487.034 82.4632 487.034 82.4723C487.034 82.4813 487.034 82.4904 487.034 82.4994C487.034 82.5084 487.034 82.5174 487.034 82.5264C487.034 82.5354 487.034 82.5443 487.034 82.5533C487.034 82.5622 487.034 82.5712 487.034 82.5801C487.034 82.589 487.034 82.5979 487.034 82.6068C487.034 82.6157 487.034 82.6245 487.034 82.6334C487.034 82.6422 487.034 82.6511 487.034 82.6599C487.034 82.6687 487.034 82.6775 487.034 82.6863C487.034 82.6951 487.034 82.7038 487.034 82.7126C487.034 82.7213 487.034 82.7301 487.034 82.7388C487.034 82.7475 487.034 82.7562 487.034 82.7649C487.034 82.7736 487.034 82.7822 487.034 82.7909C487.034 82.7995 487.034 82.8082 487.034 82.8168C487.034 82.8254 487.034 82.834 487.034 82.8426C487.034 82.8511 487.034 82.8597 487.034 82.8683C487.034 82.8768 487.034 82.8853 487.034 82.8938C487.034 82.9023 487.034 82.9108 487.034 82.9193C487.034 82.9278 487.034 82.9363 487.034 82.9447C487.034 82.9531 487.034 82.9616 487.034 82.97C487.034 82.9784 487.034 82.9868 487.034 82.9951C487.034 83.0035 487.034 83.0118 487.034 83.0202C487.034 83.0285 487.034 83.0368 487.034 83.0451C487.034 83.0534 487.034 83.0617 487.034 83.07C487.034 83.0782 487.034 83.0865 487.034 83.0947C487.034 83.1029 487.034 83.1111 487.034 83.1193C487.034 83.1275 487.034 83.1357 487.034 83.1438C487.034 83.152 487.034 83.1601 487.034 83.1683C487.034 83.1764 487.034 83.1845 487.034 83.1925C487.034 83.2006 487.034 83.2087 487.034 83.2167C487.034 83.2248 487.034 83.2328 487.034 83.2408C487.034 83.2488 487.034 83.2568 487.034 83.2648C487.034 83.2727 487.034 83.2807 487.034 83.2886C487.034 83.2966 487.034 83.3045 487.034 83.3124C487.034 83.3203 487.034 83.3281 487.034 83.336C487.034 83.3438 487.034 83.3517 487.034 83.3595C487.034 83.3673 487.034 83.3751 487.034 83.3829C487.034 83.3907 487.034 83.3984 487.034 83.4062C487.034 83.4139 487.034 83.4216 487.034 83.4293C487.034 83.437 487.034 83.4447 487.034 83.4524C487.034 83.4601 487.034 83.4677 487.034 83.4753C487.034 83.4829 487.034 83.4906 487.034 83.4981C487.034 83.5057 487.034 83.5133 487.034 83.5208C487.034 83.5284 487.034 83.5359 487.034 83.5434C487.034 83.5509 487.034 83.5584 487.034 83.5659C487.034 83.5734 487.034 83.5808 487.034 83.5882C487.034 83.5957 487.034 83.6031 487.034 83.6105C487.034 83.6179 487.034 83.6252 487.034 83.6326C487.034 83.6399 487.034 83.6472 487.034 83.6546C487.034 83.6619 487.034 83.6692 487.034 83.6764C487.034 83.6837 487.034 83.6909 487.034 83.6982C487.034 83.7054 487.034 83.7126 487.034 83.7198C487.034 83.727 487.034 83.7341 487.034 83.7413C487.034 83.7484 487.034 83.7556 487.034 83.7627C487.034 83.7698 487.034 83.7769 487.034 83.7839C487.034 83.791 487.034 83.798 487.034 83.805C487.034 83.8121 487.034 83.8191 487.034 83.826C487.034 83.833 487.034 83.84 487.034 83.8469C487.034 83.8539 487.034 83.8608 487.034 83.8677C487.034 83.8746 487.034 83.8815 487.034 83.8883C487.034 83.8952 487.034 83.902 487.034 83.9088C487.034 83.9156 487.034 83.9224 487.034 83.9292C487.034 83.936 487.034 83.9427 487.034 83.9494C487.034 83.9562 487.034 83.9629 487.034 83.9696C487.034 83.9762 487.034 83.9829 487.034 83.9895C487.034 83.9962 487.034 84.0028 487.034 84.0094C487.034 84.016 487.034 84.0226 487.034 84.0291C487.034 84.0357 487.034 84.0422 487.034 84.0487C487.034 84.0553 487.034 84.0617 487.034 84.0682C487.034 84.0747 487.034 84.0811 487.034 84.0876C487.034 84.094 487.034 84.1004 487.034 84.1068C487.034 84.1131 487.034 84.1195 487.034 84.1258C487.034 84.1322 487.034 84.1385 487.034 84.1448C487.034 84.1511 487.034 84.1573 487.034 84.1636C487.034 84.1698 487.034 84.1761 487.034 84.1823C487.034 84.1885 487.034 84.1947 487.034 84.2008C487.034 84.207 487.034 84.2131 487.034 84.2192C487.034 84.2253 487.034 84.2314 487.034 84.2375C487.034 84.2436 487.034 84.2496 487.034 84.2556C487.034 84.2617 487.034 84.2677 487.034 84.2736C487.034 84.2796 487.034 84.2856 487.034 84.2915C487.034 84.2974 487.034 84.3033 487.034 84.3092C487.034 84.3151 487.034 84.321 487.034 84.3268C487.034 84.3327 487.034 84.3385 487.034 84.3443C487.034 84.3501 487.034 84.3558 487.034 84.3616C487.034 84.3673 487.034 84.3731 487.034 84.3788C487.034 84.3845 487.034 84.3901 487.034 84.3958C487.034 84.4015 487.034 84.4071 487.034 84.4127C487.034 84.4183 487.034 84.4239 487.034 84.4294C487.034 84.435 487.034 84.4405 487.034 84.4461C487.034 84.4516 487.034 84.4571 487.034 84.4625C487.034 84.468 487.034 84.4734 487.034 84.4789C487.034 84.4843 487.034 84.4897 487.034 84.495C487.034 84.5004 487.034 84.5058 487.034 84.5111C487.034 84.5164 487.034 84.5217 487.034 84.527C487.034 84.5323 487.034 84.5375 487.034 84.5427C487.034 84.548 487.034 84.5532 487.034 84.5583C487.034 84.5635 487.034 84.5687 487.034 84.5738C487.034 84.5789 487.034 84.584 487.034 84.5891C487.034 84.5942 487.034 84.5993 487.034 84.6043C487.034 84.6093 487.034 84.6143 487.034 84.6193C487.034 84.6243 487.034 84.6293 487.034 84.6342C487.034 84.6391 487.034 84.644 487.034 84.6489C487.034 84.6538 487.034 84.6587 487.034 84.6635C487.034 84.6683 487.034 84.6731 487.034 84.6779C487.034 84.6827 487.034 84.6875 487.034 84.6922C487.034 84.6969 487.034 84.7017 487.034 84.7063C487.034 84.711 487.034 84.7157 487.034 84.7203C487.034 84.725 487.034 84.7296 487.034 84.7342C487.034 84.7387 487.034 84.7433 487.034 84.7478C487.034 84.7524 487.034 84.7569 487.034 84.7614C487.034 84.7658 487.034 84.7703 487.034 84.7747C487.034 84.7792 487.034 84.7836 487.034 84.788C487.034 84.7923 487.034 84.7967 487.034 84.801C487.034 84.8054 487.034 84.8097 487.034 84.8139C487.034 84.8182 487.034 84.8225 487.034 84.8267C487.034 84.8309 487.034 84.8351 487.034 84.8393C487.034 84.8435 487.034 84.8476 487.034 84.8518C487.034 84.8559 487.034 84.86 487.034 84.864C487.034 84.8681 487.034 84.8722 487.034 84.8762C487.034 84.8802 487.034 84.8842 487.034 84.8882C487.034 84.8921 487.034 84.8961 487.034 84.9C487.034 84.9039 487.034 84.9078 487.034 84.9116C487.034 84.9155 487.034 84.9193 487.034 84.9231C487.034 84.927 487.034 84.9307 487.034 84.9345C487.034 84.9382 487.034 84.942 487.034 84.9457C487.034 84.9494 487.034 84.9531 487.034 84.9567C487.034 84.9603 487.034 84.964 487.034 84.9676C487.034 84.9712 487.034 84.9747 487.034 84.9783C487.034 84.9818 487.034 84.9853 487.034 84.9888C487.034 84.9923 487.034 84.9958 487.034 84.9992C487.034 85.0026 487.034 85.006 487.034 85.0094C487.034 85.0128 487.034 85.0161 487.034 85.0195C487.034 85.0228 487.034 85.0261 487.034 85.0293C487.034 85.0326 487.034 85.0359 487.034 85.0391C487.034 85.0423 487.034 85.0455 487.034 85.0486C487.034 85.0518 487.034 85.0549 487.034 85.058C487.034 85.0611 487.034 85.0642 487.034 85.0673C487.034 85.0703 487.034 85.0733 487.034 85.0763C487.034 85.0793 487.034 85.0823 487.034 85.0852C487.034 85.0882 487.034 85.0911 487.034 85.0939C487.034 85.0968 487.034 85.0997 487.034 85.1025C487.034 85.1053 487.034 85.1081 487.034 85.1109C487.034 85.1137 487.034 85.1164 487.034 85.1191C487.034 85.1218 487.034 85.1245 487.034 85.1272C487.034 85.1298 487.034 85.1325 487.034 85.1351C487.034 85.1377 487.034 85.1402 487.034 85.1428C487.034 85.1453 487.034 85.1478 487.034 85.1503C487.034 85.1528 487.034 85.1553 487.034 85.1577C487.034 85.1601 487.034 85.1625 487.034 85.1649C487.034 85.1673 487.034 85.1696 487.034 85.1719C487.034 85.1742 487.034 85.1765 487.034 85.1788C487.034 85.181 487.034 85.1833 487.034 85.1855C487.034 85.1876 487.034 85.1898 487.034 85.192C487.034 85.1941 487.034 85.1962 487.034 85.1983C487.034 85.2004 487.034 85.2024 487.034 85.2044C487.034 85.2065 487.034 85.2085 487.034 85.2104C487.034 85.2124 487.034 85.2143 487.034 85.2162C487.034 85.2181 487.034 85.22 487.034 85.2219C487.034 85.2237 487.034 85.2255 487.034 85.2273C487.034 85.2291 487.034 85.2309 487.034 85.2326C487.034 85.2343 487.034 85.236 487.034 85.2377C487.034 85.2394 487.034 85.241 487.034 85.2426C487.034 85.2442 487.034 85.2458 487.034 85.2473C487.034 85.2489 487.034 85.2504 487.034 85.2519C487.034 85.2534 487.034 85.2549 487.034 85.2563C487.034 85.2577 487.034 85.2591 487.034 85.2605C487.034 85.2619 487.034 85.2632 487.034 85.2645C487.034 85.2658 487.034 85.2671 487.034 85.2683C487.034 85.2696 487.034 85.2708 487.034 85.272C487.034 85.2732 487.034 85.2743 487.034 85.2755C487.034 85.2766 487.034 85.2777 487.034 85.2788C487.034 85.2798 487.034 85.2809 487.034 85.2819C487.034 85.2829 487.034 85.2838 487.034 85.2848C487.034 85.2857 487.034 85.2866 487.034 85.2875C487.034 85.2884 487.034 85.2892 487.034 85.2901C487.034 85.2909 487.034 85.2917 487.034 85.2924C487.034 85.2932 487.034 85.2939 487.034 85.2946C487.034 85.2953 487.034 85.296 487.034 85.2966C487.034 85.2972 487.034 85.2978 487.034 85.2984C487.034 85.299 487.034 85.2995 487.034 85.3C487.034 85.3005 487.034 85.301 487.034 85.3014C487.034 85.3019 487.034 85.3023 487.034 85.3027C487.034 85.3031 487.034 85.3034 487.034 85.3037C487.034 85.3041 487.034 85.3043 487.034 85.3046C487.034 85.3049 487.034 85.3051 487.034 85.3053C487.034 85.3055 487.034 85.3056 487.034 85.3057C487.034 85.3059 487.034 85.306 487.034 85.306C487.034 85.3061 487.034 85.3061 492.034 85.3061C497.034 85.3061 497.034 85.3061 497.034 85.306C497.034 85.306 497.034 85.3059 497.034 85.3057C497.034 85.3056 497.034 85.3055 497.034 85.3053C497.034 85.3051 497.034 85.3049 497.034 85.3046C497.034 85.3043 497.034 85.3041 497.034 85.3037C497.034 85.3034 497.034 85.3031 497.034 85.3027C497.034 85.3023 497.034 85.3019 497.034 85.3014C497.034 85.301 497.034 85.3005 497.034 85.3C497.034 85.2995 497.034 85.299 497.034 85.2984C497.034 85.2978 497.034 85.2972 497.034 85.2966C497.034 85.296 497.034 85.2953 497.034 85.2946C497.034 85.2939 497.034 85.2932 497.034 85.2924C497.034 85.2917 497.034 85.2909 497.034 85.2901C497.034 85.2892 497.034 85.2884 497.034 85.2875C497.034 85.2866 497.034 85.2857 497.034 85.2848C497.034 85.2838 497.034 85.2829 497.034 85.2819C497.034 85.2809 497.034 85.2798 497.034 85.2788C497.034 85.2777 497.034 85.2766 497.034 85.2755C497.034 85.2743 497.034 85.2732 497.034 85.272C497.034 85.2708 497.034 85.2696 497.034 85.2683C497.034 85.2671 497.034 85.2658 497.034 85.2645C497.034 85.2632 497.034 85.2619 497.034 85.2605C497.034 85.2591 497.034 85.2577 497.034 85.2563C497.034 85.2549 497.034 85.2534 497.034 85.2519C497.034 85.2504 497.034 85.2489 497.034 85.2473C497.034 85.2458 497.034 85.2442 497.034 85.2426C497.034 85.241 497.034 85.2394 497.034 85.2377C497.034 85.236 497.034 85.2343 497.034 85.2326C497.034 85.2309 497.034 85.2291 497.034 85.2273C497.034 85.2255 497.034 85.2237 497.034 85.2219C497.034 85.22 497.034 85.2181 497.034 85.2162C497.034 85.2143 497.034 85.2124 497.034 85.2104C497.034 85.2085 497.034 85.2065 497.034 85.2044C497.034 85.2024 497.034 85.2004 497.034 85.1983C497.034 85.1962 497.034 85.1941 497.034 85.192C497.034 85.1898 497.034 85.1876 497.034 85.1855C497.034 85.1833 497.034 85.181 497.034 85.1788C497.034 85.1765 497.034 85.1742 497.034 85.1719C497.034 85.1696 497.034 85.1673 497.034 85.1649C497.034 85.1625 497.034 85.1601 497.034 85.1577C497.034 85.1553 497.034 85.1528 497.034 85.1503C497.034 85.1478 497.034 85.1453 497.034 85.1428C497.034 85.1402 497.034 85.1377 497.034 85.1351C497.034 85.1325 497.034 85.1298 497.034 85.1272C497.034 85.1245 497.034 85.1218 497.034 85.1191C497.034 85.1164 497.034 85.1137 497.034 85.1109C497.034 85.1081 497.034 85.1053 497.034 85.1025C497.034 85.0997 497.034 85.0968 497.034 85.0939C497.034 85.0911 497.034 85.0882 497.034 85.0852C497.034 85.0823 497.034 85.0793 497.034 85.0763C497.034 85.0733 497.034 85.0703 497.034 85.0673C497.034 85.0642 497.034 85.0611 497.034 85.058C497.034 85.0549 497.034 85.0518 497.034 85.0486C497.034 85.0455 497.034 85.0423 497.034 85.0391C497.034 85.0359 497.034 85.0326 497.034 85.0293C497.034 85.0261 497.034 85.0228 497.034 85.0195C497.034 85.0161 497.034 85.0128 497.034 85.0094C497.034 85.006 497.034 85.0026 497.034 84.9992C497.034 84.9958 497.034 84.9923 497.034 84.9888C497.034 84.9853 497.034 84.9818 497.034 84.9783C497.034 84.9747 497.034 84.9712 497.034 84.9676C497.034 84.964 497.034 84.9603 497.034 84.9567C497.034 84.9531 497.034 84.9494 497.034 84.9457C497.034 84.942 497.034 84.9382 497.034 84.9345C497.034 84.9307 497.034 84.927 497.034 84.9231C497.034 84.9193 497.034 84.9155 497.034 84.9116C497.034 84.9078 497.034 84.9039 497.034 84.9C497.034 84.8961 497.034 84.8921 497.034 84.8882C497.034 84.8842 497.034 84.8802 497.034 84.8762C497.034 84.8722 497.034 84.8681 497.034 84.864C497.034 84.86 497.034 84.8559 497.034 84.8518C497.034 84.8476 497.034 84.8435 497.034 84.8393C497.034 84.8351 497.034 84.8309 497.034 84.8267C497.034 84.8225 497.034 84.8182 497.034 84.8139C497.034 84.8097 497.034 84.8054 497.034 84.801C497.034 84.7967 497.034 84.7923 497.034 84.788C497.034 84.7836 497.034 84.7792 497.034 84.7747C497.034 84.7703 497.034 84.7658 497.034 84.7614C497.034 84.7569 497.034 84.7524 497.034 84.7478C497.034 84.7433 497.034 84.7387 497.034 84.7342C497.034 84.7296 497.034 84.725 497.034 84.7203C497.034 84.7157 497.034 84.711 497.034 84.7063C497.034 84.7017 497.034 84.6969 497.034 84.6922C497.034 84.6875 497.034 84.6827 497.034 84.6779C497.034 84.6731 497.034 84.6683 497.034 84.6635C497.034 84.6587 497.034 84.6538 497.034 84.6489C497.034 84.644 497.034 84.6391 497.034 84.6342C497.034 84.6293 497.034 84.6243 497.034 84.6193C497.034 84.6143 497.034 84.6093 497.034 84.6043C497.034 84.5993 497.034 84.5942 497.034 84.5891C497.034 84.584 497.034 84.5789 497.034 84.5738C497.034 84.5687 497.034 84.5635 497.034 84.5583C497.034 84.5532 497.034 84.548 497.034 84.5427C497.034 84.5375 497.034 84.5323 497.034 84.527C497.034 84.5217 497.034 84.5164 497.034 84.5111C497.034 84.5058 497.034 84.5004 497.034 84.495C497.034 84.4897 497.034 84.4843 497.034 84.4789C497.034 84.4734 497.034 84.468 497.034 84.4625C497.034 84.4571 497.034 84.4516 497.034 84.4461C497.034 84.4405 497.034 84.435 497.034 84.4294C497.034 84.4239 497.034 84.4183 497.034 84.4127C497.034 84.4071 497.034 84.4015 497.034 84.3958C497.034 84.3901 497.034 84.3845 497.034 84.3788C497.034 84.3731 497.034 84.3673 497.034 84.3616C497.034 84.3558 497.034 84.3501 497.034 84.3443C497.034 84.3385 497.034 84.3327 497.034 84.3268C497.034 84.321 497.034 84.3151 497.034 84.3092C497.034 84.3033 497.034 84.2974 497.034 84.2915C497.034 84.2856 497.034 84.2796 497.034 84.2736C497.034 84.2677 497.034 84.2617 497.034 84.2556C497.034 84.2496 497.034 84.2436 497.034 84.2375C497.034 84.2314 497.034 84.2253 497.034 84.2192C497.034 84.2131 497.034 84.207 497.034 84.2008C497.034 84.1947 497.034 84.1885 497.034 84.1823C497.034 84.1761 497.034 84.1698 497.034 84.1636C497.034 84.1573 497.034 84.1511 497.034 84.1448C497.034 84.1385 497.034 84.1322 497.034 84.1258C497.034 84.1195 497.034 84.1131 497.034 84.1068C497.034 84.1004 497.034 84.094 497.034 84.0876C497.034 84.0811 497.034 84.0747 497.034 84.0682C497.034 84.0617 497.034 84.0553 497.034 84.0487C497.034 84.0422 497.034 84.0357 497.034 84.0291C497.034 84.0226 497.034 84.016 497.034 84.0094C497.034 84.0028 497.034 83.9962 497.034 83.9895C497.034 83.9829 497.034 83.9762 497.034 83.9696C497.034 83.9629 497.034 83.9562 497.034 83.9494C497.034 83.9427 497.034 83.936 497.034 83.9292C497.034 83.9224 497.034 83.9156 497.034 83.9088C497.034 83.902 497.034 83.8952 497.034 83.8883C497.034 83.8815 497.034 83.8746 497.034 83.8677C497.034 83.8608 497.034 83.8539 497.034 83.8469C497.034 83.84 497.034 83.833 497.034 83.826C497.034 83.8191 497.034 83.8121 497.034 83.805C497.034 83.798 497.034 83.791 497.034 83.7839C497.034 83.7769 497.034 83.7698 497.034 83.7627C497.034 83.7556 497.034 83.7484 497.034 83.7413C497.034 83.7341 497.034 83.727 497.034 83.7198C497.034 83.7126 497.034 83.7054 497.034 83.6982C497.034 83.6909 497.034 83.6837 497.034 83.6764C497.034 83.6692 497.034 83.6619 497.034 83.6546C497.034 83.6472 497.034 83.6399 497.034 83.6326C497.034 83.6252 497.034 83.6179 497.034 83.6105C497.034 83.6031 497.034 83.5957 497.034 83.5882C497.034 83.5808 497.034 83.5734 497.034 83.5659C497.034 83.5584 497.034 83.5509 497.034 83.5434C497.034 83.5359 497.034 83.5284 497.034 83.5208C497.034 83.5133 497.034 83.5057 497.034 83.4981C497.034 83.4906 497.034 83.4829 497.034 83.4753C497.034 83.4677 497.034 83.4601 497.034 83.4524C497.034 83.4447 497.034 83.437 497.034 83.4293C497.034 83.4216 497.034 83.4139 497.034 83.4062C497.034 83.3984 497.034 83.3907 497.034 83.3829C497.034 83.3751 497.034 83.3673 497.034 83.3595C497.034 83.3517 497.034 83.3438 497.034 83.336C497.034 83.3281 497.034 83.3203 497.034 83.3124C497.034 83.3045 497.034 83.2966 497.034 83.2886C497.034 83.2807 497.034 83.2727 497.034 83.2648C497.034 83.2568 497.034 83.2488 497.034 83.2408C497.034 83.2328 497.034 83.2248 497.034 83.2167C497.034 83.2087 497.034 83.2006 497.034 83.1925C497.034 83.1845 497.034 83.1764 497.034 83.1683C497.034 83.1601 497.034 83.152 497.034 83.1438C497.034 83.1357 497.034 83.1275 497.034 83.1193C497.034 83.1111 497.034 83.1029 497.034 83.0947C497.034 83.0865 497.034 83.0782 497.034 83.07C497.034 83.0617 497.034 83.0534 497.034 83.0451C497.034 83.0368 497.034 83.0285 497.034 83.0202C497.034 83.0118 497.034 83.0035 497.034 82.9951C497.034 82.9868 497.034 82.9784 497.034 82.97C497.034 82.9616 497.034 82.9531 497.034 82.9447C497.034 82.9363 497.034 82.9278 497.034 82.9193C497.034 82.9108 497.034 82.9023 497.034 82.8938C497.034 82.8853 497.034 82.8768 497.034 82.8683C497.034 82.8597 497.034 82.8511 497.034 82.8426C497.034 82.834 497.034 82.8254 497.034 82.8168C497.034 82.8082 497.034 82.7995 497.034 82.7909C497.034 82.7822 497.034 82.7736 497.034 82.7649C497.034 82.7562 497.034 82.7475 497.034 82.7388C497.034 82.7301 497.034 82.7213 497.034 82.7126C497.034 82.7038 497.034 82.6951 497.034 82.6863C497.034 82.6775 497.034 82.6687 497.034 82.6599C497.034 82.6511 497.034 82.6422 497.034 82.6334C497.034 82.6245 497.034 82.6157 497.034 82.6068C497.034 82.5979 497.034 82.589 497.034 82.5801C497.034 82.5712 497.034 82.5622 497.034 82.5533C497.034 82.5443 497.034 82.5354 497.034 82.5264C497.034 82.5174 497.034 82.5084 497.034 82.4994C497.034 82.4904 497.034 82.4813 497.034 82.4723C497.034 82.4632 497.034 82.4542 497.034 82.4451C497.034 82.436 497.034 82.4269 497.034 82.4178C497.034 82.4087 497.034 82.3996 497.034 82.3904C497.034 82.3813 497.034 82.3721 497.034 82.363C497.034 82.3538 497.034 82.3446 497.034 82.3354C497.034 82.3262 497.034 82.317 497.034 82.3077C497.034 82.2985 497.034 82.2893 497.034 82.28C497.034 82.2707 497.034 82.2614 497.034 82.2521C497.034 82.2428 497.034 82.2335 497.034 82.2242C497.034 82.2149 497.034 82.2055 497.034 82.1962C497.034 82.1868 497.034 82.1774 497.034 82.168C497.034 82.1587 497.034 82.1493 497.034 82.1398C497.034 82.1304 497.034 82.121 497.034 82.1115C497.034 82.1021 497.034 82.0926 497.034 82.0831C497.034 82.0737 497.034 82.0642 497.034 82.0547C497.034 82.0451 497.034 82.0356 497.034 82.0261C497.034 82.0165 497.034 82.007 497.034 81.9974C497.034 81.9879 497.034 81.9783 497.034 81.9687C497.034 81.9591 497.034 81.9495 497.034 81.9398C497.034 81.9302 497.034 81.9206 497.034 81.9109C497.034 81.9013 497.034 81.8916 497.034 81.8819C497.034 81.8722 497.034 81.8625 497.034 81.8528C497.034 81.8431 497.034 81.8334 497.034 81.8236C497.034 81.8139 497.034 81.8042 497.034 81.7944C497.034 81.7846 497.034 81.7748 497.034 81.765C497.034 81.7552 497.034 81.7454 497.034 81.7356C497.034 81.7258 497.034 81.7159 497.034 81.7061C497.034 81.6962 497.034 81.6864 497.034 81.6765C497.034 81.6666 497.034 81.6567 497.034 81.6468C497.034 81.6369 497.034 81.627 497.034 81.6171C497.034 81.6071 497.034 81.5972 497.034 81.5872C497.034 81.5773 497.034 81.5673 497.034 81.5573C497.034 81.5473 497.034 81.5373 497.034 81.5273C497.034 81.5173 497.034 81.5073 497.034 81.4972C497.034 81.4872 497.034 81.4771 497.034 81.4671C497.034 81.457 497.034 81.4469 497.034 81.4368C497.034 81.4267 497.034 81.4166 497.034 81.4065C497.034 81.3964 497.034 81.3863 497.034 81.3761C497.034 81.366 497.034 81.3558 497.034 81.3456C497.034 81.3355 497.034 81.3253 497.034 81.3151C497.034 81.3049 497.034 81.2947 497.034 81.2845C497.034 81.2743 497.034 81.264 497.034 81.2538C497.034 81.2435 497.034 81.2333 497.034 81.223C497.034 81.2127 497.034 81.2025 497.034 81.1922C497.034 81.1819 497.034 81.1716 497.034 81.1612C497.034 81.1509 497.034 81.1406 497.034 81.1302C497.034 81.1199 497.034 81.1095 497.034 81.0992C497.034 81.0888 497.034 81.0784 497.034 81.068C497.034 81.0576 497.034 81.0472 497.034 81.0368C497.034 81.0264 497.034 81.016 497.034 81.0055C497.034 80.9951 497.034 80.9847 497.034 80.9742C497.034 80.9637 497.034 80.9533 497.034 80.9428C497.034 80.9323 497.034 80.9218 497.034 80.9113C497.034 80.9008 497.034 80.8902 497.034 80.8797C497.034 80.8692 497.034 80.8586 497.034 80.8481C497.034 80.8375 497.034 80.827 497.034 80.8164C497.034 80.8058 497.034 80.7952 497.034 80.7846C497.034 80.774 497.034 80.7634 497.034 80.7528C497.034 80.7422 497.034 80.7315 497.034 80.7209C497.034 80.7102 497.034 80.6996 497.034 80.6889C497.034 80.6782 497.034 80.6676 497.034 80.6569C497.034 80.6462 497.034 80.6355 497.034 80.6248C497.034 80.6141 497.034 80.6033 497.034 80.5926C497.034 80.5819 497.034 80.5711 497.034 80.5604C497.034 80.5496 497.034 80.5389 497.034 80.5281C497.034 80.5173 497.034 80.5065 497.034 80.4957C497.034 80.4849 497.034 80.4741 497.034 80.4633C497.034 80.4525 497.034 80.4417 497.034 80.4308C497.034 80.42 497.034 80.4092 497.034 80.3983C497.034 80.3874 497.034 80.3766 497.034 80.3657C497.034 80.3548 497.034 80.3439 497.034 80.333C497.034 80.3221 497.034 80.3112 497.034 80.3003C497.034 80.2894 497.034 80.2785 497.034 80.2675C497.034 80.2566 497.034 80.2456 497.034 80.2347C497.034 80.2237 497.034 80.2128 497.034 80.2018C497.034 80.1908 497.034 80.1798 497.034 80.1688C497.034 80.1578 497.034 80.1468 497.034 80.1358C497.034 80.1248 497.034 80.1138 497.034 80.1027C497.034 80.0917 497.034 80.0807 497.034 80.0696C497.034 80.0586 497.034 80.0475 497.034 80.0364C497.034 80.0254 497.034 80.0143 497.034 80.0032C497.034 79.9921 497.034 79.981 497.034 79.9699C497.034 79.9588 497.034 79.9477 497.034 79.9365C497.034 79.9254 497.034 79.9143 497.034 79.9031C497.034 79.892 497.034 79.8808 497.034 79.8697C497.034 79.8585 497.034 79.8473 497.034 79.8362C497.034 79.825 497.034 79.8138 497.034 79.8026C497.034 79.7914 497.034 79.7802 497.034 79.769C497.034 79.7578 497.034 79.7465 497.034 79.7353C497.034 79.7241 497.034 79.7128 497.034 79.7016C497.034 79.6904 497.034 79.6791 497.034 79.6678C497.034 79.6566 497.034 79.6453 497.034 79.634C497.034 79.6227 497.034 79.6114 497.034 79.6001C497.034 79.5889 497.034 79.5775 497.034 79.5662C497.034 79.5549 497.034 79.5436 497.034 79.5323C497.034 79.5209 497.034 79.5096 497.034 79.4983C497.034 79.4869 497.034 79.4756 497.034 79.4642C497.034 79.4528 497.034 79.4415 497.034 79.4301C497.034 79.4187 497.034 79.4073 497.034 79.3959C497.034 79.3845 497.034 79.3731 497.034 79.3617C497.034 79.3503 497.034 79.3389 497.034 79.3275C497.034 79.3161 497.034 79.3046 497.034 79.2932C497.034 79.2818 497.034 79.2703 497.034 79.2589C497.034 79.2474 497.034 79.236 497.034 79.2245C497.034 79.213 497.034 79.2016 497.034 79.1901C497.034 79.1786 497.034 79.1671 497.034 79.1556C497.034 79.1441 497.034 79.1326 497.034 79.1211C497.034 79.1096 497.034 79.0981 497.034 79.0866C497.034 79.075 497.034 79.0635 497.034 79.052C497.034 79.0404 497.034 79.0289 497.034 79.0174C497.034 79.0058 497.034 78.9942 497.034 78.9827C497.034 78.9711 497.034 78.9596 497.034 78.948C497.034 78.9364 497.034 78.9248 497.034 78.9132C497.034 78.9016 497.034 78.89 497.034 78.8784C497.034 78.8668 497.034 78.8552 497.034 78.8436C497.034 78.832 497.034 78.8204 497.034 78.8088C497.034 78.7971 497.034 78.7855 497.034 78.7739C497.034 78.7622 497.034 78.7506 497.034 78.7389C497.034 78.7273 497.034 78.7156 497.034 78.704C497.034 78.6923 497.034 78.6806 497.034 78.6689C497.034 78.6573 497.034 78.6456 497.034 78.6339C497.034 78.6222 497.034 78.6105 497.034 78.5988C497.034 78.5871 497.034 78.5754 497.034 78.5637C497.034 78.552 497.034 78.5403 497.034 78.5286C497.034 78.5169 497.034 78.5051 497.034 78.4934C497.034 78.4817 497.034 78.4699 497.034 78.4582C497.034 78.4464 497.034 78.4347 497.034 78.4229C497.034 78.4112 497.034 78.3994 497.034 78.3877C497.034 78.3759 497.034 78.3641 497.034 78.3524C497.034 78.3406 497.034 78.3288 497.034 78.317C497.034 78.3052 497.034 78.2935 497.034 78.2817C497.034 78.2699 497.034 78.2581 497.034 78.2463C497.034 78.2345 497.034 78.2227 497.034 78.2109C497.034 78.199 497.034 78.1872 497.034 78.1754C497.034 78.1636 497.034 78.1518 497.034 78.1399C497.034 78.1281 497.034 78.1163 497.034 78.1044C497.034 78.0926 497.034 78.0807 497.034 78.0689C497.034 78.057 497.034 78.0452 497.034 78.0333C497.034 78.0215 497.034 78.0096 497.034 77.9977C497.034 77.9859 497.034 77.974 497.034 77.9621C497.034 77.9502 497.034 77.9384 497.034 77.9265C497.034 77.9146 497.034 77.9027 497.034 77.8908C497.034 77.8789 497.034 77.867 497.034 77.8551C497.034 77.8432 497.034 77.8313 497.034 77.8194C497.034 77.8075 497.034 77.7956 497.034 77.7837C497.034 77.7718 497.034 77.7599 497.034 77.7479C497.034 77.736 497.034 77.7241 497.034 77.7122C497.034 77.7002 497.034 77.6883 497.034 77.6764C497.034 77.6644 497.034 77.6525 497.034 77.6406C497.034 77.6286 497.034 77.6167 497.034 77.6047C497.034 77.5928 497.034 77.5808 497.034 77.5689C497.034 77.5569 497.034 77.545 497.034 77.533C497.034 77.521 497.034 77.5091 497.034 77.4971C497.034 77.4851 497.034 77.4732 497.034 77.4612C497.034 77.4492 497.034 77.4372 497.034 77.4253C497.034 77.4133 497.034 77.4013 497.034 77.3893C497.034 77.3773 497.034 77.3653 497.034 77.3533C497.034 77.3414 497.034 77.3294 497.034 77.3174C497.034 77.3054 497.034 77.2934 497.034 77.2814C497.034 77.2694 497.034 77.2574 497.034 77.2454C497.034 77.2333 497.034 77.2213 497.034 77.2093C497.034 77.1973 497.034 77.1853 497.034 77.1733C497.034 77.1613 497.034 77.1493 497.034 77.1372C497.034 77.1252 497.034 77.1132 497.034 77.1012C497.034 77.0891 497.034 77.0771 497.034 77.0651C497.034 77.0531 497.034 77.041 497.034 77.029C497.034 77.017 497.034 77.0049 497.034 76.9929C497.034 76.9809 497.034 76.9688 497.034 76.9568C497.034 76.9447 497.034 76.9327 497.034 76.9207C497.034 76.9086 497.034 76.8966 497.034 76.8845C497.034 76.8725 497.034 76.8604 497.034 76.8484C497.034 76.8363 497.034 76.8243 497.034 76.8122C497.034 76.8002 497.034 76.7881 497.034 76.7761C497.034 76.764 497.034 76.7519 497.034 76.7399C497.034 76.7278 497.034 76.7158 497.034 76.7037C497.034 76.6916 497.034 76.6796 497.034 76.6675C497.034 76.6555 497.034 76.6434 497.034 76.6313C497.034 76.6193 497.034 76.6072 497.034 76.5951C497.034 76.5831 497.034 76.571 497.034 76.5589C497.034 76.5469 497.034 76.5348 497.034 76.5227C497.034 76.5107 497.034 76.4986 497.034 76.4865C497.034 76.4744 497.034 76.4624 497.034 76.4503C497.034 76.4382 497.034 76.4262 497.034 76.4141C497.034 76.402 497.034 76.3899 497.034 76.3779C497.034 76.3658 497.034 76.3537 497.034 76.3416C497.034 76.3296 497.034 76.3175 497.034 76.3054C497.034 76.2933 497.034 76.2813 497.034 76.2692C497.034 76.2571 497.034 76.245 497.034 76.233C497.034 76.2209 497.034 76.2088 497.034 76.1967C497.034 76.1846 497.034 76.1726 497.034 76.1605C497.034 76.1484 497.034 76.1363 497.034 76.1243C497.034 76.1122 497.034 76.1001 497.034 76.088C497.034 76.076 497.034 76.0639 497.034 76.0518C497.034 76.0397 497.034 76.0277 497.034 76.0156C497.034 76.0035 497.034 75.9914 497.034 75.9794C497.034 75.9673 497.034 75.9552 497.034 75.9432C497.034 75.9311 497.034 75.919 497.034 75.9069C497.034 75.8949 497.034 75.8828 497.034 75.8707C497.034 75.8587 497.034 75.8466 497.034 75.8345C497.034 75.8225 497.034 75.8104 497.034 75.7983C497.034 75.7863 497.034 75.7742 497.034 75.7621C497.034 75.7501 497.034 75.738 497.034 75.7259C497.034 75.7139 497.034 75.7018 497.034 75.6898C497.034 75.6777 497.034 75.6657 497.034 75.6536C497.034 75.6415 497.034 75.6295 497.034 75.6174C497.034 75.6054 497.034 75.5933 497.034 75.5813C497.034 75.5692 497.034 75.5572 497.034 75.5451C497.034 75.5331 497.034 75.521 497.034 75.509C497.034 75.4969 497.034 75.4849 497.034 75.4729C497.034 75.4608 497.034 75.4488 497.034 75.4367C497.034 75.4247 497.034 75.4127 497.034 75.4006C497.034 75.3886 497.034 75.3766 497.034 75.3645C497.034 75.3525 497.034 75.3405 497.034 75.3285C497.034 75.3164 497.034 75.3044 497.034 75.2924C497.034 75.2804 497.034 75.2683 497.034 75.2563C497.034 75.2443 497.034 75.2323 497.034 75.2203C497.034 75.2083 497.034 75.1963 497.034 75.1842C497.034 75.1722 497.034 75.1602 497.034 75.1482C497.034 75.1362 497.034 75.1242 497.034 75.1122C497.034 75.1002 497.034 75.0882 497.034 75.0762C497.034 75.0642 497.034 75.0523 497.034 75.0403C497.034 75.0283 497.034 75.0163 497.034 75.0043C497.034 74.9923 497.034 74.9804 497.034 74.9684C497.034 74.9564 497.034 74.9444 497.034 74.9325C497.034 74.9205 497.034 74.9085 497.034 74.8966C497.034 74.8846 497.034 74.8726 497.034 74.8607C497.034 74.8487 497.034 74.8368 497.034 74.8248C497.034 74.8129 497.034 74.8009 497.034 74.789C497.034 74.777 497.034 74.7651 497.034 74.7531C497.034 74.7412 497.034 74.7293 497.034 74.7173C497.034 74.7054 497.034 74.6935 497.034 74.6816C497.034 74.6696 497.034 74.6577 497.034 74.6458C497.034 74.6339 497.034 74.622 497.034 74.6101C497.034 74.5981 497.034 74.5862 497.034 74.5743C497.034 74.5624 497.034 74.5505 497.034 74.5387C497.034 74.5268 497.034 74.5149 497.034 74.503C497.034 74.4911 497.034 74.4792 497.034 74.4673C497.034 74.4555 497.034 74.4436 497.034 74.4317C497.034 74.4198 497.034 74.408 497.034 74.3961C497.034 74.3843 497.034 74.3724 497.034 74.3606C497.034 74.3487 497.034 74.3369 497.034 74.325C497.034 74.3132 497.034 74.3013 497.034 74.2895C497.034 74.2777 497.034 74.2658 497.034 74.254C497.034 74.2422 497.034 74.2304 497.034 74.2185C497.034 74.2067 497.034 74.1949 497.034 74.1831C497.034 74.1713 497.034 74.1595 497.034 74.1477C497.034 74.1359 497.034 74.1241 497.034 74.1123C497.034 74.1005 497.034 74.0888 497.034 74.077C497.034 74.0652 497.034 74.0534 497.034 74.0417C497.034 74.0299 497.034 74.0181 497.034 74.0064C497.034 73.9946 497.034 73.9829 497.034 73.9711C497.034 73.9594 497.034 73.9476 497.034 73.9359C497.034 73.9242 497.034 73.9124 497.034 73.9007C497.034 73.889 497.034 73.8773 497.034 73.8656C497.034 73.8538 497.034 73.8421 497.034 73.8304C497.034 73.8187 497.034 73.807 497.034 73.7954C497.034 73.7837 497.034 73.772 497.034 73.7603C497.034 73.7486 497.034 73.7369 497.034 73.7253C497.034 73.7136 497.034 73.7019 497.034 73.6903C497.034 73.6786 497.034 73.667 497.034 73.6553C497.034 73.6437 497.034 73.6321 497.034 73.6204C497.034 73.6088 497.034 73.5972 497.034 73.5856C497.034 73.5739 497.034 73.5623 497.034 73.5507C497.034 73.5391 497.034 73.5275 497.034 73.5159C497.034 73.5043 497.034 73.4927 497.034 73.4812C497.034 73.4696 497.034 73.458 497.034 73.4464C497.034 73.4349 497.034 73.4233 497.034 73.4118C497.034 73.4002 497.034 73.3887 497.034 73.3771C497.034 73.3656 497.034 73.354 497.034 73.3425C497.034 73.331 497.034 73.3195 497.034 73.3079C497.034 73.2964 497.034 73.2849 497.034 73.2734C497.034 73.2619 497.034 73.2504 497.034 73.239C497.034 73.2275 497.034 73.216 497.034 73.2045C497.034 73.193 497.034 73.1816 497.034 73.1701C497.034 73.1587 497.034 73.1472 497.034 73.1358C497.034 73.1243 497.034 73.1129 497.034 73.1015C497.034 73.09 497.034 73.0786 497.034 73.0672C497.034 73.0558 497.034 73.0444 497.034 73.033C497.034 73.0216 497.034 73.0102 497.034 72.9988C497.034 72.9874 497.034 72.9761 497.034 72.9647C497.034 72.9533 497.034 72.942 497.034 72.9306C497.034 72.9193 497.034 72.9079 497.034 72.8966C497.034 72.8853 497.034 72.8739 497.034 72.8626C497.034 72.8513 497.034 72.84 497.034 72.8287C497.034 72.8174 497.034 72.8061 497.034 72.7948C497.034 72.7835 497.034 72.7722 497.034 72.761C497.034 72.7497 497.034 72.7384 497.034 72.7272C497.034 72.7159 497.034 72.7047 497.034 72.6934C497.034 72.6822 497.034 72.671 497.034 72.6598C497.034 72.6485 497.034 72.6373 497.034 72.6261C497.034 72.6149 497.034 72.6037 497.034 72.5925C497.034 72.5814 497.034 72.5702 497.034 72.559C497.034 72.5478 497.034 72.5367 497.034 72.5255C497.034 72.5144 497.034 72.5032 497.034 72.4921C497.034 72.481 497.034 72.4699 497.034 72.4587C497.034 72.4476 497.034 72.4365 497.034 72.4254C497.034 72.4143 497.034 72.4032 497.034 72.3922C497.034 72.3811 497.034 72.37 497.034 72.359C497.034 72.3479 497.034 72.3369 497.034 72.3258C497.034 72.3148 497.034 72.3037 497.034 72.2927C497.034 72.2817 497.034 72.2707 497.034 72.2597C497.034 72.2487 497.034 72.2377 497.034 72.2267C497.034 72.2157 497.034 72.2048 497.034 72.1938C497.034 72.1828 497.034 72.1719 497.034 72.1609C497.034 72.15 497.034 72.139 497.034 72.1281C497.034 72.1172 497.034 72.1063 497.034 72.0954C497.034 72.0845 497.034 72.0736 497.034 72.0627C497.034 72.0518 497.034 72.0409 497.034 72.0301C497.034 72.0192 497.034 72.0083 497.034 71.9975C497.034 71.9867 497.034 71.9758 497.034 71.965C497.034 71.9542 497.034 71.9434 497.034 71.9326C497.034 71.9218 497.034 71.911 497.034 71.9002C497.034 71.8894 497.034 71.8786 497.034 71.8679C497.034 71.8571 497.034 71.8464 497.034 71.8356C497.034 71.8249 497.034 71.8142 497.034 71.8034C497.034 71.7927 497.034 71.782 497.034 71.7713C497.034 71.7606 497.034 71.7499 497.034 71.7393C497.034 71.7286 497.034 71.7179 497.034 71.7073C497.034 71.6966 497.034 71.686 497.034 71.6753C497.034 71.6647 497.034 71.6541 497.034 71.6435C497.034 71.6329 497.034 71.6223 497.034 71.6117C497.034 71.6011 497.034 71.5905 497.034 71.58C497.034 71.5694 497.034 71.5588 497.034 71.5483C497.034 71.5378 497.034 71.5272 497.034 71.5167H487.034Z" fill="black"/>
<path d="M470.161 91.0121C478.523 85.7667 482.165 84.1103 492.034 83.8796C498.992 83.717 505.348 85.7816 509.152 87.6836C515.808 91.0121 521.99 96.4255 526.745 103.375C532.926 112.409 536.518 116.862 543.863 125.248C550.035 132.295 555.641 136.58 563.358 141.89C575.536 150.27 582.214 152.937 595.692 159.008C606.476 163.865 612.334 164.714 622.795 172.798C631.406 179.451 636.585 184.264 636.585 195.146C636.585 197.048 615.491 180.977 599.496 172.798C557.652 151.4 492.034 114.787 492.034 114.787C492.034 114.787 423.562 154.253 376.488 177.077C364.509 182.885 347.007 197.523 347.007 195.621C347.007 184.685 355.371 175.945 366.027 170.42C378.865 163.763 389.55 158.79 402.64 151.4C419.284 142.005 427.641 138.763 441.155 125.248C447.812 118.591 449.608 114.094 454.945 106.703C461.126 98.1445 463.264 95.3379 470.161 91.0121Z" fill="black"/>
<path d="M366.411 177.077L618.343 177.788" stroke="black" stroke-width="10" stroke-linecap="round"/>
<rect x="465.574" y="39.8403" width="22.8014" height="13.6808" fill="#969598"/>
<path d="M316.225 190.329C321.271 175.19 426.43 137.717 426.43 137.717L481.936 413.566V664.183C481.936 845.477 502.03 1105.53 481.936 1130.09C475.054 1138.51 446.394 1138.51 409.61 1138.51C385.963 1138.51 349.059 1138.51 344.012 1130.09C303.644 1062.82 367.56 322.736 367.56 322.736C367.56 322.736 330.556 551.489 323.828 601.949C321.809 617.087 298.239 622.633 278.414 620.45C258.589 618.266 233 611.1 233 593.538C233 576.719 259.71 442.66 278.414 346.284C292.33 274.581 296.042 250.883 316.225 190.329Z" fill="#F6BFC4" stroke="#F6BFC4" stroke-width="2" stroke-linejoin="round"/>
<path d="M377.346 160.796C391.409 143.554 425.589 119.869 429.469 130.102C444.99 171.028 453.367 227.756 468.141 288.69C482.915 349.624 484.955 385.753 484.955 428.522C484.955 440.458 445.83 362.363 416.018 305.743C397.345 270.278 394.691 254.586 372.302 215.365C366.547 205.283 392.479 198.312 399.204 194.903C410.744 189.054 380.709 189.785 367.258 186.376C358.07 184.048 371.31 168.197 377.346 160.796Z" fill="#FED9DC"/>
<path d="M665.086 185.77C659.481 170.828 560.014 140.612 560.014 140.612L513.692 433.749L513.692 677.638C513.692 858.932 539.124 1093.09 539.124 1120C539.124 1140.19 567.963 1141.55 604.722 1140.19C628.352 1139.31 660.227 1143.65 660.227 1120C660.227 1042.63 625.715 323.317 625.715 323.317C625.715 323.317 671.19 550.538 679.788 600.713C682.367 615.766 706.127 620.432 725.858 617.514C745.588 614.596 770.893 606.484 770.241 588.934C769.616 572.127 737.945 439.152 715.674 343.538C699.105 272.4 687.505 245.533 665.086 185.77Z" fill="#F6BFC4" stroke="#F6BFC4" stroke-width="2" stroke-linejoin="round"/>
<path d="M609.615 161.861C594.916 145.144 559.867 122.732 556.368 133.108C542.374 174.605 536.107 231.636 523.603 293.109C511.098 354.582 508.737 392.653 510.327 435.416C510.77 447.35 541.432 363.499 569.13 305.781C586.479 269.626 588.315 251.245 616.685 216.234C622.903 208.56 596.11 206.582 589.26 203.423C584.213 201.096 606.78 187.054 620.651 187.062C626.256 187.066 615.924 169.036 609.615 161.861Z" fill="#FED9DC"/>
<path d="M569.399 574.475L573.709 564.383C573.709 564.383 584.153 574.658 592.947 579.521C606.521 587.026 631.633 594.805 631.633 594.805L628.269 604.751C628.269 604.751 607.205 597.855 594.629 591.295C584.763 586.149 569.399 574.475 569.399 574.475Z" fill="#FED9DC" stroke="#FED9DC"/>
<path d="M357.921 683.04L353.768 672.883C353.768 672.883 368.417 672.67 378.056 669.828C392.934 665.442 416.112 653.037 416.112 653.037L420.826 662.418C420.826 662.418 401.12 672.563 387.616 676.903C377.023 680.309 357.921 683.04 357.921 683.04Z" fill="#FED9DC" stroke="#FED9DC"/>
<circle cx="527.349" cy="465.145" r="8.40998" fill="#CC8B91"/>
<circle cx="527.349" cy="545.881" r="8.40998" fill="#CC8B91"/>
<circle cx="527.349" cy="629.981" r="8.40998" fill="#CC8B91"/>
<path d="M460.07 463.462H473.526" stroke="#CC8B91" stroke-linecap="round"/>
<path d="M461.752 547.563H475.208" stroke="#CC8B91" stroke-linecap="round"/>
<path d="M461.752 631.663H475.208" stroke="#CC8B91" stroke-linecap="round"/>
</g>
<defs>
<clipPath id="clip0_1_1956">
<rect width="1366" height="1024" fill="white" transform="translate(0 1366) rotate(-90)"/>
</clipPath>
</defs>
</svg>
