<svg width="1024" height="1363" viewBox="0 0 1024 1363" fill="none" xmlns="http://www.w3.org/2000/svg">
<g clip-path="url(#clip0_99_415)">
<rect width="1024" height="1363" fill="#D6B8EE"/>
<rect y="1153" width="1092" height="253" fill="#BFBEBA"/>
<ellipse cx="512.5" cy="16.0359" rx="21.5" ry="18.5" fill="#FBD293"/>
<path d="M441 11.5359C441 11.5359 459.912 -18.2753 484.5 -23.9641C500.48 -27.6614 526.195 -28.348 542 -23.9641C564.015 -17.8577 583.5 11.5359 583.5 11.5359H441Z" fill="#9FA4AF"/>
<ellipse cx="512.307" cy="1208.75" rx="404.308" ry="55.1073" fill="url(#paint0_radial_99_415)"/>
<rect x="224.849" y="102" width="567.357" height="1108.63" fill="#48484E"/>
<rect width="260.854" height="847.774" transform="matrix(-1 0 0 1 505.734 121.564)" fill="#54545A"/>
<circle r="9.78201" transform="matrix(-1 0 0 1 456.824 545.451)" fill="#303034"/>
<rect width="260.854" height="847.774" transform="matrix(1 0 0 -1 512.257 969.339)" fill="#54545A"/>
<circle r="9.78201" transform="matrix(1 0 0 -1 561.165 545.451)" fill="#303034"/>
<rect x="244.881" y="988.902" width="528.229" height="97.8201" fill="#54545A"/>
<circle cx="508.996" cy="1037.81" r="9.78201" fill="#303034"/>
<rect x="244.928" y="1095.2" width="528.229" height="97.8201" fill="#54545A"/>
<circle cx="509.043" cy="1144.11" r="9.78201" fill="#303034"/>
<rect x="286.056" y="1210.63" width="61.3006" height="18.2598" fill="#303034"/>
<rect x="671.468" y="1210.63" width="61.3006" height="18.2598" fill="#303034"/>
<path d="M429 1292.17C429 1327.05 332.343 1355.34 213.111 1355.34C93.8782 1355.34 -98 1316.74 -98 1281.85C-98 1246.97 93.8782 1229 213.111 1229C332.343 1229 429 1257.28 429 1292.17Z" fill="url(#paint1_radial_99_415)"/>
<path d="M150.39 1245.67C153.481 1234.66 150.39 1216.39 150.39 1216.39L193.758 1213.14C193.758 1213.14 193.111 1224.96 193.758 1232.65C194.805 1245.11 202.431 1261.93 202.431 1261.93L190.505 1271.69C190.505 1271.69 185.084 1270.26 185.084 1266.27C185.084 1260.84 177.495 1289.03 166.653 1300.96C155.648 1313.07 137.379 1319.51 125.453 1312.89C117.672 1308.56 116.213 1304.42 116.779 1295.54C117.504 1284.17 130.577 1280.83 137.379 1271.69C144.186 1262.54 147.308 1256.64 150.39 1245.67Z" fill="#B94A39"/>
<path d="M272.905 1248.92C275.072 1236.34 276.157 1216.39 276.157 1216.39L307.599 1208.8V1254.34C307.599 1269.16 314.104 1276.02 307.599 1292.29C303.659 1302.14 294.355 1305.51 283.747 1305.3C273.508 1305.09 266.669 1300.27 265.315 1290.12C263.146 1273.85 269.922 1266.23 272.905 1248.92Z" fill="#B94A39"/>
<path d="M147.901 704.504C154.337 685.196 171.127 656.116 171.127 656.116H295C295 656.116 313.377 701.074 318.227 718.023C329.84 758.61 335.646 803.186 335.646 830.283C335.646 888.348 332.633 892.862 329.84 950.284C326.198 1025.16 322.098 1066.42 318.227 1138.03C316.839 1163.69 312.42 1209.67 312.42 1209.67H242.742C242.742 1209.67 245.564 1114.28 242.742 1052.9C238.558 961.897 227.258 818.669 227.258 818.669C227.258 818.669 209.838 969.64 202.096 1052.9C196.902 1108.76 194.354 1209.67 194.354 1209.67H126.611C126.611 1209.67 118.869 1150.09 118.869 1120.61C118.869 1078 109.191 987.059 109.191 961.897C109.191 936.736 113.106 843.831 118.869 818.669C128.21 777.879 128.546 762.569 147.901 704.504Z" fill="#6DA7BD"/>
<path d="M170.647 656.867C166.757 655.981 166.268 632.76 170.159 633.646C193.502 638.963 202.045 637.228 226.399 638.271C252.074 639.37 282.356 637.094 294.127 636.846C299.932 636.724 299.344 657.677 296.509 658.092C281.069 660.352 254.475 658.976 228.781 659.516C204.599 660.025 186.209 660.411 170.647 656.867Z" fill="#659FB5"/>
<path d="M227.011 660.739C227.011 691.882 223.21 749.377 227.011 746.982C235.131 741.865 239.68 727.459 239.68 718.233C239.68 705.057 242.213 694.277 239.68 660.739C239.499 658.343 227.011 656.061 227.011 660.739Z" fill="#659FB5"/>
<path d="M281.643 703.936C285.039 701.023 292.635 698.247 293.606 700.445C297.033 708.206 300.461 715.966 305.853 724.775C311.245 733.584 316.315 738.27 319.743 746.03C321.583 750.195 308.306 753.261 306.959 751.059C301.567 742.25 297.314 737.34 291.926 727.217C286.372 716.783 278.247 706.85 281.643 703.936Z" fill="#659FB5"/>
<path d="M148.425 756.373C143.665 754.856 136.735 749.665 138.385 747.774C144.211 741.102 150.037 734.429 155.826 725.566C161.615 716.702 163.484 710.095 169.31 703.423C172.437 699.841 182.775 709.773 181.328 711.989C175.539 720.852 172.998 726.864 165.903 736.356C158.588 746.139 153.184 757.891 148.425 756.373Z" fill="#659FB5"/>
<circle cx="235.002" cy="648.344" r="5.80655" fill="#246F8B"/>
<path d="M122.741 1207.71C122.741 1203.17 122.077 1198.03 126.612 1198.03C132.418 1198.03 139.256 1198.03 149.838 1198.03C167.979 1198.03 186.613 1198.03 194.355 1199.97C197.154 1200.66 198.226 1205.11 198.226 1209.64C198.226 1212.67 197.348 1216.96 194.355 1217.38C180.806 1219.32 172.697 1217.38 157.58 1217.38C143.975 1217.38 130.483 1219.32 126.612 1217.38C123.908 1216.03 122.741 1210.73 122.741 1207.71Z" fill="#488AA3"/>
<path d="M315.229 1210.14C315.497 1205.61 316.451 1200.51 312.017 1200.25C306.34 1199.91 299.656 1199.52 289.31 1198.9C271.574 1197.85 253.357 1196.77 245.673 1198.25C242.894 1198.79 241.584 1203.16 241.315 1207.69C241.136 1210.71 241.74 1215.04 244.641 1215.64C257.773 1218.36 265.815 1216.9 280.594 1217.77C293.896 1218.56 306.972 1221.28 310.871 1219.57C313.595 1218.38 315.05 1213.15 315.229 1210.14Z" fill="#488AA3"/>
<path d="M281.58 687.302C272.935 679.62 269.653 660.197 269.653 660.197L295.674 656.944L309.769 695.975C309.769 695.975 290.189 694.952 281.58 687.302Z" fill="#659FB5" stroke="#659FB5" stroke-linecap="round" stroke-linejoin="round"/>
<path d="M183.482 685.864C192.992 679.283 198.597 660.399 198.597 660.399L173.16 654.025L154.451 691.067C154.451 691.067 174.011 692.418 183.482 685.864Z" fill="#659FB5" stroke="#659FB5" stroke-linecap="round" stroke-linejoin="round"/>
<path d="M144.799 994.798C140.565 994.798 136.646 997.022 133.043 994.798C130.736 993.374 126.657 991.07 129.621 989.377L137.21 985.04C137.21 985.04 141.104 979.793 144.799 978.535C148.006 977.443 150.086 978.535 153.473 978.535C157.284 978.535 159.728 977.034 163.231 978.535C166.533 979.95 168.703 980.962 172.075 982.204C174.856 983.229 174.986 983.22 177.325 985.04C181.136 988.004 174.046 992.623 169.736 994.798C165.2 997.087 161.806 994.798 156.726 994.798H144.799Z" fill="#ECC6A2"/>
<path d="M295.385 914.385C290.727 914.385 284.585 916.97 280.248 912.633C275.911 908.297 279.763 899.38 283.459 898.122C286.665 897.03 288.745 898.122 292.132 898.122C295.943 898.122 297.038 899.623 300.848 899.623C304.143 899.623 308.319 898.381 311.69 899.623C314.471 900.648 313.299 903.662 314.943 906.128C317.111 909.381 312.705 912.21 308.395 914.385C303.859 916.674 300.466 914.385 295.385 914.385Z" fill="#ECC6A2"/>
<path d="M144.973 483.472C151.087 477.462 161.257 472.324 168.824 468.293C207.718 447.577 275.075 459.62 275.075 459.62C275.075 459.62 292.423 466.125 303.265 470.462C314.107 474.799 318.509 475.886 323.864 483.472C336.875 501.904 342.218 516.941 354.222 538.767C366.148 560.451 373.738 575.629 384.58 595.145C393.294 610.831 398.387 623.085 396.506 630.924C392.082 649.355 374.986 666.102 355.308 688.386C340.443 705.219 313.143 735.33 313.143 735.33C309.533 730.517 307.173 726.45 304.72 722.696C302.175 718.801 300.376 714.845 297.501 709.461C297.501 709.461 327.117 674.292 337.959 660.197C346.852 648.636 355.308 633.092 355.308 626.587C355.308 624.418 346.633 603.819 341.212 592.977C330.708 571.97 307.603 539.851 307.603 539.851C307.603 539.851 305.939 552.463 304.35 560.451C300.821 578.191 297.95 588.043 295.675 605.987C293.865 620.269 292.971 636.668 292.971 636.668C292.971 636.668 274.039 638.472 231.927 638.472C204.253 638.472 172.369 636.668 172.369 633.66L172.369 633.261C172.369 622.438 172.369 616.655 169.908 605.987C163.404 577.798 168.825 539.851 168.825 539.851C168.825 539.851 164.007 554.572 160.152 563.703C151.448 584.313 147.141 597.313 131.962 613.576C128.71 617.061 136.299 641.766 136.299 641.766L162.743 714.274C162.743 714.274 157.221 724.033 153.117 729.915C149.192 735.543 142.289 743.752 142.289 743.752L108.109 662.366C108.109 662.366 92.277 629.29 95.0995 608.155C98.3605 583.738 107.025 575.629 116.783 552.861C120.953 543.132 125.392 534.724 128.71 524.672C134.131 508.246 138.467 489.868 144.973 483.472Z" fill="#ECC6A2"/>
<path d="M209.995 441.284C209.07 439.333 208.91 435.863 208.91 435.863H255.531C255.531 435.863 255.332 438.231 254.447 440.2C253.578 442.131 252.278 443.995 249.026 445.621C244.689 447.789 239.268 449.958 232.763 449.958C226.258 449.958 218.627 448.874 215.416 446.705C212.934 445.03 211.276 443.99 209.995 441.284Z" fill="#DFB48B"/>
<path d="M198.069 416.348C195.952 412.114 183.79 415.225 181.806 410.927C177.575 401.756 175.301 390.327 175.301 390.327L214.332 317.685L270.9 348.003C270.9 348.003 279.342 384.003 281.553 406.59C281.844 409.569 266.33 407.933 266.374 410.927C266.457 416.575 260.953 430.442 257.7 433.695C254.618 436.777 244 444.537 232.764 444.537C221.922 444.537 211.841 439.091 208.911 435.863C205.982 432.635 204.574 430.442 202.406 426.105C200.879 423.052 200.238 420.684 198.069 416.348Z" fill="#ECC6A2"/>
<path d="M209.994 447.815C209.994 442.966 208.91 431.552 208.91 431.552L255.53 432.616C255.53 432.616 254.454 443.561 254.446 447.795C254.442 449.964 255.229 454.425 256.615 456.469C257.803 458.221 264.255 457.553 266.372 457.553C270.705 457.553 215.217 483.774 218.745 486.844C219.605 487.592 228.968 485.709 236.556 483.892C237.172 482.99 238.149 482.354 239.58 482.082C251.829 479.748 245.398 481.775 236.556 483.892C232.363 490.027 244.871 508.465 244.871 508.465C244.871 508.465 207.73 519.75 212.197 497.559C212.911 494.013 189.051 461.235 191.568 458.637C194.644 455.462 202.899 461.007 205.657 457.553C207.328 455.46 209.994 451.067 209.994 447.815Z" fill="#ECC6A2"/>
<path d="M168.823 540.935C172.381 533.25 181.833 523.587 181.833 523.587C181.833 523.587 212.227 522.732 231.707 522.503C254.569 522.235 290.254 522.503 290.254 522.503C290.254 522.503 303.906 531.775 305.433 540.935C307.782 555.029 302.18 570.208 297.843 590.808C295.221 603.265 294.591 629.839 294.591 629.839C294.591 629.839 257.379 631.443 234.96 629.839C210.795 628.11 172.076 627.671 172.076 627.671C172.076 627.671 168.744 595.391 167.739 582.134C166.522 566.085 162.061 555.54 168.823 540.935Z" fill="black"/>
<path d="M173.503 467.795L181.833 523.587M181.833 523.587C181.833 523.587 172.381 533.25 168.823 540.935C162.061 555.54 166.522 566.085 167.739 582.134C168.744 595.391 172.076 627.671 172.076 627.671C172.076 627.671 210.795 628.11 234.96 629.839C257.379 631.443 294.591 629.839 294.591 629.839C294.591 629.839 295.221 603.265 297.843 590.808C302.18 570.208 307.782 555.029 305.433 540.935C303.906 531.775 290.254 522.503 290.254 522.503M181.833 523.587C181.833 523.587 212.227 522.732 231.707 522.503C254.569 522.235 290.254 522.503 290.254 522.503M290.254 522.503L294.591 467.795" stroke="black" stroke-width="3" stroke-linecap="round" stroke-linejoin="round"/>
<path d="M203.516 463.956C206.769 468.293 214.465 473.781 221.948 475.883C230.508 478.287 239.963 478.668 247.969 474.798C253.097 472.319 258.811 468.293 260.979 463.956" stroke="#F1B415" stroke-width="2"/>
<path d="M214.333 350.212C221.365 344.591 225.175 335.033 225.175 335.033C225.175 335.033 225.175 340.454 230.596 345.875C239.27 354.548 240.696 353.399 246.859 357.801C254.448 363.222 254.791 365.966 259.869 371.896C263.842 376.534 266.374 385.99 266.374 385.99C266.374 385.99 265.913 377.763 269.627 376.233C272.972 374.854 273.369 379.169 273.964 382.738C275.049 389.243 273.964 395.748 272.88 400.085C272.091 403.24 268.543 409.844 266.374 403.338C264.902 398.919 264.955 411.751 264.206 416.348C262.927 424.199 261.14 429.317 255.719 435.822C253.28 438.749 253.038 450.548 255.719 458.592C257.888 465.098 260.815 467.438 268.543 470.518C279.133 474.739 286.077 468.348 286.077 468.348C286.077 468.348 290.414 457.506 285.89 442.327C282.845 432.11 288.759 418.312 288.057 407.674C287.193 394.577 288.316 389.132 285.89 376.233C283.085 361.316 280.657 355.591 277.404 348.002C274.151 340.412 270.711 329.614 259.869 320.938C249.027 312.263 236.876 309.568 225.175 310.055C209.62 310.701 197.172 317.644 191.565 323.065C181.47 332.823 176.571 341.538 174.403 350.212C171.218 362.952 171.608 377.169 170.967 390.285C170.097 408.093 174.218 423.896 170.967 432.569C163.614 452.185 159.589 461.125 174.403 475.937C177.655 479.19 178.251 484.653 186.144 479.19C194.397 473.477 188.686 475.895 198.257 472.685C207.828 469.474 206.932 465.098 209.099 456.423C211.267 447.748 210.183 436.906 207.828 434.779C205.472 432.653 204.574 429.358 202.405 425.022C199.509 419.229 196.795 401.294 195.902 404.422C193.733 412.011 189.396 403.337 188.312 401.169C186.516 397.576 182.748 382.714 186.144 380.569C189.008 378.761 191.565 382.738 191.565 382.738C191.565 382.738 190.532 378.968 192.649 372.98C196.291 362.678 205.798 357.034 214.333 350.212Z" fill="#26221F"/>
<path d="M190.508 485.64L185.087 474.798L198.674 471.032L197.636 484.727L193.484 481.988L190.508 485.64Z" fill="#26221F"/>
<path d="M271.339 477.423L265.318 468.293H285.918L284.833 474.684L281.719 471.032L277.567 477.423L273.415 474.684L271.339 477.423Z" fill="#26221F"/>
<path d="M205.366 477.632L206.013 467.591L179.857 481.219L183.052 485.041L184.874 481.399L190.676 485.844L189.304 478.38L198.134 478.961L202.338 481.495L202.956 478.075L205.366 477.632Z" fill="#26221F"/>
<path d="M225.072 405.06C225.802 399.468 225.967 384.197 227.985 382.693C230.004 381.188 231.051 399.164 233.467 404.573C235.577 409.299 224.382 410.356 225.072 405.06Z" fill="#E2B78D"/>
<path d="M270.739 402.157C271.823 401.073 272.907 402.158 272.907 404.327C272.907 405.411 271.823 405.41 270.739 404.326" stroke="#DD9F00" stroke-linecap="round"/>
<path d="M268.573 404.326C269.657 404.326 270.742 407.578 269.657 408.662C268.572 409.747 266.404 407.578 267.488 405.409" stroke="#DD9F00" stroke-linecap="round"/>
<path d="M271.332 399.417C272.533 398.463 275.078 400.595 274.35 401.944C274.065 402.471 273.621 403.293 272.272 402.564" stroke="#DD9F00" stroke-linecap="round"/>
<path d="M191.351 404.6C190.267 403.516 189.183 404.601 189.183 406.77C189.183 407.854 190.267 407.853 191.351 406.769" stroke="#DD9F00" stroke-linecap="round"/>
<path d="M193.519 406.768C192.434 406.768 191.349 410.021 192.434 411.105C193.519 412.189 195.687 410.021 194.603 407.852" stroke="#DD9F00" stroke-linecap="round"/>
<path d="M190.757 401.861C189.557 400.906 187.012 403.038 187.74 404.387C188.025 404.914 188.469 405.736 189.818 405.007" stroke="#DD9F00" stroke-linecap="round"/>
<path d="M271.823 383.725C272.123 384.623 272.754 385.222 273.992 384.809C275.23 384.397 275.076 382.641 273.992 382.641" stroke="#DD9F00" stroke-linecap="round"/>
<path d="M231.54 427.21C225.619 427.21 224.9 426.727 219.617 422.873C218.224 421.857 222.866 421.789 227.203 420.704C230.456 420.704 231.081 421.789 231.54 421.789C231.999 421.789 232.624 420.704 234.793 420.705C241.298 421.789 244.91 420.897 243.469 421.789C238.995 424.559 237.461 427.21 231.54 427.21Z" fill="#C94530"/>
<path d="M220.423 373.114C221.266 372.402 220.701 369.873 219.623 369.775C218.544 369.678 211.165 366.876 209.004 366.689C206.341 366.46 204.59 367.398 203.417 368.385C200.794 370.593 199.005 373.998 200.73 372.525C203.112 370.491 206.555 369.906 208.722 369.998C209.805 370.044 211.738 370.754 214.036 371.47C216.334 372.186 219.579 373.826 220.423 373.114Z" fill="#26221F"/>
<ellipse cx="211.494" cy="383.244" rx="3.2526" ry="5.421" transform="rotate(2.62624 211.494 383.244)" fill="black"/>
<path d="M237.464 372.695C236.188 373.09 234.909 371.113 235.763 369.779C236.616 368.445 246.953 365.615 249.375 366.366C251.928 367.157 252.061 367.578 252.782 367.948C254.839 369.004 258.403 373.698 256.742 372.153C255.891 371.361 253.191 370.015 250.785 369.779C247.792 369.485 245.452 369.952 243.126 370.57C240.8 371.188 238.74 372.3 237.464 372.695Z" fill="#26221F"/>
<ellipse cx="245.243" cy="382.505" rx="3.2526" ry="5.421" fill="black"/>
</g>
<defs>
<radialGradient id="paint0_radial_99_415" cx="0" cy="0" r="1" gradientUnits="userSpaceOnUse" gradientTransform="translate(512.307 1208.75) rotate(91.1974) scale(55.1193 357.501)">
<stop stop-color="#7D7B7B" stop-opacity="0.7"/>
<stop offset="1" stop-color="#747474" stop-opacity="0"/>
</radialGradient>
<radialGradient id="paint1_radial_99_415" cx="0" cy="0" r="1" gradientUnits="userSpaceOnUse" gradientTransform="translate(213.111 1282.5) rotate(90.8584) scale(54.7946 165.595)">
<stop stop-color="#7D7B7B" stop-opacity="0.7"/>
<stop offset="1" stop-color="#747474" stop-opacity="0"/>
</radialGradient>
<clipPath id="clip0_99_415">
<rect width="1024" height="1363" fill="white"/>
</clipPath>
</defs>
</svg>
